M48
;Layer_Color=9474304
;FILE_FORMAT=4:3
METRIC,TZ
;TYPE=PLATED
T01F00S00C0.200
T02F00S00C0.300
T03F00S00C0.800
T04F00S00C1.000
T05F00S00C1.100
T06F00S00C2.500
T07F00S00C3.180
%
T01
X149700Y4200
X150200Y7070
X151300Y7400
X151800Y6600
X153300Y6500
X152600Y7500
X146300Y7100
X146700Y4800
X141100Y3600
X140200Y4200
X139200Y5200
X138500Y4700
X132253Y6675
X130747
X129253
X127747
X126253
X124747
X123253
X121744Y6672
X143600Y9139
X80200Y8800
X78200Y8900
X78300Y5100
X79500
X80100Y4800
X80800Y5200
X79100Y2700
X76400Y3300
X74200
X74600Y4800
X74000Y5100
X72800
X75300Y5200
X69800Y5212
X69200Y4700
X68700Y3312
X70900Y3300
X73000Y8800
X66700Y8700
X63700Y9200
X61100Y9000
Y8100
X60100Y8900
X59581Y7281
X57300Y6700
X57000Y4300
X55300Y3000
X59900Y3300
X63200
X63600Y4700
X63000Y5100
X61800
X64300Y5200
X64900Y4600
X67300Y5112
X68500
X57600Y9100
X51000Y4300
X49200Y3000
X26500Y7140
Y7640
Y8140
X25000Y8100
Y7600
Y8600
X24400
X23600Y8200
Y7500
X22400
Y8200
X21600Y8600
X21000
Y8100
Y7600
X25900Y7140
X15000Y7600
Y8100
Y8600
X15600
X13800Y10200
X13500Y11900
X14600Y12500
X15500Y12000
X11400Y12900
X8400Y13300
X8800Y14700
X8400Y15800
X8288Y16588
X8700Y17200
Y18000
X8800Y19100
X8500Y19700
X8400Y20600
X8800Y21300
X8400Y22400
X6000Y22200
X6100Y20200
X6000Y19200
Y17700
X6100Y16700
X5900Y15700
Y14700
X6000Y13400
X6300Y11100
Y10600
X6800Y10000
X6900Y11600
X7700Y11800
X9000
X8900Y25500
X7700
X12500Y24500
X14200Y23800
X15500Y24400
Y31400
X16400
X17300
X18000Y32700
X20892Y32565
Y31965
X21492
Y32565
X22092
Y31965
X25467Y33505
X26967Y33991
X26367Y35691
Y36291
X25467
Y35691
X24000Y35800
X24500Y38300
X25360Y39456
X25960
X26577Y38656
X28452Y37763
X27500Y40900
X25800
X23200Y41000
X22092Y41065
X21492
X20892
Y41665
X21492
X22092
X23000Y42600
X23200Y44200
X23100Y47100
X25500
Y47900
X25600Y46200
Y45600
X26600
Y46200
X27600
Y45600
X27800Y48750
X27275
X28325
X20092Y48765
Y48165
Y47565
Y46965
X19492Y48765
X17893
X17185Y47072
X15309Y47965
X15293Y48765
X14693
X14093
X14200Y45600
Y45000
X15100
Y45600
X14600Y42600
X14900Y41200
X14693Y39665
X14093
X15293
X15309Y38865
X15100Y36500
Y35900
X14200
Y36500
X14200Y33714
X15700Y34200
X12292Y32565
Y31965
X11692
Y32565
X11092
Y31965
X8200Y32700
X7500Y31400
X6600
X5700
X5900Y34200
X4400Y33714
X4400Y35900
Y36500
X5300
Y35900
X5509Y38865
X5493Y39665
X4893
X4293
X5700Y40500
X6600
X7500
X8093Y39665
X9692
X10292
Y39065
Y38465
Y37865
X7385Y37972
X8200Y41800
X11092Y41665
X11692
X12292
Y41065
X11692
X11092
X16400Y40500
X17300Y40500
X17893Y39665
X19492
X20092
Y39065
Y38465
Y37865
X17185Y37972
X18000Y41700
X23000Y39100
X26767Y31191
X27667
X28567
X23300Y24600
Y23800
X23200Y20400
X24200
Y18900
X23100
X22100
X22000Y20400
X19400
X17900Y19400
Y18400
Y17400
X21400Y17700
X22900Y16700
X22600Y14600
X25300
X24986Y13664
Y15564
X26000Y15700
X25600Y18300
X28000Y16700
X27000Y13700
X26576Y13276
X26700Y11320
Y10820
X25900Y10300
X25300Y11100
X22520Y11050
X28800Y12200
X3000Y29800
X2400Y30100
Y29400
X4400Y42814
X5900Y43300
X5300Y45000
Y45600
X4400
Y45000
X4293Y48765
X4893
X5493
X5509Y47965
X7385Y47072
X8093Y48765
X9692
X10292
Y48165
Y47565
Y46965
X30100Y46000
X30700
X34300
Y45400
X35300
Y46000
X36300
Y45400
X38700Y45900
X39300
X40875Y47500
X41375
X41375Y48075
X40850Y48075
X46100Y47000
X46200Y46100
X45600Y45900
X49050Y45550
X49150Y44975
Y44375
X49400Y45950
X49050Y46350
X49150Y47150
Y47950
Y48750
X50150Y48350
X50950Y48350
X50950Y47550
X50150Y47550
X50150Y46750
X54950Y46750
X55750
X55750Y45950
X54950Y45950
Y45150
X56750Y45550
Y46350
Y47150
Y47950
X55750Y47550
X54950Y47550
X54975Y48375
X55750Y48375
X60175Y45925
Y44025
X58750Y42700
X61775Y41275
X61775Y40775
Y40125
X61800Y39450
Y38800
X62450Y38800
X63075Y38825
X63725
Y38175
X64375
X64375Y38825
Y39475
X64050Y39875
Y41175
X66000Y41275
X66125Y39825
X66975Y39475
X66975Y38825
X67350Y38175
X66975Y37525
X66325Y37525
Y36875
X65675Y36875
X65675Y36225
X65025Y36225
X64375Y36225
X63725Y36225
Y36875
X64375
X63075
Y37525
Y38175
X62425Y37525
X62050Y37800
X60600Y37850
X60750Y35900
X62100
X62550Y35250
X63025
X64325
X65025Y35575
X66325Y35575
Y36200
Y34925
Y34275
Y33625
Y32975
X66975
X67625
Y33625
Y34275
Y34925
X66975
Y35575
X68300
X68275Y34925
Y33625
Y32325
X67950Y30975
X66650Y30225
X65675Y30375
Y31025
X65025
X64375
Y31675
X65025Y31675
X65650Y32308
X66325Y32325
Y31675
X63732Y31690
X63075Y31675
X62375Y32000
X62525Y32650
X62375Y33950
X61075
X60900Y31900
X61075Y30050
X62375
X63725Y29725
Y29075
X64375
Y29725
X65025Y29727
Y28425
X64050Y28375
X66000Y28375
X65675Y29075
X66650Y28975
X67950Y28375
Y27075
X66000
X64000Y26000
X61775Y27125
Y27775
X60900Y27600
X60600Y27200
X58600Y28200
X56900
X57400Y27300
X57500Y26500
X56100Y25600
X54900Y24000
X54100Y27275
Y28200
Y29100
X54000Y30000
X54100Y31400
X52400Y31600
X52000Y32100
X50200Y31000
X52400Y27900
X47900Y27400
X43500Y27500
X42600Y28500
X43900Y29900
X44500Y31000
X45300Y30400
X44500Y32400
X45000Y33600
Y34200
X43600Y33900
X43000Y35000
X42400Y35900
X42300Y36800
X43600Y37000
X40700Y36700
Y35100
Y33400
X42600Y32600
X38700Y30300
X39900Y28700
X36900Y28400
X35500Y28100
X34200Y28000
X34700Y27400
X33200Y26500
X32100Y26000
X31600Y28000
X32700Y29200
X32759Y31757
X32159
Y32357
X32759
X33359
Y31757
X35500Y31600
X36100
Y32600
X35500
Y33600
X36100
X35600Y36000
Y36600
X34300Y36900
X31359Y37656
Y39456
X30759
X30800Y40900
X31900Y40600
X32700
X34400Y40800
X36100
X37800
X39400
X40500Y41400
X41300
X42600Y42500
X43600Y42100
X39500Y38600
X29160Y39456
X29200Y40900
X29267Y32491
X29000Y21200
X29600Y18500
X32100Y20000
X33000Y19100
Y20900
X36085Y20715
Y19815
Y19015
X36985
Y19815
Y20715
X37885Y19015
X39800Y18200
X40600Y17300
X39800Y20000
X42600Y19300
Y20900
X39100Y23600
X38200Y24300
X37300Y23700
X36400Y24300
X35500Y23600
X34600Y24300
X33700Y23600
X34100Y12200
X31500
X29800Y13900
X36000Y9550
X42300Y13300
X43300Y14000
X45000Y13900
X45900Y14600
X47100Y13600
X49800Y13100
X50700Y13000
X51500Y12500
X53000Y12600
X56400Y12500
X57900Y12400
X58325Y11975
X60495Y12700
X61771Y12812
X63042Y12875
X64300Y12900
X65995Y12700
X67271Y12824
X68542Y12887
X66700Y14300
Y9700
X63000Y9900
X61200Y14300
X57400Y15800
X55600Y17400
X54900
X54250
X53600Y18400
X54400Y9500
X52000
X51173Y9663
X48600Y9400
X57022Y9613
X64100Y21300
X65000
X66200Y21000
X66400Y22400
X67200Y22575
X67240Y23500
X67600Y24300
X66675Y24100
X67700Y20600
X63725Y31025
X64325Y32650
X64975Y33950
X65025Y37525
X65025Y38175
X65025Y38825
X65675
X63082Y39475
X61075Y39925
X60375Y39850
X67950Y40825
X67988Y42500
X67400Y44800
X68000Y45600
X68100Y48300
X68275Y36225
X57600Y32800
X57109Y31961
X58300Y32000
X58215Y30485
X57200Y30600
X57700Y29600
X69250Y29025
X70225Y29075
Y29725
Y31025
Y31675
Y32325
X69575
X68925
Y32975
Y33625
X68925Y34275
X69575Y34925
X68975Y35650
X70200Y36200
X70875Y36225
X71525
X72175
X72825
Y36875
X73475
X73524Y35900
X73325Y35250
X72800Y35100
X71575Y35250
X70875Y35575
X70925Y33950
X71475Y32650
X72725
X73350
X73625Y32000
X72825Y31675
Y31025
X72175Y31025
Y30375
Y29725
X71525
X70875Y30375
X69250Y30325
X69900Y28375
X70875Y28425
X71850Y28375
X72825Y28425
X73475Y29075
X73525Y30050
X74825Y30050
X74825Y32000
Y33950
X73525
X75500Y34600
X74825Y35900
Y37850
X73525
X73475Y38825
Y39475
X72825
X71850Y39525
X71525Y38825
Y38175
Y37525
X70875
X70225Y38175
Y36875
X69250Y37575
X69200Y38800
X69250Y39350
X69900Y39525
Y40825
X71850
X74125Y40125
X74775
X78100Y39000
X78725Y39250
Y38750
X78700Y37175
Y36675
X77200Y36100
X77262Y32454
X77700Y31600
X72175Y31675
X71850Y27075
X69900
X70700Y24400
X70804Y23604
X71293Y23874
X71900Y23800
X72700
X73700
Y24900
X74125Y27775
X74775
X75600Y27200
X80400Y22900
X80300Y21900
X80800Y21000
X81000Y20000
X82949Y22149
X86400Y24600
Y25300
X91600Y25700
X92049Y22149
X89951
X86400Y19600
Y17300
Y16700
Y11600
X82949Y14149
X80800Y12900
X79542Y12875
X78271Y12812
X76995Y12800
X75300Y12900
X74042Y12875
X72771Y12812
X71495Y12700
X69800Y12912
X70800Y14800
X72200Y14300
X75300Y14800
X77800Y14300
X79500Y17400
X79400Y10000
X78300Y9900
X72900
X70750Y20250
X70100Y23000
X69500Y23700
X68900Y22200
X72175Y37525
Y38175
X71000Y44100
X69632Y45676
X68781Y42419
X71900Y47600
X72925Y47900
X75100Y47600
X82775Y41000
X83100Y39700
X82100Y37000
X86900Y38700
X88388Y37725
X89388Y37763
X89200Y36200
X86900Y35200
X88388Y39763
Y41763
X89388
X90388Y41763
X91388Y41763
X91388Y42763
X90388Y43725
X90388Y44763
X89388
X88388Y44725
Y42763
X89388Y46763
X90388Y46763
X91388Y46763
X92388Y46763
X93388Y46763
X94388
X95388
X96388
Y44763
X95388
X94388Y44763
X93388
X92388
X92400Y43800
X91388Y44763
X90388Y47763
Y39763
X91388
X91388Y38763
X92400Y39800
X93388Y39763
X94388Y40763
X95388
X96388
Y39763
X95388Y38763
Y37763
X94388
X93300Y37800
X92388Y36738
X98000Y38600
X99600Y35900
X105350Y38400
X105700Y40000
X105500Y43100
X107500Y48500
X96388Y41763
X95388Y42763
X95700Y25100
X95500Y19600
Y17400
Y16600
Y11600
X92049Y14149
X89951
X99051
X101249
X104600Y11600
X104900Y16600
X104900Y17300
X104600Y19600
X104700Y25100
X100700Y25800
X101249Y22149
X99051
X108051
Y14149
X106100Y30400
X110500Y28250
Y27250
X111500Y26750
Y27750
X109900Y25900
X110400Y22100
X113800Y19600
Y17300
Y16600
Y11600
X110400Y14100
X117251Y14149
X119600Y13900
X119700Y11900
X122600
X124000
X127000
X128100
X128100Y10100
X127000
X126400Y9500
X128700
X131100Y11900
X132500
X135500
Y10100
X134900Y9500
X135500Y13900
X137300Y14200
X136900Y15800
Y16300
X136700Y17300
X135700Y17800
X135700Y16800
X133900Y18600
X137300Y18800
X140300Y19000
X140000Y18200
X140925Y17450
X140800Y16800
Y16200
X141400
Y16800
X142000
Y16200
X141875Y17450
X142000Y19000
X141150Y19312
X138900Y20500
X137300Y23000
X136900Y24700
Y25200
X136700Y26200
X136100Y27300
X135600Y27900
X134722Y27944
X133800Y27700
X132800Y27800
X132000
X132511Y25311
X132200Y23100
X133300
Y21800
X132200
X129000Y21700
X129300Y22900
Y23800
X127600Y23900
X126900Y24300
X126200Y24800
X125600Y27200
X124300Y27100
X123700Y27700
X123000Y28300
X122400Y27100
X120400
X120900Y29800
X121900
X123500Y31500
X124400
X125300
X127100Y31400
X128000
X128900
X129700
X132500
X133400
X134300
X135200
X136200
X137000
X137900
X140600
X141500
Y33800
X143300Y30300
X142000Y27900
X141150Y28212
X140300Y27900
X140000Y27100
X140925Y26350
X140800Y25700
Y25100
X141400
X142000
Y25700
X141400
X141875Y26350
X143783Y26200
X143800Y26900
X143500Y25700
X143600Y24300
X143100Y24300
X141050Y23400
X139900Y24100
X137300Y27700
X131600Y30500
X131200Y36500
X131145Y38974
X131500Y40600
X130200Y41700
X129100Y40600
X129000Y43400
X129700Y43800
X128000Y43700
X128800Y45100
X129300Y46800
X128100Y47100
X130000Y48900
X131000Y46200
Y44900
X132500Y47200
X134800Y45760
X135200Y43900
X135563Y43221
X136800Y43100
X137000Y44400
Y45300
X136900Y46500
Y47500
X138000Y47200
X137900Y46500
X138600Y45500
X141300Y45600
X146200Y46000
X146100Y47800
X146200Y43300
Y42400
X146300Y40700
Y39700
X146200Y37900
X147000Y37000
X143800
X141300Y40000
X138600Y40100
X138700Y41500
X135200Y39000
X125645Y38974
X123795
X122895
X121995
X121095
X120800Y40000
X120244Y40552
X120250Y41550
X120200Y43600
Y44600
X121200Y45200
X120100Y46100
X120050Y47550
X116100Y48000
X115400Y47500
Y45700
Y43900
X116200Y43000
X117600Y43400
X117500Y41700
X117600Y40700
X116600Y44800
Y46600
X112900Y46500
Y47500
Y48500
X111100Y47900
X110300Y47000
X111800Y45900
X112900Y45500
Y44800
Y44100
Y43000
X113000Y42100
X112900Y41200
X113000Y37900
X109900Y40500
X111500Y33200
X117200Y29500
X117251Y22149
X120200Y21500
X121075Y21575
X121700Y21800
X122400Y21300
X123700
X125000
X126300
X127600
X127000Y22100
X125600
X124300
X123000
X122000Y18300
X121075Y19200
X119800Y18400
X119500Y16800
X124700Y18400
X127100Y18700
X128075Y17800
X128000Y16800
X127000
Y13900
X128100
X129700Y18400
X129400Y19900
X129800Y20500
X129100Y26400
X125000Y28200
X125650Y36700
X123473Y36636
X122700Y36400
X121100Y36500
X121900Y42200
X125600Y42000
X125650Y42900
X125700Y43800
Y45000
X123100Y46100
X125500Y41100
X113900Y25000
X120200Y9500
X120800Y9500
X138900Y11600
X140100Y10400
X141000
X142300Y10500
X143100
X144100
X147900Y9300
X147700Y14100
X147300Y15800
Y16300
X147100Y17300
X147000Y18400
X147700Y18800
X146000Y18000
Y17100
X145900Y16300
Y15800
X143600Y15400
X143100Y15400
X143500Y16800
X143783Y17300
X143800Y18000
X144000Y20700
X145400Y19600
X145900Y24700
Y25200
X145800Y26400
X147200Y26200
X147300Y25200
Y24700
X147700Y23100
X146700Y32400
X141050Y14500
X139900Y15200
X150300
X151450Y14500
X151200Y16200
Y16800
X151800
Y16200
X152400
Y16800
X152275Y17450
X151325
X150400Y18200
X150700Y19000
X151550Y19312
X152400Y19000
X153800Y19400
X154200Y18000
X154183Y17300
X153900Y16800
X154000Y15400
X153500Y15400
X156300Y15800
Y16300
X156400Y17100
Y18000
X154400Y20700
X154000Y24300
X153500Y24300
X153900Y25700
X154183Y26200
X154200Y26900
X153800Y28300
X152400Y27900
X151550Y28212
X150700Y27900
X150400Y27100
X151325Y26350
X151200Y25700
Y25100
X151800
X152400
Y25700
X151800
X152275Y26350
X151450Y23400
X150300Y24100
X149300Y20500
X148497Y27728
X153900Y30300
X154700Y29600
X155462Y30938
X153000Y31300
X153300Y32400
X156400Y26800
X156300Y25200
Y24700
X155945Y13015
X154250Y9750
X149300Y11600
X153700Y43400
X155300Y46100
X161400Y47200
X164000Y41900
Y41000
X163900Y39600
X164000Y38700
X172400Y48400
X176300Y47200
Y44800
X171400Y51600
X170300Y52400
Y50600
X167700Y50600
X168600Y54100
X169600
X170400Y55400
X170000Y56800
Y57700
Y58600
X168300Y59200
X167300Y60000
X166300
X165300
X164300
X163200
X162200Y59800
X161400Y58700
X160700Y57700
X162000Y56800
Y55900
X161100Y54100
X159600
X159400Y51700
X158000Y51900
X156900Y53800
X154700Y57100
X153600Y59800
X152000Y59500
X152100Y61600
X152900Y63300
X153600Y64000
X155800Y62800
X158000Y64600
X160700Y64200
X161500Y63500
X161600Y62500
X161400Y65200
X161700Y67700
X160400Y67800
X158800Y68200
X159300Y69100
Y69700
X160500Y70900
X161700Y70700
Y71600
X163400Y72200
X164600Y73400
X164200Y67700
X168400Y69000
Y69700
X170500Y70400
X169500Y68000
X168600Y62000
X167200Y57100
X166200Y56100
X164700Y58500
X158700Y60400
X156100Y67200
X155400Y66800
Y67900
X154000Y67600
X152700Y68200
X152800Y69800
Y70700
X152100Y70600
X151100Y70900
X151600Y71500
X151950Y72400
X150600Y71800
X150200Y73000
X150900Y73400
X153100
X154400Y72400
X153900Y76300
X150200Y77100
Y70400
X149200Y70500
X148300Y70400
X149200Y61800
X154700Y66300
X153100Y50800
X150300Y49800
X160700
X161400Y49100
X162400Y50300
X146100Y50500
X146500Y52900
X147300
Y53700
X147500Y55000
X146100Y55900
X146175Y56800
Y57700
X146200Y59500
Y61100
X147800Y61800
X147900Y58600
X143800Y60300
X139100Y59900
X138400Y60000
X137400Y61300
X137100Y64600
X136200Y64500
X135300Y64500
X134400Y65300
X133500Y64600
X131700Y64600
X130400Y66800
X129500Y66400
X128500Y66000
X128100Y64600
X127200
X126300
X125400
X124500
X123625Y64575
X122700Y64600
X120100Y64600
X119200Y64400
X118200Y64600
X116700Y65100
X116200Y66800
X116700Y67500
X118500Y67400
X119907Y67350
X120995Y66705
X124600Y66300
X126700Y67700
X127700Y67800
X127800Y68900
Y69500
Y70300
X127000Y70800
X127800Y72000
Y73000
X126700Y74200
X125900Y75851
X122200Y75600
X121200Y74100
X121000Y72800
X120000Y72900
X116500Y72700
X115800Y71700
Y71200
X115800Y70300
X115200Y68200
X113900Y68600
X112600
X111000Y68500
X110100Y68100
X109500Y67600
X108800Y68100
Y66900
X110300Y66200
X111300Y66900
X112000Y65400
X113900Y65300
X113000Y64200
X113600Y62200
X113000Y61200
X111400Y62400
X110600
X108800Y63400
Y61400
X108574Y60426
X109235Y60544
X109500Y58300
X111600Y56500
X112900Y55700
X112400Y54800
X112900Y53000
Y52000
Y50200
X116100
X115400Y49300
Y51100
X116200Y52000
X115600Y53000
X117600Y53574
X117400Y54500
X117700Y55600
X115900Y55700
X117300Y58300
X120100Y55600
X120065Y54510
X120065Y53509
X122700Y53800
X122800Y54500
X122700Y52500
X122800Y51800
Y50500
X125400Y51200
X126300Y51800
X125400Y53200
Y54100
X126400Y54400
X127100Y56400
X127150Y57550
X127200Y60000
X123700
X123650Y57550
X129600Y56400
X132600Y57700
X135300Y55800
X137800Y56100
X138100Y55500
X138694Y54059
X138700Y53000
X138675Y51050
X135900Y50500
Y51800
X133200
X133500Y53800
X131700Y49700
X128400Y50650
X129000Y52300
X120100Y49200
X117400Y49300
X117550Y51550
X108900Y51100
X109400Y53700
X115100Y63500
X115600Y74100
X113819Y75535
X112600Y75500
X121778Y70500
X123400Y72100
X130400Y73100
X132200Y70200
X134200
X134075Y69525
X134100Y68900
X133900Y66900
X136200Y67000
X138000Y64500
X138925Y64500
X139800
Y65500
X140700Y64600
X141600Y64500
X143200Y67800
X143175Y68875
X143200Y69500
X143900Y71200
X145700Y70500
Y69600
Y67800
Y66900
X146400Y72100
X141300Y70200
X140200Y73300
X137600
X135800Y72900
X135000Y72400
X136344Y75737
X137600Y75700
X138100Y57600
X141218Y56359
X141400Y53600
X141300Y52600
X142700Y53300
X141300Y50200
X141700Y49300
X108300Y50200
X107000Y49100
X107500Y57600
X107800Y58300
X106700
X106000Y58000
X105700Y59700
X104600Y60900
X104800Y63000
X105500Y63300
X104800Y64400
X104100Y63800
X102200
X100500Y62800
X99800Y61600
X99100Y61000
X97900Y60700
X97500Y60000
X98000Y58900
X99500Y59250
Y57250
X95800Y57700
X95400Y57000
X94800Y55200
X92700Y58900
X92500Y61500
X94100Y62200
X95100Y61000
X96900Y63100
X98956Y63327
X99800Y65900
X100800Y66300
X98000Y67000
X96828Y67056
X95768
X96250Y68000
X97386Y69346
X100500Y69750
Y70750
X101259Y70998
X101250Y72250
X102500Y72500
X102747Y70603
Y70103
X102500Y69250
X103800Y68900
X104315Y68287
X104300Y66900
X105100Y67400
X105200Y68900
X106600Y68800
Y67500
X107600Y67000
X107700Y68500
X103100Y68100
X105800Y65400
X106500Y62100
X107800Y60900
X103500Y56000
Y55250
X90500Y60500
X88900Y59800
X87500Y60000
X86500
X87000Y61250
X88000
X87800Y63600
X87000
X88600
X91100Y63100
X91900Y64400
X93300
Y63600
X93750Y67000
Y68000
X94000Y69000
X92600Y68600
X91300
X90100
X90000Y68000
Y67400
X89500Y66500
X88565Y67056
X87750Y67250
X87605Y68223
X88250Y68000
X89100Y68500
X86250Y68000
X86000Y67000
X85000Y66750
X84500Y67500
X83250
X82250Y67000
X82750Y66250
X81750
X83000Y64800
X84587Y64354
X84546Y63625
X84578Y62888
X85000Y65500
Y68400
X87600Y70500
X91600Y67300
X92250Y67000
X90750Y65000
X82700Y61600
X80200Y62700
X78100Y62100
X77300Y61400
X76100Y62000
X77000Y64200
X73100
X73700Y65700
X73725Y66600
X73700Y67500
Y68400
X75300Y69700
X79100Y69800
X78000Y72800
X73625Y73000
X73025
X72700Y75800
X71500
X70200Y76300
X69000Y75900
X69421Y72479
X69845Y72055
X70100Y71075
X71000Y71100
X71600Y69300
X75000Y74500
X81500Y74000
X83800Y75500
X93800Y75600
X96000Y74000
X103857Y75511
X105000Y75400
X84500Y58900
X84700Y56800
Y54500
X82600Y57400
X81100Y58000
X79700Y57500
X80700Y60000
X79000Y61000
X78000Y59703
X76460Y54025
X76000Y50500
X74700Y51100
X74500Y52000
X73500Y52500
X71800Y52900
X70300Y52700
Y55600
X72000Y56200
X88600Y50100
Y49200
X67400Y51000
X66900Y59400
X67900Y61600
X66100Y62000
X67800Y65600
Y68300
X64700Y68400
X64681Y66620
X59300Y66800
X59100Y68800
X61025Y68775
X60300Y70700
X58400Y70800
X56700Y71300
X56600Y72300
X55200Y73200
X54200Y73100
X53014Y75845
X51800Y75700
X51300Y70500
X50400
X49500
X48600
X46800Y70500
X45000
X44100Y70400
X43300
X44200Y68800
X41800Y68615
X42500Y66250
X43500Y66675
X44400Y66300
X46800Y66400
X46688Y67488
Y68088
X48500Y68775
X51000Y68800
X54900Y68100
Y67500
X53800Y66300
X57500Y66200
X56700Y68800
X60750Y74500
X63100Y73100
X65900
X68300Y71075
X48600Y73000
X46800
X45000
X43200
X41500Y71800
X41100Y74750
X36900Y73400
X36500Y71200
X37800Y70100
X36500Y67300
X36300Y65000
X36800
X39126Y64925
Y65425
Y65925
X39651
Y65425
Y64925
X37700Y60800
Y60300
X36572Y59810
X35997
X35422
X34822
X34934Y58309
X34200Y58300
X36600Y58700
X36475Y57475
Y56475
X36500Y54950
X36597Y52975
X36022
X35447
X34847
X33072Y52450
Y51975
Y51525
X32122Y52725
X31647
Y53175
X30875Y53150
Y52525
Y51900
Y51275
Y50675
Y50050
Y49400
X30350
X29850
X31400
X31900
X33925Y49250
X34450
X34975
X35475
X39050Y49450
X38975Y50050
X39075Y50650
X39100Y52400
X38400Y54200
X41200Y55800
X42047Y55905
X42600Y57700
X39800Y58400
X43700Y60800
X44275Y62125
X44550Y62575
X44275Y63025
X46200Y62600
X47000Y62900
X46700Y61000
Y59100
X49750Y58150
X50550
X49150Y56750
Y55950
Y54350
Y53550
Y52750
Y51950
Y49950
X50950
X51750
Y50750
X50950
X50150
Y49150
X50950
X51750
X54950Y49150
X55750Y49150
X54950Y49950
X54150Y49950
Y50750
X54950Y50750
X55750Y50750
Y52350
X56750Y52750
Y51950
Y53550
Y54350
Y55150
Y55950
Y56750
Y57550
X55750Y56350
Y55550
Y53950
X51750Y53150
X50950Y53950
X50950Y54750
X50150Y54750
X50950Y52350
X47100Y49950
X44200Y50000
Y49500
Y50500
Y51800
Y52700
X42075Y53200
X45700Y54900
X46000Y55500
X54150Y57150
X35250Y55825
X34200Y54975
X32075Y55200
X30875
X29675
Y56400
Y57600
X30875
X32075
Y56400
X30875Y56400
X30872Y59635
Y60260
Y60885
Y61510
Y62110
Y62735
Y63385
X31397
X31897
X30347
X29847
X29625Y60060
X30100
Y59610
X31622
Y60060
X32097
X33122Y60335
Y60810
Y61260
X32800Y68100
X31000Y67400
X30300Y69400
X31000Y71300
X32900Y71900
X33100Y73300
X34100Y72900
X30200Y74500
X29300Y74400
X29650Y52725
X30125
Y53175
X28700Y52450
Y51975
Y51525
X28325Y49725
X28325Y49250
X27825
Y49750
X27300Y49250
X26925Y52975
X26325
X25750
X25175
X25400Y56000
X25575Y56650
X26625Y57325
X27200
X26800Y58000
Y58600
X26900Y59810
X26300
X25725
X25150
X24300Y58900
Y58000
X22092Y59465
X21492
X20892
Y60065
X21492
X22092
X20092Y57965
Y57365
Y56765
Y56165
X19492Y57965
X17893
X17300Y58900
X16400
X15500
X15293Y57965
X14693
X14093
X15309Y57165
X15100Y54800
Y54200
X14200
Y54800
X14200Y52014
X15700Y52500
X15500Y49700
X16400
X17300
X18000Y51000
X20892Y50865
Y50265
X21492
Y50865
X22092
Y50265
X26300Y55625
X27400Y55200
X28675Y60335
Y60810
Y61260
X27300Y68100
X27400Y69300
Y70600
Y71900
X27500Y72800
Y73700
X22500Y73400
Y75800
X18700
X17500
X16700Y74600
X15100Y74900
X15136Y74164
X13376Y72539
X13000Y72200
X10300Y72700
X10085Y70815
X10985
X9100Y69000
Y68400
X9692Y67165
X10292
Y66565
Y65965
Y65365
X7385Y65472
X8093Y67165
X7700Y69200
X5493Y67165
X4893
X4293
X5509Y66365
X5300Y64000
Y63400
X4400
Y64000
X4400Y61214
X5900Y61700
X5700Y58900
X6600
X7500
X8093Y57965
X9692
X10292
Y57365
Y56765
Y56165
X7385Y56272
X5509Y57165
X5493Y57965
X4893
X4293
X4400Y54800
Y54200
X5300
Y54800
X5900Y52500
X4400Y52014
X5700Y49700
X6600
X7500
X8200Y51000
X11092Y50865
Y50265
X11692
X12292
Y50865
X11692
X11692Y59465
X12292
Y60065
X11692
X11092
Y59465
X8200Y60200
X14200Y61200
X15700Y61700
X15100Y63400
Y64000
X14200
Y63400
X14093Y67165
X14693
X15293
X15309Y66365
X17185Y65472
X17893Y67165
X19492
X20092
Y66565
Y65965
Y65365
X20000Y69400
X20200Y71400
X17400
X17800Y69300
X23200Y70500
X18000Y60200
X17185Y56272
X12300Y76800
X11300Y77000
T02
X148442Y2018
X149342
X150242
X151142
X152042
X152942
X153842
X154742
X155642
X156542
X157442
X158342
X159242
X160142
X161042
X161942
X162842
X163742
X164642
X165542
X166442
X167342
X168242
X169142
X170042
X170942
X171842
X172742
X173639Y1945
X174420Y1498
X175245Y1138
X176140Y1043
X177022Y1220
X177810Y1654
X178432Y2305
X178830Y3112
X178975Y4000
X178982Y4900
Y5800
Y6700
X178982Y7600
Y8500
X147542Y2018
X146642
X145742
X144842Y2018
X143942
X143042
X142142
X141242
X140342
X139442
X138542
X137642
X136742
X135842
X134942
X134042
X133142
X132242
X131342
X130442
X129542
X128642
X127742
X126842
X125942
X125042
X124142
X123242
X122342
X121442
X120542
X119642
X118742
X117842
X116942Y2018
X116042
X115142
X114242
X113342
X112442
X111542
X110642
X109742
X108842
X107942
X107042
X106142
X105242
X104342
X103442
X102542
X101642
X100742
X99842
X98942
X98042
X97142
X96242
X95342
X94442
X93542
X92642
X91742
X90842
X89942
X89042Y2018
X88142
X87242
X86342
X85442
X84542
X83642
X82742
X81842
X80942
X80042
X79142
X78242
X77342
X76442
X75542
X74642
X73742
X72842
X71942
X71042
X70142
X69242
X68342
X67442
X66542
X65642
X64742
X63842
X62942
X62042
X61142Y2018
X60242
X59342
X58442
X57542
X56642
X55742
X54842
X53942
X53042
X52142
X51242
X50342
X49442
X48542
X47642
X46742
X45842
X44942
X44042
X43142
X42242
X41342
X40442
X39542
X38642
X37742
X36842
X35942
X35042
X34142
X33242Y2018
X32342
X31442
X30542
X29642
X28742
X27842
X26942
X26042
X25142
X24242
X23342
X22442
X21542
X20642
X19742
X18842
X17942
X17042
X16142
X15242
X14342
X13442
X12542
X11642
X10742
X9842
X8942
X8042
X7142
X6248Y1911
X5483Y1438
X4644Y1111
X3746Y1052
X2872Y1264
X2102Y1730
X1507Y2405
X1142Y3228
X1038Y4122
X1038Y5022
X1037Y5922
X1037Y6822
X1037Y7722
X1037Y8622
X1036Y9522
X1036Y10422
X1036Y11322
X1036Y12222
X1035Y13122
X1035Y14022
X1035Y14922
X1035Y15822
X1035Y16722
X1034Y17622
X1034Y18522
X1034Y19422
X1034Y20322
X1033Y21222
X1033Y22122
X1033Y23022
X1033Y23922
X1032Y24822
X1032Y25722
X1032Y26622
X1032Y27522
X1031Y28422
X1031Y29322
X1031Y30222
X1031Y31122
X1030Y32022
X1030Y32922
X1030Y33822
X1030Y34722
X1029Y35622
X1029Y36522
X1029Y37422
X1029Y38322
X1028Y39222
X1028Y40122
X1028Y41022
X1028Y41922
X1027Y42822
X1027Y43722
X1027Y44622
X1027Y45522
X1026Y46422
X1026Y47322
X1026Y48222
X178982Y48100
Y47200
Y46300
Y45400
X178982Y44500
Y43600
Y42700
Y41800
X178982Y40900
Y40000
Y39100
X178982Y38200
Y37300
Y36400
Y35500
X178982Y34600
Y33700
Y32800
Y31900
X178982Y31000
Y30100
Y29200
Y28300
X178982Y27400
Y26500
Y25600
Y24700
X178982Y23800
Y22900
Y22000
X178982Y21100
Y20200
Y19300
Y18400
X178982Y17500
Y16600
Y15700
Y14800
X178982Y13900
Y13000
Y12100
Y11200
X178982Y10300
Y9400
X178982Y49000
Y49900
Y50800
Y51700
X178982Y52600
Y53500
Y54400
Y55300
X178982Y56200
Y57100
Y58000
X178982Y58900
Y59800
Y60700
Y61600
X178982Y62500
Y63400
Y64300
Y65200
X178982Y66100
Y67000
Y67900
Y68800
X178982Y69700
Y70600
Y71500
Y72400
X178982Y73300
Y74200
Y75100
X178978Y76000
X178849Y76891
X178452Y77699
X177833Y78352
X177047Y78790
X176166Y78975
X175266Y78982
X174366
X173466
X172566
X171666
X170766
X169866
X168966
X168066
X167166
X166266
X165366
X164466
X163566
X162666
X161766
X160866
X159966
X159066
X158166
X157266
X156366
X155466
X154566
X153666
X152766
X151866
X150966
X150066
X149166
X148266
X147366
X146466
X145566
X144666
X143766
X142866
X141966
X141066
X140166
X139266
X138366
X137466
X136566
X135666
X134766
X133866
X132966
X132066
X131166
X130266
X129366
X128466
X127566
X126666
X125766
X124866
X123966
X123066
X122166
X121266
X120366
X119466
X118566
X117666
X116766
X115866
X114966
X114066
X113166
X112266
X111366
X110466
X109566
X108666
X107766
X106866
X105966
X105066
X104166
X103266
X102366
X101466
X100566
X99666
X98766
X97866
X96966
X96066
X95166
X94266
X93366
X92466
X91566
X90666
X89766
X88866
X87966
X87066
X86166
X85266
X84366
X83466
X82566
X81666
X80766
X79866
X78966
X78066
X77166
X76266
X75366
X74466
X73566
X72666
X71766
X70866
X69966
X69066
X68166
X67266
X66366
X65466
X64566
X63666
X62766
X61866
X60966
X60066
X59166
X58266
X57366
X56466
X55566
X54666
X53766
X52867
X51966
X51067
X50167
X49267
X48367
X47467
X46567
X45667
X44767
X43867
X42967
X42067
X41167
X40267
X39367
X38467
X37567
X36667
X35767
X34867
X33967
X33067
X32167
X31267
X30367
X29467
X28567
X27667
X26767
X25867
X24967
X24067
X23167
X22267
X21367
X20467
X19567
X18667
X17767
X16867
X15967
X15067
X14167
X13267
X12367
X11467
X10567
X9667
X8767
X7867
X6967
X6067
X5167
X3951Y78984
X3063Y78836
X2261Y78428
X1619Y77798
X1192Y77005
X1022Y76122
X1019Y75222
X1019Y74322
X1019Y73422
X1019Y72522
X1020Y71622
X1020Y70722
X1020Y69822
X1020Y68922
X1021Y68022
X1021Y67122
X1021Y66222
X1021Y65322
X1022Y64422
X1022Y63522
X1022Y62622
X1022Y61722
X1022Y60822
X1023Y59922
X1023Y59022
X1023Y58122
X1023Y57222
X1024Y56322
X1024Y55422
X1024Y54522
X1024Y53622
X1025Y52722
X1025Y51822
X1025Y50922
X1025Y50022
X1026Y49122
T03
X32700Y4600
X44700Y4700
X8250Y3700
X2450Y8175
X2425Y9850
X167764Y65961
X170025Y65950
X2750Y69725
Y71575
T04
X158880Y13990
Y16530
Y19070
Y21610
Y24150
Y26690
Y29230
Y31770
Y34310
Y36850
Y39390
Y41930
Y44470
Y47010
X174120
Y44470
Y41930
Y39390
Y36850
Y34310
Y31770
Y29230
Y26690
Y24150
Y21610
Y19070
Y16530
Y13990
T05
X5110Y27000
X7650
X10190
X12730
X15270
X17810
X20350
X22890
X174000Y52300
Y54840
Y57380
Y59920
Y62460
Y65000
Y67540
Y70080
T06
X32600Y8300
T07
X176000Y4000
X4000
X176000Y76000
X4000
M30
