G04*
G04 #@! TF.GenerationSoftware,Altium Limited,Altium Designer,25.8.1 (18)*
G04*
G04 Layer_Color=128*
%FSLAX44Y44*%
%MOMM*%
G71*
G04*
G04 #@! TF.SameCoordinates,FE838CB8-C293-45CF-A6AF-E0F13663FADA*
G04*
G04*
G04 #@! TF.FilePolarity,Positive*
G04*
G01*
G75*
%ADD14C,0.1270*%
D14*
X1734500Y700800D02*
X1745500D01*
X1740000Y695300D02*
Y706300D01*
X1734500Y548400D02*
X1745500D01*
X1740000Y542900D02*
Y553900D01*
X1734500Y573800D02*
X1745500D01*
X1740000Y568300D02*
Y579300D01*
X1734500Y523000D02*
X1745500D01*
X1740000Y517500D02*
Y528500D01*
X1734500Y624600D02*
X1745500D01*
X1740000Y619100D02*
Y630100D01*
X1734500Y599200D02*
X1745500D01*
X1740000Y593700D02*
Y604700D01*
X1734500Y675400D02*
X1745500D01*
X1740000Y669900D02*
Y680900D01*
X1734500Y650000D02*
X1745500D01*
X1740000Y644500D02*
Y655500D01*
X223400Y270000D02*
X234400D01*
X228900Y264500D02*
Y275500D01*
X96400Y270000D02*
X107400D01*
X101900Y264500D02*
Y275500D01*
X121800Y270000D02*
X132800D01*
X127300Y264500D02*
Y275500D01*
X147200Y270000D02*
X158200D01*
X152700Y264500D02*
Y275500D01*
X71000Y270000D02*
X82000D01*
X76500Y264500D02*
Y275500D01*
X45600Y270000D02*
X56600D01*
X51100Y264500D02*
Y275500D01*
X198000Y270000D02*
X209000D01*
X203500Y264500D02*
Y275500D01*
X172600Y270000D02*
X183600D01*
X178100Y264500D02*
Y275500D01*
X443000Y47000D02*
X451000D01*
X447000Y43000D02*
Y51000D01*
X20500Y81750D02*
X28500D01*
X24500Y77750D02*
Y85750D01*
X20250Y98500D02*
X28250D01*
X24250Y94500D02*
Y102500D01*
X323000Y46000D02*
X331000D01*
X327000Y42000D02*
Y50000D01*
X78500Y37000D02*
X86500D01*
X82500Y33000D02*
Y41000D01*
X23500Y697250D02*
X31500D01*
X27500Y693250D02*
Y701250D01*
X23500Y715750D02*
X31500D01*
X27500Y711750D02*
Y719750D01*
X1696250Y659500D02*
X1704250D01*
X1700250Y655500D02*
Y663500D01*
X1673643Y659607D02*
X1681643D01*
X1677643Y655607D02*
Y663607D01*
X1744100Y760000D02*
X1775900D01*
X1760000Y744100D02*
Y775900D01*
X1736200Y444700D02*
X1746200D01*
X1741200Y439700D02*
Y449700D01*
X1583800Y470100D02*
X1593800D01*
X1588800Y465100D02*
Y475100D01*
X1744100Y40000D02*
X1775900D01*
X1760000Y24100D02*
Y55900D01*
X24100Y760000D02*
X55900D01*
X40000Y744100D02*
Y775900D01*
X24100Y40000D02*
X55900D01*
X40000Y24100D02*
Y55900D01*
X1736200Y419300D02*
X1746200D01*
X1741200Y414300D02*
Y424300D01*
X1736200Y393900D02*
X1746200D01*
X1741200Y388900D02*
Y398900D01*
X1736200Y368500D02*
X1746200D01*
X1741200Y363500D02*
Y373500D01*
X1736200Y343100D02*
X1746200D01*
X1741200Y338100D02*
Y348100D01*
X1736200Y470100D02*
X1746200D01*
X1741200Y465100D02*
Y475100D01*
X1583800Y444700D02*
X1593800D01*
X1588800Y439700D02*
Y449700D01*
X1583800Y419300D02*
X1593800D01*
X1588800Y414300D02*
Y424300D01*
X1583800Y393900D02*
X1593800D01*
X1588800Y388900D02*
Y398900D01*
X1736200Y165300D02*
X1746200D01*
X1741200Y160300D02*
Y170300D01*
X1736200Y139900D02*
X1746200D01*
X1741200Y134900D02*
Y144900D01*
X1736200Y190700D02*
X1746200D01*
X1741200Y185700D02*
Y195700D01*
X1736200Y216100D02*
X1746200D01*
X1741200Y211100D02*
Y221100D01*
X1736200Y266900D02*
X1746200D01*
X1741200Y261900D02*
Y271900D01*
X1736200Y241500D02*
X1746200D01*
X1741200Y236500D02*
Y246500D01*
X1736200Y292300D02*
X1746200D01*
X1741200Y287300D02*
Y297300D01*
X1736200Y317700D02*
X1746200D01*
X1741200Y312700D02*
Y322700D01*
X1583800Y292300D02*
X1593800D01*
X1588800Y287300D02*
Y297300D01*
X1583800Y317700D02*
X1593800D01*
X1588800Y312700D02*
Y322700D01*
X1583800Y266900D02*
X1593800D01*
X1588800Y261900D02*
Y271900D01*
X1583800Y241500D02*
X1593800D01*
X1588800Y236500D02*
Y246500D01*
X1583800Y190700D02*
X1593800D01*
X1588800Y185700D02*
Y195700D01*
X1583800Y216100D02*
X1593800D01*
X1588800Y211100D02*
Y221100D01*
X1583800Y165300D02*
X1593800D01*
X1588800Y160300D02*
Y170300D01*
X1583800Y139900D02*
X1593800D01*
X1588800Y134900D02*
Y144900D01*
X1583800Y343100D02*
X1593800D01*
X1588800Y338100D02*
Y348100D01*
X1583800Y368500D02*
X1593800D01*
X1588800Y363500D02*
Y373500D01*
X313500Y83000D02*
X338500D01*
X326000Y70500D02*
Y95500D01*
X582250Y119750D02*
X584250D01*
X583250Y118750D02*
Y120750D01*
X295751Y552000D02*
X297751D01*
X296751Y551000D02*
Y553000D01*
X307751Y552000D02*
X309751D01*
X308751Y551000D02*
Y553000D01*
X319751Y552000D02*
X321751D01*
X320751Y551000D02*
Y553000D01*
X319751Y576000D02*
X321751D01*
X320751Y575000D02*
Y577000D01*
X307751Y576000D02*
X309751D01*
X308751Y575000D02*
Y577000D01*
X295751Y576000D02*
X297751D01*
X296751Y575000D02*
Y577000D01*
X319751Y564000D02*
X321751D01*
X320751Y563000D02*
Y565000D01*
X295751Y563999D02*
X297751D01*
X296751Y562999D02*
Y565000D01*
X307752Y563999D02*
X309752D01*
X308752Y562999D02*
Y565000D01*
X122000Y768000D02*
X124000D01*
X123000Y767000D02*
Y769000D01*
X803000Y229000D02*
X805000D01*
X804000Y228000D02*
Y230000D01*
X1045000Y609000D02*
X1047000D01*
X1046000Y608000D02*
Y610000D01*
X1352000Y645000D02*
X1354000D01*
X1353000Y644000D02*
Y646000D01*
X485000Y94000D02*
X487000D01*
X486000Y93000D02*
Y95000D01*
X802000Y219000D02*
X804000D01*
X803000Y218000D02*
Y220000D01*
X1056000Y597000D02*
X1058000D01*
X1057000Y596000D02*
Y598000D01*
X1415000Y645000D02*
X1417000D01*
X1416000Y644000D02*
Y646000D01*
X543000Y95000D02*
X545000D01*
X544000Y94000D02*
Y96000D01*
X807000Y210000D02*
X809000D01*
X808000Y209000D02*
Y211000D01*
X1052500Y384000D02*
X1054500D01*
X1053500Y383000D02*
Y385000D01*
X1462000Y397000D02*
X1464000D01*
X1463000Y396000D02*
Y398000D01*
X1094000Y583000D02*
X1096000D01*
X1095000Y582000D02*
Y584000D01*
X1173000Y493000D02*
X1175000D01*
X1174000Y492000D02*
Y494000D01*
X1128000Y485000D02*
X1130000D01*
X1129000Y484000D02*
Y486000D01*
X1128000Y465000D02*
X1130000D01*
X1129000Y464000D02*
Y466000D01*
X1128000Y455000D02*
X1130000D01*
X1129000Y454000D02*
Y456000D01*
X1128000Y441000D02*
X1130000D01*
X1129000Y440000D02*
Y442000D01*
X273000Y693000D02*
X275000D01*
X274000Y692000D02*
Y694000D01*
X273000Y706000D02*
X275000D01*
X274000Y705000D02*
Y707000D01*
X467000Y664000D02*
X469000D01*
X468000Y663000D02*
Y665000D01*
X673000Y448000D02*
X675000D01*
X674000Y447000D02*
Y449000D01*
X43000Y337138D02*
X45000D01*
X44000Y336138D02*
Y338138D01*
X141000Y337138D02*
X143000D01*
X142000Y336138D02*
Y338138D01*
X101920Y390653D02*
X103920D01*
X102920Y389653D02*
Y391653D01*
X101920Y378653D02*
X103920D01*
X102920Y377653D02*
Y379653D01*
X101920Y384653D02*
X103920D01*
X102920Y383653D02*
Y385653D01*
X199920Y390653D02*
X201920D01*
X200920Y389652D02*
Y391652D01*
X199920Y378653D02*
X201920D01*
X200920Y377653D02*
Y379653D01*
X199920Y384652D02*
X201920D01*
X200920Y383652D02*
Y385653D01*
X639000Y260000D02*
X641000D01*
X640000Y259000D02*
Y261000D01*
X609750Y300500D02*
X611750D01*
X610750Y299500D02*
Y301500D01*
X616750Y271250D02*
X618750D01*
X617750Y270250D02*
Y272250D01*
X636250Y310250D02*
X638250D01*
X637250Y309250D02*
Y311250D01*
X642750Y310250D02*
X644750D01*
X643750Y309250D02*
Y311250D01*
X659000Y270750D02*
X661000D01*
X660000Y269750D02*
Y271750D01*
X665500Y289750D02*
X667500D01*
X666500Y288750D02*
Y290750D01*
X649250Y297270D02*
X651250D01*
X650250Y296270D02*
Y298270D01*
X678500Y270750D02*
X680500D01*
X679500Y269750D02*
Y271750D01*
X698000Y270750D02*
X700000D01*
X699000Y269750D02*
Y271750D01*
X717500Y270750D02*
X719500D01*
X718500Y269750D02*
Y271750D01*
X691500Y290250D02*
X693500D01*
X692500Y289250D02*
Y291250D01*
X678500Y309750D02*
X680500D01*
X679500Y308750D02*
Y310750D01*
X701250Y297250D02*
X703250D01*
X702250Y296250D02*
Y298250D01*
X746750Y277750D02*
X748750D01*
X747750Y276750D02*
Y278750D01*
X747250Y300500D02*
X749250D01*
X748250Y299500D02*
Y301500D01*
X720750Y303750D02*
X722750D01*
X721750Y302750D02*
Y304750D01*
X720750Y310250D02*
X722750D01*
X721750Y309250D02*
Y311250D01*
X608000Y319000D02*
X610000D01*
X609000Y318000D02*
Y320000D01*
X624250Y326500D02*
X626250D01*
X625250Y325500D02*
Y327500D01*
X609750Y339500D02*
X611750D01*
X610750Y338500D02*
Y340500D01*
X629250Y352500D02*
X631250D01*
X630250Y351500D02*
Y353500D01*
X649250Y316750D02*
X651250D01*
X650250Y315750D02*
Y317750D01*
X662250Y316750D02*
X664250D01*
X663250Y315750D02*
Y317750D01*
X648750Y339500D02*
X650750D01*
X649750Y338500D02*
Y340500D01*
X675250Y336250D02*
X677250D01*
X676250Y335250D02*
Y337250D01*
X606500Y359000D02*
X608500D01*
X607500Y358000D02*
Y360000D01*
X636250Y368750D02*
X638250D01*
X637250Y367750D02*
Y369750D01*
X642750Y368750D02*
X644750D01*
X643750Y367750D02*
Y369750D01*
X605000Y378500D02*
X607000D01*
X606000Y377500D02*
Y379500D01*
X655750Y362250D02*
X657750D01*
X656750Y361250D02*
Y363250D01*
X662250Y362000D02*
X664250D01*
X663250Y361000D02*
Y363000D01*
X649250Y381750D02*
X651250D01*
X650250Y380750D02*
Y382750D01*
X668750Y388250D02*
X670750D01*
X669750Y387250D02*
Y389250D01*
X701250Y316750D02*
X703250D01*
X702250Y315750D02*
Y317750D01*
X701250Y323250D02*
X703250D01*
X702250Y322250D02*
Y324250D01*
X681750Y336250D02*
X683750D01*
X682750Y335250D02*
Y337250D01*
X708250Y339500D02*
X710250D01*
X709250Y338500D02*
Y340500D01*
X726250Y326500D02*
X728250D01*
X727250Y325500D02*
Y327500D01*
X727000Y351000D02*
X729000D01*
X728000Y350000D02*
Y352000D01*
X681750Y362250D02*
X683750D01*
X682750Y361250D02*
Y363250D01*
X701000Y362000D02*
X703000D01*
X702000Y361000D02*
Y363000D01*
X691000Y388000D02*
X693000D01*
X692000Y387000D02*
Y389000D01*
X701250Y381750D02*
X703250D01*
X702250Y380750D02*
Y382750D01*
X707750Y362250D02*
X709750D01*
X708750Y361250D02*
Y363250D01*
X714250Y362250D02*
X716250D01*
X715250Y361250D02*
Y363250D01*
X720750Y375250D02*
X722750D01*
X721750Y374250D02*
Y376250D01*
X43000Y428138D02*
X45000D01*
X44000Y427138D02*
Y429138D01*
X95920Y396653D02*
X97920D01*
X96920Y395653D02*
Y397653D01*
X79931Y396653D02*
X81931D01*
X80931Y395653D02*
Y397653D01*
X101920Y396653D02*
X103920D01*
X102920Y395653D02*
Y397653D01*
X101920Y469653D02*
X103920D01*
X102920Y468653D02*
Y470653D01*
X79931Y487653D02*
X81931D01*
X80931Y486652D02*
Y488652D01*
X101920Y487653D02*
X103920D01*
X102920Y486652D02*
Y488652D01*
X95920Y487653D02*
X97920D01*
X96920Y486652D02*
Y488652D01*
X101920Y475653D02*
X103920D01*
X102920Y474653D02*
Y476653D01*
X101920Y481653D02*
X103920D01*
X102920Y480653D02*
Y482653D01*
X43000Y520138D02*
X45000D01*
X44000Y519138D02*
Y521138D01*
X101920Y573652D02*
X103920D01*
X102920Y572653D02*
Y574652D01*
X141000Y520138D02*
X143000D01*
X142000Y519138D02*
Y521138D01*
X101920Y561653D02*
X103920D01*
X102920Y560653D02*
Y562653D01*
X101920Y567653D02*
X103920D01*
X102920Y566653D02*
Y568653D01*
X79931Y579652D02*
X81931D01*
X80931Y578652D02*
Y580653D01*
X95920Y579652D02*
X97920D01*
X96920Y578652D02*
Y580653D01*
X101920Y579652D02*
X103920D01*
X102920Y578652D02*
Y580653D01*
X177931Y396652D02*
X179931D01*
X178931Y395653D02*
Y397653D01*
X199920Y396652D02*
X201920D01*
X200920Y395653D02*
Y397653D01*
X193920Y396652D02*
X195920D01*
X194920Y395653D02*
Y397653D01*
X199920Y475653D02*
X201920D01*
X200920Y474652D02*
Y476652D01*
X199920Y481652D02*
X201920D01*
X200920Y480653D02*
Y482653D01*
X199920Y469653D02*
X201920D01*
X200920Y468653D02*
Y470653D01*
X177931Y487653D02*
X179931D01*
X178931Y486652D02*
Y488652D01*
X199920Y487653D02*
X201920D01*
X200920Y486652D02*
Y488652D01*
X193920Y487653D02*
X195920D01*
X194920Y486652D02*
Y488652D01*
X199920Y561653D02*
X201920D01*
X200920Y560653D02*
Y562653D01*
X199920Y567653D02*
X201920D01*
X200920Y566653D02*
Y568653D01*
X199920Y573652D02*
X201920D01*
X200920Y572653D02*
Y574652D01*
X177931Y579652D02*
X179931D01*
X178931Y578652D02*
Y580653D01*
X199920Y579652D02*
X201920D01*
X200920Y578652D02*
Y580653D01*
X193920Y579652D02*
X195920D01*
X194920Y578652D02*
Y580653D01*
X43000Y612138D02*
X45000D01*
X44000Y611138D02*
Y613138D01*
X95920Y671653D02*
X97920D01*
X96920Y670653D02*
Y672653D01*
X101920Y665653D02*
X103920D01*
X102920Y664653D02*
Y666653D01*
X101920Y671653D02*
X103920D01*
X102920Y670653D02*
Y672653D01*
X101920Y653653D02*
X103920D01*
X102920Y652653D02*
Y654653D01*
X101920Y659653D02*
X103920D01*
X102920Y658653D02*
Y660653D01*
X79931Y671653D02*
X81931D01*
X80931Y670653D02*
Y672653D01*
X177931Y671653D02*
X179931D01*
X178931Y670652D02*
Y672653D01*
X199920Y653653D02*
X201920D01*
X200920Y652653D02*
Y654653D01*
X199920Y659653D02*
X201920D01*
X200920Y658653D02*
Y660653D01*
X199920Y671653D02*
X201920D01*
X200920Y670652D02*
Y672653D01*
X193920Y671653D02*
X195920D01*
X194920Y670652D02*
Y672653D01*
X199920Y665652D02*
X201920D01*
X200920Y664652D02*
Y666653D01*
X602750Y398500D02*
X604750D01*
X603750Y397500D02*
Y399500D01*
X639500Y398750D02*
X641500D01*
X640500Y397750D02*
Y399750D01*
X616750Y407750D02*
X618750D01*
X617750Y406750D02*
Y408750D01*
X746750Y401250D02*
X748750D01*
X747750Y400250D02*
Y402250D01*
X698000Y408250D02*
X700000D01*
X699000Y407250D02*
Y409250D01*
X678500Y408250D02*
X680500D01*
X679500Y407250D02*
Y409250D01*
X717500Y408250D02*
X719500D01*
X718500Y407250D02*
Y409250D01*
X747250Y320000D02*
X749250D01*
X748250Y319000D02*
Y321000D01*
X747250Y339500D02*
X749250D01*
X748250Y338500D02*
Y340500D01*
X747250Y359000D02*
X749250D01*
X748250Y358000D02*
Y360000D01*
X747250Y378500D02*
X749250D01*
X748250Y377500D02*
Y379500D01*
X1372000Y142000D02*
X1374000D01*
X1373000Y141000D02*
Y143000D01*
X1398000Y152000D02*
X1400000D01*
X1399000Y151000D02*
Y153000D01*
X1435000Y154000D02*
X1437000D01*
X1436000Y153000D02*
Y155000D01*
X1430000Y154000D02*
X1432000D01*
X1431000Y153000D02*
Y155000D01*
X1476000Y141000D02*
X1478000D01*
X1477000Y140000D02*
Y142000D01*
X1407000Y162000D02*
X1409000D01*
X1408000Y161000D02*
Y163000D01*
X1407000Y168000D02*
X1409000D01*
X1408000Y167000D02*
Y169000D01*
X1413000Y168000D02*
X1415000D01*
X1414000Y167000D02*
Y169000D01*
X1419000Y162000D02*
X1421000D01*
X1420000Y161000D02*
Y163000D01*
X1413000Y162000D02*
X1415000D01*
X1414000Y161000D02*
Y163000D01*
X1419000Y168000D02*
X1421000D01*
X1420000Y167000D02*
Y169000D01*
X1502000Y152000D02*
X1504000D01*
X1503000Y151000D02*
Y153000D01*
X1539000Y154000D02*
X1541000D01*
X1540000Y153000D02*
Y155000D01*
X1534000Y154000D02*
X1536000D01*
X1535000Y153000D02*
Y155000D01*
X1511000Y162000D02*
X1513000D01*
X1512000Y161000D02*
Y163000D01*
X1511000Y168000D02*
X1513000D01*
X1512000Y167000D02*
Y169000D01*
X1517000Y168000D02*
X1519000D01*
X1518000Y167000D02*
Y169000D01*
X1523000Y162000D02*
X1525000D01*
X1524000Y161000D02*
Y163000D01*
X1517000Y162000D02*
X1519000D01*
X1518000Y161000D02*
Y163000D01*
X1523000Y168000D02*
X1525000D01*
X1524000Y167000D02*
Y169000D01*
X1459000Y171000D02*
X1461000D01*
X1460000Y170000D02*
Y172000D01*
X1408251Y174502D02*
X1410251D01*
X1409251Y173502D02*
Y175502D01*
X1459000Y180000D02*
X1461000D01*
X1460000Y179000D02*
Y181000D01*
X1399000Y182000D02*
X1401000D01*
X1400000Y181000D02*
Y183000D01*
X1372000Y230000D02*
X1374000D01*
X1373000Y229000D02*
Y231000D01*
X1476000D02*
X1478000D01*
X1477000Y230000D02*
Y232000D01*
X1398000Y241000D02*
X1400000D01*
X1399000Y240000D02*
Y242000D01*
X1407000Y251000D02*
X1409000D01*
X1408000Y250000D02*
Y252000D01*
X1407000Y257000D02*
X1409000D01*
X1408000Y256000D02*
Y258000D01*
X1408251Y263502D02*
X1410251D01*
X1409251Y262502D02*
Y264502D01*
X1399000Y271000D02*
X1401000D01*
X1400000Y270000D02*
Y272000D01*
X1413000Y251000D02*
X1415000D01*
X1414000Y250000D02*
Y252000D01*
X1419000Y251000D02*
X1421000D01*
X1420000Y250000D02*
Y252000D01*
X1413000Y257000D02*
X1415000D01*
X1414000Y256000D02*
Y258000D01*
X1419000Y257000D02*
X1421000D01*
X1420000Y256000D02*
Y258000D01*
X1435000Y243000D02*
X1437000D01*
X1436000Y242000D02*
Y244000D01*
X1430000Y243000D02*
X1432000D01*
X1431000Y242000D02*
Y244000D01*
X1457000Y264000D02*
X1459000D01*
X1458000Y263000D02*
Y265000D01*
X1512251Y174502D02*
X1514251D01*
X1513251Y173502D02*
Y175502D01*
X1503000Y182000D02*
X1505000D01*
X1504000Y181000D02*
Y183000D01*
X1502000Y241000D02*
X1504000D01*
X1503000Y240000D02*
Y242000D01*
X1517000Y251000D02*
X1519000D01*
X1518000Y250000D02*
Y252000D01*
X1511000Y251000D02*
X1513000D01*
X1512000Y250000D02*
Y252000D01*
X1539000Y243000D02*
X1541000D01*
X1540000Y242000D02*
Y244000D01*
X1523000Y251000D02*
X1525000D01*
X1524000Y250000D02*
Y252000D01*
X1534000Y243000D02*
X1536000D01*
X1535000Y242000D02*
Y244000D01*
X1563000Y180000D02*
X1565000D01*
X1564000Y179000D02*
Y181000D01*
X1563000Y171000D02*
X1565000D01*
X1564000Y170000D02*
Y172000D01*
X1511000Y257000D02*
X1513000D01*
X1512000Y256000D02*
Y258000D01*
X1512251Y263502D02*
X1514251D01*
X1513251Y262502D02*
Y264502D01*
X1523000Y257000D02*
X1525000D01*
X1524000Y256000D02*
Y258000D01*
X1517000Y257000D02*
X1519000D01*
X1518000Y256000D02*
Y258000D01*
X1563000Y268000D02*
X1565000D01*
X1564000Y267000D02*
Y269000D01*
X1503000Y271000D02*
X1505000D01*
X1504000Y270000D02*
Y272000D01*
X312592Y394565D02*
X314592D01*
X313592Y393565D02*
Y395565D01*
X290603Y394565D02*
X292603D01*
X291603Y393565D02*
Y395565D01*
X306592Y394565D02*
X308592D01*
X307592Y393565D02*
Y395565D01*
X312592Y376565D02*
X314592D01*
X313592Y375565D02*
Y377565D01*
X253672Y335050D02*
X255672D01*
X254672Y334050D02*
Y336050D01*
X1476000Y188000D02*
X1478000D01*
X1477000Y187000D02*
Y189000D01*
X1372000Y188000D02*
X1374000D01*
X1373000Y187000D02*
Y189000D01*
X1362437Y757370D02*
X1364437D01*
X1363437Y756370D02*
Y758370D01*
X1263000Y544000D02*
X1265000D01*
X1264000Y543000D02*
Y545000D01*
X1316000Y497000D02*
X1318000D01*
X1317000Y496000D02*
Y498000D01*
X552000Y30000D02*
X554000D01*
X553000Y29000D02*
Y31000D01*
X569000Y43000D02*
X571000D01*
X570000Y42000D02*
Y44000D01*
X491000Y30000D02*
X493000D01*
X492000Y29000D02*
Y31000D01*
X509000Y43000D02*
X511000D01*
X510000Y42000D02*
Y44000D01*
X677000Y656000D02*
X679000D01*
X678000Y655000D02*
Y657000D01*
X677000Y683000D02*
X679000D01*
X678000Y682000D02*
Y684000D01*
X937000Y756000D02*
X939000D01*
X938000Y755000D02*
Y757000D01*
X658000Y731000D02*
X660000D01*
X659000Y730000D02*
Y732000D01*
X630000Y731000D02*
X632000D01*
X631000Y730000D02*
Y732000D01*
X224000Y758000D02*
X226000D01*
X225000Y757000D02*
Y759000D01*
X145000Y426000D02*
X147000D01*
X146000Y425000D02*
Y427000D01*
X141000Y612000D02*
X143000D01*
X142000Y611000D02*
Y613000D01*
X665751Y240995D02*
X667751D01*
X666751Y239995D02*
Y241995D01*
X923000Y438000D02*
X925000D01*
X924000Y437000D02*
Y439000D01*
X771000Y361000D02*
X773000D01*
X772000Y360000D02*
Y362000D01*
X771619Y324538D02*
X773619D01*
X772619Y323538D02*
Y325538D01*
X706000Y244000D02*
X708000D01*
X707000Y243000D02*
Y245000D01*
X649000Y213000D02*
X651000D01*
X650000Y212000D02*
Y214000D01*
X438000Y299000D02*
X440000D01*
X439000Y298000D02*
Y300000D01*
X501000Y310000D02*
X503000D01*
X502000Y309000D02*
Y311000D01*
X478000Y274000D02*
X480000D01*
X479000Y273000D02*
Y275000D01*
X452000Y304000D02*
X454000D01*
X453000Y303000D02*
Y305000D01*
X425000Y285000D02*
X427000D01*
X426000Y284000D02*
Y286000D01*
X398000Y287000D02*
X400000D01*
X399000Y286000D02*
Y288000D01*
X425000Y577000D02*
X427000D01*
X426000Y576000D02*
Y578000D01*
X411000Y558000D02*
X413000D01*
X412000Y557000D02*
Y559000D01*
X419470Y559048D02*
X421470D01*
X420470Y558048D02*
Y560048D01*
X436000Y608000D02*
X438000D01*
X437000Y607000D02*
Y609000D01*
X1087000Y634000D02*
X1089000D01*
X1088000Y633000D02*
Y635000D01*
X968000Y631000D02*
X970000D01*
X969000Y630000D02*
Y632000D01*
X950000Y610000D02*
X952000D01*
X951000Y609000D02*
Y611000D01*
X877000Y636000D02*
X879000D01*
X878000Y635000D02*
Y637000D01*
X885000Y636000D02*
X887000D01*
X886000Y635000D02*
Y637000D01*
X869000Y636000D02*
X871000D01*
X870000Y635000D02*
Y637000D01*
X826000Y616000D02*
X828000D01*
X827000Y615000D02*
Y617000D01*
X780000Y621000D02*
X782000D01*
X781000Y620000D02*
Y622000D01*
X1114000Y332000D02*
X1116000D01*
X1115000Y331000D02*
Y333000D01*
X1699000Y577000D02*
X1701000D01*
X1700000Y576000D02*
Y578000D01*
X1662000Y600000D02*
X1664000D01*
X1663000Y599000D02*
Y601000D01*
X1483972Y277276D02*
X1485972D01*
X1484972Y276276D02*
Y278276D01*
X1372000Y277000D02*
X1374000D01*
X1373000Y276000D02*
Y278000D01*
X1346220Y279440D02*
X1348220D01*
X1347220Y278440D02*
Y280440D01*
X1327000Y278000D02*
X1329000D01*
X1328000Y277000D02*
Y279000D01*
X1290000Y264000D02*
X1292000D01*
X1291000Y263000D02*
Y265000D01*
X1558447Y130154D02*
X1560446D01*
X1559447Y129154D02*
Y131154D01*
X801000Y88000D02*
X803000D01*
X802000Y87000D02*
Y89000D01*
X781000D02*
X783000D01*
X782000Y88000D02*
Y90000D01*
X793000Y100000D02*
X795000D01*
X794000Y99000D02*
Y101000D01*
X782000Y99000D02*
X784000D01*
X783000Y98000D02*
Y100000D01*
X729000Y88000D02*
X731000D01*
X730000Y87000D02*
Y89000D01*
X728000Y99000D02*
X730000D01*
X729000Y98000D02*
Y100000D01*
X666000Y87000D02*
X668000D01*
X667000Y86000D02*
Y88000D01*
X666000Y97000D02*
X668000D01*
X667000Y96000D02*
Y98000D01*
X636000Y92000D02*
X638000D01*
X637000Y91000D02*
Y93000D01*
X629000Y99000D02*
X631000D01*
X630000Y98000D02*
Y100000D01*
X610000Y81000D02*
X612000D01*
X611000Y80000D02*
Y82000D01*
X610000Y90000D02*
X612000D01*
X611000Y89000D02*
Y91000D01*
X573000Y158000D02*
X575000D01*
X574000Y157000D02*
Y159000D01*
X569225Y96125D02*
X571225D01*
X570225Y95125D02*
Y97125D01*
X510725Y96625D02*
X512725D01*
X511725Y95625D02*
Y97625D01*
X470000Y136000D02*
X472000D01*
X471000Y135000D02*
Y137000D01*
X449000Y139000D02*
X451000D01*
X450000Y138000D02*
Y140000D01*
X422000Y133000D02*
X424000D01*
X423000Y132000D02*
Y134000D01*
X232000Y238000D02*
X234000D01*
X233000Y237000D02*
Y239000D01*
X232000Y246000D02*
X234000D01*
X233000Y245000D02*
Y247000D01*
X279000Y167000D02*
X281000D01*
X280000Y166000D02*
Y168000D01*
X228000Y167000D02*
X230000D01*
X229000Y166000D02*
Y168000D01*
X241000Y189000D02*
X243000D01*
X242000Y188000D02*
Y190000D01*
X241000Y204000D02*
X243000D01*
X242000Y203000D02*
Y205000D01*
X230000Y189000D02*
X232000D01*
X231000Y188000D02*
Y190000D01*
Y204000D02*
X233000D01*
X232000Y203000D02*
Y205000D01*
X219000Y204000D02*
X221000D01*
X220000Y203000D02*
Y205000D01*
Y189000D02*
X222000D01*
X221000Y188000D02*
Y190000D01*
X225000Y146000D02*
X227000D01*
X226000Y145000D02*
Y147000D01*
X59000Y134000D02*
X61000D01*
X60000Y133000D02*
Y135000D01*
Y167000D02*
X62000D01*
X61000Y166000D02*
Y168000D01*
X1762000Y448000D02*
X1764000D01*
X1763000Y447000D02*
Y449000D01*
X1435000Y91388D02*
X1437000D01*
X1436000Y90387D02*
Y92388D01*
X1466000Y48000D02*
X1468000D01*
X1467000Y47000D02*
Y49000D01*
X1530000Y734000D02*
X1532000D01*
X1531000Y733000D02*
Y735000D01*
X1508000Y734000D02*
X1510000D01*
X1509000Y733000D02*
Y735000D01*
X523000Y316000D02*
X525000D01*
X524000Y315000D02*
Y317000D01*
X377000Y701000D02*
X379000D01*
X378000Y700000D02*
Y702000D01*
X209000Y86000D02*
X211000D01*
X210000Y85000D02*
Y87000D01*
X209000Y76000D02*
X211000D01*
X210000Y75000D02*
Y77000D01*
X209000Y81000D02*
X211000D01*
X210000Y80000D02*
Y82000D01*
X215000Y86000D02*
X217000D01*
X216000Y85000D02*
Y87000D01*
X155000Y86000D02*
X157000D01*
X156000Y85000D02*
Y87000D01*
X149000Y81000D02*
X151000D01*
X150000Y80000D02*
Y82000D01*
X149000Y76000D02*
X151000D01*
X150000Y75000D02*
Y77000D01*
X149000Y86000D02*
X151000D01*
X150000Y85000D02*
Y87000D01*
X137000Y102000D02*
X139000D01*
X138000Y101000D02*
Y103000D01*
X340000Y122000D02*
X342000D01*
X341000Y121000D02*
Y123000D01*
X314000Y122000D02*
X316000D01*
X315000Y121000D02*
Y123000D01*
X287000Y122000D02*
X289000D01*
X288000Y121000D02*
Y123000D01*
X406000Y334000D02*
X408000D01*
X407000Y333000D02*
Y335000D01*
X406000Y367000D02*
X408000D01*
X407000Y366000D02*
Y368000D01*
X394000Y386000D02*
X396000D01*
X395000Y385000D02*
Y387000D01*
X406000Y351000D02*
X408000D01*
X407000Y350000D02*
Y352000D01*
X318000Y406000D02*
X320000D01*
X319000Y405000D02*
Y407000D01*
X257000Y409000D02*
X259000D01*
X258000Y408000D02*
Y410000D01*
X291000Y409000D02*
X293000D01*
X292000Y408000D02*
Y410000D01*
X307000Y409000D02*
X309000D01*
X308000Y408000D02*
Y410000D01*
X326000Y406000D02*
X328000D01*
X327000Y405000D02*
Y407000D01*
X274000Y409000D02*
X276000D01*
X275000Y408000D02*
Y410000D01*
X284672Y311912D02*
X286672D01*
X285672Y310912D02*
Y312912D01*
X539000Y300000D02*
X541000D01*
X540000Y299000D02*
Y301000D01*
Y272750D02*
X542000D01*
X541000Y271750D02*
Y273750D01*
X574000Y265000D02*
X576000D01*
X575000Y264000D02*
Y266000D01*
X1733163Y789816D02*
X1736163D01*
X1734663Y788316D02*
Y791316D01*
X1742163Y789816D02*
X1745163D01*
X1743663Y788316D02*
Y791316D01*
X1715163Y789816D02*
X1718163D01*
X1716663Y788316D02*
Y791316D01*
X1724163Y789816D02*
X1727163D01*
X1725663Y788316D02*
Y791316D01*
X1768971Y787904D02*
X1771971D01*
X1770471Y786404D02*
Y789404D01*
X1751163Y789816D02*
X1754162D01*
X1752663Y788316D02*
Y791316D01*
X1760162Y789748D02*
X1763162D01*
X1761662Y788248D02*
Y791248D01*
X1670163Y789816D02*
X1673163D01*
X1671663Y788316D02*
Y791316D01*
X1679163Y789816D02*
X1682163D01*
X1680663Y788316D02*
Y791316D01*
X1661163Y789816D02*
X1664163D01*
X1662663Y788316D02*
Y791316D01*
X1697163Y789816D02*
X1700163D01*
X1698663Y788316D02*
Y791316D01*
X1706163Y789816D02*
X1709163D01*
X1707663Y788316D02*
Y791316D01*
X1688163Y789816D02*
X1691163D01*
X1689663Y788316D02*
Y791316D01*
X1786994Y768911D02*
X1789994D01*
X1788494Y767411D02*
Y770411D01*
X1788277Y760003D02*
X1791277D01*
X1789777Y758503D02*
Y761503D01*
X1776830Y783517D02*
X1779830D01*
X1778330Y782017D02*
Y785017D01*
X1783024Y776988D02*
X1786024D01*
X1784524Y775488D02*
Y778488D01*
X1788316Y751003D02*
X1791316D01*
X1789816Y749503D02*
Y752503D01*
X1788316Y742003D02*
X1791316D01*
X1789816Y740503D02*
Y743503D01*
X1616163Y789816D02*
X1619163D01*
X1617663Y788316D02*
Y791316D01*
X1625163Y789816D02*
X1628163D01*
X1626663Y788316D02*
Y791316D01*
X1598163Y789816D02*
X1601163D01*
X1599663Y788316D02*
Y791316D01*
X1607163Y789816D02*
X1610163D01*
X1608663Y788316D02*
Y791316D01*
X1643163Y789816D02*
X1646163D01*
X1644663Y788316D02*
Y791316D01*
X1652163Y789816D02*
X1655163D01*
X1653663Y788316D02*
Y791316D01*
X1634163Y789816D02*
X1637163D01*
X1635663Y788316D02*
Y791316D01*
X1553163Y789816D02*
X1556163D01*
X1554663Y788316D02*
Y791316D01*
X1562163Y789816D02*
X1565163D01*
X1563663Y788316D02*
Y791316D01*
X1535163Y789816D02*
X1538163D01*
X1536663Y788316D02*
Y791316D01*
X1544163Y789816D02*
X1547163D01*
X1545663Y788316D02*
Y791316D01*
X1580163Y789816D02*
X1583163D01*
X1581663Y788316D02*
Y791316D01*
X1589163Y789816D02*
X1592163D01*
X1590663Y788316D02*
Y791316D01*
X1571163Y789816D02*
X1574163D01*
X1572663Y788316D02*
Y791316D01*
X1788316Y733003D02*
X1791316D01*
X1789816Y731503D02*
Y734503D01*
X1788316Y724003D02*
X1791316D01*
X1789816Y722503D02*
Y725503D01*
X1788316Y715003D02*
X1791316D01*
X1789816Y713503D02*
Y716503D01*
X1788316Y706003D02*
X1791316D01*
X1789816Y704503D02*
Y707503D01*
X1645000Y734000D02*
X1647000D01*
X1646000Y733000D02*
Y735000D01*
X1704000Y704000D02*
X1706000D01*
X1705000Y703000D02*
Y705000D01*
X1788316Y652003D02*
X1791316D01*
X1789816Y650503D02*
Y653503D01*
X1788316Y643003D02*
X1791316D01*
X1789816Y641503D02*
Y644503D01*
X1788316Y679003D02*
X1791316D01*
X1789816Y677503D02*
Y680503D01*
X1788316Y670003D02*
X1791316D01*
X1789816Y668503D02*
Y671503D01*
X1788316Y697003D02*
X1791316D01*
X1789816Y695503D02*
Y698503D01*
X1788316Y688003D02*
X1791316D01*
X1789816Y686503D02*
Y689503D01*
X1788316Y661003D02*
X1791316D01*
X1789816Y659503D02*
Y662503D01*
X1616000Y716000D02*
X1618000D01*
X1617000Y715000D02*
Y717000D01*
X1543000Y724000D02*
X1545000D01*
X1544000Y723000D02*
Y725000D01*
X1604000Y709000D02*
X1606000D01*
X1605000Y708000D02*
Y710000D01*
X1616000Y707000D02*
X1618000D01*
X1617000Y706000D02*
Y708000D01*
X1616000Y677000D02*
X1618000D01*
X1617000Y676000D02*
Y678000D01*
X1481163Y789816D02*
X1484163D01*
X1482663Y788316D02*
Y791316D01*
X1490163Y789816D02*
X1493163D01*
X1491663Y788316D02*
Y791316D01*
X1463163Y789816D02*
X1466163D01*
X1464663Y788316D02*
Y791316D01*
X1472163Y789816D02*
X1475163D01*
X1473663Y788316D02*
Y791316D01*
X1517163Y789816D02*
X1520163D01*
X1518663Y788316D02*
Y791316D01*
X1526163Y789816D02*
X1529163D01*
X1527663Y788316D02*
Y791316D01*
X1499163Y789816D02*
X1502163D01*
X1500663Y788316D02*
Y791316D01*
X1508163Y789816D02*
X1511163D01*
X1509663Y788316D02*
Y791316D01*
X1427163Y789816D02*
X1430163D01*
X1428663Y788316D02*
Y791316D01*
X1436163Y789816D02*
X1439163D01*
X1437663Y788316D02*
Y791316D01*
X1409163Y789816D02*
X1412163D01*
X1410663Y788316D02*
Y791316D01*
X1418163Y789816D02*
X1421163D01*
X1419663Y788316D02*
Y791316D01*
X1454163Y789816D02*
X1457163D01*
X1455663Y788316D02*
Y791316D01*
X1445163Y789816D02*
X1448163D01*
X1446663Y788316D02*
Y791316D01*
X1355163Y789816D02*
X1358163D01*
X1356663Y788316D02*
Y791316D01*
X1364163Y789816D02*
X1367163D01*
X1365663Y788316D02*
Y791316D01*
X1337163Y789816D02*
X1340163D01*
X1338663Y788316D02*
Y791316D01*
X1346163Y789816D02*
X1349163D01*
X1347663Y788316D02*
Y791316D01*
X1391163Y789816D02*
X1394163D01*
X1392663Y788316D02*
Y791316D01*
X1400163Y789816D02*
X1403163D01*
X1401663Y788316D02*
Y791316D01*
X1373163Y789816D02*
X1376163D01*
X1374663Y788316D02*
Y791316D01*
X1382163Y789816D02*
X1385163D01*
X1383663Y788316D02*
Y791316D01*
X1292164Y789816D02*
X1295163D01*
X1293663Y788316D02*
Y791316D01*
X1301163Y789816D02*
X1304163D01*
X1302663Y788316D02*
Y791316D01*
X1274164Y789816D02*
X1277163D01*
X1275664Y788316D02*
Y791316D01*
X1283163Y789816D02*
X1286163D01*
X1284664Y788316D02*
Y791316D01*
X1319163Y789816D02*
X1322163D01*
X1320663Y788316D02*
Y791316D01*
X1328163Y789816D02*
X1331163D01*
X1329663Y788316D02*
Y791316D01*
X1310163Y789816D02*
X1313163D01*
X1311663Y788316D02*
Y791316D01*
X1501000Y730000D02*
X1503000D01*
X1502000Y729000D02*
Y731000D01*
X1527000Y707000D02*
X1529000D01*
X1528000Y706000D02*
Y708000D01*
X1456000Y705000D02*
X1458000D01*
X1457000Y704000D02*
Y706000D01*
X1456000Y678000D02*
X1458000D01*
X1457000Y677000D02*
Y679000D01*
X1412000Y702000D02*
X1414000D01*
X1413000Y701000D02*
Y703000D01*
X1341000Y702000D02*
X1343000D01*
X1342000Y701000D02*
Y703000D01*
X1277000D02*
X1279000D01*
X1278000Y702000D02*
Y704000D01*
X1338000Y669000D02*
X1340000D01*
X1339000Y668000D02*
Y670000D01*
X1294000Y664000D02*
X1296000D01*
X1295000Y663000D02*
Y665000D01*
X1276000Y678000D02*
X1278000D01*
X1277000Y677000D02*
Y679000D01*
X1788316Y589003D02*
X1791316D01*
X1789816Y587503D02*
Y590503D01*
X1788316Y616003D02*
X1791316D01*
X1789816Y614503D02*
Y617503D01*
X1788316Y607003D02*
X1791316D01*
X1789816Y605503D02*
Y608503D01*
X1788316Y634003D02*
X1791316D01*
X1789816Y632503D02*
Y635503D01*
X1788316Y625003D02*
X1791316D01*
X1789816Y623503D02*
Y626503D01*
X1788316Y598003D02*
X1791316D01*
X1789816Y596503D02*
Y599503D01*
X1699000Y586000D02*
X1701000D01*
X1700000Y585000D02*
Y587000D01*
X1788316Y571003D02*
X1791316D01*
X1789816Y569504D02*
Y572504D01*
X1788316Y562004D02*
X1791316D01*
X1789816Y560504D02*
Y563503D01*
X1788316Y553004D02*
X1791316D01*
X1789816Y551503D02*
Y554504D01*
X1788316Y544003D02*
X1791316D01*
X1789816Y542504D02*
Y545504D01*
X1788316Y580003D02*
X1791316D01*
X1789816Y578503D02*
Y581503D01*
X1695000Y541000D02*
X1697000D01*
X1696000Y540000D02*
Y542000D01*
X1614000Y635000D02*
X1616000D01*
X1615000Y634000D02*
Y636000D01*
X1652000Y600000D02*
X1654000D01*
X1653000Y599000D02*
Y601000D01*
X1671000Y571000D02*
X1673000D01*
X1672000Y570000D02*
Y572000D01*
X1646000Y585000D02*
X1648000D01*
X1647000Y584000D02*
Y586000D01*
X1619000Y568000D02*
X1621000D01*
X1620000Y567000D02*
Y569000D01*
X1788316Y472004D02*
X1791316D01*
X1789816Y470504D02*
Y473504D01*
X1788316Y463004D02*
X1791316D01*
X1789816Y461504D02*
Y464504D01*
X1788316Y454004D02*
X1791316D01*
X1789816Y452504D02*
Y455504D01*
X1788316Y517004D02*
X1791316D01*
X1789816Y515504D02*
Y518504D01*
X1788316Y508004D02*
X1791316D01*
X1789816Y506504D02*
Y509504D01*
X1788316Y535004D02*
X1791316D01*
X1789816Y533503D02*
Y536503D01*
X1788316Y526003D02*
X1791316D01*
X1789816Y524504D02*
Y527504D01*
X1788316Y490004D02*
X1791316D01*
X1789816Y488504D02*
Y491504D01*
X1788316Y481004D02*
X1791316D01*
X1789816Y479504D02*
Y482504D01*
X1788316Y499004D02*
X1791316D01*
X1789816Y497504D02*
Y500504D01*
X1788316Y391004D02*
X1791316D01*
X1789816Y389504D02*
Y392504D01*
X1788316Y436004D02*
X1791316D01*
X1789816Y434504D02*
Y437504D01*
X1788316Y427004D02*
X1791316D01*
X1789816Y425504D02*
Y428504D01*
X1788316Y445004D02*
X1791316D01*
X1789816Y443504D02*
Y446504D01*
X1788316Y409004D02*
X1791316D01*
X1789816Y407504D02*
Y410504D01*
X1788316Y400004D02*
X1791316D01*
X1789816Y398504D02*
Y401504D01*
X1788316Y418004D02*
X1791316D01*
X1789816Y416504D02*
Y419504D01*
X1702000Y506000D02*
X1704000D01*
X1703000Y505000D02*
Y507000D01*
X1639000Y419000D02*
X1641000D01*
X1640000Y418000D02*
Y420000D01*
X1623000Y503000D02*
X1625000D01*
X1624000Y502000D02*
Y504000D01*
X1595000Y541000D02*
X1597000D01*
X1596000Y540000D02*
Y542000D01*
X1385942Y540594D02*
X1387942D01*
X1386942Y539594D02*
Y541594D01*
X1380000Y555000D02*
X1382000D01*
X1381000Y554000D02*
Y556000D01*
X1412000Y502000D02*
X1414000D01*
X1413000Y501000D02*
Y503000D01*
X1386000Y530000D02*
X1388000D01*
X1387000Y529000D02*
Y531000D01*
X1373000Y613000D02*
X1375000D01*
X1374000Y612000D02*
Y614000D01*
X1325000Y577000D02*
X1327000D01*
X1326000Y576000D02*
Y578000D01*
X1352000Y558000D02*
X1354000D01*
X1353000Y557000D02*
Y559000D01*
X1613000Y472000D02*
X1615000D01*
X1614000Y471000D02*
Y473000D01*
X1379000Y472000D02*
X1381000D01*
X1380000Y471000D02*
Y473000D01*
X1385000Y455000D02*
X1387000D01*
X1386000Y454000D02*
Y456000D01*
X1385000Y401000D02*
X1387000D01*
X1386000Y400000D02*
Y402000D01*
X1369000Y444000D02*
X1371000D01*
X1370000Y443000D02*
Y445000D01*
X1351000Y390000D02*
X1353000D01*
X1352000Y389000D02*
Y391000D01*
X1324000Y472000D02*
X1326000D01*
X1325000Y471000D02*
Y473000D01*
X1287000Y451000D02*
X1289000D01*
X1288000Y450000D02*
Y452000D01*
X1280000Y471000D02*
X1282000D01*
X1281000Y470000D02*
Y472000D01*
X1279000Y437000D02*
X1281000D01*
X1280000Y436000D02*
Y438000D01*
X1301000Y417000D02*
X1303000D01*
X1302000Y416000D02*
Y418000D01*
X1310451Y389743D02*
X1312451D01*
X1311451Y388743D02*
Y390743D01*
X1290000Y406000D02*
X1292000D01*
X1291000Y405000D02*
Y407000D01*
X1220164Y789816D02*
X1223164D01*
X1221664Y788316D02*
Y791316D01*
X1229164Y789816D02*
X1232164D01*
X1230664Y788316D02*
Y791316D01*
X1202164Y789816D02*
X1205164D01*
X1203664Y788316D02*
Y791316D01*
X1211164Y789816D02*
X1214164D01*
X1212664Y788316D02*
Y791316D01*
X1256163Y789816D02*
X1259164D01*
X1257663Y788316D02*
Y791316D01*
X1265163Y789816D02*
X1268164D01*
X1266664Y788316D02*
Y791316D01*
X1238164Y789816D02*
X1241164D01*
X1239664Y788316D02*
Y791316D01*
X1247163Y789816D02*
X1250163D01*
X1248663Y788316D02*
Y791316D01*
X1157164Y789816D02*
X1160164D01*
X1158664Y788316D02*
Y791316D01*
X1166164Y789816D02*
X1169164D01*
X1167664Y788316D02*
Y791316D01*
X1184164Y789816D02*
X1187164D01*
X1185664Y788316D02*
Y791316D01*
X1193164Y789816D02*
X1196164D01*
X1194664Y788316D02*
Y791316D01*
X1175164Y789816D02*
X1178164D01*
X1176664Y788316D02*
Y791316D01*
X1221000Y756000D02*
X1223000D01*
X1222000Y755000D02*
Y757000D01*
X1103164Y789816D02*
X1106164D01*
X1104664Y788316D02*
Y791316D01*
X1112164Y789816D02*
X1115164D01*
X1113664Y788316D02*
Y791316D01*
X1085164Y789816D02*
X1088164D01*
X1086664Y788316D02*
Y791316D01*
X1094164Y789816D02*
X1097164D01*
X1095664Y788316D02*
Y791316D01*
X1139164Y789816D02*
X1142164D01*
X1140664Y788316D02*
Y791316D01*
X1148164Y789816D02*
X1151164D01*
X1149664Y788316D02*
Y791316D01*
X1121164Y789816D02*
X1124164D01*
X1122664Y788316D02*
Y791316D01*
X1130164Y789816D02*
X1133164D01*
X1131664Y788316D02*
Y791316D01*
X1058164Y789816D02*
X1061164D01*
X1059664Y788316D02*
Y791316D01*
X1049164Y789816D02*
X1052164D01*
X1050664Y788316D02*
Y791316D01*
X1067164Y789816D02*
X1070164D01*
X1068664Y788316D02*
Y791316D01*
X1076164Y789816D02*
X1079164D01*
X1077664Y788316D02*
Y791316D01*
X1125000Y755000D02*
X1127000D01*
X1126000Y754000D02*
Y756000D01*
X1049000Y754000D02*
X1051000D01*
X1050000Y753000D02*
Y755000D01*
X1266000Y742000D02*
X1268000D01*
X1267000Y741000D02*
Y743000D01*
X1269000Y708000D02*
X1271000D01*
X1270000Y707000D02*
Y709000D01*
X1199000Y729000D02*
X1201000D01*
X1200000Y728000D02*
Y730000D01*
X1198072Y673500D02*
X1200072D01*
X1199072Y672500D02*
Y674500D01*
X1166000Y675000D02*
X1168000D01*
X1167000Y674000D02*
Y676000D01*
X1164000Y727000D02*
X1166000D01*
X1165000Y726000D02*
Y728000D01*
X1129000Y612000D02*
X1131000D01*
X1130000Y611000D02*
Y613000D01*
X986164Y789816D02*
X989164D01*
X987664Y788316D02*
Y791316D01*
X995164Y789816D02*
X998164D01*
X996664Y788316D02*
Y791316D01*
X968164Y789816D02*
X971164D01*
X969664Y788316D02*
Y791316D01*
X977164Y789816D02*
X980164D01*
X978664Y788316D02*
Y791316D01*
X1022164Y789816D02*
X1025164D01*
X1023664Y788316D02*
Y791316D01*
X1031164Y789816D02*
X1034164D01*
X1032664Y788316D02*
Y791316D01*
X1004164Y789816D02*
X1007164D01*
X1005664Y788316D02*
Y791316D01*
X1013164Y789816D02*
X1016164D01*
X1014664Y788316D02*
Y791316D01*
X923164Y789816D02*
X926164D01*
X924664Y788316D02*
Y791316D01*
X932164Y789816D02*
X935164D01*
X933664Y788316D02*
Y791316D01*
X905164Y789816D02*
X908164D01*
X906664Y788316D02*
Y791316D01*
X914164Y789816D02*
X917164D01*
X915664Y788316D02*
Y791316D01*
X950164Y789816D02*
X953164D01*
X951664Y788316D02*
Y791316D01*
X959164Y789816D02*
X962164D01*
X960664Y788316D02*
Y791316D01*
X941164Y789816D02*
X944164D01*
X942664Y788316D02*
Y791316D01*
X1040164Y789816D02*
X1043164D01*
X1041664Y788316D02*
Y791316D01*
X833164Y789816D02*
X836164D01*
X834664Y788316D02*
Y791316D01*
X842164Y789816D02*
X845164D01*
X843664Y788316D02*
Y791316D01*
X815164Y789816D02*
X818164D01*
X816664Y788316D02*
Y791316D01*
X824164Y789816D02*
X827164D01*
X825664Y788316D02*
Y791316D01*
X869164Y789816D02*
X872164D01*
X870664Y788316D02*
Y791316D01*
X878164Y789816D02*
X881164D01*
X879664Y788316D02*
Y791316D01*
X851164Y789816D02*
X854164D01*
X852664Y788316D02*
Y791316D01*
X860164Y789816D02*
X863164D01*
X861664Y788316D02*
Y791316D01*
X770164Y789816D02*
X773165D01*
X771665Y788316D02*
Y791316D01*
X779165Y789816D02*
X782165D01*
X780665Y788316D02*
Y791316D01*
X752165Y789816D02*
X755164D01*
X753664Y788316D02*
Y791316D01*
X761164Y789816D02*
X764165D01*
X762664Y788316D02*
Y791316D01*
X797164Y789816D02*
X800164D01*
X798664Y788316D02*
Y791316D01*
X806164Y789816D02*
X809164D01*
X807664Y788316D02*
Y791316D01*
X788165Y789816D02*
X791164D01*
X789665Y788316D02*
Y791316D01*
X896164Y789816D02*
X899164D01*
X897664Y788316D02*
Y791316D01*
X887164Y789816D02*
X890164D01*
X888664Y788316D02*
Y791316D01*
X972863Y693462D02*
X974863D01*
X973863Y692462D02*
Y694462D01*
X979000Y589000D02*
X981000D01*
X980000Y588000D02*
Y590000D01*
X904000Y605000D02*
X906000D01*
X905000Y604000D02*
Y606000D01*
X926000Y589000D02*
X928000D01*
X927000Y588000D02*
Y590000D01*
X837000Y755000D02*
X839000D01*
X838000Y754000D02*
Y756000D01*
X790000Y698000D02*
X792000D01*
X791000Y697000D02*
Y699000D01*
X869000Y612500D02*
X871000D01*
X870000Y611500D02*
Y613500D01*
X769000Y642000D02*
X771000D01*
X770000Y641000D02*
Y643000D01*
X1270500Y575500D02*
X1272500D01*
X1271500Y574500D02*
Y576500D01*
X1235500Y575500D02*
X1237500D01*
X1236500Y574500D02*
Y576500D01*
X1270000Y564000D02*
X1272000D01*
X1271000Y563000D02*
Y565000D01*
X1200000Y556000D02*
X1202000D01*
X1201000Y555000D02*
Y557000D01*
X1199647Y535089D02*
X1201647D01*
X1200647Y534089D02*
Y536089D01*
X1199647Y545103D02*
X1201646D01*
X1200647Y544104D02*
Y546104D01*
X1256000Y450000D02*
X1258000D01*
X1257000Y449000D02*
Y451000D01*
X1254000Y411000D02*
X1256000D01*
X1255000Y410000D02*
Y412000D01*
X1255451Y389743D02*
X1257451D01*
X1256451Y388743D02*
Y390743D01*
X1218951Y389743D02*
X1220951D01*
X1219951Y388743D02*
Y390743D01*
X1236951Y389743D02*
X1238951D01*
X1237951Y388743D02*
Y390743D01*
X1227951Y389743D02*
X1229951D01*
X1228951Y388743D02*
Y390743D01*
X1201000Y436000D02*
X1203000D01*
X1202000Y435000D02*
Y437000D01*
X1201500Y415500D02*
X1203500D01*
X1202500Y414500D02*
Y416500D01*
X1201440Y405522D02*
X1203440D01*
X1202440Y404523D02*
Y406522D01*
X1209951Y389743D02*
X1211951D01*
X1210951Y388743D02*
Y390743D01*
X1128000Y557000D02*
X1130000D01*
X1129000Y556000D02*
Y558000D01*
X1128000Y530000D02*
X1130000D01*
X1129000Y529000D02*
Y531000D01*
X1128000Y520000D02*
X1130000D01*
X1129000Y519000D02*
Y521000D01*
X1128000Y502000D02*
X1130000D01*
X1129000Y501000D02*
Y503000D01*
X1077000Y583000D02*
X1079000D01*
X1078000Y582000D02*
Y584000D01*
X1066000Y583000D02*
X1068000D01*
X1067000Y582000D02*
Y584000D01*
X1128000Y475000D02*
X1130000D01*
X1129000Y474000D02*
Y476000D01*
X846000Y568000D02*
X848000D01*
X847000Y567000D02*
Y569000D01*
X885000Y501000D02*
X887000D01*
X886000Y500000D02*
Y502000D01*
X885000Y492000D02*
X887000D01*
X886000Y491000D02*
Y493000D01*
X962880Y447631D02*
X964880D01*
X963880Y446631D02*
Y448631D01*
X942880Y447631D02*
X944880D01*
X943880Y446631D02*
Y448631D01*
X932880Y447631D02*
X934880D01*
X933880Y446631D02*
Y448631D01*
X1098000Y405000D02*
X1100000D01*
X1099000Y404000D02*
Y406000D01*
X952880Y407631D02*
X954880D01*
X953880Y406631D02*
Y408631D01*
X932880Y397631D02*
X934880D01*
X933880Y396631D02*
Y398631D01*
X922880Y447631D02*
X924880D01*
X923880Y446631D02*
Y448631D01*
X902880Y447631D02*
X904880D01*
X903880Y446631D02*
Y448631D01*
X912880Y447631D02*
X914880D01*
X913880Y446631D02*
Y448631D01*
X892880Y447631D02*
X894880D01*
X893880Y446631D02*
Y448631D01*
X882880Y447253D02*
X884880D01*
X883880Y446253D02*
Y448253D01*
X912880Y397631D02*
X914880D01*
X913880Y396631D02*
Y398631D01*
X892880Y417631D02*
X894880D01*
X893880Y416631D02*
Y418631D01*
X1788316Y319004D02*
X1791316D01*
X1789816Y317504D02*
Y320504D01*
X1788316Y310004D02*
X1791316D01*
X1789816Y308504D02*
Y311504D01*
X1788316Y292004D02*
X1791316D01*
X1789816Y290504D02*
Y293504D01*
X1788316Y283004D02*
X1791316D01*
X1789816Y281504D02*
Y284504D01*
X1788316Y301004D02*
X1791316D01*
X1789816Y299504D02*
Y302504D01*
X1788316Y364004D02*
X1791316D01*
X1789816Y362504D02*
Y365504D01*
X1788316Y355004D02*
X1791316D01*
X1789816Y353504D02*
Y356504D01*
X1788316Y382004D02*
X1791316D01*
X1789816Y380504D02*
Y383504D01*
X1788316Y373004D02*
X1791316D01*
X1789816Y371504D02*
Y374504D01*
X1788316Y337004D02*
X1791316D01*
X1789816Y335504D02*
Y338504D01*
X1788316Y328004D02*
X1791316D01*
X1789816Y326504D02*
Y329504D01*
X1788316Y346004D02*
X1791316D01*
X1789816Y344504D02*
Y347504D01*
X1788316Y274004D02*
X1791316D01*
X1789816Y272504D02*
Y275504D01*
X1788316Y265004D02*
X1791316D01*
X1789816Y263504D02*
Y266504D01*
X1788316Y256004D02*
X1791316D01*
X1789816Y254504D02*
Y257504D01*
X1639000Y387000D02*
X1641000D01*
X1640000Y386000D02*
Y388000D01*
X1788316Y247004D02*
X1791316D01*
X1789816Y245504D02*
Y248504D01*
X1788316Y238004D02*
X1791316D01*
X1789816Y236504D02*
Y239504D01*
X1788316Y229004D02*
X1791316D01*
X1789816Y227504D02*
Y230504D01*
X1788316Y175004D02*
X1791316D01*
X1789816Y173504D02*
Y176504D01*
X1788316Y202004D02*
X1791316D01*
X1789816Y200504D02*
Y203504D01*
X1788316Y193004D02*
X1791316D01*
X1789816Y191504D02*
Y194504D01*
X1788316Y220004D02*
X1791316D01*
X1789816Y218504D02*
Y221504D01*
X1788316Y211004D02*
X1791316D01*
X1789816Y209504D02*
Y212504D01*
X1788316Y184004D02*
X1791316D01*
X1789816Y182504D02*
Y185504D01*
X1332000Y231000D02*
X1334000D01*
X1333000Y230000D02*
Y232000D01*
X1321000Y231000D02*
X1323000D01*
X1322000Y230000D02*
Y232000D01*
X1332000Y218000D02*
X1334000D01*
X1333000Y217000D02*
Y219000D01*
X1321000Y218000D02*
X1323000D01*
X1322000Y217000D02*
Y219000D01*
X1338000Y186000D02*
X1340000D01*
X1339000Y185000D02*
Y187000D01*
X1296000Y184000D02*
X1298000D01*
X1297000Y183000D02*
Y185000D01*
X1788316Y103004D02*
X1791317D01*
X1789816Y101504D02*
Y104504D01*
X1788316Y148004D02*
X1791316D01*
X1789816Y146504D02*
Y149504D01*
X1788316Y139004D02*
X1791317D01*
X1789816Y137504D02*
Y140504D01*
X1788316Y166004D02*
X1791316D01*
X1789816Y164504D02*
Y167504D01*
X1788316Y157004D02*
X1791316D01*
X1789816Y155504D02*
Y158504D01*
X1788316Y121004D02*
X1791317D01*
X1789816Y119504D02*
Y122504D01*
X1788316Y112004D02*
X1791317D01*
X1789816Y110504D02*
Y113504D01*
X1788316Y130004D02*
X1791317D01*
X1789816Y128504D02*
Y131504D01*
X1788316Y58004D02*
X1791317D01*
X1789816Y56505D02*
Y59504D01*
X1788316Y49005D02*
X1791317D01*
X1789816Y47505D02*
Y50504D01*
X1788316Y76004D02*
X1791317D01*
X1789816Y74504D02*
Y77504D01*
X1788316Y67004D02*
X1791317D01*
X1789816Y65504D02*
Y68505D01*
X1788316Y94004D02*
X1791317D01*
X1789816Y92504D02*
Y95504D01*
X1788316Y85004D02*
X1791317D01*
X1789816Y83504D02*
Y86504D01*
X1788252Y40005D02*
X1791252D01*
X1789752Y38505D02*
Y41505D01*
X1786801Y31123D02*
X1789801D01*
X1788301Y29622D02*
Y32622D01*
X1782820Y23051D02*
X1785820D01*
X1784320Y21551D02*
Y24551D01*
X1707917Y20184D02*
X1710917D01*
X1709417Y18684D02*
Y21684D01*
X1716917Y20184D02*
X1719917D01*
X1718417Y18684D02*
Y21684D01*
X1662917Y20184D02*
X1665917D01*
X1664417Y18684D02*
Y21684D01*
X1671917Y20184D02*
X1674917D01*
X1673417Y18684D02*
Y21684D01*
X1644917Y20184D02*
X1647917D01*
X1646417Y18684D02*
Y21684D01*
X1653917Y20184D02*
X1656917D01*
X1655417Y18684D02*
Y21684D01*
X1689917Y20184D02*
X1692917D01*
X1691417Y18684D02*
Y21684D01*
X1698917Y20184D02*
X1701917D01*
X1700417Y18684D02*
Y21684D01*
X1680917Y20184D02*
X1683917D01*
X1682417Y18684D02*
Y21684D01*
X1734887Y19452D02*
X1737887D01*
X1736387Y17952D02*
Y20952D01*
X1776602Y16545D02*
X1779602D01*
X1778102Y15044D02*
Y18045D01*
X1725917Y20184D02*
X1728917D01*
X1727417Y18684D02*
Y21684D01*
X1768718Y12203D02*
X1771718D01*
X1770218Y10703D02*
Y13703D01*
X1759895Y10426D02*
X1762896D01*
X1761396Y8926D02*
Y11926D01*
X1742697Y14978D02*
X1745697D01*
X1744196Y13478D02*
Y16478D01*
X1750946Y11381D02*
X1753946D01*
X1752446Y9881D02*
Y12881D01*
X1554917Y20184D02*
X1557917D01*
X1556417Y18684D02*
Y21684D01*
X1545918Y20184D02*
X1548918D01*
X1547417Y18684D02*
Y21684D01*
X1581917Y20184D02*
X1584917D01*
X1583417Y18684D02*
Y21684D01*
X1590917Y20184D02*
X1593917D01*
X1592417Y18684D02*
Y21684D01*
X1563917Y20184D02*
X1566917D01*
X1565417Y18684D02*
Y21684D01*
X1572917Y20184D02*
X1575917D01*
X1574417Y18684D02*
Y21684D01*
X1509917Y20184D02*
X1512917D01*
X1511418Y18684D02*
Y21684D01*
X1491918Y20184D02*
X1494918D01*
X1493418Y18684D02*
Y21684D01*
X1500918Y20184D02*
X1503918D01*
X1502417Y18684D02*
Y21684D01*
X1527917Y20184D02*
X1530918D01*
X1529418Y18684D02*
Y21684D01*
X1536918Y20184D02*
X1539917D01*
X1538418Y18684D02*
Y21684D01*
X1518918Y20184D02*
X1521918D01*
X1520417Y18684D02*
Y21684D01*
X1599917Y20184D02*
X1602917D01*
X1601417Y18684D02*
Y21684D01*
X1626917Y20184D02*
X1629917D01*
X1628417Y18684D02*
Y21684D01*
X1635917Y20184D02*
X1638917D01*
X1637417Y18684D02*
Y21684D01*
X1608917Y20184D02*
X1611917D01*
X1610417Y18684D02*
Y21684D01*
X1617917Y20184D02*
X1620917D01*
X1619417Y18684D02*
Y21684D01*
X1356000Y168000D02*
X1358000D01*
X1357000Y167000D02*
Y169000D01*
X1354000Y139000D02*
X1356000D01*
X1355000Y138000D02*
Y140000D01*
X1354000Y119000D02*
X1356000D01*
X1355000Y118000D02*
Y120000D01*
X1310000Y119000D02*
X1312000D01*
X1311000Y118000D02*
Y120000D01*
X1324000Y119000D02*
X1326000D01*
X1325000Y118000D02*
Y120000D01*
X1473918Y20184D02*
X1476918D01*
X1475418Y18684D02*
Y21684D01*
X1482918Y20184D02*
X1485918D01*
X1484418Y18684D02*
Y21684D01*
X1455918Y20184D02*
X1458918D01*
X1457418Y18684D02*
Y21684D01*
X1464918Y20184D02*
X1467918D01*
X1466418Y18684D02*
Y21684D01*
X1383918Y20184D02*
X1386918D01*
X1385418Y18684D02*
Y21684D01*
X1392918Y20184D02*
X1395918D01*
X1394418Y18684D02*
Y21684D01*
X1374918Y20184D02*
X1377918D01*
X1376418Y18684D02*
Y21684D01*
X1410918Y20184D02*
X1413918D01*
X1412418Y18684D02*
Y21684D01*
X1419918Y20184D02*
X1422918D01*
X1421418Y18684D02*
Y21684D01*
X1401918Y20184D02*
X1404918D01*
X1403418Y18684D02*
Y21684D01*
X1446918Y20184D02*
X1449918D01*
X1448418Y18684D02*
Y21684D01*
X1437918Y20184D02*
X1440918D01*
X1439418Y18684D02*
Y21684D01*
X1428918Y20184D02*
X1431918D01*
X1430418Y18684D02*
Y21684D01*
X1293918Y20184D02*
X1296918D01*
X1295418Y18684D02*
Y21684D01*
X1302918Y20184D02*
X1305918D01*
X1304418Y18684D02*
Y21684D01*
X1284918Y20184D02*
X1287918D01*
X1286418Y18684D02*
Y21684D01*
X1329918Y20184D02*
X1332918D01*
X1331418Y18684D02*
Y21684D01*
X1356918Y20184D02*
X1359918D01*
X1358418Y18684D02*
Y21684D01*
X1365918Y20184D02*
X1368918D01*
X1367418Y18684D02*
Y21684D01*
X1338918Y20184D02*
X1341918D01*
X1340418Y18684D02*
Y21684D01*
X1347918Y20184D02*
X1350918D01*
X1349418Y18684D02*
Y21684D01*
X1320918Y20184D02*
X1323918D01*
X1322418Y18684D02*
Y21684D01*
X1311918Y20184D02*
X1314918D01*
X1313418Y18684D02*
Y21684D01*
X1223000Y271000D02*
X1225000D01*
X1224000Y270000D02*
Y272000D01*
X1171511Y221489D02*
X1173511D01*
X1172511Y220489D02*
Y222489D01*
X1079511Y221489D02*
X1081511D01*
X1080511Y220489D02*
Y222489D01*
X1275000Y213000D02*
X1277000D01*
X1276000Y212000D02*
Y214000D01*
X1246000Y184000D02*
X1248000D01*
X1247000Y183000D02*
Y185000D01*
X1269000Y168000D02*
X1271000D01*
X1270000Y167000D02*
Y169000D01*
X1279000Y168000D02*
X1281000D01*
X1280000Y167000D02*
Y169000D01*
X1209750Y215750D02*
X1211750D01*
X1210750Y214750D02*
Y216750D01*
X1219000Y183000D02*
X1221000D01*
X1220000Y182000D02*
Y184000D01*
X1103000Y221000D02*
X1105000D01*
X1104000Y220000D02*
Y222000D01*
X1194000Y168000D02*
X1196000D01*
X1195000Y167000D02*
Y169000D01*
X979000Y386000D02*
X981000D01*
X980000Y385000D02*
Y387000D01*
X952880Y377631D02*
X954880D01*
X953880Y376631D02*
Y378631D01*
X891000Y362000D02*
X893000D01*
X892000Y361000D02*
Y363000D01*
X882880Y377253D02*
X884880D01*
X883880Y376253D02*
Y378253D01*
X820000Y370000D02*
X822000D01*
X821000Y369000D02*
Y371000D01*
X1011489Y221489D02*
X1013489D01*
X1012489Y220489D02*
Y222489D01*
X989511Y221489D02*
X991511D01*
X990511Y220489D02*
Y222489D01*
X919489Y221489D02*
X921489D01*
X920489Y220489D02*
Y222489D01*
X898511Y221489D02*
X900511D01*
X899511Y220489D02*
Y222489D01*
X828489Y221489D02*
X830489D01*
X829489Y220489D02*
Y222489D01*
X1280000Y139000D02*
X1282000D01*
X1281000Y138000D02*
Y140000D01*
X1269000Y139000D02*
X1271000D01*
X1270000Y138000D02*
Y140000D01*
X1269000Y119000D02*
X1271000D01*
X1270000Y118000D02*
Y120000D01*
X1225000Y119000D02*
X1227000D01*
X1226000Y118000D02*
Y120000D01*
X1239000Y119000D02*
X1241000D01*
X1240000Y118000D02*
Y120000D01*
X1280000Y119000D02*
X1282000D01*
X1281000Y118000D02*
Y120000D01*
X1171511Y141489D02*
X1173511D01*
X1172511Y140489D02*
Y142489D01*
X1103000Y141000D02*
X1105000D01*
X1104000Y140000D02*
Y142000D01*
X1079511Y141489D02*
X1081511D01*
X1080511Y140489D02*
Y142489D01*
X1196000Y119000D02*
X1198000D01*
X1197000Y118000D02*
Y120000D01*
X1195000Y139000D02*
X1197000D01*
X1196000Y138000D02*
Y140000D01*
X1239918Y20184D02*
X1242918D01*
X1241418Y18684D02*
Y21684D01*
X1230918Y20184D02*
X1233918D01*
X1232418Y18684D02*
Y21684D01*
X1194918Y20184D02*
X1197918D01*
X1196418Y18684D02*
Y21684D01*
X1185918Y20184D02*
X1188918D01*
X1187418Y18684D02*
Y21684D01*
X1212918Y20184D02*
X1215918D01*
X1214418Y18684D02*
Y21684D01*
X1221918Y20184D02*
X1224918D01*
X1223418Y18684D02*
Y21684D01*
X1203918Y20184D02*
X1206918D01*
X1205418Y18684D02*
Y21684D01*
X1266918Y20184D02*
X1269918D01*
X1268418Y18684D02*
Y21684D01*
X1275918Y20184D02*
X1278918D01*
X1277418Y18684D02*
Y21684D01*
X1248918Y20184D02*
X1251918D01*
X1250418Y18684D02*
Y21684D01*
X1257918Y20184D02*
X1260918D01*
X1259418Y18684D02*
Y21684D01*
X1176918Y20184D02*
X1179918D01*
X1178418Y18684D02*
Y21684D01*
X1113918Y20184D02*
X1116918D01*
X1115418Y18684D02*
Y21684D01*
X1140918Y20184D02*
X1143918D01*
X1142418Y18684D02*
Y21684D01*
X1149918Y20184D02*
X1152918D01*
X1151418Y18684D02*
Y21684D01*
X1122918Y20184D02*
X1125918D01*
X1124418Y18684D02*
Y21684D01*
X1131918Y20184D02*
X1134918D01*
X1133418Y18684D02*
Y21684D01*
X1068918Y20184D02*
X1071918D01*
X1070418Y18684D02*
Y21684D01*
X1077918Y20184D02*
X1080918D01*
X1079418Y18684D02*
Y21684D01*
X1050918Y20184D02*
X1053918D01*
X1052418Y18684D02*
Y21684D01*
X1059918Y20184D02*
X1062918D01*
X1061418Y18684D02*
Y21684D01*
X1095918Y20184D02*
X1098918D01*
X1097418Y18684D02*
Y21684D01*
X1104918Y20184D02*
X1107918D01*
X1106418Y18684D02*
Y21684D01*
X1086918Y20184D02*
X1089918D01*
X1088418Y18684D02*
Y21684D01*
X1167918Y20184D02*
X1170918D01*
X1169418Y18684D02*
Y21684D01*
X1158918Y20184D02*
X1161918D01*
X1160418Y18684D02*
Y21684D01*
X1011489Y141489D02*
X1013489D01*
X1012489Y140489D02*
Y142489D01*
X919489Y141489D02*
X921489D01*
X920489Y140489D02*
Y142489D01*
X989511Y141489D02*
X991511D01*
X990511Y140489D02*
Y142489D01*
X898511Y141489D02*
X900511D01*
X899511Y140489D02*
Y142489D01*
X828489Y141489D02*
X830489D01*
X829489Y140489D02*
Y142489D01*
X777000Y143000D02*
X779000D01*
X778000Y142000D02*
Y144000D01*
X807000Y52000D02*
X809000D01*
X808000Y51000D02*
Y53000D01*
X790000Y27000D02*
X792000D01*
X791000Y26000D02*
Y28000D01*
X752000Y52000D02*
X754000D01*
X753000Y51000D02*
Y53000D01*
X978919Y20184D02*
X981919D01*
X980419Y18684D02*
Y21684D01*
X987919Y20184D02*
X990919D01*
X989419Y18684D02*
Y21684D01*
X960919Y20184D02*
X963919D01*
X962419Y18684D02*
Y21684D01*
X969919Y20184D02*
X972919D01*
X971419Y18684D02*
Y21684D01*
X915919Y20184D02*
X918919D01*
X917419Y18684D02*
Y21684D01*
X924919Y20184D02*
X927919D01*
X926419Y18684D02*
Y21684D01*
X897919Y20184D02*
X900919D01*
X899419Y18684D02*
Y21684D01*
X906919Y20184D02*
X909919D01*
X908419Y18684D02*
Y21684D01*
X942919Y20184D02*
X945919D01*
X944419Y18684D02*
Y21684D01*
X951919Y20184D02*
X954919D01*
X953419Y18684D02*
Y21684D01*
X933919Y20184D02*
X936919D01*
X935419Y18684D02*
Y21684D01*
X996919Y20184D02*
X999919D01*
X998419Y18684D02*
Y21684D01*
X1005919Y20184D02*
X1008919D01*
X1007419Y18684D02*
Y21684D01*
X1032918Y20184D02*
X1035919D01*
X1034418Y18684D02*
Y21684D01*
X1041918Y20184D02*
X1044919D01*
X1043419Y18684D02*
Y21684D01*
X1014919Y20184D02*
X1017918D01*
X1016419Y18684D02*
Y21684D01*
X1023919Y20184D02*
X1026918D01*
X1025418Y18684D02*
Y21684D01*
X879919Y20184D02*
X882919D01*
X881419Y18684D02*
Y21684D01*
X888919Y20184D02*
X891919D01*
X890419Y18684D02*
Y21684D01*
X870919Y20184D02*
X873919D01*
X872419Y18684D02*
Y21684D01*
X807919Y20184D02*
X810919D01*
X809419Y18684D02*
Y21684D01*
X834919Y20184D02*
X837919D01*
X836419Y18684D02*
Y21684D01*
X843919Y20184D02*
X846919D01*
X845419Y18684D02*
Y21684D01*
X816919Y20184D02*
X819919D01*
X818419Y18684D02*
Y21684D01*
X825919Y20184D02*
X828919D01*
X827419Y18684D02*
Y21684D01*
X771919Y20184D02*
X774919D01*
X773419Y18684D02*
Y21684D01*
X753919Y20184D02*
X756919D01*
X755419Y18684D02*
Y21684D01*
X762919Y20184D02*
X765919D01*
X764419Y18684D02*
Y21684D01*
X789919Y20184D02*
X792919D01*
X791419Y18684D02*
Y21684D01*
X798919Y20184D02*
X801919D01*
X800419Y18684D02*
Y21684D01*
X780919Y20184D02*
X783919D01*
X782419Y18684D02*
Y21684D01*
X861919Y20184D02*
X864919D01*
X863419Y18684D02*
Y21684D01*
X852919Y20184D02*
X855919D01*
X854419Y18684D02*
Y21684D01*
X707165Y789816D02*
X710165D01*
X708665Y788316D02*
Y791316D01*
X698165Y789816D02*
X701165D01*
X699665Y788316D02*
Y791316D01*
X734165Y789816D02*
X737165D01*
X735665Y788316D02*
Y791316D01*
X743165Y789816D02*
X746164D01*
X744665Y788316D02*
Y791316D01*
X716165Y789816D02*
X719165D01*
X717665Y788316D02*
Y791316D01*
X725165Y789816D02*
X728165D01*
X726665Y788316D02*
Y791316D01*
X689165Y789816D02*
X692165D01*
X690665Y788316D02*
Y791316D01*
X671165Y789816D02*
X674165D01*
X672665Y788316D02*
Y791316D01*
X680165Y789816D02*
X683165D01*
X681665Y788316D02*
Y791316D01*
X726000Y758000D02*
X728000D01*
X727000Y757000D02*
Y759000D01*
X689000D02*
X691000D01*
X690000Y758000D02*
Y760000D01*
X617165Y789816D02*
X620165D01*
X618665Y788316D02*
Y791316D01*
X626165Y789816D02*
X629165D01*
X627665Y788316D02*
Y791316D01*
X599165Y789816D02*
X602165D01*
X600665Y788316D02*
Y791316D01*
X608165Y789816D02*
X611165D01*
X609665Y788316D02*
Y791316D01*
X653165Y789816D02*
X656165D01*
X654665Y788316D02*
Y791316D01*
X662165Y789816D02*
X665165D01*
X663665Y788316D02*
Y791316D01*
X635165Y789816D02*
X638165D01*
X636665Y788316D02*
Y791316D01*
X644165Y789816D02*
X647165D01*
X645665Y788316D02*
Y791316D01*
X563165Y789816D02*
X566165D01*
X564665Y788316D02*
Y791316D01*
X572165Y789816D02*
X575165D01*
X573665Y788316D02*
Y791316D01*
X545165Y789816D02*
X548165D01*
X546665Y788316D02*
Y791316D01*
X554165Y789816D02*
X557165D01*
X555665Y788316D02*
Y791316D01*
X590165Y789816D02*
X593165D01*
X591665Y788316D02*
Y791316D01*
X581165Y789816D02*
X584165D01*
X582665Y788316D02*
Y791316D01*
X709000Y711000D02*
X711000D01*
X710000Y710000D02*
Y712000D01*
X590000Y688000D02*
X592000D01*
X591000Y687000D02*
Y689000D01*
X730000Y642000D02*
X732000D01*
X731000Y641000D02*
Y643000D01*
X574000Y662000D02*
X576000D01*
X575000Y661000D02*
Y663000D01*
X565000Y723000D02*
X567000D01*
X566000Y722000D02*
Y724000D01*
X540500Y571500D02*
X542500D01*
X541500Y570500D02*
Y572500D01*
X566500Y567500D02*
X568500D01*
X567500Y566500D02*
Y568500D01*
X566500Y551500D02*
X568500D01*
X567500Y550500D02*
Y552500D01*
X500165Y789816D02*
X503165D01*
X501665Y788316D02*
Y791316D01*
X527165Y789816D02*
X530165D01*
X528665Y788316D02*
Y791316D01*
X536165Y789816D02*
X539165D01*
X537665Y788316D02*
Y791316D01*
X509165Y789816D02*
X512165D01*
X510665Y788316D02*
Y791316D01*
X518165Y789816D02*
X521165D01*
X519665Y788316D02*
Y791316D01*
X464165Y789816D02*
X467165D01*
X465665Y788316D02*
Y791316D01*
X446165Y789816D02*
X449165D01*
X447665Y788316D02*
Y791316D01*
X455165Y789816D02*
X458165D01*
X456665Y788316D02*
Y791316D01*
X482165Y789816D02*
X485165D01*
X483665Y788316D02*
Y791316D01*
X491165Y789816D02*
X494165D01*
X492665Y788316D02*
Y791316D01*
X473165Y789816D02*
X476165D01*
X474665Y788316D02*
Y791316D01*
X517000Y757000D02*
X519000D01*
X518000Y756000D02*
Y758000D01*
X401165Y789816D02*
X404165D01*
X402665Y788316D02*
Y791316D01*
X410165Y789816D02*
X413165D01*
X411665Y788316D02*
Y791316D01*
X428165Y789816D02*
X431165D01*
X429665Y788316D02*
Y791316D01*
X437165Y789816D02*
X440165D01*
X438665Y788316D02*
Y791316D01*
X419165Y789816D02*
X422165D01*
X420665Y788316D02*
Y791316D01*
X383165Y789816D02*
X386165D01*
X384665Y788316D02*
Y791316D01*
X365165Y789816D02*
X368165D01*
X366665Y788316D02*
Y791316D01*
X374165Y789816D02*
X377165D01*
X375665Y788316D02*
Y791316D01*
X392165Y789816D02*
X395165D01*
X393665Y788316D02*
Y791316D01*
X440000Y704000D02*
X442000D01*
X441000Y703000D02*
Y705000D01*
X368000Y734000D02*
X370000D01*
X369000Y733000D02*
Y735000D01*
X509000Y688000D02*
X511000D01*
X510000Y687000D02*
Y689000D01*
X537000Y663000D02*
X539000D01*
X538000Y662000D02*
Y664000D01*
X496500Y581500D02*
X498500D01*
X497500Y580500D02*
Y582500D01*
X490500Y567500D02*
X492500D01*
X491500Y566500D02*
Y568500D01*
X441000Y688000D02*
X443000D01*
X442000Y687000D02*
Y689000D01*
X363752Y574749D02*
X365752D01*
X364752Y573750D02*
Y575750D01*
X364002Y549499D02*
X366003D01*
X365003Y548499D02*
Y550499D01*
X363752Y564749D02*
X365752D01*
X364752Y563750D02*
Y565750D01*
X717000Y529000D02*
X719000D01*
X718000Y528000D02*
Y530000D01*
X702000Y527000D02*
X704000D01*
X703000Y526000D02*
Y528000D01*
X680000Y483000D02*
X682000D01*
X681000Y482000D02*
Y484000D01*
X718000Y476000D02*
X720000D01*
X719000Y475000D02*
Y477000D01*
X600750Y459250D02*
X602750D01*
X601750Y458250D02*
Y460250D01*
X566500Y543500D02*
X568500D01*
X567500Y542500D02*
Y544500D01*
X566500Y527500D02*
X568500D01*
X567500Y526500D02*
Y528500D01*
X566500Y471500D02*
X568500D01*
X567500Y470500D02*
Y472500D01*
X586500Y427000D02*
X588500D01*
X587500Y426000D02*
Y428000D01*
X566500Y455500D02*
X568500D01*
X567500Y454500D02*
Y456500D01*
X659000Y412750D02*
X661000D01*
X660000Y411750D02*
Y413750D01*
X556500Y539500D02*
X558500D01*
X557500Y538500D02*
Y540500D01*
X508500Y547500D02*
X510500D01*
X509500Y546500D02*
Y548500D01*
X508500Y539500D02*
X510500D01*
X509500Y538500D02*
Y540500D01*
X508500Y523500D02*
X510500D01*
X509500Y522500D02*
Y524500D01*
X490500Y527500D02*
X492500D01*
X491500Y526500D02*
Y528500D01*
X490500Y535500D02*
X492500D01*
X491500Y534500D02*
Y536500D01*
X383000Y542000D02*
X385000D01*
X384000Y541000D02*
Y543000D01*
X441000Y527000D02*
X443000D01*
X442000Y526000D02*
Y528000D01*
X441000Y518000D02*
X443000D01*
X442000Y517000D02*
Y519000D01*
X548500Y507500D02*
X550500D01*
X549500Y506500D02*
Y508500D01*
X508500Y507500D02*
X510500D01*
X509500Y506500D02*
Y508500D01*
X490500Y487500D02*
X492500D01*
X491500Y486500D02*
Y488500D01*
X556500Y483750D02*
X558500D01*
X557500Y482750D02*
Y484750D01*
X490500Y471500D02*
X492500D01*
X491500Y470500D02*
Y472500D01*
X489500Y455500D02*
X491500D01*
X490500Y454500D02*
Y456500D01*
X470000Y499500D02*
X472000D01*
X471000Y498500D02*
Y500500D01*
X393000Y408000D02*
X395000D01*
X394000Y407000D02*
Y409000D01*
X377000Y408000D02*
X379000D01*
X378000Y407000D02*
Y409000D01*
X320165Y789816D02*
X323165D01*
X321665Y788316D02*
Y791316D01*
X347165Y789816D02*
X350165D01*
X348665Y788316D02*
Y791316D01*
X356165Y789816D02*
X359165D01*
X357665Y788316D02*
Y791316D01*
X329165Y789816D02*
X332165D01*
X330665Y788316D02*
Y791316D01*
X338165Y789816D02*
X341165D01*
X339665Y788316D02*
Y791316D01*
X293165Y789816D02*
X296165D01*
X294666Y788316D02*
Y791316D01*
X302165Y789816D02*
X305165D01*
X303665Y788316D02*
Y791316D01*
X275166Y789816D02*
X278165D01*
X276665Y788316D02*
Y791316D01*
X284165Y789816D02*
X287166D01*
X285665Y788316D02*
Y791316D01*
X311165Y789816D02*
X314165D01*
X312665Y788316D02*
Y791316D01*
X330000Y733000D02*
X332000D01*
X331000Y732000D02*
Y734000D01*
X301000Y745000D02*
X303000D01*
X302000Y744000D02*
Y746000D01*
X239166Y789816D02*
X242166D01*
X240666Y788316D02*
Y791316D01*
X248165Y789816D02*
X251166D01*
X249666Y788316D02*
Y791316D01*
X221166Y789816D02*
X224166D01*
X222666Y788316D02*
Y791316D01*
X230166Y789816D02*
X233166D01*
X231666Y788316D02*
Y791316D01*
X257166Y789816D02*
X260166D01*
X258666Y788316D02*
Y791316D01*
X266166Y789816D02*
X269165D01*
X267666Y788316D02*
Y791316D01*
X185166Y789816D02*
X188166D01*
X186666Y788316D02*
Y791316D01*
X194166Y789816D02*
X197166D01*
X195666Y788316D02*
Y791316D01*
X167166Y789816D02*
X170166D01*
X168666Y788316D02*
Y791316D01*
X176166Y789816D02*
X179166D01*
X177666Y788316D02*
Y791316D01*
X203166Y789816D02*
X206166D01*
X204666Y788316D02*
Y791316D01*
X212166Y789816D02*
X215166D01*
X213666Y788316D02*
Y791316D01*
X166000Y746000D02*
X168000D01*
X167000Y745000D02*
Y747000D01*
X309000Y713000D02*
X311000D01*
X310000Y712000D02*
Y714000D01*
X309000Y674000D02*
X311000D01*
X310000Y673000D02*
Y675000D01*
X317967Y633851D02*
X319967D01*
X318967Y632851D02*
Y634851D01*
X312967Y633851D02*
X314967D01*
X313967Y632851D02*
Y634851D01*
X307717Y602601D02*
X309717D01*
X308717Y601601D02*
Y603601D01*
X307717Y615101D02*
X309717D01*
X308717Y614101D02*
Y616101D01*
X307717Y608851D02*
X309717D01*
X308717Y607851D02*
Y609851D01*
X307717Y633851D02*
X309717D01*
X308717Y632851D02*
Y634851D01*
X307717Y627351D02*
X309717D01*
X308717Y626351D02*
Y628351D01*
X297467Y633851D02*
X299467D01*
X298467Y632851D02*
Y634851D01*
X302467Y633851D02*
X304467D01*
X303467Y632851D02*
Y634851D01*
X307717Y621101D02*
X309717D01*
X308717Y620101D02*
Y622101D01*
X173000Y714000D02*
X175000D01*
X174000Y713000D02*
Y715000D01*
X177000Y693000D02*
X179000D01*
X178000Y692000D02*
Y694000D01*
X131166Y789816D02*
X134166D01*
X132666Y788316D02*
Y791316D01*
X140166Y789816D02*
X143166D01*
X141666Y788316D02*
Y791316D01*
X122166Y789816D02*
X125166D01*
X123666Y788316D02*
Y791316D01*
X158166Y789816D02*
X161166D01*
X159666Y788316D02*
Y791316D01*
X149166Y789816D02*
X152166D01*
X150666Y788316D02*
Y791316D01*
X95166Y789816D02*
X98166D01*
X96666Y788316D02*
Y791316D01*
X113166Y789816D02*
X116166D01*
X114666Y788316D02*
Y791316D01*
X104166Y789816D02*
X107166D01*
X105666Y788316D02*
Y791316D01*
X108850Y708150D02*
X110850D01*
X109850Y707150D02*
Y709150D01*
X99850Y708150D02*
X101850D01*
X100850Y707150D02*
Y709150D01*
X77166Y789816D02*
X80166D01*
X78666Y788316D02*
Y791316D01*
X86166Y789816D02*
X89166D01*
X87666Y788316D02*
Y791316D01*
X59166Y789816D02*
X62166D01*
X60666Y788316D02*
Y791316D01*
X68166Y789816D02*
X71166D01*
X69666Y788316D02*
Y791316D01*
X38013Y789841D02*
X41013D01*
X39513Y788341D02*
Y791341D01*
X50166Y789816D02*
X53166D01*
X51666Y788316D02*
Y791316D01*
X29135Y788362D02*
X32135D01*
X30635Y786862D02*
Y789862D01*
X21114Y784281D02*
X24114D01*
X22613Y782781D02*
Y785781D01*
X14685Y777982D02*
X17685D01*
X16185Y776482D02*
Y779482D01*
X10423Y770055D02*
X13423D01*
X11923Y768555D02*
Y771555D01*
X8716Y761218D02*
X11716D01*
X10216Y759718D02*
Y762718D01*
X8691Y734218D02*
X11691D01*
X10191Y732718D02*
Y735718D01*
X8686Y752218D02*
X11686D01*
X10186Y750718D02*
Y753718D01*
X8688Y743218D02*
X11688D01*
X10188Y741718D02*
Y744718D01*
X8695Y716218D02*
X11695D01*
X10195Y714718D02*
Y717718D01*
X8698Y707218D02*
X11698D01*
X10198Y705718D02*
Y708718D01*
X8693Y725218D02*
X11693D01*
X10193Y723718D02*
Y726718D01*
X8705Y680218D02*
X11705D01*
X10205Y678718D02*
Y681718D01*
X8708Y671218D02*
X11708D01*
X10208Y669718D02*
Y672718D01*
X8700Y698218D02*
X11700D01*
X10200Y696718D02*
Y699718D01*
X8703Y689218D02*
X11703D01*
X10203Y687718D02*
Y690718D01*
X8713Y653219D02*
X11713D01*
X10213Y651719D02*
Y654718D01*
X8715Y644219D02*
X11715D01*
X10215Y642719D02*
Y645719D01*
X8710Y662218D02*
X11710D01*
X10210Y660719D02*
Y663718D01*
X8718Y635219D02*
X11718D01*
X10218Y633718D02*
Y636718D01*
X8720Y626219D02*
X11720D01*
X10220Y624719D02*
Y627719D01*
X8725Y608219D02*
X11725D01*
X10225Y606719D02*
Y609719D01*
X8727Y599219D02*
X11727D01*
X10227Y597719D02*
Y600719D01*
X8723Y617219D02*
X11723D01*
X10223Y615719D02*
Y618719D01*
X307717Y596351D02*
X309717D01*
X308717Y595351D02*
Y597351D01*
X172000Y589000D02*
X174000D01*
X173000Y588000D02*
Y590000D01*
X254752Y566499D02*
X256752D01*
X255752Y565499D02*
Y567499D01*
X307752Y500499D02*
X309752D01*
X308752Y499500D02*
Y501499D01*
X307752Y531499D02*
X309752D01*
X308752Y530499D02*
Y532499D01*
X307752Y525249D02*
X309752D01*
X308752Y524249D02*
Y526249D01*
X307752Y512749D02*
X309752D01*
X308752Y511749D02*
Y513749D01*
X307752Y506749D02*
X309752D01*
X308752Y505750D02*
Y507749D01*
X307752Y518999D02*
X309752D01*
X308752Y517999D02*
Y519999D01*
X360000Y408000D02*
X362000D01*
X361000Y407000D02*
Y409000D01*
X343000Y408000D02*
X345000D01*
X344000Y407000D02*
Y409000D01*
X318002Y493999D02*
X320002D01*
X319002Y492999D02*
Y494999D01*
X307752Y493999D02*
X309752D01*
X308752Y492999D02*
Y494999D01*
X313002Y493999D02*
X315002D01*
X314002Y492999D02*
Y494999D01*
X297502Y493999D02*
X299502D01*
X298502Y492999D02*
Y494999D01*
X302502Y493999D02*
X304502D01*
X303502Y492999D02*
Y494999D01*
X172000Y497000D02*
X174000D01*
X173000Y496000D02*
Y498000D01*
X172000Y405000D02*
X174000D01*
X173000Y404000D02*
Y406000D01*
X74000Y589000D02*
X76000D01*
X75000Y588000D02*
Y590000D01*
X74000Y497000D02*
X76000D01*
X75000Y496000D02*
Y498000D01*
X8732Y581219D02*
X11732D01*
X10232Y579719D02*
Y582719D01*
X8735Y572219D02*
X11735D01*
X10235Y570719D02*
Y573719D01*
X8730Y590219D02*
X11730D01*
X10230Y588719D02*
Y591719D01*
X8740Y554219D02*
X11740D01*
X10240Y552719D02*
Y555719D01*
X8742Y545219D02*
X11742D01*
X10242Y543719D02*
Y546719D01*
X8737Y563219D02*
X11737D01*
X10237Y561719D02*
Y564719D01*
X8745Y536219D02*
X11745D01*
X10244Y534719D02*
Y537719D01*
X8747Y527219D02*
X11747D01*
X10247Y525719D02*
Y528719D01*
X8752Y509219D02*
X11752D01*
X10252Y507719D02*
Y510719D01*
X8754Y500219D02*
X11754D01*
X10254Y498719D02*
Y501719D01*
X8749Y518219D02*
X11749D01*
X10249Y516719D02*
Y519719D01*
X74000Y405000D02*
X76000D01*
X75000Y404000D02*
Y406000D01*
X8759Y482219D02*
X11759D01*
X10259Y480719D02*
Y483719D01*
X8762Y473219D02*
X11762D01*
X10262Y471719D02*
Y474719D01*
X8757Y491219D02*
X11757D01*
X10257Y489719D02*
Y492719D01*
X8767Y455219D02*
X11767D01*
X10267Y453719D02*
Y456719D01*
X8769Y446219D02*
X11769D01*
X10269Y444719D02*
Y447719D01*
X8764Y464219D02*
X11764D01*
X10264Y462719D02*
Y465719D01*
X8771Y437219D02*
X11772D01*
X10272Y435719D02*
Y438719D01*
X8774Y428219D02*
X11774D01*
X10274Y426719D02*
Y429719D01*
X8779Y410219D02*
X11779D01*
X10279Y408719D02*
Y411719D01*
X8781Y401219D02*
X11781D01*
X10281Y399719D02*
Y402719D01*
X8776Y419219D02*
X11776D01*
X10276Y417719D02*
Y420719D01*
X721000Y143000D02*
X723000D01*
X722000Y142000D02*
Y144000D01*
X741000Y33000D02*
X743000D01*
X742000Y32000D02*
Y34000D01*
X744919Y20184D02*
X747919D01*
X746419Y18684D02*
Y21684D01*
X735919Y20184D02*
X738919D01*
X737419Y18684D02*
Y21684D01*
X717919Y20184D02*
X720919D01*
X719419Y18684D02*
Y21684D01*
X726919Y20184D02*
X729919D01*
X728419Y18684D02*
Y21684D01*
X708919Y20184D02*
X711919D01*
X710419Y18684D02*
Y21684D01*
X697000Y52122D02*
X699000D01*
X698000Y51122D02*
Y53122D01*
X686000Y33122D02*
X688000D01*
X687000Y32122D02*
Y34122D01*
X699919Y20184D02*
X702919D01*
X701419Y18684D02*
Y21684D01*
X681919Y20184D02*
X684919D01*
X683419Y18684D02*
Y21684D01*
X690919Y20184D02*
X693919D01*
X692419Y18684D02*
Y21684D01*
X672919Y20184D02*
X675919D01*
X674419Y18684D02*
Y21684D01*
X666000Y143000D02*
X668000D01*
X667000Y142000D02*
Y144000D01*
X654919Y20184D02*
X657919D01*
X656419Y18684D02*
Y21684D01*
X663919Y20184D02*
X666919D01*
X665419Y18684D02*
Y21684D01*
X645919Y20184D02*
X648919D01*
X647419Y18684D02*
Y21684D01*
X642000Y52000D02*
X644000D01*
X643000Y51000D02*
Y53000D01*
X636919Y20184D02*
X639919D01*
X638419Y18684D02*
Y21684D01*
X611000Y143000D02*
X613000D01*
X612000Y142000D02*
Y144000D01*
X631000Y33000D02*
X633000D01*
X632000Y32000D02*
Y34000D01*
X618919Y20184D02*
X621919D01*
X620419Y18684D02*
Y21684D01*
X627919Y20184D02*
X630919D01*
X629419Y18684D02*
Y21684D01*
X609919Y20184D02*
X612919D01*
X611419Y18684D02*
Y21684D01*
X573919Y20184D02*
X576919D01*
X575419Y18684D02*
Y21684D01*
X591919Y20184D02*
X594919D01*
X593419Y18684D02*
Y21684D01*
X600919Y20184D02*
X603919D01*
X602419Y18684D02*
Y21684D01*
X582919Y20184D02*
X585919D01*
X584419Y18684D02*
Y21684D01*
X368850Y207150D02*
X370850D01*
X369850Y206150D02*
Y208150D01*
X377850Y190150D02*
X379850D01*
X378850Y189150D02*
Y191150D01*
X368850Y198150D02*
X370850D01*
X369850Y197150D02*
Y199150D01*
X368850Y190150D02*
X370850D01*
X369850Y189150D02*
Y191150D01*
X359850Y207150D02*
X361850D01*
X360850Y206150D02*
Y208150D01*
X359850Y198150D02*
X361850D01*
X360850Y197150D02*
Y199150D01*
X359850Y190150D02*
X361850D01*
X360850Y189150D02*
Y191150D01*
X172000Y314000D02*
X174000D01*
X173000Y313000D02*
Y315000D01*
X74000Y314000D02*
X76000D01*
X75000Y313000D02*
Y315000D01*
X8786Y383219D02*
X11786D01*
X10286Y381719D02*
Y384719D01*
X8789Y374219D02*
X11789D01*
X10289Y372719D02*
Y375719D01*
X8784Y392219D02*
X11784D01*
X10284Y390719D02*
Y393719D01*
X8794Y356219D02*
X11794D01*
X10294Y354719D02*
Y357719D01*
X8796Y347219D02*
X11796D01*
X10296Y345719D02*
Y348719D01*
X8791Y365219D02*
X11791D01*
X10291Y363719D02*
Y366719D01*
X8801Y329219D02*
X11801D01*
X10301Y327719D02*
Y330719D01*
X8803Y320219D02*
X11803D01*
X10303Y318719D02*
Y321719D01*
X8798Y338219D02*
X11798D01*
X10299Y336719D02*
Y339719D01*
X8808Y302219D02*
X11808D01*
X10308Y300719D02*
Y303719D01*
X8811Y293219D02*
X11811D01*
X10311Y291719D02*
Y294719D01*
X8806Y311219D02*
X11806D01*
X10306Y309719D02*
Y312719D01*
X154000Y244000D02*
X156000D01*
X155000Y243000D02*
Y245000D01*
X141000Y238000D02*
X143000D01*
X142000Y237000D02*
Y239000D01*
X124000Y245000D02*
X126000D01*
X125000Y244000D02*
Y246000D01*
X84000Y197000D02*
X86000D01*
X85000Y196000D02*
Y198000D01*
X8830Y221219D02*
X11830D01*
X10330Y219719D02*
Y222719D01*
X8818Y266219D02*
X11818D01*
X10318Y264719D02*
Y267719D01*
X8820Y257219D02*
X11820D01*
X10321Y255719D02*
Y258719D01*
X8813Y284219D02*
X11813D01*
X10313Y282719D02*
Y285719D01*
X8816Y275219D02*
X11816D01*
X10316Y273719D02*
Y276719D01*
X8825Y239219D02*
X11825D01*
X10325Y237719D02*
Y240719D01*
X8828Y230219D02*
X11828D01*
X10328Y228719D02*
Y231719D01*
X8823Y248219D02*
X11823D01*
X10323Y246719D02*
Y249719D01*
X60000Y202000D02*
X62000D01*
X61000Y201000D02*
Y203000D01*
X8835Y203219D02*
X11835D01*
X10335Y201719D02*
Y204719D01*
X8838Y194219D02*
X11838D01*
X10338Y192719D02*
Y195719D01*
X8833Y212219D02*
X11833D01*
X10333Y210719D02*
Y213719D01*
X8843Y176220D02*
X11842D01*
X10343Y174720D02*
Y177719D01*
X8845Y167220D02*
X11845D01*
X10345Y165720D02*
Y168720D01*
X8840Y185219D02*
X11840D01*
X10340Y183719D02*
Y186719D01*
X563000Y125000D02*
X565000D01*
X564000Y124000D02*
Y126000D01*
X529000D02*
X531000D01*
X530000Y125000D02*
Y127000D01*
X506000Y130000D02*
X508000D01*
X507000Y129000D02*
Y131000D01*
X519920Y20184D02*
X522920D01*
X521419Y18684D02*
Y21684D01*
X528919Y20184D02*
X531920D01*
X530420Y18684D02*
Y21684D01*
X501920Y20184D02*
X504920D01*
X503419Y18684D02*
Y21684D01*
X510919Y20184D02*
X513919D01*
X512420Y18684D02*
Y21684D01*
X465920Y20184D02*
X468920D01*
X467420Y18684D02*
Y21684D01*
X447920Y20184D02*
X450920D01*
X449420Y18684D02*
Y21684D01*
X456920Y20184D02*
X459920D01*
X458420Y18684D02*
Y21684D01*
X483920Y20184D02*
X486920D01*
X485420Y18684D02*
Y21684D01*
X492920Y20184D02*
X495920D01*
X494420Y18684D02*
Y21684D01*
X474920Y20184D02*
X477920D01*
X476420Y18684D02*
Y21684D01*
X555919Y20184D02*
X558919D01*
X557419Y18684D02*
Y21684D01*
X564919Y20184D02*
X567919D01*
X566419Y18684D02*
Y21684D01*
X537920Y20184D02*
X540919D01*
X539420Y18684D02*
Y21684D01*
X546920Y20184D02*
X549919D01*
X548419Y18684D02*
Y21684D01*
X393920Y20184D02*
X396920D01*
X395420Y18684D02*
Y21684D01*
X402920Y20184D02*
X405920D01*
X404420Y18684D02*
Y21684D01*
X375920Y20184D02*
X378920D01*
X377420Y18684D02*
Y21684D01*
X384920Y20184D02*
X387920D01*
X386420Y18684D02*
Y21684D01*
X429920Y20184D02*
X432920D01*
X431420Y18684D02*
Y21684D01*
X438920Y20184D02*
X441920D01*
X440420Y18684D02*
Y21684D01*
X411920Y20184D02*
X414920D01*
X413420Y18684D02*
Y21684D01*
X420920Y20184D02*
X423920D01*
X422420Y18684D02*
Y21684D01*
X348920Y20184D02*
X351920D01*
X350420Y18684D02*
Y21684D01*
X357920Y20184D02*
X360920D01*
X359420Y18684D02*
Y21684D01*
X339920Y20184D02*
X342920D01*
X341420Y18684D02*
Y21684D01*
X366920Y20184D02*
X369920D01*
X368420Y18684D02*
Y21684D01*
X267920Y20184D02*
X270920D01*
X269420Y18684D02*
Y21684D01*
X258920Y20184D02*
X261920D01*
X260420Y18684D02*
Y21684D01*
X321920Y20184D02*
X324920D01*
X323420Y18684D02*
Y21684D01*
X330920Y20184D02*
X333920D01*
X332420Y18684D02*
Y21684D01*
X303920Y20184D02*
X306920D01*
X305420Y18684D02*
Y21684D01*
X312920Y20184D02*
X315920D01*
X314420Y18684D02*
Y21684D01*
X285920Y20184D02*
X288920D01*
X287420Y18684D02*
Y21684D01*
X294920Y20184D02*
X297920D01*
X296420Y18684D02*
Y21684D01*
X276920Y20184D02*
X279920D01*
X278420Y18684D02*
Y21684D01*
X154000Y120000D02*
X156000D01*
X155000Y119000D02*
Y121000D01*
X224196Y110502D02*
X226196D01*
X225196Y109502D02*
Y111502D01*
X8848Y158219D02*
X11847D01*
X10347Y156720D02*
Y159719D01*
X8850Y149220D02*
X11850D01*
X10350Y147719D02*
Y150719D01*
X8852Y140219D02*
X11852D01*
X10352Y138720D02*
Y141720D01*
X8855Y131220D02*
X11855D01*
X10355Y129720D02*
Y132719D01*
X145000Y125000D02*
X147000D01*
X146000Y124000D02*
Y126000D01*
X134000Y119000D02*
X136000D01*
X135000Y118000D02*
Y120000D01*
X8860Y113220D02*
X11860D01*
X10360Y111720D02*
Y114720D01*
X8862Y104220D02*
X11862D01*
X10362Y102720D02*
Y105720D01*
X8857Y122220D02*
X11857D01*
X10357Y120720D02*
Y123720D01*
X8867Y86220D02*
X11867D01*
X10367Y84720D02*
Y87720D01*
X8870Y77220D02*
X11869D01*
X10369Y75720D02*
Y78720D01*
X8865Y95220D02*
X11865D01*
X10365Y93720D02*
Y96720D01*
X204920Y20184D02*
X207920D01*
X206420Y18684D02*
Y21684D01*
X213920Y20184D02*
X216920D01*
X215420Y18684D02*
Y21684D01*
X186920Y20184D02*
X189920D01*
X188420Y18684D02*
Y21684D01*
X195920Y20184D02*
X198920D01*
X197420Y18684D02*
Y21684D01*
X240920Y20184D02*
X243920D01*
X242420Y18684D02*
Y21684D01*
X249920Y20184D02*
X252920D01*
X251420Y18684D02*
Y21684D01*
X222920Y20184D02*
X225920D01*
X224420Y18684D02*
Y21684D01*
X231920Y20184D02*
X234920D01*
X233420Y18684D02*
Y21684D01*
X141920Y20184D02*
X144920D01*
X143420Y18684D02*
Y21684D01*
X150920Y20184D02*
X153920D01*
X152420Y18684D02*
Y21684D01*
X123920Y20184D02*
X126920D01*
X125420Y18684D02*
Y21684D01*
X132920Y20184D02*
X135920D01*
X134420Y18684D02*
Y21684D01*
X168920Y20184D02*
X171920D01*
X170420Y18684D02*
Y21684D01*
X177920Y20184D02*
X180920D01*
X179420Y18684D02*
Y21684D01*
X159920Y20184D02*
X162920D01*
X161420Y18684D02*
Y21684D01*
X13567Y24052D02*
X16567D01*
X15067Y22552D02*
Y25552D01*
X78920Y20184D02*
X81920D01*
X80420Y18684D02*
Y21684D01*
X69920Y20184D02*
X72920D01*
X71420Y18684D02*
Y21684D01*
X8877Y50220D02*
X11877D01*
X10377Y48720D02*
Y51720D01*
X8879Y41220D02*
X11879D01*
X10379Y39720D02*
Y42720D01*
X8872Y68220D02*
X11872D01*
X10372Y66720D02*
Y69720D01*
X8874Y59220D02*
X11874D01*
X10374Y57720D02*
Y60720D01*
X9921Y32280D02*
X12921D01*
X11421Y30780D02*
Y33780D01*
X105920Y20184D02*
X108920D01*
X107420Y18684D02*
Y21684D01*
X114920Y20184D02*
X117920D01*
X116420Y18684D02*
Y21684D01*
X87920Y20184D02*
X90920D01*
X89420Y18684D02*
Y21684D01*
X96920Y20184D02*
X99920D01*
X98420Y18684D02*
Y21684D01*
X60984Y19115D02*
X63984D01*
X62484Y17615D02*
Y20615D01*
X19516Y17298D02*
X22516D01*
X21016Y15798D02*
Y18798D01*
X53329Y14381D02*
X56329D01*
X54829Y12881D02*
Y15881D01*
X44943Y11114D02*
X47943D01*
X46443Y9614D02*
Y12614D01*
X35963Y10516D02*
X38963D01*
X37463Y9016D02*
Y12016D01*
X27218Y12643D02*
X30218D01*
X28718Y11143D02*
Y14143D01*
X1380000Y576000D02*
X1382000D01*
X1381000Y575000D02*
Y577000D01*
X780000Y390000D02*
X782000D01*
X781000Y389000D02*
Y391000D01*
X297000Y139000D02*
X299000D01*
X298000Y138000D02*
Y140000D01*
X258000Y103000D02*
X260000D01*
X259000Y102000D02*
Y104000D01*
Y157000D02*
X261000D01*
X260000Y156000D02*
Y158000D01*
X67000Y100000D02*
X69000D01*
X68000Y99000D02*
Y101000D01*
Y116000D02*
X70000D01*
X69000Y115000D02*
Y117000D01*
X1375000Y733000D02*
X1377000D01*
X1376000Y732000D02*
Y734000D01*
X412000Y414000D02*
X414000D01*
X413000Y413000D02*
Y415000D01*
X404000Y414000D02*
X406000D01*
X405000Y413000D02*
Y415000D01*
X575000Y91000D02*
X577000D01*
X576000Y90000D02*
Y92000D01*
X809000Y200000D02*
X811000D01*
X810000Y199000D02*
Y201000D01*
X1056000Y400000D02*
X1058000D01*
X1057000Y399000D02*
Y401000D01*
X1461000Y424000D02*
X1463000D01*
X1462000Y423000D02*
Y425000D01*
X514000Y125000D02*
X516000D01*
X515000Y124000D02*
Y126000D01*
X578000Y124000D02*
X580000D01*
X579000Y123000D02*
Y125000D01*
X519000Y95000D02*
X521000D01*
X520000Y94000D02*
Y96000D01*
X572000Y67000D02*
X574000D01*
X573000Y66000D02*
Y68000D01*
X320592Y317565D02*
X322592D01*
X321592Y316565D02*
Y318565D01*
X320592Y323565D02*
X322592D01*
X321592Y322565D02*
Y324565D01*
X326592Y323565D02*
X328592D01*
X327592Y322565D02*
Y324565D01*
X252603Y394565D02*
X254603D01*
X253603Y393565D02*
Y395565D01*
X264765Y386565D02*
X266765D01*
X265765Y385565D02*
Y387565D01*
X258603Y394565D02*
X260603D01*
X259603Y393565D02*
Y395565D01*
X326592Y317565D02*
X328592D01*
X327592Y316565D02*
Y318565D01*
X332592Y317565D02*
X334592D01*
X333592Y316565D02*
Y318565D01*
X332592Y323565D02*
X334592D01*
X333592Y322565D02*
Y324565D01*
X600000Y89000D02*
X602000D01*
X601000Y88000D02*
Y90000D01*
X794419Y128749D02*
X796419D01*
X795419Y127749D02*
Y129749D01*
X800000Y48000D02*
X802000D01*
X801000Y47000D02*
Y49000D01*
X1351000Y314000D02*
X1353000D01*
X1352000Y313000D02*
Y315000D01*
X629000Y51000D02*
X631000D01*
X630000Y50000D02*
Y52000D01*
X1517000Y66000D02*
X1519000D01*
X1518000Y65000D02*
Y67000D01*
X1553625Y309375D02*
X1555625D01*
X1554625Y308375D02*
Y310375D01*
X616710Y128122D02*
X618710D01*
X617710Y127122D02*
Y129122D01*
X781710Y128122D02*
X783710D01*
X782710Y127122D02*
Y129122D01*
X697000Y129122D02*
X699000D01*
X698000Y128122D02*
Y130122D01*
X1539000Y676000D02*
X1541000D01*
X1540000Y675000D02*
Y677000D01*
X739000Y51000D02*
X741000D01*
X740000Y50000D02*
Y52000D01*
X1401000Y42000D02*
X1403000D01*
X1402000Y41000D02*
Y43000D01*
X1181000Y646000D02*
X1183000D01*
X1182000Y645000D02*
Y647000D01*
X672000Y51122D02*
X674000D01*
X673000Y50122D02*
Y52122D01*
X1525000Y75000D02*
X1527000D01*
X1526000Y74000D02*
Y76000D01*
X1406000Y646000D02*
X1408000D01*
X1407000Y645000D02*
Y647000D01*
X1557000Y628000D02*
X1559000D01*
X1558000Y627000D02*
Y629000D01*
X739419Y128749D02*
X741419D01*
X740419Y127749D02*
Y129749D01*
X745000Y48000D02*
X747000D01*
X746000Y47000D02*
Y49000D01*
X642000Y129000D02*
X644000D01*
X643000Y128000D02*
Y130000D01*
X726710Y128122D02*
X728710D01*
X727710Y127122D02*
Y129122D01*
X807000Y129000D02*
X809000D01*
X808000Y128000D02*
Y130000D01*
X603950Y127000D02*
X605950D01*
X604950Y126000D02*
Y128000D01*
X658950Y127000D02*
X660950D01*
X659950Y126000D02*
Y128000D01*
X713950Y127000D02*
X715950D01*
X714950Y126000D02*
Y128000D01*
X768950D02*
X770950D01*
X769950Y127000D02*
Y129000D01*
X863000Y116000D02*
X865000D01*
X864000Y115000D02*
Y117000D01*
X954000Y116000D02*
X956000D01*
X955000Y115000D02*
Y117000D01*
X1045000Y116000D02*
X1047000D01*
X1046000Y115000D02*
Y117000D01*
X1137000Y116000D02*
X1139000D01*
X1138000Y115000D02*
Y117000D01*
X863000Y196000D02*
X865000D01*
X864000Y195000D02*
Y197000D01*
X954000Y196000D02*
X956000D01*
X955000Y195000D02*
Y197000D01*
X1137000Y196000D02*
X1139000D01*
X1138000Y195000D02*
Y197000D01*
X1045000Y196000D02*
X1047000D01*
X1046000Y195000D02*
Y197000D01*
X121920Y325653D02*
X123920D01*
X122920Y324653D02*
Y326653D01*
X121920Y319653D02*
X123920D01*
X122920Y318653D02*
Y320653D01*
X115920Y319653D02*
X117920D01*
X116920Y318653D02*
Y320653D01*
X53931Y396653D02*
X55931D01*
X54931Y395653D02*
Y397653D01*
X47931Y396653D02*
X49931D01*
X48931Y395653D02*
Y397653D01*
X54093Y388653D02*
X56093D01*
X55093Y387653D02*
Y389653D01*
X41931Y396653D02*
X43931D01*
X42931Y395653D02*
Y397653D01*
X115920Y325653D02*
X117920D01*
X116920Y324653D02*
Y326653D01*
X109920Y325653D02*
X111920D01*
X110920Y324653D02*
Y326653D01*
X109920Y319653D02*
X111920D01*
X110920Y318653D02*
Y320653D01*
X1123000Y548000D02*
X1125000D01*
X1124000Y547000D02*
Y549000D01*
X1568000Y538000D02*
X1570000D01*
X1569000Y537000D02*
Y539000D01*
X1532000Y65000D02*
X1534000D01*
X1533000Y64000D02*
Y66000D01*
X684000Y51122D02*
X686000D01*
X685000Y50122D02*
Y52122D01*
X629419Y128749D02*
X631419D01*
X630419Y127749D02*
Y129749D01*
X635000Y47000D02*
X637000D01*
X636000Y46000D02*
Y48000D01*
X782000Y51000D02*
X784000D01*
X783000Y50000D02*
Y52000D01*
X1384000Y47000D02*
X1386000D01*
X1385000Y46000D02*
Y48000D01*
X1334000Y646000D02*
X1336000D01*
X1335000Y645000D02*
Y647000D01*
X1528000Y633000D02*
X1530000D01*
X1529000Y632000D02*
Y634000D01*
X386000Y459000D02*
X388000D01*
X387000Y458000D02*
Y460000D01*
X392000Y459000D02*
X394000D01*
X393000Y458000D02*
Y460000D01*
X1314000Y406000D02*
X1316000D01*
X1315000Y405000D02*
Y407000D01*
X763000Y33000D02*
X765000D01*
X764000Y32000D02*
Y34000D01*
X708000Y33000D02*
X710000D01*
X709000Y32000D02*
Y34000D01*
X598000Y33000D02*
X600000D01*
X599000Y32000D02*
Y34000D01*
X254000Y479000D02*
X256000D01*
X255000Y478000D02*
Y480000D01*
X254000Y471000D02*
X256000D01*
X255000Y470000D02*
Y472000D01*
X648000Y46000D02*
X650000D01*
X649000Y45000D02*
Y47000D01*
X594807Y72807D02*
X596806D01*
X595807Y71807D02*
Y73807D01*
X231000Y705000D02*
X233000D01*
X232000Y704000D02*
Y706000D01*
X606500Y745000D02*
X608500D01*
X607500Y744000D02*
Y746000D01*
X749000Y745000D02*
X751000D01*
X750000Y744000D02*
Y746000D01*
X207920Y508653D02*
X209920D01*
X208920Y507653D02*
Y509653D01*
X207920Y502653D02*
X209920D01*
X208920Y501653D02*
Y503653D01*
X213920Y502653D02*
X215920D01*
X214920Y501653D02*
Y503653D01*
X213920Y508653D02*
X215920D01*
X214920Y507653D02*
Y509653D01*
X152093Y571653D02*
X154093D01*
X153093Y570653D02*
Y572653D01*
X151931Y579652D02*
X153931D01*
X152931Y578652D02*
Y580653D01*
X139931Y579652D02*
X141931D01*
X140931Y578652D02*
Y580653D01*
X145931Y579652D02*
X147931D01*
X146931Y578652D02*
Y580653D01*
X219920Y508653D02*
X221920D01*
X220920Y507653D02*
Y509653D01*
X219920Y502653D02*
X221920D01*
X220920Y501653D02*
Y503653D01*
X1461000Y460000D02*
X1463000D01*
X1462000Y459000D02*
Y461000D01*
X617000Y51000D02*
X619000D01*
X618000Y50000D02*
Y52000D01*
X1512000Y74000D02*
X1514000D01*
X1513000Y73000D02*
Y75000D01*
X1552000Y461000D02*
X1554000D01*
X1553000Y460000D02*
Y462000D01*
X684419Y128871D02*
X686419D01*
X685419Y127871D02*
Y129871D01*
X691000Y47000D02*
X693000D01*
X692000Y46000D02*
Y48000D01*
X752000Y129000D02*
X754000D01*
X753000Y128000D02*
Y130000D01*
X794000Y51000D02*
X796000D01*
X795000Y50000D02*
Y52000D01*
X1391000D02*
X1393000D01*
X1392000Y51000D02*
Y53000D01*
X1316000Y646000D02*
X1318000D01*
X1317000Y645000D02*
Y647000D01*
X1535000Y640000D02*
X1537000D01*
X1536000Y639000D02*
Y641000D01*
X671710Y128243D02*
X673710D01*
X672710Y127243D02*
Y129243D01*
X1546000Y663000D02*
X1548000D01*
X1547000Y662000D02*
Y664000D01*
X1244000Y646000D02*
X1246000D01*
X1245000Y645000D02*
Y647000D01*
X1410000Y36000D02*
X1412000D01*
X1411000Y35000D02*
Y37000D01*
X727000Y51000D02*
X729000D01*
X728000Y50000D02*
Y52000D01*
X277002Y487500D02*
X279002D01*
X278002Y486499D02*
Y488499D01*
X282252Y487500D02*
X284252D01*
X283252Y486499D02*
Y488499D01*
X277252Y497500D02*
X279252D01*
X278252Y496499D02*
Y498499D01*
X277252Y492499D02*
X279252D01*
X278252Y491499D02*
Y493499D01*
X282252Y497249D02*
X284252D01*
X283252Y496250D02*
Y498250D01*
X272002Y492499D02*
X274002D01*
X273002Y491499D02*
Y493499D01*
X271752Y487500D02*
X273752D01*
X272752Y486499D02*
Y488499D01*
X282252Y492499D02*
X284252D01*
X283252Y491499D02*
Y493499D01*
X86000Y180000D02*
X88000D01*
X87000Y179000D02*
Y181000D01*
X892880Y467631D02*
X894880D01*
X893880Y466631D02*
Y468631D01*
X902880Y467631D02*
X904880D01*
X903880Y466631D02*
Y468631D01*
X922880Y467631D02*
X924880D01*
X923880Y466631D02*
Y468631D01*
X942880Y467631D02*
X944880D01*
X943880Y466631D02*
Y468631D01*
X952880Y467631D02*
X954880D01*
X953880Y466631D02*
Y468631D01*
X902880Y437253D02*
X904880D01*
X903880Y436253D02*
Y438253D01*
X952880Y447631D02*
X954880D01*
X953880Y446631D02*
Y448631D01*
X942880Y407631D02*
X944880D01*
X943880Y406631D02*
Y408631D01*
X962880Y407631D02*
X964880D01*
X963880Y406631D02*
Y408631D01*
X912880Y417631D02*
X914880D01*
X913880Y416631D02*
Y418631D01*
X882880Y417631D02*
X884880D01*
X883880Y416631D02*
Y418631D01*
X942880Y377631D02*
X944880D01*
X943880Y376631D02*
Y378631D01*
X922880Y367381D02*
X924880D01*
X923880Y366381D02*
Y368381D01*
X962880Y467631D02*
X964880D01*
X963880Y466631D02*
Y468631D01*
X932880Y467631D02*
X934880D01*
X933880Y466631D02*
Y468631D01*
X912880Y467631D02*
X914880D01*
X913880Y466631D02*
Y468631D01*
X540000Y314000D02*
X542000D01*
X541000Y313000D02*
Y315000D01*
X540000Y291000D02*
X542000D01*
X541000Y290000D02*
Y292000D01*
X702000Y556000D02*
X704000D01*
X703000Y555000D02*
Y557000D01*
X846000Y545000D02*
X848000D01*
X847000Y544000D02*
Y546000D01*
X953000Y570000D02*
X955000D01*
X954000Y569000D02*
Y571000D01*
X1255000Y420000D02*
X1257000D01*
X1256000Y419000D02*
Y421000D01*
X466000Y610000D02*
X468000D01*
X467000Y609000D02*
Y611000D01*
X466000Y591000D02*
X468000D01*
X467000Y590000D02*
Y592000D01*
X419752Y531999D02*
X421752D01*
X420752Y530999D02*
Y532999D01*
X242000Y580000D02*
X244000D01*
X243000Y579000D02*
Y581000D01*
X242000Y589000D02*
X244000D01*
X243000Y588000D02*
Y590000D01*
X340000Y729000D02*
X342000D01*
X341000Y728000D02*
Y730000D01*
X292000Y744000D02*
X294000D01*
X293000Y743000D02*
Y745000D01*
X59000Y222000D02*
X61000D01*
X60000Y221000D02*
Y223000D01*
X59000Y192000D02*
X61000D01*
X60000Y191000D02*
Y193000D01*
X59000Y177000D02*
X61000D01*
X60000Y176000D02*
Y178000D01*
X58000Y147000D02*
X60000D01*
X59000Y146000D02*
Y148000D01*
X89000Y118000D02*
X91000D01*
X90000Y117000D02*
Y119000D01*
X76000Y118000D02*
X78000D01*
X77000Y117000D02*
Y119000D01*
X83000Y133000D02*
X85000D01*
X84000Y132000D02*
Y134000D01*
X81877Y165877D02*
X83877D01*
X82877Y164877D02*
Y166877D01*
X752000Y148000D02*
X754000D01*
X753000Y147000D02*
Y149000D01*
X707000Y148000D02*
X709000D01*
X708000Y147000D02*
Y149000D01*
X58000Y157000D02*
X60000D01*
X59000Y156000D02*
Y158000D01*
X83000Y206000D02*
X85000D01*
X84000Y205000D02*
Y207000D01*
X540000Y282000D02*
X542000D01*
X541000Y281000D02*
Y283000D01*
X459000Y555000D02*
X461000D01*
X460000Y554000D02*
Y556000D01*
X582000Y320000D02*
X584000D01*
X583000Y319000D02*
Y321000D01*
X640000Y213000D02*
X642000D01*
X641000Y212000D02*
Y214000D01*
X386000Y303000D02*
X388000D01*
X387000Y302000D02*
Y304000D01*
X892880Y377631D02*
X894880D01*
X893880Y376631D02*
Y378631D01*
X555000Y174000D02*
X557000D01*
X556000Y173000D02*
Y175000D01*
X548000Y174000D02*
X550000D01*
X549000Y173000D02*
Y175000D01*
X541500Y174000D02*
X543500D01*
X542500Y173000D02*
Y175000D01*
X76000Y255000D02*
X78000D01*
X77000Y254000D02*
Y256000D01*
X88000Y255000D02*
X90000D01*
X89000Y254000D02*
Y256000D01*
X660000Y620000D02*
X662000D01*
X661000Y619000D02*
Y621000D01*
X327000Y681000D02*
X329000D01*
X328000Y680000D02*
Y682000D01*
X76000Y692000D02*
X78000D01*
X77000Y691000D02*
Y693000D01*
X275000Y462000D02*
X277000D01*
X276000Y461000D02*
Y463000D01*
X255000Y456000D02*
X257000D01*
X256000Y455000D02*
Y457000D01*
X265000Y462000D02*
X267000D01*
X266000Y461000D02*
Y463000D01*
X255000Y462000D02*
X257000D01*
X256000Y461000D02*
Y463000D01*
X275000Y456000D02*
X277000D01*
X276000Y455000D02*
Y457000D01*
X265000Y456000D02*
X267000D01*
X266000Y455000D02*
Y457000D01*
X302000Y694000D02*
X304000D01*
X303000Y693000D02*
Y695000D01*
X201000Y714000D02*
X203000D01*
X202000Y713000D02*
Y715000D01*
X224000Y734000D02*
X226000D01*
X225000Y733000D02*
Y735000D01*
X273000Y719000D02*
X275000D01*
X274000Y718000D02*
Y720000D01*
X772000Y614000D02*
X774000D01*
X773000Y613000D02*
Y615000D01*
X328000Y719000D02*
X330000D01*
X329000Y718000D02*
Y720000D01*
X199000Y694000D02*
X201000D01*
X200000Y693000D02*
Y695000D01*
X174000Y758000D02*
X176000D01*
X175000Y757000D02*
Y759000D01*
X272000Y681000D02*
X274000D01*
X273000Y680000D02*
Y682000D01*
X112000Y770000D02*
X114000D01*
X113000Y769000D02*
Y771000D01*
X947000Y552000D02*
X949000D01*
X948000Y551000D02*
Y553000D01*
X763604Y540247D02*
X765604D01*
X764604Y539246D02*
Y541246D01*
X701250Y368750D02*
X703250D01*
X702250Y367750D02*
Y369750D01*
X516500Y507500D02*
X518500D01*
X517500Y506500D02*
Y508500D01*
X629750Y381750D02*
X631750D01*
X630750Y380750D02*
Y382750D01*
X1269000Y221000D02*
X1271000D01*
X1270000Y220000D02*
Y222000D01*
X1137000Y166000D02*
X1139000D01*
X1138000Y165000D02*
Y167000D01*
X956000Y251000D02*
X958000D01*
X957000Y250000D02*
Y252000D01*
X1255000Y272000D02*
X1257000D01*
X1256000Y271000D02*
Y273000D01*
X1236000Y277000D02*
X1238000D01*
X1237000Y276000D02*
Y278000D01*
X1006000Y258000D02*
X1008000D01*
X1007000Y257000D02*
Y259000D01*
X863000Y246000D02*
X865000D01*
X864000Y245000D02*
Y247000D01*
X1275000Y239000D02*
X1277000D01*
X1276000Y238000D02*
Y240000D01*
X1255000Y221000D02*
X1257000D01*
X1256000Y220000D02*
Y222000D01*
X1048000Y166000D02*
X1050000D01*
X1049000Y165000D02*
Y167000D01*
X1223000Y213000D02*
X1225000D01*
X1224000Y212000D02*
Y214000D01*
X863000Y173000D02*
X865000D01*
X864000Y172000D02*
Y174000D01*
X1242000Y271000D02*
X1244000D01*
X1243000Y270000D02*
Y272000D01*
X1046000Y251000D02*
X1048000D01*
X1047000Y250000D02*
Y252000D01*
X1262000Y213000D02*
X1264000D01*
X1263000Y212000D02*
Y214000D01*
X1137000Y173000D02*
X1139000D01*
X1138000Y172000D02*
Y174000D01*
X1242000Y221000D02*
X1244000D01*
X1243000Y220000D02*
Y222000D01*
X954000Y166000D02*
X956000D01*
X955000Y165000D02*
Y167000D01*
X1236000Y213000D02*
X1238000D01*
X1237000Y212000D02*
Y214000D01*
X954000Y174000D02*
X956000D01*
X955000Y173000D02*
Y175000D01*
X1229000Y283000D02*
X1231000D01*
X1230000Y282000D02*
Y284000D01*
X1098000Y259000D02*
X1100000D01*
X1099000Y258000D02*
Y260000D01*
X863000Y253000D02*
X865000D01*
X864000Y252000D02*
Y254000D01*
X1268000Y243000D02*
X1270000D01*
X1269000Y242000D02*
Y244000D01*
X1138000Y250000D02*
X1140000D01*
X1139000Y249000D02*
Y251000D01*
X1249000Y282000D02*
X1251000D01*
X1250000Y281000D02*
Y283000D01*
X1249000Y213000D02*
X1251000D01*
X1250000Y212000D02*
Y214000D01*
X1048000Y173000D02*
X1050000D01*
X1049000Y172000D02*
Y174000D01*
X915000Y257000D02*
X917000D01*
X916000Y256000D02*
Y258000D01*
X1261000Y248000D02*
X1263000D01*
X1262000Y247000D02*
Y249000D01*
X1229000Y221000D02*
X1231000D01*
X1230000Y220000D02*
Y222000D01*
X863000Y167000D02*
X865000D01*
X864000Y166000D02*
Y168000D01*
X295000Y185000D02*
X297000D01*
X296000Y184000D02*
Y186000D01*
X255000Y183000D02*
X257000D01*
X256000Y182000D02*
Y184000D01*
X178000D02*
X180000D01*
X179000Y183000D02*
Y185000D01*
X193000Y204000D02*
X195000D01*
X194000Y203000D02*
Y205000D01*
X243000Y86000D02*
X245000D01*
X244000Y85000D02*
Y87000D01*
X249000Y81000D02*
X251000D01*
X250000Y80000D02*
Y82000D01*
X249000Y76000D02*
X251000D01*
X250000Y75000D02*
Y77000D01*
X249000Y86000D02*
X251000D01*
X250000Y85000D02*
Y87000D01*
X52000Y548000D02*
X54000D01*
X53000Y547000D02*
Y549000D01*
X43000Y548000D02*
X45000D01*
X44000Y547000D02*
Y549000D01*
X52000Y542000D02*
X54000D01*
X53000Y541000D02*
Y543000D01*
X43000Y542000D02*
X45000D01*
X44000Y541000D02*
Y543000D01*
X52000Y456000D02*
X54000D01*
X53000Y455000D02*
Y457000D01*
X43000Y456000D02*
X45000D01*
X44000Y455000D02*
Y457000D01*
X52000Y450000D02*
X54000D01*
X53000Y449000D02*
Y451000D01*
X43000Y450000D02*
X45000D01*
X44000Y449000D02*
Y451000D01*
X141000Y548000D02*
X143000D01*
X142000Y547000D02*
Y549000D01*
X150000Y542000D02*
X152000D01*
X151000Y541000D02*
Y543000D01*
X141000Y542000D02*
X143000D01*
X142000Y541000D02*
Y543000D01*
X150000Y548000D02*
X152000D01*
X151000Y547000D02*
Y549000D01*
X289000Y212000D02*
X291000D01*
X290000Y211000D02*
Y213000D01*
X178000Y194000D02*
X180000D01*
X179000Y193000D02*
Y195000D01*
X213000Y177000D02*
X215000D01*
X214000Y176000D02*
Y178000D01*
X178000Y174000D02*
X180000D01*
X179000Y173000D02*
Y175000D01*
X714250Y375250D02*
X716250D01*
X715250Y374250D02*
Y376250D01*
X707750Y375250D02*
X709750D01*
X708750Y374250D02*
Y376250D01*
X642750Y316750D02*
X644750D01*
X643750Y315750D02*
Y317750D01*
X642250Y326500D02*
X644250D01*
X643250Y325500D02*
Y327500D01*
X636250Y297250D02*
X638250D01*
X637250Y296250D02*
Y298250D01*
X642750Y297250D02*
X644750D01*
X643750Y296250D02*
Y298250D01*
X1175000Y434000D02*
X1177000D01*
X1176000Y433000D02*
Y435000D01*
X1174000Y417000D02*
X1176000D01*
X1175000Y416000D02*
Y418000D01*
X1173000Y545000D02*
X1175000D01*
X1174000Y544000D02*
Y546000D01*
X1117000Y459000D02*
X1119000D01*
X1118000Y458000D02*
Y460000D01*
X443000Y663000D02*
X445000D01*
X444000Y662000D02*
Y664000D01*
X1523000Y279000D02*
X1525000D01*
X1524000Y278000D02*
Y280000D01*
X1523000Y190000D02*
X1525000D01*
X1524000Y189000D02*
Y191000D01*
X1419000Y279000D02*
X1421000D01*
X1420000Y278000D02*
Y280000D01*
X1419000Y190000D02*
X1421000D01*
X1420000Y189000D02*
Y191000D01*
X1513501Y234000D02*
X1515501D01*
X1514501Y233000D02*
Y235000D01*
X1513501Y145000D02*
X1515501D01*
X1514501Y144000D02*
Y146000D01*
X1409501Y234000D02*
X1411501D01*
X1410501Y233000D02*
Y235000D01*
X1409501Y145000D02*
X1411501D01*
X1410501Y144000D02*
Y146000D01*
X72851Y562722D02*
X74851D01*
X73851Y561722D02*
Y563722D01*
X72851Y470722D02*
X74851D01*
X73851Y469722D02*
Y471722D01*
X58000Y617000D02*
X60000D01*
X59000Y616000D02*
Y618000D01*
X81000Y602000D02*
X83000D01*
X82000Y601000D02*
Y603000D01*
X156000Y617000D02*
X158000D01*
X157000Y616000D02*
Y618000D01*
X179000Y602000D02*
X181000D01*
X180000Y601000D02*
Y603000D01*
X58000Y525000D02*
X60000D01*
X59000Y524000D02*
Y526000D01*
X81000Y510000D02*
X83000D01*
X82000Y509000D02*
Y511000D01*
X150000Y365000D02*
X152000D01*
X151000Y364000D02*
Y366000D01*
X150000Y359000D02*
X152000D01*
X151000Y358000D02*
Y360000D01*
X141000Y365000D02*
X143000D01*
X142000Y364000D02*
Y366000D01*
X141000Y359000D02*
X143000D01*
X142000Y358000D02*
Y360000D01*
X150000Y456000D02*
X152000D01*
X151000Y455000D02*
Y457000D01*
X141000Y456000D02*
X143000D01*
X142000Y455000D02*
Y457000D01*
X163000Y405000D02*
X165000D01*
X164000Y404000D02*
Y406000D01*
X150000Y450000D02*
X152000D01*
X151000Y449000D02*
Y451000D01*
X141000Y450000D02*
X143000D01*
X142000Y449000D02*
Y451000D01*
X720750Y316750D02*
X722750D01*
X721750Y315750D02*
Y317750D01*
X688250Y342750D02*
X690250D01*
X689250Y341750D02*
Y343750D01*
X688250Y336250D02*
X690250D01*
X689250Y335250D02*
Y337250D01*
X732500Y326500D02*
X734500D01*
X733500Y325500D02*
Y327500D01*
X714250Y388250D02*
X716250D01*
X715250Y387250D02*
Y389250D01*
X691500Y393500D02*
X693500D01*
X692500Y392500D02*
Y394500D01*
X733750Y394750D02*
X735750D01*
X734750Y393750D02*
Y395750D01*
X733750Y388250D02*
X735750D01*
X734750Y387250D02*
Y389250D01*
X733750Y368750D02*
X735750D01*
X734750Y367750D02*
Y369750D01*
X727250Y394750D02*
X729250D01*
X728250Y393750D02*
Y395750D01*
X720750Y362250D02*
X722750D01*
X721750Y361250D02*
Y363250D01*
X707750Y355750D02*
X709750D01*
X708750Y354750D02*
Y356750D01*
X636319Y316900D02*
X638319D01*
X637319Y315900D02*
Y317900D01*
X668750Y349250D02*
X670750D01*
X669750Y348250D02*
Y350250D01*
X662250Y329750D02*
X664250D01*
X663250Y328750D02*
Y330750D01*
X655750Y303750D02*
X657750D01*
X656750Y302750D02*
Y304750D01*
X642750Y290750D02*
X644750D01*
X643750Y289750D02*
Y291750D01*
X727250Y284250D02*
X729250D01*
X728250Y283250D02*
Y285250D01*
X727250Y310250D02*
X729250D01*
X728250Y309250D02*
Y311250D01*
X688250Y329750D02*
X690250D01*
X689250Y328750D02*
Y330750D01*
X675250Y329750D02*
X677250D01*
X676250Y328750D02*
Y330750D01*
X681750Y323250D02*
X683750D01*
X682750Y322250D02*
Y324250D01*
X701250Y290750D02*
X703250D01*
X702250Y289750D02*
Y291750D01*
X727250Y368750D02*
X729250D01*
X728250Y367750D02*
Y369750D01*
X727250Y362250D02*
X729250D01*
X728250Y361250D02*
Y363250D01*
X43000Y359000D02*
X45000D01*
X44000Y358000D02*
Y360000D01*
X52000Y359000D02*
X54000D01*
X53000Y358000D02*
Y360000D01*
X43000Y365000D02*
X45000D01*
X44000Y364000D02*
Y366000D01*
X52000Y365000D02*
X54000D01*
X53000Y364000D02*
Y366000D01*
X58000Y342000D02*
X60000D01*
X59000Y341000D02*
Y343000D01*
X81000Y327000D02*
X83000D01*
X82000Y326000D02*
Y328000D01*
X156000Y525000D02*
X158000D01*
X157000Y524000D02*
Y526000D01*
X179000Y510000D02*
X181000D01*
X180000Y509000D02*
Y511000D01*
X58000Y433000D02*
X60000D01*
X59000Y432000D02*
Y434000D01*
X81000Y418000D02*
X83000D01*
X82000Y417000D02*
Y419000D01*
X672500Y381750D02*
X674500D01*
X673500Y380750D02*
Y382750D01*
X655500Y323081D02*
X657500D01*
X656500Y322081D02*
Y324081D01*
X163000Y497000D02*
X165000D01*
X164000Y496000D02*
Y498000D01*
X56000Y497000D02*
X58000D01*
X57000Y496000D02*
Y498000D01*
X163000Y589000D02*
X165000D01*
X164000Y588000D02*
Y590000D01*
X65000Y589000D02*
X67000D01*
X66000Y588000D02*
Y590000D01*
X65000Y314000D02*
X67000D01*
X66000Y313000D02*
Y315000D01*
X163000Y314000D02*
X165000D01*
X164000Y313000D02*
Y315000D01*
X56000Y405000D02*
X58000D01*
X57000Y404000D02*
Y406000D01*
X72851Y379722D02*
X74851D01*
X73851Y378722D02*
Y380722D01*
X170851Y470722D02*
X172851D01*
X171851Y469722D02*
Y471722D01*
X170851Y562722D02*
X172851D01*
X171851Y561722D02*
Y563722D01*
X170851Y654722D02*
X172851D01*
X171851Y653722D02*
Y655722D01*
X72851Y654722D02*
X74851D01*
X73851Y653722D02*
Y655722D01*
X642750Y394750D02*
X644750D01*
X643750Y393750D02*
Y395750D01*
X642750Y362250D02*
X644750D01*
X643750Y361250D02*
Y363250D01*
X636250Y388250D02*
X638250D01*
X637250Y387250D02*
Y389250D01*
X642750Y388250D02*
X644750D01*
X643750Y387250D02*
Y389250D01*
X649250Y362250D02*
X651250D01*
X650250Y361250D02*
Y363250D01*
X629819Y394750D02*
X631819D01*
X630819Y393750D02*
Y395750D01*
X649250Y355750D02*
X651250D01*
X650250Y354750D02*
Y356750D01*
X617000Y394500D02*
X619000D01*
X618000Y393500D02*
Y395500D01*
X662250Y336250D02*
X664250D01*
X663250Y335250D02*
Y337250D01*
X629750Y388250D02*
X631750D01*
X630750Y387250D02*
Y389250D01*
X623250Y375250D02*
X625250D01*
X624250Y374250D02*
Y376250D01*
X662250Y349250D02*
X664250D01*
X663250Y348250D02*
Y350250D01*
X636250Y362250D02*
X638250D01*
X637250Y361250D02*
Y363250D01*
X617000Y388000D02*
X619000D01*
X618000Y387000D02*
Y389000D01*
X662250Y342750D02*
X664250D01*
X663250Y341750D02*
Y343750D01*
X629750Y368750D02*
X631750D01*
X630750Y367750D02*
Y369750D01*
X655750Y388250D02*
X657750D01*
X656750Y387250D02*
Y389250D01*
X624500Y352500D02*
X626500D01*
X625500Y351500D02*
Y353500D01*
X662250Y368750D02*
X664250D01*
X663250Y367750D02*
Y369750D01*
X662250Y375250D02*
X664250D01*
X663250Y374250D02*
Y376250D01*
X629750Y375250D02*
X631750D01*
X630750Y374250D02*
Y376250D01*
X623500Y388000D02*
X625500D01*
X624500Y387000D02*
Y389000D01*
X649250Y388250D02*
X651250D01*
X650250Y387250D02*
Y389250D01*
X668750Y394750D02*
X670750D01*
X669750Y393750D02*
Y395750D01*
X609750Y399250D02*
X611750D01*
X610750Y398250D02*
Y400250D01*
X668750Y355750D02*
X670750D01*
X669750Y354750D02*
Y356750D01*
X636250Y290750D02*
X638250D01*
X637250Y289750D02*
Y291750D01*
X649250Y284250D02*
X651250D01*
X650250Y283250D02*
Y285250D01*
X629750Y316750D02*
X631750D01*
X630750Y315750D02*
Y317750D01*
X655750Y290750D02*
X657750D01*
X656750Y289750D02*
Y291750D01*
X732250Y352500D02*
X734250D01*
X733250Y351500D02*
Y353500D01*
X668750Y329750D02*
X670750D01*
X669750Y328750D02*
Y330750D01*
X713750Y326500D02*
X715750D01*
X714750Y325500D02*
Y327500D01*
X678500Y283750D02*
X680500D01*
X679500Y282750D02*
Y284750D01*
X698000Y283750D02*
X700000D01*
X699000Y282750D02*
Y284750D01*
X691500Y303250D02*
X693500D01*
X692500Y302250D02*
Y304250D01*
X717500Y283750D02*
X719500D01*
X718500Y282750D02*
Y284750D01*
X735250Y320000D02*
X737250D01*
X736250Y319000D02*
Y321000D01*
X698000Y395250D02*
X700000D01*
X699000Y394250D02*
Y396250D01*
X691500Y375750D02*
X693500D01*
X692500Y374750D02*
Y376750D01*
X714750Y352500D02*
X716750D01*
X715750Y351500D02*
Y353500D01*
X682000Y355750D02*
X684000D01*
X683000Y354750D02*
Y356750D01*
X734250Y378500D02*
X736250D01*
X735250Y377500D02*
Y379500D01*
X720750Y381750D02*
X722750D01*
X721750Y380750D02*
Y382750D01*
X694750Y349250D02*
X696750D01*
X695750Y348250D02*
Y350250D01*
X717500Y395250D02*
X719500D01*
X718500Y394250D02*
Y396250D01*
X714250Y381750D02*
X716250D01*
X715250Y380750D02*
Y382750D01*
X734237Y359000D02*
X736237D01*
X735237Y358000D02*
Y360000D01*
X740250Y401250D02*
X742250D01*
X741250Y400250D02*
Y402250D01*
X694750Y323250D02*
X696750D01*
X695750Y322250D02*
Y324250D01*
X701250Y310250D02*
X703250D01*
X702250Y309250D02*
Y311250D01*
X665500Y302250D02*
X667500D01*
X666500Y301250D02*
Y303250D01*
X662250Y323250D02*
X664250D01*
X663250Y322250D02*
Y324250D01*
X649250Y310250D02*
X651250D01*
X650250Y309250D02*
Y311250D01*
X734250Y339500D02*
X736250D01*
X735250Y338500D02*
Y340500D01*
X622750Y339500D02*
X624750D01*
X623750Y338500D02*
Y340500D01*
X740250Y277750D02*
X742250D01*
X741250Y276750D02*
Y278750D01*
X734250Y300500D02*
X736250D01*
X735250Y299500D02*
Y301500D01*
X720750Y297250D02*
X722750D01*
X721750Y296250D02*
Y298250D01*
X707750Y303750D02*
X709750D01*
X708750Y302750D02*
Y304750D01*
X714250Y297250D02*
X716250D01*
X715250Y296250D02*
Y298250D01*
X622750Y320000D02*
X624750D01*
X623750Y319000D02*
Y321000D01*
X605000Y272000D02*
X607000D01*
X606000Y271000D02*
Y273000D01*
X622750Y300500D02*
X624750D01*
X623750Y299500D02*
Y301500D01*
X616750Y277750D02*
X618750D01*
X617750Y276750D02*
Y278750D01*
X608000Y276000D02*
X610000D01*
X609000Y275000D02*
Y277000D01*
X655750Y310250D02*
X657750D01*
X656750Y309250D02*
Y311250D01*
X659000Y283750D02*
X661000D01*
X660000Y282750D02*
Y284750D01*
X639500Y283750D02*
X641500D01*
X640500Y282750D02*
Y284750D01*
X688250Y323250D02*
X690250D01*
X689250Y322250D02*
Y324250D01*
X707750Y284250D02*
X709750D01*
X708750Y283250D02*
Y285250D01*
X733750Y290750D02*
X735750D01*
X734750Y289750D02*
Y291750D01*
X727250Y316750D02*
X729250D01*
X728250Y315750D02*
Y317750D01*
X170851Y379722D02*
X172851D01*
X171851Y378722D02*
Y380722D01*
X620000Y359000D02*
X622000D01*
X621000Y358000D02*
Y360000D01*
X642250Y352500D02*
X644250D01*
X643250Y351500D02*
Y353500D01*
X619500Y378000D02*
X621500D01*
X620500Y377000D02*
Y379000D01*
X655750Y368750D02*
X657750D01*
X656750Y367750D02*
Y369750D01*
X649250Y375250D02*
X651250D01*
X650250Y374250D02*
Y376250D01*
X675250Y342750D02*
X677250D01*
X676250Y341750D02*
Y343750D01*
X681750Y349250D02*
X683750D01*
X682750Y348250D02*
Y350250D01*
X662250Y355750D02*
X664250D01*
X663250Y354750D02*
Y356750D01*
X668750Y375250D02*
X670750D01*
X669750Y374250D02*
Y376250D01*
X688750Y356500D02*
X690750D01*
X689750Y355500D02*
Y357500D01*
X616750Y401250D02*
X618750D01*
X617750Y400250D02*
Y402250D01*
X642750Y381750D02*
X644750D01*
X643750Y380750D02*
Y382750D01*
X636250Y381750D02*
X638250D01*
X637250Y380750D02*
Y382750D01*
X639500Y411750D02*
X641500D01*
X640500Y410750D02*
Y412750D01*
X660250Y398250D02*
X662250D01*
X661250Y397250D02*
Y399250D01*
X1437000Y180000D02*
X1439000D01*
X1438000Y179000D02*
Y181000D01*
X1437000Y269000D02*
X1439000D01*
X1438000Y268000D02*
Y270000D01*
X1541000Y180000D02*
X1543000D01*
X1542000Y179000D02*
Y181000D01*
X1541000Y269000D02*
X1543000D01*
X1542000Y268000D02*
Y270000D01*
X675250Y349250D02*
X677250D01*
X676250Y348250D02*
Y350250D01*
X283523Y377634D02*
X285523D01*
X284523Y376634D02*
Y378634D01*
X291672Y324912D02*
X293672D01*
X292672Y323912D02*
Y325912D01*
X268672Y339912D02*
X270672D01*
X269672Y338912D02*
Y340912D01*
X275672Y311912D02*
X277672D01*
X276672Y310912D02*
Y312912D01*
X207920Y319653D02*
X209920D01*
X208920Y318653D02*
Y320653D01*
X207920Y325653D02*
X209920D01*
X208920Y324653D02*
Y326653D01*
X213920Y325653D02*
X215920D01*
X214920Y324653D02*
Y326653D01*
X139931Y396652D02*
X141931D01*
X140931Y395653D02*
Y397653D01*
X152093Y388652D02*
X154093D01*
X153093Y387653D02*
Y389652D01*
X145931Y396652D02*
X147931D01*
X146931Y395653D02*
Y397653D01*
X151931Y396652D02*
X153931D01*
X152931Y395653D02*
Y397653D01*
X213920Y319653D02*
X215920D01*
X214920Y318653D02*
Y320653D01*
X219920Y325653D02*
X221920D01*
X220920Y324653D02*
Y326653D01*
X219920Y319653D02*
X221920D01*
X220920Y318653D02*
Y320653D01*
X56000Y314000D02*
X58000D01*
X57000Y313000D02*
Y315000D01*
X65000Y405000D02*
X67000D01*
X66000Y404000D02*
Y406000D01*
X56000Y589000D02*
X58000D01*
X57000Y588000D02*
Y590000D01*
X65000Y497000D02*
X67000D01*
X66000Y496000D02*
Y498000D01*
X154000Y314000D02*
X156000D01*
X155000Y313000D02*
Y315000D01*
X213920Y410653D02*
X215920D01*
X214920Y409653D02*
Y411653D01*
X207920Y410653D02*
X209920D01*
X208920Y409653D02*
Y411653D01*
X219920Y416653D02*
X221920D01*
X220920Y415653D02*
Y417653D01*
X207920Y416653D02*
X209920D01*
X208920Y415653D02*
Y417653D01*
X213920Y416653D02*
X215920D01*
X214920Y415653D02*
Y417653D01*
X219920Y410653D02*
X221920D01*
X220920Y409653D02*
Y411653D01*
X139931Y487653D02*
X141931D01*
X140931Y486652D02*
Y488652D01*
X152093Y479652D02*
X154093D01*
X153093Y478652D02*
Y480653D01*
X145931Y487653D02*
X147931D01*
X146931Y486652D02*
Y488652D01*
X151931Y487653D02*
X153931D01*
X152931Y486652D02*
Y488652D01*
X154000Y589000D02*
X156000D01*
X155000Y588000D02*
Y590000D01*
X154000Y497000D02*
X156000D01*
X155000Y496000D02*
Y498000D01*
X266672Y311912D02*
X268672D01*
X267672Y310912D02*
Y312912D01*
X262672Y362912D02*
X264672D01*
X263672Y361912D02*
Y363912D01*
X253672Y362912D02*
X255672D01*
X254672Y361912D02*
Y363912D01*
X262672Y356912D02*
X264672D01*
X263672Y355912D02*
Y357912D01*
X253672Y356912D02*
X255672D01*
X254672Y355912D02*
Y357912D01*
X52000Y640000D02*
X54000D01*
X53000Y639000D02*
Y641000D01*
X43000Y640000D02*
X45000D01*
X44000Y639000D02*
Y641000D01*
X52000Y634000D02*
X54000D01*
X53000Y633000D02*
Y635000D01*
X43000Y634000D02*
X45000D01*
X44000Y633000D02*
Y635000D01*
X150000Y640000D02*
X152000D01*
X151000Y639000D02*
Y641000D01*
X141000Y640000D02*
X143000D01*
X142000Y639000D02*
Y641000D01*
X150000Y634000D02*
X152000D01*
X151000Y633000D02*
Y635000D01*
X141000Y634000D02*
X143000D01*
X142000Y633000D02*
Y635000D01*
X1417751Y174502D02*
X1419751D01*
X1418751Y173502D02*
Y175502D01*
X1368000Y158000D02*
X1370000D01*
X1369000Y157000D02*
Y159000D01*
X1368000Y163000D02*
X1370000D01*
X1369000Y162000D02*
Y164000D01*
X1458002Y163000D02*
X1460002D01*
X1459002Y162000D02*
Y164000D01*
X1458002Y158000D02*
X1460002D01*
X1459002Y157000D02*
Y159000D01*
X1472000Y158000D02*
X1474000D01*
X1473000Y157000D02*
Y159000D01*
X1472000Y163000D02*
X1474000D01*
X1473000Y162000D02*
Y164000D01*
X1562002Y163000D02*
X1564002D01*
X1563002Y162000D02*
Y164000D01*
X1562002Y158000D02*
X1564002D01*
X1563002Y157000D02*
Y159000D01*
X1472000Y247000D02*
X1474000D01*
X1473000Y246000D02*
Y248000D01*
X1472000Y252000D02*
X1474000D01*
X1473000Y251000D02*
Y253000D01*
X1562002Y252000D02*
X1564002D01*
X1563002Y251000D02*
Y253000D01*
X1562002Y247000D02*
X1564002D01*
X1563002Y246000D02*
Y248000D01*
X1458002Y247000D02*
X1460002D01*
X1459002Y246000D02*
Y248000D01*
X1458002Y252000D02*
X1460002D01*
X1459002Y251000D02*
Y253000D01*
X1368000Y252000D02*
X1370000D01*
X1369000Y251000D02*
Y253000D01*
X1368000Y247000D02*
X1370000D01*
X1369000Y246000D02*
Y248000D01*
X53931Y487653D02*
X55931D01*
X54931Y486652D02*
Y488652D01*
X41931Y487653D02*
X43931D01*
X42931Y486652D02*
Y488652D01*
X47931Y487653D02*
X49931D01*
X48931Y486652D02*
Y488652D01*
X54093Y479653D02*
X56093D01*
X55093Y478653D02*
Y480653D01*
X109920Y416653D02*
X111920D01*
X110920Y415653D02*
Y417653D01*
X121920Y416653D02*
X123920D01*
X122920Y415653D02*
Y417653D01*
X115920Y416653D02*
X117920D01*
X116920Y415653D02*
Y417653D01*
X109920Y410653D02*
X111920D01*
X110920Y409653D02*
Y411653D01*
X115920Y410653D02*
X117920D01*
X116920Y409653D02*
Y411653D01*
X121920Y410653D02*
X123920D01*
X122920Y409653D02*
Y411653D01*
X121920Y502653D02*
X123920D01*
X122920Y501653D02*
Y503653D01*
X109920Y502653D02*
X111920D01*
X110920Y501653D02*
Y503653D01*
X115920Y502653D02*
X117920D01*
X116920Y501653D02*
Y503653D01*
X121920Y508653D02*
X123920D01*
X122920Y507653D02*
Y509653D01*
X109920Y508653D02*
X111920D01*
X110920Y507653D02*
Y509653D01*
X115920Y508653D02*
X117920D01*
X116920Y507653D02*
Y509653D01*
X54093Y571653D02*
X56093D01*
X55093Y570653D02*
Y572653D01*
X47931Y579652D02*
X49931D01*
X48931Y578652D02*
Y580653D01*
X41931Y579652D02*
X43931D01*
X42931Y578652D02*
Y580653D01*
X53931Y579652D02*
X55931D01*
X54931Y578652D02*
Y580653D01*
X219920Y594653D02*
X221920D01*
X220920Y593653D02*
Y595653D01*
X207920Y594653D02*
X209920D01*
X208920Y593653D02*
Y595653D01*
X213920Y594653D02*
X215920D01*
X214920Y593653D02*
Y595653D01*
X219920Y600653D02*
X221920D01*
X220920Y599653D02*
Y601653D01*
X207920Y600653D02*
X209920D01*
X208920Y599653D02*
Y601653D01*
X213920Y600653D02*
X215920D01*
X214920Y599653D02*
Y601653D01*
X151931Y671653D02*
X153931D01*
X152931Y670652D02*
Y672653D01*
X152093Y663652D02*
X154093D01*
X153093Y662653D02*
Y664652D01*
X145931Y671653D02*
X147931D01*
X146931Y670652D02*
Y672653D01*
X139931Y671653D02*
X141931D01*
X140931Y670652D02*
Y672653D01*
X121920Y594653D02*
X123920D01*
X122920Y593653D02*
Y595653D01*
X109920Y594653D02*
X111920D01*
X110920Y593653D02*
Y595653D01*
X115920Y594653D02*
X117920D01*
X116920Y593653D02*
Y595653D01*
X121920Y600653D02*
X123920D01*
X122920Y599653D02*
Y601653D01*
X109920Y600653D02*
X111920D01*
X110920Y599653D02*
Y601653D01*
X115920Y600653D02*
X117920D01*
X116920Y599653D02*
Y601653D01*
X54093Y663653D02*
X56093D01*
X55093Y662653D02*
Y664653D01*
X47931Y671653D02*
X49931D01*
X48931Y670653D02*
Y672653D01*
X41931Y671653D02*
X43931D01*
X42931Y670653D02*
Y672653D01*
X53931Y671653D02*
X55931D01*
X54931Y670653D02*
Y672653D01*
X1521751Y263502D02*
X1523751D01*
X1522751Y262502D02*
Y264502D01*
X1417751Y263502D02*
X1419751D01*
X1418751Y262502D02*
Y264502D01*
X1521751Y174502D02*
X1523751D01*
X1522751Y173502D02*
Y175502D01*
X1543000Y207000D02*
X1545000D01*
X1544000Y206000D02*
Y208000D01*
X1439000Y207000D02*
X1441000D01*
X1440000Y206000D02*
Y208000D01*
X1492000Y205000D02*
X1494000D01*
X1493000Y204000D02*
Y206000D01*
X1538000Y257000D02*
X1540000D01*
X1539000Y256000D02*
Y258000D01*
X1434000Y257000D02*
X1436000D01*
X1435000Y256000D02*
Y258000D01*
X1388000Y205000D02*
X1390000D01*
X1389000Y204000D02*
Y206000D01*
X1538000Y168000D02*
X1540000D01*
X1539000Y167000D02*
Y169000D01*
X1434000Y168000D02*
X1436000D01*
X1435000Y167000D02*
Y169000D01*
X156000Y342000D02*
X158000D01*
X157000Y341000D02*
Y343000D01*
X179000Y327000D02*
X181000D01*
X180000Y326000D02*
Y328000D01*
X1506002Y279000D02*
X1508002D01*
X1507002Y278000D02*
Y280000D01*
X1506002Y190000D02*
X1508002D01*
X1507002Y189000D02*
Y191000D01*
X1402002Y279000D02*
X1404002D01*
X1403002Y278000D02*
Y280000D01*
X1402002Y190000D02*
X1404002D01*
X1403002Y189000D02*
Y191000D01*
X923000Y398000D02*
X925000D01*
X924000Y397000D02*
Y399000D01*
X661000Y210000D02*
X663000D01*
X662000Y209000D02*
Y211000D01*
X23000Y294000D02*
X25000D01*
X24000Y293000D02*
Y295000D01*
X23000Y301000D02*
X25000D01*
X24000Y300000D02*
Y302000D01*
X932000Y378000D02*
X934000D01*
X933000Y377000D02*
Y379000D01*
X1762000Y472000D02*
X1764000D01*
X1763000Y471000D02*
Y473000D01*
X1702000Y524000D02*
X1704000D01*
X1703000Y523000D02*
Y525000D01*
X1685000Y541000D02*
X1687000D01*
X1686000Y540000D02*
Y542000D01*
X1437000Y370000D02*
X1439000D01*
X1438000Y369000D02*
Y371000D01*
X1414000Y338000D02*
X1416000D01*
X1415000Y337000D02*
Y339000D01*
X1462000Y71000D02*
X1464000D01*
X1463000Y70000D02*
Y72000D01*
X1321530Y66752D02*
X1323530D01*
X1322530Y65752D02*
Y67752D01*
X1291530Y66752D02*
X1293530D01*
X1292530Y65752D02*
Y67752D01*
X1261530Y66752D02*
X1263530D01*
X1262530Y65752D02*
Y67752D01*
X1231530Y66752D02*
X1233530D01*
X1232530Y65752D02*
Y67752D01*
X1306470Y66752D02*
X1308470D01*
X1307470Y65752D02*
Y67752D01*
X1276470Y66752D02*
X1278470D01*
X1277470Y65752D02*
Y67752D01*
X1246470Y66752D02*
X1248470D01*
X1247470Y65752D02*
Y67752D01*
X1216439Y66722D02*
X1218439D01*
X1217439Y65722D02*
Y67722D01*
X1496000Y42000D02*
X1498000D01*
X1497000Y41000D02*
Y43000D01*
X1501000Y70700D02*
X1503000D01*
X1502000Y69700D02*
Y71700D01*
X1422000Y105000D02*
X1424000D01*
X1423000Y104000D02*
Y106000D01*
X1360000Y273000D02*
X1362000D01*
X1361000Y272000D02*
Y274000D01*
X1324112Y253112D02*
X1326112D01*
X1325112Y252112D02*
Y254112D01*
X1397000Y655000D02*
X1399000D01*
X1398000Y654000D02*
Y656000D01*
X1699000Y568000D02*
X1701000D01*
X1700000Y567000D02*
Y569000D01*
X1610000Y541000D02*
X1612000D01*
X1611000Y540000D02*
Y542000D01*
X1619000Y559000D02*
X1621000D01*
X1620000Y558000D02*
Y560000D01*
X1477000Y618000D02*
X1479000D01*
X1478000Y617000D02*
Y619000D01*
X1091346Y605440D02*
X1093346D01*
X1092346Y604440D02*
Y606440D01*
X826750Y410000D02*
X828750D01*
X827750Y409000D02*
Y411000D01*
X455000Y459000D02*
X457000D01*
X456000Y458000D02*
Y460000D01*
X461000Y461000D02*
X463000D01*
X462000Y460000D02*
Y462000D01*
X460000Y470000D02*
X462000D01*
X461000Y469000D02*
Y471000D01*
X326000Y292000D02*
X328000D01*
X327000Y291000D02*
Y293000D01*
X258000Y71400D02*
X260000D01*
X259000Y70400D02*
Y72400D01*
X264000Y76400D02*
X266000D01*
X265000Y75400D02*
Y77400D01*
X264000Y81400D02*
X266000D01*
X265000Y80400D02*
Y82400D01*
X264000Y71400D02*
X266000D01*
X265000Y70400D02*
Y72400D01*
X244000Y383000D02*
X246000D01*
X245000Y382000D02*
Y384000D01*
X239000Y358000D02*
X241000D01*
X240000Y357000D02*
Y359000D01*
X265252Y573249D02*
X267253D01*
X266252Y572249D02*
Y574249D01*
X1377000Y561000D02*
X1379000D01*
X1378000Y560000D02*
Y562000D01*
X1296000Y438000D02*
X1298000D01*
X1297000Y437000D02*
Y439000D01*
X1292000Y468000D02*
X1294000D01*
X1293000Y467000D02*
Y469000D01*
X1226000Y364000D02*
X1228000D01*
X1227000Y363000D02*
Y365000D01*
X1176000Y556000D02*
X1178000D01*
X1177000Y555000D02*
Y557000D01*
X1158000D02*
X1160000D01*
X1159000Y556000D02*
Y558000D01*
X1175000Y535740D02*
X1177000D01*
X1176000Y534740D02*
Y536740D01*
X1311000Y365000D02*
X1313000D01*
X1312000Y364000D02*
Y366000D01*
X1233727Y366364D02*
X1235727D01*
X1234727Y365364D02*
Y367364D01*
X1175000Y407000D02*
X1177000D01*
X1176000Y406000D02*
Y408000D01*
X1411183Y563591D02*
X1413183D01*
X1412183Y562591D02*
Y564591D01*
X1412000Y526000D02*
X1414000D01*
X1413000Y525000D02*
Y527000D01*
X1426000Y533000D02*
X1428000D01*
X1427000Y532000D02*
Y534000D01*
X1412000Y400000D02*
X1414000D01*
X1413000Y399000D02*
Y401000D01*
X223000Y75000D02*
X225000D01*
X224000Y74000D02*
Y76000D01*
X223000Y82000D02*
X225000D01*
X224000Y81000D02*
Y83000D01*
X235000Y75000D02*
X237000D01*
X236000Y74000D02*
Y76000D01*
X235000Y82000D02*
X237000D01*
X236000Y81000D02*
Y83000D01*
X90000Y684000D02*
X92000D01*
X91000Y683000D02*
Y685000D01*
X90000Y690000D02*
X92000D01*
X91000Y689000D02*
Y691000D01*
X432000Y140000D02*
X434000D01*
X433000Y139000D02*
Y141000D01*
X267000Y586000D02*
X269000D01*
X268000Y585000D02*
Y587000D01*
X435000Y339000D02*
X437000D01*
X436000Y338000D02*
Y340000D01*
X422000Y368000D02*
X424000D01*
X423000Y367000D02*
Y369000D01*
X425000Y425000D02*
X427000D01*
X426000Y424000D02*
Y426000D01*
X449000Y342000D02*
X451000D01*
X450000Y341000D02*
Y343000D01*
X449000Y336000D02*
X451000D01*
X450000Y335000D02*
Y337000D01*
X429000Y350000D02*
X431000D01*
X430000Y349000D02*
Y351000D01*
X519000Y321000D02*
X521000D01*
X520000Y320000D02*
Y322000D01*
X1011593Y709981D02*
X1013594D01*
X1012594Y708981D02*
Y710981D01*
X1024000Y725000D02*
X1026000D01*
X1025000Y724000D02*
Y726000D01*
X959000Y740000D02*
X961000D01*
X960000Y739000D02*
Y741000D01*
X814000Y740000D02*
X816000D01*
X815000Y739000D02*
Y741000D01*
X1037569Y755111D02*
X1039569D01*
X1038569Y754111D02*
Y756111D01*
X1137188Y755350D02*
X1139188D01*
X1138188Y754350D02*
Y756350D01*
X529139Y758453D02*
X531139D01*
X530139Y757453D02*
Y759453D01*
X497000Y131000D02*
X499000D01*
X498000Y130000D02*
Y132000D01*
X342000Y369000D02*
X344000D01*
X343000Y368000D02*
Y370000D01*
X1289000Y217000D02*
X1291000D01*
X1290000Y216000D02*
Y218000D01*
X1293000Y199000D02*
X1295000D01*
X1294000Y198000D02*
Y200000D01*
X1297000Y205000D02*
X1299000D01*
X1298000Y204000D02*
Y206000D01*
X1171000Y295000D02*
X1173000D01*
X1172000Y294000D02*
Y296000D01*
X1129000Y379000D02*
X1131000D01*
X1130000Y378000D02*
Y380000D01*
X548000Y240000D02*
X550000D01*
X549000Y239000D02*
Y241000D01*
X434000Y275000D02*
X436000D01*
X435000Y274000D02*
Y276000D01*
X320000Y260000D02*
X322000D01*
X321000Y259000D02*
Y261000D01*
X354000Y316000D02*
X356000D01*
X355000Y315000D02*
Y317000D01*
Y360000D02*
X357000D01*
X356000Y359000D02*
Y361000D01*
X355000Y366000D02*
X357000D01*
X356000Y365000D02*
Y367000D01*
X360000Y336000D02*
X362000D01*
X361000Y335000D02*
Y337000D01*
X354000Y326000D02*
X356000D01*
X355000Y325000D02*
Y327000D01*
X360000Y326000D02*
X362000D01*
X361000Y325000D02*
Y327000D01*
X360000Y316000D02*
X362000D01*
X361000Y315000D02*
Y317000D01*
X354000Y336000D02*
X356000D01*
X355000Y335000D02*
Y337000D01*
X1383000Y600000D02*
X1385000D01*
X1384000Y599000D02*
Y601000D01*
X1413000Y536000D02*
X1415000D01*
X1414000Y535000D02*
Y537000D01*
X1303000Y731000D02*
X1305000D01*
X1304000Y730000D02*
Y732000D01*
X1236000Y600000D02*
X1238000D01*
X1237000Y599000D02*
Y601000D01*
X1412000Y456000D02*
X1414000D01*
X1413000Y455000D02*
Y457000D01*
X1256000Y438000D02*
X1258000D01*
X1257000Y437000D02*
Y439000D01*
X1354625Y432210D02*
X1356625D01*
X1355625Y431210D02*
Y433210D01*
X1255500Y367000D02*
X1257500D01*
X1256500Y366000D02*
Y368000D01*
X1211000Y741000D02*
X1213000D01*
X1212000Y740000D02*
Y742000D01*
X1209000Y728000D02*
X1211000D01*
X1210000Y727000D02*
Y729000D01*
X1218000Y422000D02*
X1220000D01*
X1219000Y421000D02*
Y423000D01*
X1210000Y365000D02*
X1212000D01*
X1211000Y364000D02*
Y366000D01*
X423000Y359000D02*
X425000D01*
X424000Y358000D02*
Y360000D01*
X435000Y370000D02*
X437000D01*
X436000Y369000D02*
Y371000D01*
X444000Y310000D02*
X446000D01*
X445000Y309000D02*
Y311000D01*
X444000Y324000D02*
X446000D01*
X445000Y323000D02*
Y325000D01*
X469000Y629000D02*
X471000D01*
X470000Y628000D02*
Y630000D01*
X461000Y626000D02*
X463000D01*
X462000Y625000D02*
Y627000D01*
X306000Y460000D02*
X308000D01*
X307000Y459000D02*
Y461000D01*
X300000Y460000D02*
X302000D01*
X301000Y459000D02*
Y461000D01*
X330217Y603351D02*
X332217D01*
X331217Y602351D02*
Y604351D01*
X330217Y612601D02*
X332217D01*
X331217Y611601D02*
Y613601D01*
X330217Y608101D02*
X332217D01*
X331217Y607101D02*
Y609101D01*
X351502Y558250D02*
X353502D01*
X352502Y557249D02*
Y559249D01*
X329717Y524500D02*
X331717D01*
X330717Y523499D02*
Y525499D01*
X329717Y515249D02*
X331717D01*
X330717Y514249D02*
Y516250D01*
X329717Y519749D02*
X331717D01*
X330717Y518750D02*
Y520750D01*
X359000Y95500D02*
X361000D01*
X360000Y94500D02*
Y96500D01*
X286002Y524500D02*
X288002D01*
X287002Y523499D02*
Y525499D01*
X286002Y519749D02*
X288002D01*
X287002Y518750D02*
Y520750D01*
X285752Y608101D02*
X287752D01*
X286752Y607101D02*
Y609101D01*
X285752Y603351D02*
X287752D01*
X286752Y602351D02*
Y604351D01*
X285752Y612601D02*
X287752D01*
X286752Y611601D02*
Y613601D01*
X271003Y573249D02*
X273002D01*
X272003Y572249D02*
Y574249D01*
X286002Y515249D02*
X288002D01*
X287002Y514249D02*
Y516250D01*
X425000Y326000D02*
X427000D01*
X426000Y325000D02*
Y327000D01*
X368000Y284000D02*
X370000D01*
X369000Y283000D02*
Y285000D01*
X315000Y280000D02*
X317000D01*
X316000Y279000D02*
Y281000D01*
X354000D02*
X356000D01*
X355000Y280000D02*
Y282000D01*
X341000Y280000D02*
X343000D01*
X342000Y279000D02*
Y281000D01*
X346000Y274000D02*
X348000D01*
X347000Y273000D02*
Y275000D01*
X331000Y265000D02*
X333000D01*
X332000Y264000D02*
Y266000D01*
X686809Y424191D02*
X688809D01*
X687809Y423191D02*
Y425191D01*
X1388250Y645000D02*
X1390250D01*
X1389250Y644000D02*
Y646000D01*
X668000Y594000D02*
X670000D01*
X669000Y593000D02*
Y595000D01*
X560000Y256000D02*
X562000D01*
X561000Y255000D02*
Y257000D01*
X573000Y273000D02*
X575000D01*
X574000Y272000D02*
Y274000D01*
X754000Y346000D02*
X756000D01*
X755000Y345000D02*
Y347000D01*
X570087Y319610D02*
X572087D01*
X571087Y318610D02*
Y320610D01*
X29000Y298000D02*
X31000D01*
X30000Y297000D02*
Y299000D01*
X186000Y758000D02*
X188000D01*
X187000Y757000D02*
Y759000D01*
X1723000Y484000D02*
X1725000D01*
X1724000Y483000D02*
Y485000D01*
X1386000Y415000D02*
X1388000D01*
X1387000Y414000D02*
Y416000D01*
X1703000Y554000D02*
X1705000D01*
X1704000Y553000D02*
Y555000D01*
X1385750Y510500D02*
X1387750D01*
X1386750Y509500D02*
Y511500D01*
X410000Y747500D02*
X412000D01*
X411000Y746500D02*
Y748500D01*
X434000Y666750D02*
X436000D01*
X435000Y665750D02*
Y667750D01*
X609250Y687750D02*
X611250D01*
X610250Y686750D02*
Y688750D01*
X342000Y460000D02*
X344000D01*
X343000Y459000D02*
Y461000D01*
X342000Y454000D02*
X344000D01*
X343000Y453000D02*
Y455000D01*
X352000Y460000D02*
X354000D01*
X353000Y459000D02*
Y461000D01*
X352000Y454000D02*
X354000D01*
X353000Y453000D02*
Y455000D01*
X362000Y460000D02*
X364000D01*
X363000Y459000D02*
Y461000D01*
X362000Y454000D02*
X364000D01*
X363000Y453000D02*
Y455000D01*
X230000Y471000D02*
X232000D01*
X231000Y470000D02*
Y472000D01*
Y410000D02*
X233000D01*
X232000Y409000D02*
Y411000D01*
X229000Y391000D02*
X231000D01*
X230000Y390000D02*
Y392000D01*
X760000Y620000D02*
X762000D01*
X761000Y619000D02*
Y621000D01*
X888000Y598000D02*
X890000D01*
X889000Y597000D02*
Y599000D01*
X974000Y600000D02*
X976000D01*
X975000Y599000D02*
Y601000D01*
X1109000Y685000D02*
X1111000D01*
X1110000Y684000D02*
Y686000D01*
X1112000Y669000D02*
X1114000D01*
X1113000Y668000D02*
Y670000D01*
X1065000Y688000D02*
X1067000D01*
X1066000Y687000D02*
Y689000D01*
X1051000D02*
X1053000D01*
X1052000Y688000D02*
Y690000D01*
X1037000Y689000D02*
X1039000D01*
X1038000Y688000D02*
Y690000D01*
X1553000Y679000D02*
X1555000D01*
X1554000Y678000D02*
Y680000D01*
X1527000Y698000D02*
X1529000D01*
X1528000Y697000D02*
Y699000D01*
X1518500Y724000D02*
X1520500D01*
X1519500Y723000D02*
Y725000D01*
X1375000Y757000D02*
X1377000D01*
X1376000Y756000D02*
Y758000D01*
X1361000Y670000D02*
X1363000D01*
X1362000Y669000D02*
Y671000D01*
X1303000Y668000D02*
X1305000D01*
X1304000Y667000D02*
Y669000D01*
X1284000Y660000D02*
X1286000D01*
X1285000Y659000D02*
Y661000D01*
X1390000Y599000D02*
X1392000D01*
X1391000Y598000D02*
Y600000D01*
X1200000Y492000D02*
X1202000D01*
X1201000Y491000D02*
Y493000D01*
X1694000Y680000D02*
X1696000D01*
X1695000Y679000D02*
Y681000D01*
X1641000Y677000D02*
X1643000D01*
X1642000Y676000D02*
Y678000D01*
X1633000Y722000D02*
X1635000D01*
X1634000Y721000D02*
Y723000D01*
X1603000Y678000D02*
X1605000D01*
X1604000Y677000D02*
Y679000D01*
X1685000Y620000D02*
X1687000D01*
X1686000Y619000D02*
Y621000D01*
X1672000Y600000D02*
X1674000D01*
X1673000Y599000D02*
Y601000D01*
X1615000Y625000D02*
X1617000D01*
X1616000Y624000D02*
Y626000D01*
X1642000Y600000D02*
X1644000D01*
X1643000Y599000D02*
Y601000D01*
X1631000Y600000D02*
X1633000D01*
X1632000Y599000D02*
Y601000D01*
X1456000Y696000D02*
X1458000D01*
X1457000Y695000D02*
Y697000D01*
X1431000Y678000D02*
X1433000D01*
X1432000Y677000D02*
Y679000D01*
X1456000Y669000D02*
X1458000D01*
X1457000Y668000D02*
Y670000D01*
X1682000Y592000D02*
X1684000D01*
X1683000Y591000D02*
Y593000D01*
X1369000Y453000D02*
X1371000D01*
X1370000Y452000D02*
Y454000D01*
X1295000Y564000D02*
X1297000D01*
X1296000Y563000D02*
Y565000D01*
X1299000Y489000D02*
X1301000D01*
X1300000Y488000D02*
Y490000D01*
X1289000Y523000D02*
X1291000D01*
X1290000Y522000D02*
Y524000D01*
X1351000Y439000D02*
X1353000D01*
X1352000Y438000D02*
Y440000D01*
X1356000Y178000D02*
X1358000D01*
X1357000Y177000D02*
Y179000D01*
X1258000Y758509D02*
X1260000D01*
X1259000Y757509D02*
Y759509D01*
X925000Y686000D02*
X927000D01*
X926000Y685000D02*
Y687000D01*
X1138000Y686000D02*
X1140000D01*
X1139000Y685000D02*
Y687000D01*
X1125000Y686000D02*
X1127000D01*
X1126000Y685000D02*
Y687000D01*
X912000Y686000D02*
X914000D01*
X913000Y685000D02*
Y687000D01*
X900000Y686000D02*
X902000D01*
X901000Y685000D02*
Y687000D01*
X890000Y685000D02*
X892000D01*
X891000Y684000D02*
Y686000D01*
X875053Y682228D02*
X877053D01*
X876053Y681228D02*
Y683228D01*
X779000Y728000D02*
X781000D01*
X780000Y727000D02*
Y729000D01*
X583000Y708000D02*
X585000D01*
X584000Y707000D02*
Y709000D01*
X485000Y730000D02*
X487000D01*
X486000Y729000D02*
Y731000D01*
X467000Y730000D02*
X469000D01*
X468000Y729000D02*
Y731000D01*
X449000Y730000D02*
X451000D01*
X450000Y729000D02*
Y731000D01*
X431000Y730000D02*
X433000D01*
X432000Y729000D02*
Y731000D01*
X602000Y707000D02*
X604000D01*
X603000Y706000D02*
Y708000D01*
X849000Y684000D02*
X851000D01*
X850000Y683000D02*
Y685000D01*
X566000Y688000D02*
X568000D01*
X567000Y687000D02*
Y689000D01*
X484000Y687750D02*
X486000D01*
X485000Y686750D02*
Y688750D01*
X417000Y686150D02*
X419000D01*
X418000Y685150D02*
Y687150D01*
X1266000Y677000D02*
X1268000D01*
X1267000Y676000D02*
Y678000D01*
X1245000Y663000D02*
X1247000D01*
X1246000Y662000D02*
Y664000D01*
X1208948Y667052D02*
X1210948D01*
X1209948Y666052D02*
Y668052D01*
X1203000Y271000D02*
X1205000D01*
X1204000Y270000D02*
Y272000D01*
X1270000Y187000D02*
X1272000D01*
X1271000Y186000D02*
Y188000D01*
X1279750Y178000D02*
X1281750D01*
X1280750Y177000D02*
Y179000D01*
X1209750Y192000D02*
X1211750D01*
X1210750Y191000D02*
Y193000D01*
X1184000Y674000D02*
X1186000D01*
X1185000Y673000D02*
Y675000D01*
X801000Y627000D02*
X803000D01*
X802000Y626000D02*
Y628000D01*
X1197000Y184000D02*
X1199000D01*
X1198000Y183000D02*
Y185000D01*
X397000Y200000D02*
X399000D01*
X398000Y199000D02*
Y201000D01*
X1638000Y396000D02*
X1640000D01*
X1639000Y395000D02*
Y397000D01*
Y410000D02*
X1641000D01*
X1640000Y409000D02*
Y411000D01*
X1579000Y646000D02*
X1581000D01*
X1580000Y645000D02*
Y647000D01*
X1502000Y498000D02*
X1504000D01*
X1503000Y497000D02*
Y499000D01*
X1150000Y635000D02*
X1152000D01*
X1151000Y634000D02*
Y636000D01*
X1102000Y662000D02*
X1104000D01*
X1103000Y661000D02*
Y663000D01*
X1129000Y642000D02*
X1131000D01*
X1130000Y641000D02*
Y643000D01*
X1138000Y653000D02*
X1140000D01*
X1139000Y652000D02*
Y654000D01*
X1161000Y430000D02*
X1163000D01*
X1162000Y429000D02*
Y431000D01*
X1160000Y502000D02*
X1162000D01*
X1161000Y501000D02*
Y503000D01*
X1160000Y480000D02*
X1162000D01*
X1161000Y479000D02*
Y481000D01*
X1054000Y633000D02*
X1056000D01*
X1055000Y632000D02*
Y634000D01*
X1047000Y630000D02*
X1049000D01*
X1048000Y629000D02*
Y631000D01*
X1047000Y644000D02*
X1049000D01*
X1048000Y643000D02*
Y645000D01*
X1040000Y638000D02*
X1042000D01*
X1041000Y637000D02*
Y639000D01*
X1004000Y628000D02*
X1006000D01*
X1005000Y627000D02*
Y629000D01*
X1007000Y663000D02*
X1009000D01*
X1008000Y662000D02*
Y664000D01*
X921500Y670000D02*
X923500D01*
X922500Y669000D02*
Y671000D01*
X936500Y680000D02*
X938500D01*
X937500Y679000D02*
Y681000D01*
X939000Y690000D02*
X941000D01*
X940000Y689000D02*
Y691000D01*
X936500Y670000D02*
X938500D01*
X937500Y669000D02*
Y671000D01*
X894000Y665000D02*
X896000D01*
X895000Y664000D02*
Y666000D01*
X979000Y670000D02*
X981000D01*
X980000Y669000D02*
Y671000D01*
X961500Y680000D02*
X963500D01*
X962500Y679000D02*
Y681000D01*
X1024000Y692500D02*
X1026000D01*
X1025000Y691500D02*
Y693500D01*
X1004000Y707500D02*
X1006000D01*
X1005000Y706500D02*
Y708500D01*
X1004000Y697500D02*
X1006000D01*
X1005000Y696500D02*
Y698500D01*
X1011500Y722500D02*
X1013500D01*
X1012500Y721500D02*
Y723500D01*
X906500Y650000D02*
X908500D01*
X907500Y649000D02*
Y651000D01*
X899000Y680000D02*
X901000D01*
X900000Y679000D02*
Y681000D01*
X881500Y680000D02*
X883500D01*
X882500Y679000D02*
Y681000D01*
X879000Y612500D02*
X881000D01*
X880000Y611500D02*
Y613500D01*
X849000Y667500D02*
X851000D01*
X850000Y666500D02*
Y668500D01*
X831500Y675000D02*
X833500D01*
X832500Y674000D02*
Y676000D01*
X821500Y670000D02*
X823500D01*
X822500Y669000D02*
Y671000D01*
X844000Y675000D02*
X846000D01*
X845000Y674000D02*
Y676000D01*
X924000Y615000D02*
X926000D01*
X925000Y614000D02*
Y616000D01*
X874000Y600000D02*
X876000D01*
X875000Y599000D02*
Y601000D01*
X864000Y600000D02*
X866000D01*
X865000Y599000D02*
Y601000D01*
X844782Y628883D02*
X846782D01*
X845782Y627883D02*
Y629883D01*
X844456Y636254D02*
X846456D01*
X845456Y635254D02*
Y637254D01*
X844871Y643535D02*
X846871D01*
X845871Y642535D02*
Y644535D01*
X876500Y672500D02*
X878500D01*
X877500Y671500D02*
Y673500D01*
X861500Y680000D02*
X863500D01*
X862500Y679000D02*
Y681000D01*
X859000Y670000D02*
X861000D01*
X860000Y669000D02*
Y671000D01*
X816500Y662500D02*
X818500D01*
X817500Y661500D02*
Y663500D01*
X826500Y662500D02*
X828500D01*
X827500Y661500D02*
Y663500D01*
X994000Y592500D02*
X996000D01*
X995000Y591500D02*
Y593500D01*
X994000Y572500D02*
X996000D01*
X995000Y571500D02*
Y573500D01*
X1713000Y516000D02*
X1715000D01*
X1714000Y515000D02*
Y517000D01*
X1309000Y449000D02*
X1311000D01*
X1310000Y448000D02*
Y450000D01*
X695320Y456759D02*
X697320D01*
X696320Y455759D02*
Y457759D01*
X252000Y146000D02*
X254000D01*
X253000Y145000D02*
Y147000D01*
X252000Y111000D02*
X254000D01*
X253000Y110000D02*
Y112000D01*
X1289000Y434000D02*
X1291000D01*
X1290000Y433000D02*
Y435000D01*
X1541500Y97500D02*
X1543500D01*
X1542500Y96500D02*
Y98500D01*
X706500Y202500D02*
X708500D01*
X707500Y201500D02*
Y203500D01*
X1034000Y560000D02*
X1036000D01*
X1035000Y559000D02*
Y561000D01*
X1034000Y552500D02*
X1036000D01*
X1035000Y551500D02*
Y553500D01*
X390000Y524000D02*
X392000D01*
X391000Y523000D02*
Y525000D01*
X365000Y587000D02*
X367000D01*
X366000Y586000D02*
Y588000D01*
X810000Y580000D02*
X812000D01*
X811000Y579000D02*
Y581000D01*
X397000Y584000D02*
X399000D01*
X398000Y583000D02*
Y585000D01*
X441000Y505000D02*
X443000D01*
X442000Y504000D02*
Y506000D01*
X441000Y495000D02*
X443000D01*
X442000Y494000D02*
Y496000D01*
X441000Y500000D02*
X443000D01*
X442000Y499000D02*
Y501000D01*
X456000Y549000D02*
X458000D01*
X457000Y548000D02*
Y550000D01*
X435000Y421000D02*
X437000D01*
X436000Y420000D02*
Y422000D01*
X671000Y225750D02*
X673000D01*
X672000Y224750D02*
Y226750D01*
X675000Y243000D02*
X677000D01*
X676000Y242000D02*
Y244000D01*
X576000Y296000D02*
X578000D01*
X577000Y295000D02*
Y297000D01*
X1074000Y485000D02*
X1076000D01*
X1075000Y484000D02*
Y486000D01*
X1102000Y470000D02*
X1104000D01*
X1103000Y469000D02*
Y471000D01*
X1110000Y479000D02*
X1112000D01*
X1111000Y478000D02*
Y480000D01*
X1157000Y703000D02*
X1159000D01*
X1158000Y702000D02*
Y704000D01*
X1151000Y682000D02*
X1153000D01*
X1152000Y681000D02*
Y683000D01*
X1157000Y712000D02*
X1159000D01*
X1158000Y711000D02*
Y713000D01*
X1157000Y717000D02*
X1159000D01*
X1158000Y716000D02*
Y718000D01*
X1026474Y701033D02*
X1028474D01*
X1027474Y700033D02*
Y702033D01*
X1026474Y706033D02*
X1028474D01*
X1027474Y705033D02*
Y707033D01*
X329000Y209000D02*
X331000D01*
X330000Y208000D02*
Y210000D01*
X715000Y693000D02*
X717000D01*
X716000Y692000D02*
Y694000D01*
X752000Y697000D02*
X754000D01*
X753000Y696000D02*
Y698000D01*
X1271000Y600000D02*
X1273000D01*
X1272000Y599000D02*
Y601000D01*
X86000Y172000D02*
X88000D01*
X87000Y171000D02*
Y173000D01*
X1520000Y706000D02*
X1522000D01*
X1521000Y705000D02*
Y707000D01*
X1207000Y400000D02*
X1209000D01*
X1208000Y399000D02*
Y401000D01*
X1115000Y565000D02*
X1117000D01*
X1116000Y564000D02*
Y566000D01*
X882880Y427631D02*
X884880D01*
X883880Y426631D02*
Y428631D01*
X902880Y477631D02*
X904880D01*
X903880Y476631D02*
Y478631D01*
X882880Y397631D02*
X884880D01*
X883880Y396631D02*
Y398631D01*
X902880Y397631D02*
X904880D01*
X903880Y396631D02*
Y398631D01*
X912880Y387631D02*
X914880D01*
X913880Y386631D02*
Y388631D01*
X952880Y387631D02*
X954880D01*
X953880Y386631D02*
Y388631D01*
X962880Y397631D02*
X964880D01*
X963880Y396631D02*
Y398631D01*
X962880Y417631D02*
X964880D01*
X963880Y416631D02*
Y418631D01*
X952880Y427631D02*
X954880D01*
X953880Y426631D02*
Y428631D01*
X912880Y427631D02*
X914880D01*
X913880Y426631D02*
Y428631D01*
X902880Y417631D02*
X904880D01*
X903880Y416631D02*
Y418631D01*
X825000Y574000D02*
X827000D01*
X826000Y573000D02*
Y575000D01*
X844000Y589000D02*
X846000D01*
X845000Y588000D02*
Y590000D01*
X868000Y352000D02*
X870000D01*
X869000Y351000D02*
Y353000D01*
X830000Y397000D02*
X832000D01*
X831000Y396000D02*
Y398000D01*
X995000Y359000D02*
X997000D01*
X996000Y358000D02*
Y360000D01*
X600750Y440250D02*
X602750D01*
X601750Y439250D02*
Y441250D01*
X566500Y575500D02*
X568500D01*
X567500Y574500D02*
Y576500D01*
X566500Y559500D02*
X568500D01*
X567500Y558500D02*
Y560500D01*
X556500Y563500D02*
X558500D01*
X557500Y562500D02*
Y564500D01*
X566500Y535500D02*
X568500D01*
X567500Y534500D02*
Y536500D01*
X556500Y555500D02*
X558500D01*
X557500Y554500D02*
Y556500D01*
X504500Y581500D02*
X506500D01*
X505500Y580500D02*
Y582500D01*
X490500Y559500D02*
X492500D01*
X491500Y558500D02*
Y560500D01*
X500500Y547500D02*
X502500D01*
X501500Y546500D02*
Y548500D01*
X490500Y543500D02*
X492500D01*
X491500Y542500D02*
Y544500D01*
X556500Y523500D02*
X558500D01*
X557500Y522500D02*
Y524500D01*
X556500Y507500D02*
X558500D01*
X557500Y506500D02*
Y508500D01*
X516500Y531500D02*
X518500D01*
X517500Y530500D02*
Y532500D01*
X566500Y479500D02*
X568500D01*
X567500Y478500D02*
Y480500D01*
X566500Y463500D02*
X568500D01*
X567500Y462500D02*
Y464500D01*
X508500Y499500D02*
X510500D01*
X509500Y498500D02*
Y500500D01*
X490500Y519500D02*
X492500D01*
X491500Y518500D02*
Y520500D01*
X489500Y463500D02*
X491500D01*
X490500Y462500D02*
Y464500D01*
X490500Y479500D02*
X492500D01*
X491500Y478500D02*
Y480500D01*
X678875Y424996D02*
X680875D01*
X679875Y423996D02*
Y425996D01*
X776000Y316000D02*
X778000D01*
X777000Y315000D02*
Y317000D01*
X424000Y662498D02*
X426000D01*
X425000Y661498D02*
Y663498D01*
X364000Y673000D02*
X366000D01*
X365000Y672000D02*
Y674000D01*
X414000Y718000D02*
X416000D01*
X415000Y717000D02*
Y719000D01*
X364000Y712000D02*
X366000D01*
X365000Y711000D02*
Y713000D01*
X581148Y304852D02*
X583148D01*
X582148Y303852D02*
Y305852D01*
X709000Y441000D02*
X711000D01*
X710000Y440000D02*
Y442000D01*
X679000Y456000D02*
X681000D01*
X680000Y455000D02*
Y457000D01*
X376000Y603000D02*
X378000D01*
X377000Y602000D02*
Y604000D01*
X376000Y608000D02*
X378000D01*
X377000Y607000D02*
Y609000D01*
X367000Y650000D02*
X369000D01*
X368000Y649000D02*
Y651000D01*
X362000Y650000D02*
X364000D01*
X363000Y649000D02*
Y651000D01*
X523000Y279000D02*
X525000D01*
X524000Y278000D02*
Y280000D01*
X1587000Y682000D02*
X1589000D01*
X1588000Y681000D02*
Y683000D01*
X1296000Y314000D02*
X1298000D01*
X1297000Y313000D02*
Y315000D01*
X1510000Y709000D02*
X1512000D01*
X1511000Y708000D02*
Y710000D01*
X1505000Y718000D02*
X1507000D01*
X1506000Y717000D02*
Y719000D01*
X1233000Y721000D02*
X1235000D01*
X1234000Y720000D02*
Y722000D01*
X229000Y426000D02*
X231000D01*
X230000Y425000D02*
Y427000D01*
X231000Y442000D02*
X233000D01*
X232000Y441000D02*
Y443000D01*
X1172000Y583000D02*
X1174000D01*
X1173000Y582000D02*
Y584000D01*
X1155000Y741000D02*
X1157000D01*
X1156000Y740000D02*
Y742000D01*
X1460000Y478000D02*
X1462000D01*
X1461000Y477000D02*
Y479000D01*
X1460000Y559000D02*
X1462000D01*
X1461000Y558000D02*
Y560000D01*
X1526000Y682000D02*
X1528000D01*
X1527000Y681000D02*
Y683000D01*
X1621000Y598000D02*
X1623000D01*
X1622000Y597000D02*
Y599000D01*
X1676000Y506000D02*
X1678000D01*
X1677000Y505000D02*
Y507000D01*
X728250Y479000D02*
X730250D01*
X729250Y478000D02*
Y480000D01*
X1462000Y407000D02*
X1464000D01*
X1463000Y406000D02*
Y408000D01*
X1613000Y491000D02*
X1615000D01*
X1614000Y490000D02*
Y492000D01*
X1606000Y498000D02*
X1608000D01*
X1607000Y497000D02*
Y499000D01*
X1613000Y652000D02*
X1615000D01*
X1614000Y651000D02*
Y653000D01*
X1606000Y642000D02*
X1608000D01*
X1607000Y641000D02*
Y643000D01*
X1613000Y587000D02*
X1615000D01*
X1614000Y586000D02*
Y588000D01*
X1606000Y577000D02*
X1608000D01*
X1607000Y576000D02*
Y578000D01*
X1355000Y279000D02*
X1357000D01*
X1356000Y278000D02*
Y280000D01*
X1461000Y379000D02*
X1463000D01*
X1462000Y378000D02*
Y380000D01*
X1414000Y314000D02*
X1416000D01*
X1415000Y313000D02*
Y315000D01*
X1592000Y697000D02*
X1594000D01*
X1593000Y696000D02*
Y698000D01*
X1592000Y691000D02*
X1594000D01*
X1593000Y690000D02*
Y692000D01*
X1683000Y690000D02*
X1685000D01*
X1684000Y689000D02*
Y691000D01*
X1277000Y689000D02*
X1279000D01*
X1278000Y688000D02*
Y690000D01*
X1340000Y689000D02*
X1342000D01*
X1341000Y688000D02*
Y690000D01*
X1430750Y688750D02*
X1432750D01*
X1431750Y687750D02*
Y689750D01*
X1683000Y697000D02*
X1685000D01*
X1684000Y696000D02*
Y698000D01*
X1431000Y695000D02*
X1433000D01*
X1432000Y694000D02*
Y696000D01*
X1339750Y695250D02*
X1341750D01*
X1340750Y694250D02*
Y696250D01*
X1277000Y695000D02*
X1279000D01*
X1278000Y694000D02*
Y696000D01*
X1501000Y771000D02*
X1503000D01*
X1502000Y770000D02*
Y772000D01*
X1538000Y763000D02*
X1540000D01*
X1539000Y762000D02*
Y764000D01*
X1128000Y430000D02*
X1130000D01*
X1129000Y429000D02*
Y431000D01*
X1054000D02*
X1056000D01*
X1055000Y430000D02*
Y432000D01*
X458000Y146000D02*
X460000D01*
X459000Y145000D02*
Y147000D01*
X707041Y236041D02*
X709041D01*
X708041Y235041D02*
Y237041D01*
X794000Y174000D02*
X796000D01*
X795000Y173000D02*
Y175000D01*
X736000Y249000D02*
X738000D01*
X737000Y248000D02*
Y250000D01*
X1211000Y452000D02*
X1213000D01*
X1212000Y451000D02*
Y453000D01*
X1230000Y461000D02*
X1232000D01*
X1231000Y460000D02*
Y462000D01*
X1128000Y412000D02*
X1130000D01*
X1129000Y411000D02*
Y413000D01*
Y421000D02*
X1131000D01*
X1130000Y420000D02*
Y422000D01*
X535000Y184000D02*
X537000D01*
X536000Y183000D02*
Y185000D01*
X1277000Y720000D02*
X1279000D01*
X1278000Y719000D02*
Y721000D01*
X1277000Y730000D02*
X1279000D01*
X1278000Y729000D02*
Y731000D01*
X1349000Y724000D02*
X1351000D01*
X1350000Y723000D02*
Y725000D01*
X1357000Y729000D02*
X1359000D01*
X1358000Y728000D02*
Y730000D01*
X1401000Y733000D02*
X1403000D01*
X1402000Y732000D02*
Y734000D01*
X1135000Y622000D02*
X1137000D01*
X1136000Y621000D02*
Y623000D01*
X997000Y659000D02*
X999000D01*
X998000Y658000D02*
Y660000D01*
X1166000Y651000D02*
X1168000D01*
X1167000Y650000D02*
Y652000D01*
X932000Y644000D02*
X934000D01*
X933000Y643000D02*
Y645000D01*
X932000Y636000D02*
X934000D01*
X933000Y635000D02*
Y637000D01*
X1235250Y645750D02*
X1237250D01*
X1236250Y644750D02*
Y646750D01*
X1271000Y646000D02*
X1273000D01*
X1272000Y645000D02*
Y647000D01*
X1262000Y646000D02*
X1264000D01*
X1263000Y645000D02*
Y647000D01*
X1538000Y303000D02*
X1540000D01*
X1539000Y302000D02*
Y304000D01*
X1208000Y298000D02*
X1210000D01*
X1209000Y297000D02*
Y299000D01*
X1579000Y519000D02*
X1581000D01*
X1580000Y518000D02*
Y520000D01*
X1593000Y517000D02*
X1595000D01*
X1594000Y516000D02*
Y518000D01*
X1253000Y646000D02*
X1255000D01*
X1254000Y645000D02*
Y647000D01*
X1492000Y116000D02*
X1494000D01*
X1493000Y115000D02*
Y117000D01*
X1388000Y116000D02*
X1390000D01*
X1389000Y115000D02*
Y117000D01*
X1367000Y431000D02*
X1369000D01*
X1368000Y430000D02*
Y432000D01*
X1347000Y457600D02*
X1349000D01*
X1348000Y456600D02*
Y458600D01*
X1416000Y493000D02*
X1418000D01*
X1417000Y492000D02*
Y494000D01*
X1255500Y429000D02*
X1257500D01*
X1256500Y428000D02*
Y430000D01*
X273000Y552000D02*
X275000D01*
X274000Y551000D02*
Y553000D01*
X719000Y562000D02*
X721000D01*
X720000Y561000D02*
Y563000D01*
X759000Y505000D02*
X761000D01*
X760000Y504000D02*
Y506000D01*
X746000Y511000D02*
X748000D01*
X747000Y510000D02*
Y512000D01*
X744000Y520000D02*
X746000D01*
X745000Y519000D02*
Y521000D01*
X734000Y525000D02*
X736000D01*
X735000Y524000D02*
Y526000D01*
X566000Y713000D02*
X568000D01*
X567000Y712000D02*
Y714000D01*
X262000Y556249D02*
X264000D01*
X263000Y555249D02*
Y557249D01*
X253000Y560000D02*
X255000D01*
X254000Y559000D02*
Y561000D01*
X575000Y328000D02*
X577000D01*
X576000Y327000D02*
Y329000D01*
X796000Y575000D02*
X798000D01*
X797000Y574000D02*
Y576000D01*
X1321000Y702000D02*
X1323000D01*
X1322000Y701000D02*
Y703000D01*
X1491000Y705000D02*
X1493000D01*
X1492000Y704000D02*
Y706000D01*
X1501000Y704000D02*
X1503000D01*
X1502000Y703000D02*
Y705000D01*
X1161000Y668000D02*
X1163000D01*
X1162000Y667000D02*
Y669000D01*
X1438000Y712000D02*
X1440000D01*
X1439000Y711000D02*
Y713000D01*
X1482000Y704000D02*
X1484000D01*
X1483000Y703000D02*
Y705000D01*
X1535000Y598000D02*
X1537000D01*
X1536000Y597000D02*
Y599000D01*
X1546000Y571000D02*
X1548000D01*
X1547000Y570000D02*
Y572000D01*
X1469000Y370000D02*
X1471000D01*
X1470000Y369000D02*
Y371000D01*
X1432000Y303000D02*
X1434000D01*
X1433000Y302000D02*
Y304000D01*
X1478000Y93000D02*
X1480000D01*
X1479000Y92000D02*
Y94000D01*
X1437000Y603000D02*
X1439000D01*
X1438000Y602000D02*
Y604000D01*
X1532000Y324000D02*
X1534000D01*
X1533000Y323000D02*
Y325000D01*
X1466000Y324000D02*
X1468000D01*
X1467000Y323000D02*
Y325000D01*
X1461000Y433000D02*
X1463000D01*
X1462000Y432000D02*
Y434000D01*
X1536000D02*
X1538000D01*
X1537000Y433000D02*
Y435000D01*
X1471000Y262000D02*
X1473000D01*
X1472000Y261000D02*
Y263000D01*
X1430000Y105000D02*
X1432000D01*
X1431000Y104000D02*
Y106000D01*
X1440000Y105000D02*
X1442000D01*
X1441000Y104000D02*
Y106000D01*
X1409000Y104000D02*
X1411000D01*
X1410000Y103000D02*
Y105000D01*
X1400000Y104000D02*
X1402000D01*
X1401000Y103000D02*
Y105000D01*
X1661000Y561000D02*
X1663000D01*
X1662000Y560000D02*
Y562000D01*
X1472000Y537000D02*
X1474000D01*
X1473000Y536000D02*
Y538000D01*
X1472000Y529000D02*
X1474000D01*
X1473000Y528000D02*
Y530000D01*
X1283000Y506500D02*
X1285000D01*
X1284000Y505500D02*
Y507500D01*
X1309000Y462000D02*
X1311000D01*
X1310000Y461000D02*
Y463000D01*
X1537000Y194000D02*
X1539000D01*
X1538000Y193000D02*
Y195000D01*
X381000Y243000D02*
X383000D01*
X382000Y242000D02*
Y244000D01*
X405000Y173000D02*
X407000D01*
X406000Y172000D02*
Y174000D01*
X390000Y236000D02*
X392000D01*
X391000Y235000D02*
Y237000D01*
X397000Y182000D02*
X399000D01*
X398000Y181000D02*
Y183000D01*
X1252000Y315000D02*
X1254000D01*
X1253000Y314000D02*
Y316000D01*
X336000Y236000D02*
X338000D01*
X337000Y235000D02*
Y237000D01*
X348342Y583089D02*
X350342D01*
X349342Y582089D02*
Y584089D01*
X490500Y499500D02*
X492500D01*
X491500Y498500D02*
Y500500D01*
X441753Y630249D02*
X443753D01*
X442752Y629249D02*
Y631249D01*
X444502Y625749D02*
X446502D01*
X445503Y624749D02*
Y626749D01*
X441753Y621249D02*
X443753D01*
X442752Y620249D02*
Y622249D01*
X343503Y492499D02*
X345503D01*
X344502Y491499D02*
Y493499D01*
X348753Y492499D02*
X350752D01*
X349753Y491499D02*
Y493499D01*
X389752Y506499D02*
X391752D01*
X390752Y505499D02*
Y507500D01*
X388752Y500499D02*
X390752D01*
X389752Y499500D02*
Y501499D01*
X353753Y492499D02*
X355752D01*
X354753Y491499D02*
Y493499D01*
X389502Y494500D02*
X391502D01*
X390502Y493499D02*
Y495499D01*
X338252Y492499D02*
X340252D01*
X339253Y491499D02*
Y493499D01*
X341002Y549749D02*
X343002D01*
X342002Y548750D02*
Y550750D01*
X571000Y306000D02*
X573000D01*
X572000Y305000D02*
Y307000D01*
X341000Y583000D02*
X343000D01*
X342000Y582000D02*
Y584000D01*
X300002Y596101D02*
X302002D01*
X301002Y595101D02*
Y597101D01*
X250502Y598101D02*
X252502D01*
X251502Y597101D02*
Y599101D01*
X295252Y600601D02*
X297252D01*
X296252Y599601D02*
Y601601D01*
X262002Y598101D02*
X264002D01*
X263002Y597101D02*
Y599101D01*
X256252Y598101D02*
X258252D01*
X257252Y597101D02*
Y599101D01*
X300002Y600601D02*
X302002D01*
X301002Y599601D02*
Y601601D01*
X268002Y598101D02*
X270002D01*
X269002Y597101D02*
Y599101D01*
X315217Y596101D02*
X317217D01*
X316217Y595101D02*
Y597101D01*
X319967Y600601D02*
X321967D01*
X320967Y599601D02*
Y601601D01*
X358967Y598101D02*
X360967D01*
X359967Y597101D02*
Y599101D01*
X347217Y598101D02*
X349217D01*
X348217Y597101D02*
Y599101D01*
X364717Y598101D02*
X366717D01*
X365717Y597101D02*
Y599101D01*
X353217Y598101D02*
X355217D01*
X354217Y597101D02*
Y599101D01*
X315217Y600601D02*
X317217D01*
X316217Y599601D02*
Y601601D01*
X364967Y529749D02*
X366967D01*
X365967Y528750D02*
Y530750D01*
X353467Y529749D02*
X355467D01*
X354467Y528750D02*
Y530750D01*
X359217Y529749D02*
X361217D01*
X360217Y528750D02*
Y530750D01*
X320217Y527249D02*
X322217D01*
X321217Y526250D02*
Y528250D01*
X315467Y527249D02*
X317467D01*
X316467Y526250D02*
Y528250D01*
X347467Y529749D02*
X349467D01*
X348467Y528750D02*
Y530750D01*
X315467Y531749D02*
X317467D01*
X316467Y530750D02*
Y532749D01*
X256502Y529749D02*
X258502D01*
X257502Y528750D02*
Y530750D01*
X300252Y527249D02*
X302252D01*
X301252Y526250D02*
Y528250D01*
X250752Y529749D02*
X252752D01*
X251752Y528750D02*
Y530750D01*
X262252Y529749D02*
X264252D01*
X263252Y528750D02*
Y530750D01*
X295502Y527249D02*
X297502D01*
X296502Y526250D02*
Y528250D01*
X300252Y531749D02*
X302252D01*
X301252Y530750D02*
Y532749D01*
X268252Y529749D02*
X270252D01*
X269252Y528750D02*
Y530750D01*
X267000Y580000D02*
X269000D01*
X268000Y579000D02*
Y581000D01*
X673000Y510000D02*
X675000D01*
X674000Y509000D02*
Y511000D01*
X616750Y412750D02*
X618750D01*
X617750Y411750D02*
Y413750D01*
X548500Y499500D02*
X550500D01*
X549500Y498500D02*
Y500500D01*
X566500Y519500D02*
X568500D01*
X567500Y518500D02*
Y520500D01*
X500500Y491500D02*
X502500D01*
X501500Y490500D02*
Y492500D01*
X540500Y507500D02*
X542500D01*
X541500Y506500D02*
Y508500D01*
X556500Y491500D02*
X558500D01*
X557500Y490500D02*
Y492500D01*
X500500Y507500D02*
X502500D01*
X501500Y506500D02*
Y508500D01*
X516500Y499500D02*
X518500D01*
X517500Y498500D02*
Y500500D01*
X540500Y499500D02*
X542500D01*
X541500Y498500D02*
Y500500D01*
X548750Y483750D02*
X550750D01*
X549750Y482750D02*
Y484750D01*
X500500Y483500D02*
X502500D01*
X501500Y482500D02*
Y484500D01*
X548500Y491500D02*
X550500D01*
X549500Y490500D02*
Y492500D01*
X516500Y491500D02*
X518500D01*
X517500Y490500D02*
Y492500D01*
X490500Y443750D02*
X492500D01*
X491500Y442750D02*
Y444750D01*
X548500Y451500D02*
X550500D01*
X549500Y450500D02*
Y452500D01*
X508500Y483500D02*
X510500D01*
X509500Y482500D02*
Y484500D01*
X493000Y459500D02*
X495000D01*
X494000Y458500D02*
Y460500D01*
X508500Y491500D02*
X510500D01*
X509500Y490500D02*
Y492500D01*
X548500Y459500D02*
X550500D01*
X549500Y458500D02*
Y460500D01*
X490500Y449750D02*
X492500D01*
X491500Y448750D02*
Y450750D01*
X556500Y459500D02*
X558500D01*
X557500Y458500D02*
Y460500D01*
X500500Y467500D02*
X502500D01*
X501500Y466500D02*
Y468500D01*
X556500Y467500D02*
X558500D01*
X557500Y466500D02*
Y468500D01*
X500500Y475500D02*
X502500D01*
X501500Y474500D02*
Y476500D01*
X556500Y475500D02*
X558500D01*
X557500Y474500D02*
Y476500D01*
X548500Y467500D02*
X550500D01*
X549500Y466500D02*
Y468500D01*
X508500Y475500D02*
X510500D01*
X509500Y474500D02*
Y476500D01*
X548500Y475500D02*
X550500D01*
X549500Y474500D02*
Y476500D01*
X1128000Y448000D02*
X1130000D01*
X1129000Y447000D02*
Y449000D01*
X1021000Y638000D02*
X1023000D01*
X1022000Y637000D02*
Y639000D01*
X940000Y622000D02*
X942000D01*
X941000Y621000D02*
Y623000D01*
X1153000Y457000D02*
X1155000D01*
X1154000Y456000D02*
Y458000D01*
X1165000Y466000D02*
X1167000D01*
X1166000Y465000D02*
Y467000D01*
X1153000Y475000D02*
X1155000D01*
X1154000Y474000D02*
Y476000D01*
X1155000Y530000D02*
X1157000D01*
X1156000Y529000D02*
Y531000D01*
X1153000Y493000D02*
X1155000D01*
X1154000Y492000D02*
Y494000D01*
X1153000Y511000D02*
X1155000D01*
X1154000Y510000D02*
Y512000D01*
X1463000Y721000D02*
X1465000D01*
X1464000Y720000D02*
Y722000D01*
X1515000Y715000D02*
X1517000D01*
X1516000Y714000D02*
Y716000D01*
X1074000Y576000D02*
X1076000D01*
X1075000Y575000D02*
Y577000D01*
X957000D02*
X959000D01*
X958000Y576000D02*
Y578000D01*
X345000Y243000D02*
X347000D01*
X346000Y242000D02*
Y244000D01*
X354000Y236000D02*
X356000D01*
X355000Y235000D02*
Y237000D01*
X320000Y200000D02*
X322000D01*
X321000Y199000D02*
Y201000D01*
X329000Y191000D02*
X331000D01*
X330000Y190000D02*
Y192000D01*
X1234000Y315000D02*
X1236000D01*
X1235000Y314000D02*
Y316000D01*
X1216000Y218000D02*
X1218000D01*
X1217000Y217000D02*
Y219000D01*
X1201000Y215000D02*
X1203000D01*
X1202000Y214000D02*
Y216000D01*
X1105000Y624000D02*
X1107000D01*
X1106000Y623000D02*
Y625000D01*
X1059000Y580000D02*
X1061000D01*
X1060000Y579000D02*
Y581000D01*
X1342000Y314000D02*
X1344000D01*
X1343000Y313000D02*
Y315000D01*
X1060000Y304000D02*
X1062000D01*
X1061000Y303000D02*
Y305000D01*
X1530000Y508000D02*
X1532000D01*
X1531000Y507000D02*
Y509000D01*
X1460000Y505000D02*
X1462000D01*
X1461000Y504000D02*
Y506000D01*
X1436828Y262000D02*
X1438828D01*
X1437828Y261000D02*
Y263000D01*
X274000Y728000D02*
X276000D01*
X275000Y727000D02*
Y729000D01*
X274000Y737000D02*
X276000D01*
X275000Y736000D02*
Y738000D01*
X548000Y675000D02*
X550000D01*
X549000Y674000D02*
Y676000D01*
X465875Y674875D02*
X467875D01*
X466875Y673875D02*
Y675875D01*
X548000Y681000D02*
X550000D01*
X549000Y680000D02*
Y682000D01*
X465875Y680875D02*
X467875D01*
X466875Y679875D02*
Y681875D01*
X592000Y668000D02*
X594000D01*
X593000Y667000D02*
Y669000D01*
X736000Y238000D02*
X738000D01*
X737000Y237000D02*
Y239000D01*
X1279000Y314000D02*
X1281000D01*
X1280000Y313000D02*
Y315000D01*
X1243000D02*
X1245000D01*
X1244000Y314000D02*
Y316000D01*
X1315000Y305000D02*
X1317000D01*
X1316000Y304000D02*
Y306000D01*
X1333000Y314000D02*
X1335000D01*
X1334000Y313000D02*
Y315000D01*
X1378000Y314000D02*
X1380000D01*
X1379000Y313000D02*
Y315000D01*
X1288000Y314000D02*
X1290000D01*
X1289000Y313000D02*
Y315000D01*
X1270000Y314000D02*
X1272000D01*
X1271000Y313000D02*
Y315000D01*
X1113000Y624000D02*
X1115000D01*
X1114000Y623000D02*
Y625000D01*
X988561Y633272D02*
X990561D01*
X989561Y632272D02*
Y634272D01*
X1042000Y669000D02*
X1044000D01*
X1043000Y668000D02*
Y670000D01*
X1087000Y669000D02*
X1089000D01*
X1088000Y668000D02*
Y670000D01*
X1042147Y682874D02*
X1044146D01*
X1043147Y681874D02*
Y683874D01*
X1100000Y681000D02*
X1102000D01*
X1101000Y680000D02*
Y682000D01*
X1065000Y675000D02*
X1067000D01*
X1066000Y674000D02*
Y676000D01*
X1094000D02*
X1096000D01*
X1095000Y675000D02*
Y677000D01*
X1050000Y674000D02*
X1052000D01*
X1051000Y673000D02*
Y675000D01*
X1087000Y681000D02*
X1089000D01*
X1088000Y680000D02*
Y682000D01*
X1076000Y685000D02*
X1078000D01*
X1077000Y684000D02*
Y686000D01*
X1057000Y654000D02*
X1059000D01*
X1058000Y653000D02*
Y655000D01*
X1119000Y654000D02*
X1121000D01*
X1120000Y653000D02*
Y655000D01*
X1199500Y475500D02*
X1201500D01*
X1200500Y474500D02*
Y476500D01*
X829000Y648000D02*
X831000D01*
X830000Y647000D02*
Y649000D01*
X1075000Y670000D02*
X1077000D01*
X1076000Y669000D02*
Y671000D01*
X1077000Y609000D02*
X1079000D01*
X1078000Y608000D02*
Y610000D01*
X1405000Y314000D02*
X1407000D01*
X1406000Y313000D02*
Y315000D01*
X750000Y476000D02*
X752000D01*
X751000Y475000D02*
Y477000D01*
X1464000Y529000D02*
X1466000D01*
X1465000Y528000D02*
Y530000D01*
X1227000Y505000D02*
X1229000D01*
X1228000Y504000D02*
Y506000D01*
X899000Y674000D02*
X901000D01*
X900000Y673000D02*
Y675000D01*
X884652Y670561D02*
X886652D01*
X885652Y669561D02*
Y671561D01*
X915000Y673000D02*
X917000D01*
X916000Y672000D02*
Y674000D01*
X967279Y670561D02*
X969278D01*
X968279Y669561D02*
Y671561D01*
X910000Y631000D02*
X912000D01*
X911000Y630000D02*
Y632000D01*
X956679Y670561D02*
X958679D01*
X957679Y669561D02*
Y671561D01*
X875000Y705000D02*
X877000D01*
X876000Y704000D02*
Y706000D01*
X849000Y655000D02*
X851000D01*
X850000Y654000D02*
Y656000D01*
X551000Y732000D02*
X553000D01*
X552000Y731000D02*
Y733000D01*
X714000Y758000D02*
X716000D01*
X715000Y757000D02*
Y759000D01*
X541000Y731000D02*
X543000D01*
X542000Y730000D02*
Y732000D01*
X701000Y763000D02*
X703000D01*
X702000Y762000D02*
Y764000D01*
X736000Y675000D02*
X738000D01*
X737000Y674000D02*
Y676000D01*
X736000Y657000D02*
X738000D01*
X737000Y656000D02*
Y658000D01*
X682000Y710750D02*
X684000D01*
X683000Y709750D02*
Y711750D01*
X700000Y710750D02*
X702000D01*
X701000Y709750D02*
Y711750D01*
X645805Y666200D02*
X647805D01*
X646805Y665200D02*
Y667200D01*
X646000Y684000D02*
X648000D01*
X647000Y683000D02*
Y685000D01*
X736000Y684000D02*
X738000D01*
X737000Y683000D02*
Y685000D01*
X736250Y666000D02*
X738250D01*
X737250Y665000D02*
Y667000D01*
X693212Y724788D02*
X695212D01*
X694212Y723788D02*
Y725788D01*
X729250Y730000D02*
X731250D01*
X730250Y729000D02*
Y731000D01*
X697455Y720545D02*
X699455D01*
X698455Y719545D02*
Y721545D01*
X735250Y730000D02*
X737250D01*
X736250Y729000D02*
Y731000D01*
X62000Y106000D02*
X64000D01*
X63000Y105000D02*
Y107000D01*
X62000Y111000D02*
X64000D01*
X63000Y110000D02*
Y112000D01*
X150357Y741643D02*
X152357D01*
X151357Y740643D02*
Y742643D01*
X779000Y597029D02*
X781000D01*
X780000Y596029D02*
Y598029D01*
X150000Y749000D02*
X152000D01*
X151000Y748000D02*
Y750000D01*
X868000Y387000D02*
X870000D01*
X869000Y386000D02*
Y388000D01*
X1253000Y532000D02*
X1255000D01*
X1254000Y531000D02*
Y533000D01*
X1226000Y538000D02*
X1228000D01*
X1227000Y537000D02*
Y539000D01*
Y518000D02*
X1229000D01*
X1228000Y517000D02*
Y519000D01*
X1253000Y512000D02*
X1255000D01*
X1254000Y511000D02*
Y513000D01*
X485000Y705000D02*
X487000D01*
X486000Y704000D02*
Y706000D01*
X726000Y238000D02*
X728000D01*
X727000Y237000D02*
Y239000D01*
X512000Y705000D02*
X514000D01*
X513000Y704000D02*
Y706000D01*
X718000Y238000D02*
X720000D01*
X719000Y237000D02*
Y239000D01*
X503000Y705000D02*
X505000D01*
X504000Y704000D02*
Y706000D01*
X711935Y238744D02*
X713935D01*
X712935Y237744D02*
Y239744D01*
X494000Y705000D02*
X496000D01*
X495000Y704000D02*
Y706000D01*
X467000Y705000D02*
X469000D01*
X468000Y704000D02*
Y706000D01*
X694000Y237000D02*
X696000D01*
X695000Y236000D02*
Y238000D01*
X1030000Y681000D02*
X1032000D01*
X1031000Y680000D02*
Y682000D01*
X432000Y704000D02*
X434000D01*
X433000Y703000D02*
Y705000D01*
X449000Y705000D02*
X451000D01*
X450000Y704000D02*
Y706000D01*
X1216783Y705000D02*
X1218783D01*
X1217783Y704000D02*
Y706000D01*
X1358000Y518000D02*
X1360000D01*
X1359000Y517000D02*
Y519000D01*
X1253000Y541000D02*
X1255000D01*
X1254000Y540000D02*
Y542000D01*
X1262000Y518000D02*
X1264000D01*
X1263000Y517000D02*
Y519000D01*
X1334000Y538000D02*
X1336000D01*
X1335000Y537000D02*
Y539000D01*
X1227000Y545000D02*
X1229000D01*
X1228000Y544000D02*
Y546000D01*
X1358000Y505000D02*
X1360000D01*
X1359000Y504000D02*
Y506000D01*
X1226000Y525000D02*
X1228000D01*
X1227000Y524000D02*
Y526000D01*
X1331000Y518000D02*
X1333000D01*
X1332000Y517000D02*
Y519000D01*
X1153000Y439000D02*
X1155000D01*
X1154000Y438000D02*
Y440000D01*
X1165000Y448000D02*
X1167000D01*
X1166000Y447000D02*
Y449000D01*
X1201000Y446000D02*
X1203000D01*
X1202000Y445000D02*
Y447000D01*
X1200000Y461000D02*
X1202000D01*
X1201000Y460000D02*
Y462000D01*
X918000Y644000D02*
X920000D01*
X919000Y643000D02*
Y645000D01*
X1161000Y520000D02*
X1163000D01*
X1162000Y519000D02*
Y521000D01*
X1174500Y515500D02*
X1176500D01*
X1175500Y514500D02*
Y516500D01*
X585000Y282000D02*
X587000D01*
X586000Y281000D02*
Y283000D01*
X568000Y282000D02*
X570000D01*
X569000Y281000D02*
Y283000D01*
X148000Y412000D02*
X150000D01*
X149000Y411000D02*
Y413000D01*
X179000Y417000D02*
X181000D01*
X180000Y416000D02*
Y418000D01*
X1369000Y314000D02*
X1371000D01*
X1370000Y313000D02*
Y315000D01*
X1461000Y595000D02*
X1463000D01*
X1462000Y594000D02*
Y596000D01*
X1460750Y577000D02*
X1462750D01*
X1461750Y576000D02*
Y578000D01*
X755000Y272000D02*
X757000D01*
X756000Y271000D02*
Y273000D01*
X1491000Y618000D02*
X1493000D01*
X1492000Y617000D02*
Y619000D01*
X1520000Y616000D02*
X1522000D01*
X1521000Y615000D02*
Y617000D01*
X1343000Y653000D02*
X1345000D01*
X1344000Y652000D02*
Y654000D01*
X1064000Y621000D02*
X1066000D01*
X1065000Y620000D02*
Y622000D01*
X997000Y616000D02*
X999000D01*
X998000Y615000D02*
Y617000D01*
X978000Y607000D02*
X980000D01*
X979000Y606000D02*
Y608000D01*
X1084735Y604265D02*
X1086735D01*
X1085735Y603265D02*
Y605265D01*
X1361000Y645000D02*
X1363000D01*
X1362000Y644000D02*
Y646000D01*
X990000Y610000D02*
X992000D01*
X991000Y609000D02*
Y611000D01*
X1087000Y614000D02*
X1089000D01*
X1088000Y613000D02*
Y615000D01*
X1379000Y645000D02*
X1381000D01*
X1380000Y644000D02*
Y646000D01*
X1370000Y646000D02*
X1372000D01*
X1371000Y645000D02*
Y647000D01*
X1460750Y568000D02*
X1462750D01*
X1461750Y567000D02*
Y569000D01*
X1397000Y645000D02*
X1399000D01*
X1398000Y644000D02*
Y646000D01*
X1226000Y646000D02*
X1228000D01*
X1227000Y645000D02*
Y647000D01*
X1280000Y646000D02*
X1282000D01*
X1281000Y645000D02*
Y647000D01*
X1368000Y475000D02*
X1370000D01*
X1369000Y474000D02*
Y476000D01*
X1319000Y278000D02*
X1321000D01*
X1320000Y277000D02*
Y279000D01*
X425000Y209000D02*
X427000D01*
X426000Y208000D02*
Y210000D01*
X1378000Y465000D02*
X1380000D01*
X1379000Y464000D02*
Y466000D01*
X1368000Y465000D02*
X1370000D01*
X1369000Y464000D02*
Y466000D01*
X1337000Y277000D02*
X1339000D01*
X1338000Y276000D02*
Y278000D01*
X425000Y193000D02*
X427000D01*
X426000Y192000D02*
Y194000D01*
X1461000Y611000D02*
X1463000D01*
X1462000Y610000D02*
Y612000D01*
X1586000Y604000D02*
X1588000D01*
X1587000Y603000D02*
Y605000D01*
X1218000Y298000D02*
X1220000D01*
X1219000Y297000D02*
Y299000D01*
X1546000Y296000D02*
X1548000D01*
X1547000Y295000D02*
Y297000D01*
X266000Y113200D02*
X268000D01*
X267000Y112200D02*
Y114200D01*
X266000Y108200D02*
X268000D01*
X267000Y107200D02*
Y109200D01*
X248862Y155638D02*
X250863D01*
X249862Y154638D02*
Y156638D01*
X248862Y136638D02*
X250863D01*
X249862Y135638D02*
Y137638D01*
X786000Y366750D02*
X788000D01*
X787000Y365750D02*
Y367750D01*
X786000Y371750D02*
X788000D01*
X787000Y370750D02*
Y372750D01*
X786250Y392500D02*
X788250D01*
X787250Y391500D02*
Y393500D01*
X786250Y387500D02*
X788250D01*
X787250Y386500D02*
Y388500D01*
X806000Y600000D02*
X808000D01*
X807000Y599000D02*
Y601000D01*
X678000Y616000D02*
X680000D01*
X679000Y615000D02*
Y617000D01*
X83000Y224000D02*
X85000D01*
X84000Y223000D02*
Y225000D01*
X671403Y235000D02*
X673403D01*
X672403Y234000D02*
Y236000D01*
X87000Y213000D02*
X89000D01*
X88000Y212000D02*
Y214000D01*
X700000Y230000D02*
X702000D01*
X701000Y229000D02*
Y231000D01*
X87000Y191000D02*
X89000D01*
X88000Y190000D02*
Y192000D01*
X663000Y224000D02*
X665000D01*
X664000Y223000D02*
Y225000D01*
X688000Y222000D02*
X690000D01*
X689000Y221000D02*
Y223000D01*
X83000Y158000D02*
X85000D01*
X84000Y157000D02*
Y159000D01*
X87000Y147000D02*
X89000D01*
X88000Y146000D02*
Y148000D01*
X676000Y206000D02*
X678000D01*
X677000Y205000D02*
Y207000D01*
X1519000Y595000D02*
X1521000D01*
X1520000Y594000D02*
Y596000D01*
X372000Y237000D02*
X374000D01*
X373000Y236000D02*
Y238000D01*
X363000Y243000D02*
X365000D01*
X364000Y242000D02*
Y244000D01*
X102000Y727000D02*
X104000D01*
X103000Y726000D02*
Y728000D01*
X789000Y610000D02*
X791000D01*
X790000Y609000D02*
Y611000D01*
X113000Y129000D02*
X115000D01*
X114000Y128000D02*
Y130000D01*
X1286000Y95000D02*
X1288000D01*
X1287000Y94000D02*
Y96000D01*
X1354000Y101000D02*
X1356000D01*
X1355000Y100000D02*
Y102000D01*
X1263000Y95000D02*
X1265000D01*
X1264000Y94000D02*
Y96000D01*
X1207000Y95000D02*
X1209000D01*
X1208000Y94000D02*
Y96000D01*
X1269000Y101000D02*
X1271000D01*
X1270000Y100000D02*
Y102000D01*
X1201000Y95000D02*
X1203000D01*
X1202000Y94000D02*
Y96000D01*
X1348000Y95000D02*
X1350000D01*
X1349000Y94000D02*
Y96000D01*
X1280000Y101000D02*
X1282000D01*
X1281000Y100000D02*
Y102000D01*
X1366000Y173000D02*
X1368000D01*
X1367000Y172000D02*
Y174000D01*
X1366000Y262000D02*
X1368000D01*
X1367000Y261000D02*
Y263000D01*
X1470000Y173000D02*
X1472000D01*
X1471000Y172000D02*
Y174000D01*
X132760Y725386D02*
X134760D01*
X133760Y724386D02*
Y726386D01*
X129000Y722000D02*
X131000D01*
X130000Y721000D02*
Y723000D01*
X269000Y137000D02*
X271000D01*
X270000Y136000D02*
Y138000D01*
X264757Y132757D02*
X266757D01*
X265757Y131757D02*
Y133757D01*
X1093000Y537000D02*
X1095000D01*
X1094000Y536000D02*
Y538000D01*
X1104000Y272500D02*
X1106000D01*
X1105000Y271500D02*
Y273500D01*
X1114000Y267500D02*
X1116000D01*
X1115000Y266500D02*
Y268500D01*
X1069000Y491000D02*
X1071000D01*
X1070000Y490000D02*
Y492000D01*
X1104000Y282500D02*
X1106000D01*
X1105000Y281500D02*
Y283500D01*
X1082000Y502000D02*
X1084000D01*
X1083000Y501000D02*
Y503000D01*
X1114000Y277500D02*
X1116000D01*
X1115000Y276500D02*
Y278500D01*
X1088000Y511000D02*
X1090000D01*
X1089000Y510000D02*
Y512000D01*
X1478000Y586000D02*
X1480000D01*
X1479000Y585000D02*
Y587000D01*
X1474000Y550000D02*
X1476000D01*
X1475000Y549000D02*
Y551000D01*
X1410504Y193115D02*
X1412504D01*
X1411504Y192115D02*
Y194115D01*
X1410504Y282115D02*
X1412504D01*
X1411504Y281115D02*
Y283115D01*
X1514504Y193115D02*
X1516504D01*
X1515504Y192115D02*
Y194115D01*
X1514504Y282115D02*
X1516504D01*
X1515504Y281115D02*
Y283115D01*
X1553000Y668000D02*
X1555000D01*
X1554000Y667000D02*
Y669000D01*
X1200000Y646000D02*
X1202000D01*
X1201000Y645000D02*
Y647000D01*
X1469000Y184000D02*
X1471000D01*
X1470000Y183000D02*
Y185000D01*
X1436828Y173000D02*
X1438828D01*
X1437828Y172000D02*
Y174000D01*
X1560000Y672000D02*
X1562000D01*
X1561000Y671000D02*
Y673000D01*
X1191000Y644000D02*
X1193000D01*
X1192000Y643000D02*
Y645000D01*
X1540829Y173000D02*
X1542829D01*
X1541828Y172000D02*
Y174000D01*
X1529000Y313000D02*
X1531000D01*
X1530000Y312000D02*
Y314000D01*
X1540829Y262000D02*
X1542829D01*
X1541828Y261000D02*
Y263000D01*
X1361000Y314000D02*
X1363000D01*
X1362000Y313000D02*
Y315000D01*
X1292000Y229000D02*
X1294000D01*
X1293000Y228000D02*
Y230000D01*
X1292000Y238000D02*
X1294000D01*
X1293000Y237000D02*
Y239000D01*
X1453000Y196000D02*
X1455000D01*
X1454000Y195000D02*
Y197000D01*
X1324000Y314000D02*
X1326000D01*
X1325000Y313000D02*
Y315000D01*
X1537000Y283000D02*
X1539000D01*
X1538000Y282000D02*
Y284000D01*
X412752Y475000D02*
X414752D01*
X413752Y473999D02*
Y475999D01*
X395507Y659248D02*
X397507D01*
X396507Y658248D02*
Y660248D01*
X412752Y480750D02*
X414752D01*
X413752Y479749D02*
Y481749D01*
X407752Y475000D02*
X409752D01*
X408752Y473999D02*
Y475999D01*
X395507Y649248D02*
X397507D01*
X396507Y648248D02*
Y650248D01*
X390257Y654248D02*
X392257D01*
X391257Y653248D02*
Y655248D01*
X390257Y649248D02*
X392257D01*
X391257Y648248D02*
Y650248D01*
X390257Y659248D02*
X392257D01*
X391257Y658248D02*
Y660248D01*
X395507Y654248D02*
X397507D01*
X396507Y653248D02*
Y655248D01*
X407502Y480750D02*
X409502D01*
X408502Y479749D02*
Y481749D01*
M02*
