G04*
G04 #@! TF.GenerationSoftware,Altium Limited,Altium Designer,25.8.1 (18)*
G04*
G04 Layer_Color=8388736*
%FSLAX44Y44*%
%MOMM*%
G71*
G04*
G04 #@! TF.SameCoordinates,FE838CB8-C293-45CF-A6AF-E0F13663FADA*
G04*
G04*
G04 #@! TF.FilePolarity,Negative*
G04*
G01*
G75*
G04:AMPARAMS|DCode=22|XSize=0.86mm|YSize=0.22mm|CornerRadius=0.055mm|HoleSize=0mm|Usage=FLASHONLY|Rotation=0.000|XOffset=0mm|YOffset=0mm|HoleType=Round|Shape=RoundedRectangle|*
%AMROUNDEDRECTD22*
21,1,0.8600,0.1100,0,0,0.0*
21,1,0.7500,0.2200,0,0,0.0*
1,1,0.1100,0.3750,-0.0550*
1,1,0.1100,-0.3750,-0.0550*
1,1,0.1100,-0.3750,0.0550*
1,1,0.1100,0.3750,0.0550*
%
%ADD22ROUNDEDRECTD22*%
G04:AMPARAMS|DCode=23|XSize=0.86mm|YSize=0.22mm|CornerRadius=0.055mm|HoleSize=0mm|Usage=FLASHONLY|Rotation=90.000|XOffset=0mm|YOffset=0mm|HoleType=Round|Shape=RoundedRectangle|*
%AMROUNDEDRECTD23*
21,1,0.8600,0.1100,0,0,90.0*
21,1,0.7500,0.2200,0,0,90.0*
1,1,0.1100,0.0550,0.3750*
1,1,0.1100,0.0550,-0.3750*
1,1,0.1100,-0.0550,-0.3750*
1,1,0.1100,-0.0550,0.3750*
%
%ADD23ROUNDEDRECTD23*%
%ADD28R,2.5500X2.5500*%
%ADD57R,0.3500X0.6100*%
%ADD58R,0.6100X0.3500*%
%ADD63R,0.7000X1.0000*%
%ADD73R,0.2794X0.2540*%
%ADD74R,1.4732X0.5588*%
G04:AMPARAMS|DCode=75|XSize=1.0096mm|YSize=0.2825mm|CornerRadius=0.1412mm|HoleSize=0mm|Usage=FLASHONLY|Rotation=90.000|XOffset=0mm|YOffset=0mm|HoleType=Round|Shape=RoundedRectangle|*
%AMROUNDEDRECTD75*
21,1,1.0096,0.0000,0,0,90.0*
21,1,0.7272,0.2825,0,0,90.0*
1,1,0.2825,0.0000,0.3636*
1,1,0.2825,0.0000,-0.3636*
1,1,0.2825,0.0000,-0.3636*
1,1,0.2825,0.0000,0.3636*
%
%ADD75ROUNDEDRECTD75*%
G04:AMPARAMS|DCode=76|XSize=1.1mm|YSize=0.6mm|CornerRadius=0.05mm|HoleSize=0mm|Usage=FLASHONLY|Rotation=90.000|XOffset=0mm|YOffset=0mm|HoleType=Round|Shape=RoundedRectangle|*
%AMROUNDEDRECTD76*
21,1,1.1000,0.5000,0,0,90.0*
21,1,1.0000,0.6000,0,0,90.0*
1,1,0.1000,0.2500,0.5000*
1,1,0.1000,0.2500,-0.5000*
1,1,0.1000,-0.2500,-0.5000*
1,1,0.1000,-0.2500,0.5000*
%
%ADD76ROUNDEDRECTD76*%
%ADD90R,1.4478X1.4478*%
%ADD91R,0.1778X0.6096*%
%ADD92R,0.6096X0.1778*%
G04:AMPARAMS|DCode=100|XSize=0.2825mm|YSize=1.0096mm|CornerRadius=0.1412mm|HoleSize=0mm|Usage=FLASHONLY|Rotation=90.000|XOffset=0mm|YOffset=0mm|HoleType=Round|Shape=RoundedRectangle|*
%AMROUNDEDRECTD100*
21,1,0.2825,0.7272,0,0,90.0*
21,1,0.0000,1.0096,0,0,90.0*
1,1,0.2825,0.3636,0.0000*
1,1,0.2825,0.3636,0.0000*
1,1,0.2825,-0.3636,0.0000*
1,1,0.2825,-0.3636,0.0000*
%
%ADD100ROUNDEDRECTD100*%
G04:AMPARAMS|DCode=101|XSize=1.0096mm|YSize=0.2825mm|CornerRadius=0.0706mm|HoleSize=0mm|Usage=FLASHONLY|Rotation=90.000|XOffset=0mm|YOffset=0mm|HoleType=Round|Shape=RoundedRectangle|*
%AMROUNDEDRECTD101*
21,1,1.0096,0.1412,0,0,90.0*
21,1,0.8684,0.2825,0,0,90.0*
1,1,0.1412,0.0706,0.4342*
1,1,0.1412,0.0706,-0.4342*
1,1,0.1412,-0.0706,-0.4342*
1,1,0.1412,-0.0706,0.4342*
%
%ADD101ROUNDEDRECTD101*%
%ADD102R,0.2540X0.2794*%
%ADD104R,2.7000X2.7000*%
%ADD105R,2.7000X2.7000*%
G04:AMPARAMS|DCode=106|XSize=0.44mm|YSize=1.15mm|CornerRadius=0.0925mm|HoleSize=0mm|Usage=FLASHONLY|Rotation=270.000|XOffset=0mm|YOffset=0mm|HoleType=Round|Shape=RoundedRectangle|*
%AMROUNDEDRECTD106*
21,1,0.4400,0.9650,0,0,270.0*
21,1,0.2550,1.1500,0,0,270.0*
1,1,0.1850,-0.4825,-0.1275*
1,1,0.1850,-0.4825,0.1275*
1,1,0.1850,0.4825,0.1275*
1,1,0.1850,0.4825,-0.1275*
%
%ADD106ROUNDEDRECTD106*%
G04:AMPARAMS|DCode=107|XSize=1.15mm|YSize=0.44mm|CornerRadius=0.0925mm|HoleSize=0mm|Usage=FLASHONLY|Rotation=270.000|XOffset=0mm|YOffset=0mm|HoleType=Round|Shape=RoundedRectangle|*
%AMROUNDEDRECTD107*
21,1,1.1500,0.2550,0,0,270.0*
21,1,0.9650,0.4400,0,0,270.0*
1,1,0.1850,-0.1275,-0.4825*
1,1,0.1850,-0.1275,0.4825*
1,1,0.1850,0.1275,0.4825*
1,1,0.1850,0.1275,-0.4825*
%
%ADD107ROUNDEDRECTD107*%
%ADD108R,3.2500X3.2500*%
G04:AMPARAMS|DCode=109|XSize=0.91mm|YSize=0.34mm|CornerRadius=0.0491mm|HoleSize=0mm|Usage=FLASHONLY|Rotation=0.000|XOffset=0mm|YOffset=0mm|HoleType=Round|Shape=RoundedRectangle|*
%AMROUNDEDRECTD109*
21,1,0.9100,0.2418,0,0,0.0*
21,1,0.8118,0.3400,0,0,0.0*
1,1,0.0982,0.4059,-0.1209*
1,1,0.0982,-0.4059,-0.1209*
1,1,0.0982,-0.4059,0.1209*
1,1,0.0982,0.4059,0.1209*
%
%ADD109ROUNDEDRECTD109*%
G04:AMPARAMS|DCode=110|XSize=0.34mm|YSize=0.91mm|CornerRadius=0.0491mm|HoleSize=0mm|Usage=FLASHONLY|Rotation=0.000|XOffset=0mm|YOffset=0mm|HoleType=Round|Shape=RoundedRectangle|*
%AMROUNDEDRECTD110*
21,1,0.3400,0.8118,0,0,0.0*
21,1,0.2418,0.9100,0,0,0.0*
1,1,0.0982,0.1209,-0.4059*
1,1,0.0982,-0.1209,-0.4059*
1,1,0.0982,-0.1209,0.4059*
1,1,0.0982,0.1209,0.4059*
%
%ADD110ROUNDEDRECTD110*%
%ADD111R,1.7800X1.7800*%
G04:AMPARAMS|DCode=112|XSize=1.4032mm|YSize=1.5032mm|CornerRadius=0.3476mm|HoleSize=0mm|Usage=FLASHONLY|Rotation=270.000|XOffset=0mm|YOffset=0mm|HoleType=Round|Shape=RoundedRectangle|*
%AMROUNDEDRECTD112*
21,1,1.4032,0.8080,0,0,270.0*
21,1,0.7080,1.5032,0,0,270.0*
1,1,0.6952,-0.4040,-0.3540*
1,1,0.6952,-0.4040,0.3540*
1,1,0.6952,0.4040,0.3540*
1,1,0.6952,0.4040,-0.3540*
%
%ADD112ROUNDEDRECTD112*%
G04:AMPARAMS|DCode=113|XSize=0.75mm|YSize=0.7mm|CornerRadius=0.2mm|HoleSize=0mm|Usage=FLASHONLY|Rotation=90.000|XOffset=0mm|YOffset=0mm|HoleType=Round|Shape=RoundedRectangle|*
%AMROUNDEDRECTD113*
21,1,0.7500,0.3000,0,0,90.0*
21,1,0.3500,0.7000,0,0,90.0*
1,1,0.4000,0.1500,0.1750*
1,1,0.4000,0.1500,-0.1750*
1,1,0.4000,-0.1500,-0.1750*
1,1,0.4000,-0.1500,0.1750*
%
%ADD113ROUNDEDRECTD113*%
G04:AMPARAMS|DCode=114|XSize=0.75mm|YSize=0.7mm|CornerRadius=0.2mm|HoleSize=0mm|Usage=FLASHONLY|Rotation=180.000|XOffset=0mm|YOffset=0mm|HoleType=Round|Shape=RoundedRectangle|*
%AMROUNDEDRECTD114*
21,1,0.7500,0.3000,0,0,180.0*
21,1,0.3500,0.7000,0,0,180.0*
1,1,0.4000,-0.1750,0.1500*
1,1,0.4000,0.1750,0.1500*
1,1,0.4000,0.1750,-0.1500*
1,1,0.4000,-0.1750,-0.1500*
%
%ADD114ROUNDEDRECTD114*%
%ADD115R,2.6032X0.5032*%
%ADD116R,0.5032X0.8532*%
%ADD117R,0.8532X0.4532*%
%ADD118R,0.4532X0.8532*%
G04:AMPARAMS|DCode=119|XSize=0.5mm|YSize=0.95mm|CornerRadius=0.1625mm|HoleSize=0mm|Usage=FLASHONLY|Rotation=270.000|XOffset=0mm|YOffset=0mm|HoleType=Round|Shape=RoundedRectangle|*
%AMROUNDEDRECTD119*
21,1,0.5000,0.6250,0,0,270.0*
21,1,0.1750,0.9500,0,0,270.0*
1,1,0.3250,-0.3125,-0.0875*
1,1,0.3250,-0.3125,0.0875*
1,1,0.3250,0.3125,0.0875*
1,1,0.3250,0.3125,-0.0875*
%
%ADD119ROUNDEDRECTD119*%
G04:AMPARAMS|DCode=120|XSize=0.464mm|YSize=0.914mm|CornerRadius=0.1445mm|HoleSize=0mm|Usage=FLASHONLY|Rotation=180.000|XOffset=0mm|YOffset=0mm|HoleType=Round|Shape=RoundedRectangle|*
%AMROUNDEDRECTD120*
21,1,0.4640,0.6250,0,0,180.0*
21,1,0.1750,0.9140,0,0,180.0*
1,1,0.2890,-0.0875,0.3125*
1,1,0.2890,0.0875,0.3125*
1,1,0.2890,0.0875,-0.3125*
1,1,0.2890,-0.0875,-0.3125*
%
%ADD120ROUNDEDRECTD120*%
%ADD121R,2.7500X2.7500*%
%ADD122R,1.2000X0.5500*%
%ADD123R,1.2000X0.7000*%
G04:AMPARAMS|DCode=124|XSize=0.6604mm|YSize=1.5748mm|CornerRadius=0.2159mm|HoleSize=0mm|Usage=FLASHONLY|Rotation=0.000|XOffset=0mm|YOffset=0mm|HoleType=Round|Shape=RoundedRectangle|*
%AMROUNDEDRECTD124*
21,1,0.6604,1.1430,0,0,0.0*
21,1,0.2286,1.5748,0,0,0.0*
1,1,0.4318,0.1143,-0.5715*
1,1,0.4318,-0.1143,-0.5715*
1,1,0.4318,-0.1143,0.5715*
1,1,0.4318,0.1143,0.5715*
%
%ADD124ROUNDEDRECTD124*%
%ADD125R,1.7526X1.6256*%
%ADD126R,1.5032X1.8032*%
%ADD127R,1.2032X1.8032*%
%ADD128R,2.0032X1.8032*%
G04:AMPARAMS|DCode=129|XSize=0.38mm|YSize=0.78mm|CornerRadius=0.115mm|HoleSize=0mm|Usage=FLASHONLY|Rotation=180.000|XOffset=0mm|YOffset=0mm|HoleType=Round|Shape=RoundedRectangle|*
%AMROUNDEDRECTD129*
21,1,0.3800,0.5500,0,0,180.0*
21,1,0.1500,0.7800,0,0,180.0*
1,1,0.2300,-0.0750,0.2750*
1,1,0.2300,0.0750,0.2750*
1,1,0.2300,0.0750,-0.2750*
1,1,0.2300,-0.0750,-0.2750*
%
%ADD129ROUNDEDRECTD129*%
G04:AMPARAMS|DCode=130|XSize=0.38mm|YSize=0.78mm|CornerRadius=0.115mm|HoleSize=0mm|Usage=FLASHONLY|Rotation=90.000|XOffset=0mm|YOffset=0mm|HoleType=Round|Shape=RoundedRectangle|*
%AMROUNDEDRECTD130*
21,1,0.3800,0.5500,0,0,90.0*
21,1,0.1500,0.7800,0,0,90.0*
1,1,0.2300,0.2750,0.0750*
1,1,0.2300,0.2750,-0.0750*
1,1,0.2300,-0.2750,-0.0750*
1,1,0.2300,-0.2750,0.0750*
%
%ADD130ROUNDEDRECTD130*%
%ADD131R,3.8000X3.8000*%
G04:AMPARAMS|DCode=132|XSize=1.4132mm|YSize=0.7932mm|CornerRadius=0.1754mm|HoleSize=0mm|Usage=FLASHONLY|Rotation=0.000|XOffset=0mm|YOffset=0mm|HoleType=Round|Shape=RoundedRectangle|*
%AMROUNDEDRECTD132*
21,1,1.4132,0.4425,0,0,0.0*
21,1,1.0625,0.7932,0,0,0.0*
1,1,0.3507,0.5313,-0.2213*
1,1,0.3507,-0.5313,-0.2213*
1,1,0.3507,-0.5313,0.2213*
1,1,0.3507,0.5313,0.2213*
%
%ADD132ROUNDEDRECTD132*%
G04:AMPARAMS|DCode=133|XSize=0.375mm|YSize=0.4mm|CornerRadius=0.1188mm|HoleSize=0mm|Usage=FLASHONLY|Rotation=90.000|XOffset=0mm|YOffset=0mm|HoleType=Round|Shape=RoundedRectangle|*
%AMROUNDEDRECTD133*
21,1,0.3750,0.1625,0,0,90.0*
21,1,0.1375,0.4000,0,0,90.0*
1,1,0.2375,0.0813,0.0688*
1,1,0.2375,0.0813,-0.0688*
1,1,0.2375,-0.0813,-0.0688*
1,1,0.2375,-0.0813,0.0688*
%
%ADD133ROUNDEDRECTD133*%
G04:AMPARAMS|DCode=134|XSize=1.5097mm|YSize=0.4556mm|CornerRadius=0.1389mm|HoleSize=0mm|Usage=FLASHONLY|Rotation=180.000|XOffset=0mm|YOffset=0mm|HoleType=Round|Shape=RoundedRectangle|*
%AMROUNDEDRECTD134*
21,1,1.5097,0.1778,0,0,180.0*
21,1,1.2319,0.4556,0,0,180.0*
1,1,0.2778,-0.6160,0.0889*
1,1,0.2778,0.6160,0.0889*
1,1,0.2778,0.6160,-0.0889*
1,1,0.2778,-0.6160,-0.0889*
%
%ADD134ROUNDEDRECTD134*%
G04:AMPARAMS|DCode=135|XSize=1.6637mm|YSize=0.762mm|CornerRadius=0.2413mm|HoleSize=0mm|Usage=FLASHONLY|Rotation=0.000|XOffset=0mm|YOffset=0mm|HoleType=Round|Shape=RoundedRectangle|*
%AMROUNDEDRECTD135*
21,1,1.6637,0.2794,0,0,0.0*
21,1,1.1811,0.7620,0,0,0.0*
1,1,0.4826,0.5906,-0.1397*
1,1,0.4826,-0.5906,-0.1397*
1,1,0.4826,-0.5906,0.1397*
1,1,0.4826,0.5906,0.1397*
%
%ADD135ROUNDEDRECTD135*%
G04:AMPARAMS|DCode=136|XSize=1.5232mm|YSize=0.8032mm|CornerRadius=0.1766mm|HoleSize=0mm|Usage=FLASHONLY|Rotation=0.000|XOffset=0mm|YOffset=0mm|HoleType=Round|Shape=RoundedRectangle|*
%AMROUNDEDRECTD136*
21,1,1.5232,0.4500,0,0,0.0*
21,1,1.1700,0.8032,0,0,0.0*
1,1,0.3532,0.5850,-0.2250*
1,1,0.3532,-0.5850,-0.2250*
1,1,0.3532,-0.5850,0.2250*
1,1,0.3532,0.5850,0.2250*
%
%ADD136ROUNDEDRECTD136*%
%ADD137R,0.7524X1.1524*%
%ADD138R,1.4024X1.9524*%
%ADD139R,0.7500X0.3500*%
%ADD140R,0.3500X0.7500*%
%ADD141R,0.7500X0.3286*%
%ADD142R,0.7500X0.4000*%
%ADD143R,1.2032X1.7032*%
G04:AMPARAMS|DCode=144|XSize=1.8432mm|YSize=0.7932mm|CornerRadius=0.2491mm|HoleSize=0mm|Usage=FLASHONLY|Rotation=90.000|XOffset=0mm|YOffset=0mm|HoleType=Round|Shape=RoundedRectangle|*
%AMROUNDEDRECTD144*
21,1,1.8432,0.2950,0,0,90.0*
21,1,1.3450,0.7932,0,0,90.0*
1,1,0.4982,0.1475,0.6725*
1,1,0.4982,0.1475,-0.6725*
1,1,0.4982,-0.1475,-0.6725*
1,1,0.4982,-0.1475,0.6725*
%
%ADD144ROUNDEDRECTD144*%
G04:AMPARAMS|DCode=145|XSize=1.8432mm|YSize=0.7932mm|CornerRadius=0.2491mm|HoleSize=0mm|Usage=FLASHONLY|Rotation=180.000|XOffset=0mm|YOffset=0mm|HoleType=Round|Shape=RoundedRectangle|*
%AMROUNDEDRECTD145*
21,1,1.8432,0.2950,0,0,180.0*
21,1,1.3450,0.7932,0,0,180.0*
1,1,0.4982,-0.6725,0.1475*
1,1,0.4982,0.6725,0.1475*
1,1,0.4982,0.6725,-0.1475*
1,1,0.4982,-0.6725,-0.1475*
%
%ADD145ROUNDEDRECTD145*%
%ADD146R,1.1532X2.3532*%
%ADD147R,2.3532X1.1532*%
G04:AMPARAMS|DCode=148|XSize=1.8532mm|YSize=2.7532mm|CornerRadius=0.3491mm|HoleSize=0mm|Usage=FLASHONLY|Rotation=180.000|XOffset=0mm|YOffset=0mm|HoleType=Round|Shape=RoundedRectangle|*
%AMROUNDEDRECTD148*
21,1,1.8532,2.0550,0,0,180.0*
21,1,1.1550,2.7532,0,0,180.0*
1,1,0.6982,-0.5775,1.0275*
1,1,0.6982,0.5775,1.0275*
1,1,0.6982,0.5775,-1.0275*
1,1,0.6982,-0.5775,-1.0275*
%
%ADD148ROUNDEDRECTD148*%
%ADD149R,2.2524X3.1524*%
%ADD150R,0.9524X1.7524*%
%ADD151O,1.5016X0.4516*%
%ADD152C,0.6932*%
G04:AMPARAMS|DCode=153|XSize=1.7032mm|YSize=0.6532mm|CornerRadius=0.2141mm|HoleSize=0mm|Usage=FLASHONLY|Rotation=90.000|XOffset=0mm|YOffset=0mm|HoleType=Round|Shape=RoundedRectangle|*
%AMROUNDEDRECTD153*
21,1,1.7032,0.2250,0,0,90.0*
21,1,1.2750,0.6532,0,0,90.0*
1,1,0.4282,0.1125,0.6375*
1,1,0.4282,0.1125,-0.6375*
1,1,0.4282,-0.1125,-0.6375*
1,1,0.4282,-0.1125,0.6375*
%
%ADD153ROUNDEDRECTD153*%
%ADD154C,0.8000*%
G04:AMPARAMS|DCode=155|XSize=1.1532mm|YSize=1.0532mm|CornerRadius=0.3141mm|HoleSize=0mm|Usage=FLASHONLY|Rotation=90.000|XOffset=0mm|YOffset=0mm|HoleType=Round|Shape=RoundedRectangle|*
%AMROUNDEDRECTD155*
21,1,1.1532,0.4250,0,0,90.0*
21,1,0.5250,1.0532,0,0,90.0*
1,1,0.6282,0.2125,0.2625*
1,1,0.6282,0.2125,-0.2625*
1,1,0.6282,-0.2125,-0.2625*
1,1,0.6282,-0.2125,0.2625*
%
%ADD155ROUNDEDRECTD155*%
G04:AMPARAMS|DCode=156|XSize=1.8532mm|YSize=2.7532mm|CornerRadius=0.3516mm|HoleSize=0mm|Usage=FLASHONLY|Rotation=180.000|XOffset=0mm|YOffset=0mm|HoleType=Round|Shape=RoundedRectangle|*
%AMROUNDEDRECTD156*
21,1,1.8532,2.0500,0,0,180.0*
21,1,1.1500,2.7532,0,0,180.0*
1,1,0.7032,-0.5750,1.0250*
1,1,0.7032,0.5750,1.0250*
1,1,0.7032,0.5750,-1.0250*
1,1,0.7032,-0.5750,-1.0250*
%
%ADD156ROUNDEDRECTD156*%
%ADD157R,1.3970X1.2446*%
%ADD158R,2.5908X1.2446*%
%ADD159R,1.1938X0.7112*%
%ADD160R,1.2954X1.2446*%
G04:AMPARAMS|DCode=161|XSize=0.65mm|YSize=0.7mm|CornerRadius=0.1875mm|HoleSize=0mm|Usage=FLASHONLY|Rotation=180.000|XOffset=0mm|YOffset=0mm|HoleType=Round|Shape=RoundedRectangle|*
%AMROUNDEDRECTD161*
21,1,0.6500,0.3250,0,0,180.0*
21,1,0.2750,0.7000,0,0,180.0*
1,1,0.3750,-0.1375,0.1625*
1,1,0.3750,0.1375,0.1625*
1,1,0.3750,0.1375,-0.1625*
1,1,0.3750,-0.1375,-0.1625*
%
%ADD161ROUNDEDRECTD161*%
G04:AMPARAMS|DCode=162|XSize=0.65mm|YSize=0.7mm|CornerRadius=0.1875mm|HoleSize=0mm|Usage=FLASHONLY|Rotation=270.000|XOffset=0mm|YOffset=0mm|HoleType=Round|Shape=RoundedRectangle|*
%AMROUNDEDRECTD162*
21,1,0.6500,0.3250,0,0,270.0*
21,1,0.2750,0.7000,0,0,270.0*
1,1,0.3750,-0.1625,-0.1375*
1,1,0.3750,-0.1625,0.1375*
1,1,0.3750,0.1625,0.1375*
1,1,0.3750,0.1625,-0.1375*
%
%ADD162ROUNDEDRECTD162*%
G04:AMPARAMS|DCode=163|XSize=0.375mm|YSize=0.4mm|CornerRadius=0.1188mm|HoleSize=0mm|Usage=FLASHONLY|Rotation=180.000|XOffset=0mm|YOffset=0mm|HoleType=Round|Shape=RoundedRectangle|*
%AMROUNDEDRECTD163*
21,1,0.3750,0.1625,0,0,180.0*
21,1,0.1375,0.4000,0,0,180.0*
1,1,0.2375,-0.0688,0.0813*
1,1,0.2375,0.0688,0.0813*
1,1,0.2375,0.0688,-0.0813*
1,1,0.2375,-0.0688,-0.0813*
%
%ADD163ROUNDEDRECTD163*%
%ADD164R,0.9000X0.6000*%
%ADD165R,2.3032X3.2032*%
%ADD166R,1.0032X1.8032*%
G04:AMPARAMS|DCode=167|XSize=1.4032mm|YSize=1.5032mm|CornerRadius=0.3476mm|HoleSize=0mm|Usage=FLASHONLY|Rotation=0.000|XOffset=0mm|YOffset=0mm|HoleType=Round|Shape=RoundedRectangle|*
%AMROUNDEDRECTD167*
21,1,1.4032,0.8080,0,0,0.0*
21,1,0.7080,1.5032,0,0,0.0*
1,1,0.6952,0.3540,-0.4040*
1,1,0.6952,-0.3540,-0.4040*
1,1,0.6952,-0.3540,0.4040*
1,1,0.6952,0.3540,0.4040*
%
%ADD167ROUNDEDRECTD167*%
G04:AMPARAMS|DCode=168|XSize=1.1532mm|YSize=1.0532mm|CornerRadius=0.3141mm|HoleSize=0mm|Usage=FLASHONLY|Rotation=180.000|XOffset=0mm|YOffset=0mm|HoleType=Round|Shape=RoundedRectangle|*
%AMROUNDEDRECTD168*
21,1,1.1532,0.4250,0,0,180.0*
21,1,0.5250,1.0532,0,0,180.0*
1,1,0.6282,-0.2625,0.2125*
1,1,0.6282,0.2625,0.2125*
1,1,0.6282,0.2625,-0.2125*
1,1,0.6282,-0.2625,-0.2125*
%
%ADD168ROUNDEDRECTD168*%
G04:AMPARAMS|DCode=169|XSize=1.1032mm|YSize=1.1532mm|CornerRadius=0.2006mm|HoleSize=0mm|Usage=FLASHONLY|Rotation=180.000|XOffset=0mm|YOffset=0mm|HoleType=Round|Shape=RoundedRectangle|*
%AMROUNDEDRECTD169*
21,1,1.1032,0.7520,0,0,180.0*
21,1,0.7020,1.1532,0,0,180.0*
1,1,0.4012,-0.3510,0.3760*
1,1,0.4012,0.3510,0.3760*
1,1,0.4012,0.3510,-0.3760*
1,1,0.4012,-0.3510,-0.3760*
%
%ADD169ROUNDEDRECTD169*%
%ADD170R,2.5500X1.0500*%
%ADD171R,2.3532X3.4532*%
%ADD172R,0.7620X3.1242*%
%ADD173R,0.9906X0.9144*%
%ADD174R,3.4532X2.3532*%
%ADD175R,3.4732X1.2732*%
%ADD176R,1.8032X1.8032*%
%ADD177C,1.8032*%
%ADD178R,1.8032X1.8032*%
%ADD179C,1.3000*%
%ADD180C,6.2032*%
%ADD181C,1.5000*%
%ADD182C,3.5000*%
%ADD183C,0.8032*%
G36*
X1766843Y794401D02*
X1771275Y793214D01*
X1775513Y791458D01*
X1779487Y789164D01*
X1783127Y786371D01*
X1786371Y783127D01*
X1789164Y779487D01*
X1791458Y775513D01*
X1793214Y771274D01*
X1794401Y766843D01*
X1795000Y762294D01*
Y760000D01*
Y730000D01*
Y40000D01*
X1795000Y37706D01*
X1794401Y33157D01*
X1793214Y28725D01*
X1791458Y24487D01*
X1789164Y20513D01*
X1786371Y16873D01*
X1783127Y13629D01*
X1779487Y10836D01*
X1775513Y8542D01*
X1771275Y6786D01*
X1766843Y5599D01*
X1762294Y5000D01*
X1760000Y5000D01*
X1760000D01*
X1757999Y5154D01*
X1754064Y5951D01*
X1750257Y7224D01*
X1746634Y8955D01*
X1743252Y11118D01*
X1740160Y13679D01*
X1738914Y15000D01*
X61086D01*
X59840Y13679D01*
X56748Y11118D01*
X53366Y8955D01*
X49743Y7224D01*
X45936Y5951D01*
X42001Y5154D01*
X40000Y5000D01*
X40000D01*
X37706Y5000D01*
X33157Y5599D01*
X28725Y6786D01*
X24486Y8542D01*
X20513Y10836D01*
X16873Y13629D01*
X13629Y16873D01*
X10836Y20513D01*
X8542Y24487D01*
X6786Y28725D01*
X5599Y33157D01*
X5000Y37706D01*
X5000Y40000D01*
X5000Y730000D01*
Y760000D01*
Y762294D01*
X5599Y766843D01*
X6786Y771274D01*
X8542Y775513D01*
X10836Y779487D01*
X13629Y783127D01*
X16873Y786371D01*
X20513Y789164D01*
X24487Y791458D01*
X28726Y793214D01*
X33157Y794401D01*
X37706Y795000D01*
X1762294D01*
X1766843Y794401D01*
D02*
G37*
%LPC*%
G36*
X1737574Y785000D02*
X62426D01*
X62604Y784823D01*
X64998Y781703D01*
X66964Y778297D01*
X68469Y774664D01*
X69487Y770865D01*
X70000Y766966D01*
Y765000D01*
Y760000D01*
Y758034D01*
X69487Y754135D01*
X68469Y750336D01*
X66964Y746703D01*
X64998Y743297D01*
X62604Y740177D01*
X59823Y737396D01*
X56703Y735002D01*
X53297Y733036D01*
X49664Y731531D01*
X45865Y730513D01*
X41966Y730000D01*
X40000D01*
X25000Y730000D01*
X25000Y730000D01*
X24020Y729952D01*
X22097Y729569D01*
X20286Y728819D01*
X18656Y727730D01*
X17270Y726344D01*
X16181Y724714D01*
X15431Y722903D01*
X15048Y720980D01*
X15000Y720000D01*
X15100Y80100D01*
X15100Y80100D01*
X15148Y79130D01*
X15526Y77226D01*
X16269Y75433D01*
X17347Y73819D01*
X18719Y72447D01*
X20333Y71369D01*
X22126Y70626D01*
X24030Y70248D01*
X25000Y70200D01*
X42316Y70200D01*
X42316Y70200D01*
X44317Y70019D01*
X48238Y69139D01*
X52010Y67754D01*
X55569Y65889D01*
X58855Y63575D01*
X61810Y60853D01*
X64384Y57767D01*
X66534Y54373D01*
X68222Y50726D01*
X69420Y46891D01*
X70107Y42931D01*
X70271Y38916D01*
X70091Y36915D01*
X70090Y36915D01*
X70054Y34908D01*
X69491Y30934D01*
X68443Y27058D01*
X67605Y25000D01*
X1732395D01*
X1731557Y27058D01*
X1730509Y30934D01*
X1729945Y34908D01*
X1729909Y36915D01*
X1729909Y36915D01*
X1729729Y38916D01*
X1729893Y42931D01*
X1730580Y46891D01*
X1731778Y50726D01*
X1733466Y54373D01*
X1735616Y57767D01*
X1738190Y60853D01*
X1741145Y63575D01*
X1744431Y65889D01*
X1747990Y67754D01*
X1751762Y69139D01*
X1755683Y70019D01*
X1757684Y70200D01*
X1757684Y70200D01*
X1775000Y70200D01*
X1775970Y70248D01*
X1777874Y70626D01*
X1779667Y71369D01*
X1781281Y72447D01*
X1782653Y73819D01*
X1783731Y75433D01*
X1784474Y77226D01*
X1784852Y79130D01*
X1784900Y80100D01*
X1784900Y80100D01*
X1785000Y720000D01*
X1784952Y720980D01*
X1784569Y722903D01*
X1783819Y724714D01*
X1782730Y726344D01*
X1781344Y727730D01*
X1779714Y728819D01*
X1777903Y729569D01*
X1775980Y729952D01*
X1775000Y730000D01*
Y730000D01*
X1760000Y730000D01*
X1758034D01*
X1754135Y730513D01*
X1750336Y731531D01*
X1746703Y733036D01*
X1743297Y735002D01*
X1740177Y737396D01*
X1737396Y740177D01*
X1735002Y743297D01*
X1733036Y746703D01*
X1731531Y750336D01*
X1730513Y754135D01*
X1730000Y758034D01*
Y760000D01*
Y765000D01*
Y766966D01*
X1730513Y770865D01*
X1731531Y774664D01*
X1733036Y778297D01*
X1735002Y781703D01*
X1737396Y784823D01*
X1737574Y785000D01*
D02*
G37*
%LPD*%
G36*
X565394Y155502D02*
X565492Y155493D01*
X565492Y155493D01*
X566265Y155339D01*
X566265D01*
X566293Y155330D01*
X566359Y155310D01*
X566359Y155310D01*
X567087Y155009D01*
X567087Y155009D01*
X567174Y154963D01*
X567829Y154525D01*
X567829Y154525D01*
X567905Y154462D01*
X568462Y153905D01*
X568462Y153905D01*
X568525Y153829D01*
X568963Y153174D01*
X569009Y153087D01*
X569009Y153087D01*
X569310Y152359D01*
X569310Y152359D01*
X569339Y152265D01*
X569493Y151492D01*
X569502Y151394D01*
Y151000D01*
Y145000D01*
X569493Y144902D01*
X569464Y144808D01*
X569418Y144721D01*
X569355Y144645D01*
X569279Y144582D01*
X569192Y144536D01*
X569098Y144507D01*
X569000Y144498D01*
X557000D01*
X556902Y144507D01*
X556808Y144536D01*
X556721Y144582D01*
X556645Y144645D01*
X556582Y144721D01*
X556536Y144808D01*
X556507Y144902D01*
X556498Y145000D01*
Y151000D01*
D01*
Y151000D01*
X556498Y151394D01*
X556507Y151492D01*
X556507Y151492D01*
X556661Y152265D01*
Y152265D01*
X556670Y152293D01*
X556689Y152359D01*
X556690Y152359D01*
X556991Y153087D01*
X556991Y153087D01*
X557038Y153174D01*
X557475Y153829D01*
X557475Y153829D01*
X557538Y153905D01*
X558095Y154462D01*
X558095Y154462D01*
X558171Y154525D01*
X558826Y154963D01*
X558913Y155009D01*
X558913Y155009D01*
X559641Y155310D01*
X559641Y155310D01*
X559735Y155339D01*
X560508Y155493D01*
X560606Y155502D01*
X565000D01*
D01*
X565000D01*
X565394Y155502D01*
D02*
G37*
G36*
X530394D02*
X530492Y155493D01*
X530492Y155493D01*
X531265Y155339D01*
X531265D01*
X531293Y155330D01*
X531359Y155310D01*
X531359Y155310D01*
X532087Y155009D01*
X532087Y155009D01*
X532174Y154963D01*
X532829Y154525D01*
X532829Y154525D01*
X532905Y154462D01*
X533462Y153905D01*
X533462Y153905D01*
X533525Y153829D01*
X533963Y153174D01*
X534009Y153087D01*
X534009Y153087D01*
X534310Y152359D01*
X534310Y152359D01*
X534339Y152265D01*
X534493Y151492D01*
X534502Y151394D01*
Y151000D01*
Y145000D01*
X534493Y144902D01*
X534464Y144808D01*
X534418Y144721D01*
X534355Y144645D01*
X534279Y144582D01*
X534192Y144536D01*
X534098Y144507D01*
X534000Y144498D01*
X522000D01*
X521902Y144507D01*
X521808Y144536D01*
X521721Y144582D01*
X521645Y144645D01*
X521582Y144721D01*
X521536Y144808D01*
X521507Y144902D01*
X521498Y145000D01*
Y151000D01*
D01*
Y151000D01*
X521498Y151394D01*
X521507Y151492D01*
X521507Y151492D01*
X521661Y152265D01*
Y152265D01*
X521670Y152293D01*
X521689Y152359D01*
X521690Y152359D01*
X521991Y153087D01*
X521991Y153087D01*
X522038Y153174D01*
X522475Y153829D01*
X522475Y153829D01*
X522538Y153905D01*
X523095Y154462D01*
X523095Y154462D01*
X523171Y154525D01*
X523826Y154963D01*
X523913Y155009D01*
X523913Y155009D01*
X524641Y155310D01*
X524641Y155310D01*
X524735Y155339D01*
X525508Y155493D01*
X525606Y155502D01*
X530000D01*
D01*
X530000D01*
X530394Y155502D01*
D02*
G37*
G36*
X569098Y139493D02*
X569192Y139464D01*
X569279Y139418D01*
X569355Y139355D01*
X569418Y139279D01*
X569464Y139192D01*
X569493Y139098D01*
X569502Y139000D01*
Y133000D01*
Y132606D01*
X569493Y132508D01*
X569339Y131735D01*
X569310Y131641D01*
X569009Y130913D01*
X569009Y130913D01*
X568963Y130826D01*
X568525Y130171D01*
X568525Y130171D01*
X568462Y130095D01*
X567905Y129538D01*
X567905Y129538D01*
X567829Y129475D01*
X567174Y129038D01*
X567087Y128991D01*
X567087Y128991D01*
X566359Y128690D01*
X566359Y128689D01*
X566265Y128661D01*
X565492Y128507D01*
X565394Y128498D01*
X560606D01*
X560508Y128507D01*
X559735Y128661D01*
X559641Y128689D01*
X558913Y128991D01*
X558913Y128991D01*
X558826Y129038D01*
X558171Y129475D01*
X558171Y129475D01*
X558095Y129538D01*
X557538Y130095D01*
X557538Y130095D01*
X557475Y130171D01*
X557038Y130826D01*
X556991Y130913D01*
X556991Y130913D01*
X556690Y131641D01*
X556689Y131641D01*
X556661Y131735D01*
X556507Y132508D01*
X556498Y132606D01*
Y133000D01*
Y133000D01*
Y139000D01*
X556507Y139098D01*
X556536Y139192D01*
X556582Y139279D01*
X556645Y139355D01*
X556721Y139418D01*
X556808Y139464D01*
X556902Y139493D01*
X557000Y139502D01*
X569000D01*
X569098Y139493D01*
D02*
G37*
G36*
X534098D02*
X534192Y139464D01*
X534279Y139418D01*
X534355Y139355D01*
X534418Y139279D01*
X534464Y139192D01*
X534493Y139098D01*
X534502Y139000D01*
Y133000D01*
Y132606D01*
X534493Y132508D01*
X534339Y131735D01*
X534310Y131641D01*
X534009Y130913D01*
X534009Y130913D01*
X533963Y130826D01*
X533525Y130171D01*
X533525Y130171D01*
X533462Y130095D01*
X532905Y129538D01*
X532905Y129538D01*
X532829Y129475D01*
X532174Y129038D01*
X532087Y128991D01*
X532087Y128991D01*
X531359Y128690D01*
X531359Y128689D01*
X531265Y128661D01*
X530492Y128507D01*
X530394Y128498D01*
X525606D01*
X525508Y128507D01*
X524735Y128661D01*
X524641Y128689D01*
X523913Y128991D01*
X523913Y128991D01*
X523826Y129038D01*
X523171Y129475D01*
X523171Y129475D01*
X523095Y129538D01*
X522538Y130095D01*
X522538Y130095D01*
X522475Y130171D01*
X522038Y130826D01*
X521991Y130913D01*
X521991Y130913D01*
X521690Y131641D01*
X521690Y131641D01*
X521661Y131735D01*
X521507Y132508D01*
X521498Y132606D01*
Y133000D01*
Y133000D01*
Y139000D01*
X521507Y139098D01*
X521536Y139192D01*
X521582Y139279D01*
X521645Y139355D01*
X521721Y139418D01*
X521808Y139464D01*
X521902Y139493D01*
X522000Y139502D01*
X534000D01*
X534098Y139493D01*
D02*
G37*
D22*
X1307650Y237000D02*
D03*
Y233000D02*
D03*
Y229000D02*
D03*
Y225000D02*
D03*
Y221000D02*
D03*
Y217000D02*
D03*
Y213000D02*
D03*
X1346350D02*
D03*
Y217000D02*
D03*
Y221000D02*
D03*
Y225000D02*
D03*
Y229000D02*
D03*
Y233000D02*
D03*
Y237000D02*
D03*
X389350Y210000D02*
D03*
Y206000D02*
D03*
Y202000D02*
D03*
Y198000D02*
D03*
Y194000D02*
D03*
Y190000D02*
D03*
Y186000D02*
D03*
X350650D02*
D03*
Y190000D02*
D03*
Y194000D02*
D03*
Y198000D02*
D03*
Y202000D02*
D03*
Y206000D02*
D03*
Y210000D02*
D03*
D23*
X1315000Y205650D02*
D03*
X1319000D02*
D03*
X1323000D02*
D03*
X1327000D02*
D03*
X1331000D02*
D03*
X1335000D02*
D03*
X1339000D02*
D03*
Y244350D02*
D03*
X1335000D02*
D03*
X1331000D02*
D03*
X1327000D02*
D03*
X1323000D02*
D03*
X1319000D02*
D03*
X1315000D02*
D03*
X382000Y178650D02*
D03*
X378000D02*
D03*
X374000D02*
D03*
X370000D02*
D03*
X366000D02*
D03*
X362000D02*
D03*
X358000D02*
D03*
Y217350D02*
D03*
X362000D02*
D03*
X366000D02*
D03*
X370000D02*
D03*
X374000D02*
D03*
X378000D02*
D03*
X382000D02*
D03*
D28*
X1085000Y641000D02*
D03*
X960000D02*
D03*
X878000D02*
D03*
D57*
X1652900Y635925D02*
D03*
X1657900D02*
D03*
X1662900D02*
D03*
Y617725D02*
D03*
X1657900D02*
D03*
X1652900D02*
D03*
D58*
X1669500Y634325D02*
D03*
Y629325D02*
D03*
Y624325D02*
D03*
Y619325D02*
D03*
X1646300D02*
D03*
Y624325D02*
D03*
Y629325D02*
D03*
Y634325D02*
D03*
D63*
X1418501Y165000D02*
D03*
X1409501D02*
D03*
X1522501D02*
D03*
X1513501D02*
D03*
Y254000D02*
D03*
X1522501D02*
D03*
X1409501D02*
D03*
X1418501D02*
D03*
D73*
X1666874Y576000D02*
D03*
X1651126Y581000D02*
D03*
X1666874Y571000D02*
D03*
X1651126Y576000D02*
D03*
Y571000D02*
D03*
X1666874Y581000D02*
D03*
D74*
X1361366Y613300D02*
D03*
X937195Y589180D02*
D03*
X864043Y551080D02*
D03*
X1288214Y600600D02*
D03*
Y613300D02*
D03*
X1361366Y587900D02*
D03*
Y600600D02*
D03*
X1288214Y587900D02*
D03*
X1361366Y575200D02*
D03*
X1288214D02*
D03*
X937195Y551080D02*
D03*
X864043Y563780D02*
D03*
X937195Y576480D02*
D03*
Y563780D02*
D03*
X864043Y589180D02*
D03*
Y576480D02*
D03*
D75*
X1077500Y621488D02*
D03*
X952500D02*
D03*
X870500D02*
D03*
X875500D02*
D03*
X890500D02*
D03*
X875500Y660512D02*
D03*
X865500D02*
D03*
X880500D02*
D03*
X890500D02*
D03*
X885500D02*
D03*
X870500D02*
D03*
X880500Y621488D02*
D03*
X885500D02*
D03*
X962500D02*
D03*
X957500D02*
D03*
X972500D02*
D03*
X957500Y660512D02*
D03*
X947500D02*
D03*
X962500D02*
D03*
X967500D02*
D03*
X972500D02*
D03*
X952500D02*
D03*
X967500Y621488D02*
D03*
X1087500D02*
D03*
X1082500D02*
D03*
X1077500Y660512D02*
D03*
X1082500D02*
D03*
X1072500D02*
D03*
X1097500D02*
D03*
X1087500D02*
D03*
X1092500D02*
D03*
X1097500Y621488D02*
D03*
X1092500D02*
D03*
D76*
X770500Y652500D02*
D03*
X780000Y678500D02*
D03*
X761000D02*
D03*
X780000Y652500D02*
D03*
X761000D02*
D03*
D90*
X693000Y668000D02*
D03*
D91*
X682500Y680500D02*
D03*
X693000D02*
D03*
Y655500D02*
D03*
X686000Y680500D02*
D03*
X689500D02*
D03*
X696500D02*
D03*
X700000D02*
D03*
X703500D02*
D03*
Y655500D02*
D03*
X700000D02*
D03*
X696500D02*
D03*
X689500D02*
D03*
X686000D02*
D03*
X682500D02*
D03*
D92*
X680500Y661000D02*
D03*
X705500Y675000D02*
D03*
Y671500D02*
D03*
Y668000D02*
D03*
Y664500D02*
D03*
Y661000D02*
D03*
X680500Y664500D02*
D03*
Y668000D02*
D03*
Y671500D02*
D03*
Y675000D02*
D03*
D100*
X858488Y628500D02*
D03*
Y653500D02*
D03*
Y638500D02*
D03*
Y633500D02*
D03*
Y648500D02*
D03*
X897513Y643500D02*
D03*
Y633500D02*
D03*
Y653500D02*
D03*
X858488Y643500D02*
D03*
X897513Y648500D02*
D03*
Y628500D02*
D03*
Y638500D02*
D03*
X940488Y628500D02*
D03*
Y638500D02*
D03*
Y648500D02*
D03*
X979512Y653500D02*
D03*
Y643500D02*
D03*
Y628500D02*
D03*
Y638500D02*
D03*
X940488Y653500D02*
D03*
X979512Y648500D02*
D03*
X940488Y633500D02*
D03*
X979512D02*
D03*
X940488Y643500D02*
D03*
X1065488Y628500D02*
D03*
Y653500D02*
D03*
Y648500D02*
D03*
Y638500D02*
D03*
Y633500D02*
D03*
X1104512Y653500D02*
D03*
Y643500D02*
D03*
Y633500D02*
D03*
X1065488Y643500D02*
D03*
X1104512Y648500D02*
D03*
Y628500D02*
D03*
Y638500D02*
D03*
D101*
X865500Y621488D02*
D03*
X947500D02*
D03*
X1072500D02*
D03*
D102*
X1656500Y583874D02*
D03*
X1661500Y568126D02*
D03*
X1656500D02*
D03*
X1661500Y583874D02*
D03*
D104*
X1327000Y225000D02*
D03*
D105*
X370000Y198000D02*
D03*
D106*
X208400Y214000D02*
D03*
Y207500D02*
D03*
Y201000D02*
D03*
Y194500D02*
D03*
Y188000D02*
D03*
X255600D02*
D03*
Y194500D02*
D03*
Y201000D02*
D03*
Y207500D02*
D03*
Y214000D02*
D03*
D107*
X245000Y224600D02*
D03*
X238500D02*
D03*
X232000D02*
D03*
X225500D02*
D03*
X219000D02*
D03*
Y177400D02*
D03*
X225500D02*
D03*
X232000D02*
D03*
X238500D02*
D03*
X245000D02*
D03*
D108*
X232000Y201000D02*
D03*
D109*
X91100Y711150D02*
D03*
Y706150D02*
D03*
Y701150D02*
D03*
Y696150D02*
D03*
X120500D02*
D03*
Y701150D02*
D03*
Y706150D02*
D03*
Y711150D02*
D03*
D110*
X98300Y688950D02*
D03*
X103300D02*
D03*
X108300D02*
D03*
X113300D02*
D03*
Y718350D02*
D03*
X108300D02*
D03*
X103300D02*
D03*
X98300D02*
D03*
D111*
X105800Y703650D02*
D03*
D112*
X276902Y207000D02*
D03*
Y189000D02*
D03*
D113*
X290400Y185000D02*
D03*
Y175000D02*
D03*
X196000Y184000D02*
D03*
Y174000D02*
D03*
X290400Y195000D02*
D03*
Y205000D02*
D03*
X185000Y174000D02*
D03*
Y184000D02*
D03*
X142000Y331000D02*
D03*
X173000Y321000D02*
D03*
X171000Y395000D02*
D03*
X1220000Y382000D02*
D03*
X1347000Y269000D02*
D03*
X1311000D02*
D03*
X1302000D02*
D03*
X1067000Y591000D02*
D03*
X837000Y632250D02*
D03*
X173000Y412000D02*
D03*
X171000Y486000D02*
D03*
X44000Y331000D02*
D03*
X75000Y321000D02*
D03*
X73000Y395000D02*
D03*
X142000Y514000D02*
D03*
X44000Y606000D02*
D03*
X173000Y504000D02*
D03*
X75000Y596000D02*
D03*
X171000Y578000D02*
D03*
X73000Y670000D02*
D03*
X142000Y606000D02*
D03*
X173000Y596000D02*
D03*
X75000Y412000D02*
D03*
X44000Y422000D02*
D03*
X171000Y670000D02*
D03*
X73000Y486000D02*
D03*
X75000Y504000D02*
D03*
X44000Y514000D02*
D03*
X73000Y578000D02*
D03*
X1078000Y591000D02*
D03*
X974000Y687000D02*
D03*
X827000Y633000D02*
D03*
X560265Y723000D02*
D03*
X824000Y141000D02*
D03*
Y221000D02*
D03*
X916000Y141000D02*
D03*
Y221000D02*
D03*
X1007000Y141000D02*
D03*
Y221000D02*
D03*
X1099000Y141000D02*
D03*
Y221000D02*
D03*
X649500Y222250D02*
D03*
X254672Y328912D02*
D03*
X285672Y318912D02*
D03*
X283672Y392912D02*
D03*
X473000Y128000D02*
D03*
X295000Y122000D02*
D03*
X321000Y122000D02*
D03*
X347500Y121000D02*
D03*
X414000Y128000D02*
D03*
X445000Y128000D02*
D03*
X142000Y343000D02*
D03*
X162000Y395000D02*
D03*
X190000D02*
D03*
X1229000Y382000D02*
D03*
X1381500Y583500D02*
D03*
X1236500D02*
D03*
X1256500Y382000D02*
D03*
X1211000D02*
D03*
X1238000D02*
D03*
X1271500Y583500D02*
D03*
X1311500Y382000D02*
D03*
X1557000Y239000D02*
D03*
X1480000D02*
D03*
X1547000D02*
D03*
X1490000D02*
D03*
X1557000Y150000D02*
D03*
X1480000D02*
D03*
X1547000D02*
D03*
X1490000D02*
D03*
X1477251Y222502D02*
D03*
Y133502D02*
D03*
X1453000Y239000D02*
D03*
X1376000D02*
D03*
X1443000D02*
D03*
X1386000D02*
D03*
X1453000Y150000D02*
D03*
X1376000D02*
D03*
X1443000D02*
D03*
X1386000D02*
D03*
X1373251Y222502D02*
D03*
Y133502D02*
D03*
X1329000Y269000D02*
D03*
X146000Y434000D02*
D03*
X162000Y486000D02*
D03*
X190000D02*
D03*
X44000Y343000D02*
D03*
X64000Y395000D02*
D03*
X92000D02*
D03*
X44000Y434000D02*
D03*
X44000Y618000D02*
D03*
X162000Y578000D02*
D03*
X190000D02*
D03*
X64000Y670000D02*
D03*
X92000D02*
D03*
X142000Y618000D02*
D03*
Y526000D02*
D03*
X162000Y670000D02*
D03*
X190000D02*
D03*
X64000Y486000D02*
D03*
X92000D02*
D03*
X44000Y526000D02*
D03*
X64000Y578000D02*
D03*
X92000D02*
D03*
X1096000Y591250D02*
D03*
X987000Y590000D02*
D03*
X710000Y703750D02*
D03*
X459752Y571499D02*
D03*
X450752D02*
D03*
X534000Y311000D02*
D03*
X569100Y266000D02*
D03*
X726500Y412000D02*
D03*
X624000Y268750D02*
D03*
X577000Y139000D02*
D03*
X846619Y561130D02*
D03*
X254614Y340876D02*
D03*
X274672Y392912D02*
D03*
X302672D02*
D03*
X308672Y318912D02*
D03*
X299672D02*
D03*
X98000Y321000D02*
D03*
X89000D02*
D03*
X196000Y504000D02*
D03*
X187000D02*
D03*
X846619Y551130D02*
D03*
X450752Y561499D02*
D03*
X459752D02*
D03*
X640500Y222250D02*
D03*
X954619Y562130D02*
D03*
X450752Y551499D02*
D03*
X263672Y340912D02*
D03*
Y350912D02*
D03*
X254614Y350876D02*
D03*
X254672Y318912D02*
D03*
X267672Y328912D02*
D03*
Y318912D02*
D03*
X285672Y328912D02*
D03*
X276672Y318912D02*
D03*
Y328912D02*
D03*
X299672Y328912D02*
D03*
X308672D02*
D03*
X450752Y541499D02*
D03*
X850000Y700000D02*
D03*
Y690000D02*
D03*
Y710000D02*
D03*
Y720000D02*
D03*
X889000Y690000D02*
D03*
Y700000D02*
D03*
X876000D02*
D03*
Y690000D02*
D03*
X863000D02*
D03*
Y700000D02*
D03*
X926000Y710000D02*
D03*
Y720000D02*
D03*
X913000Y710000D02*
D03*
Y720000D02*
D03*
X901000Y710000D02*
D03*
Y720000D02*
D03*
X889000Y710000D02*
D03*
Y720000D02*
D03*
X876000Y710000D02*
D03*
Y720000D02*
D03*
X863000Y710000D02*
D03*
Y720000D02*
D03*
X838000Y710000D02*
D03*
Y720000D02*
D03*
X825000Y710000D02*
D03*
Y720000D02*
D03*
X701000Y703750D02*
D03*
Y693750D02*
D03*
X710000D02*
D03*
X692000D02*
D03*
Y703750D02*
D03*
X683000Y693750D02*
D03*
Y703750D02*
D03*
X674000Y693750D02*
D03*
Y703750D02*
D03*
X792500Y636500D02*
D03*
Y626500D02*
D03*
X827000Y643000D02*
D03*
X837000Y642250D02*
D03*
X974000Y677000D02*
D03*
X987000Y600000D02*
D03*
X954619Y552130D02*
D03*
X1680000Y630000D02*
D03*
Y620000D02*
D03*
X1096000Y601250D02*
D03*
X1078000Y601000D02*
D03*
X1067000D02*
D03*
X1236500Y593500D02*
D03*
X1271500D02*
D03*
X1381500D02*
D03*
X1391000Y583500D02*
D03*
Y593500D02*
D03*
X1368000Y423000D02*
D03*
Y413000D02*
D03*
X1311500Y372000D02*
D03*
X1256500D02*
D03*
X1238000D02*
D03*
X1229000D02*
D03*
X1211000D02*
D03*
X1220000D02*
D03*
X696000Y441000D02*
D03*
Y451000D02*
D03*
X684500Y451500D02*
D03*
Y441500D02*
D03*
X726500Y402000D02*
D03*
X624000Y278750D02*
D03*
X534000Y321000D02*
D03*
X569100Y256000D02*
D03*
X916000Y151000D02*
D03*
Y161000D02*
D03*
Y171000D02*
D03*
Y231000D02*
D03*
Y251000D02*
D03*
Y241000D02*
D03*
X1007000Y151000D02*
D03*
Y171000D02*
D03*
Y161000D02*
D03*
Y231000D02*
D03*
Y241000D02*
D03*
Y251000D02*
D03*
X1477251Y212502D02*
D03*
X1373251D02*
D03*
X1386000Y249000D02*
D03*
X1376000D02*
D03*
X1557000D02*
D03*
X1547000D02*
D03*
X1490000D02*
D03*
X1480000D02*
D03*
X1453000D02*
D03*
X1443000D02*
D03*
X1356000Y259000D02*
D03*
Y269000D02*
D03*
X1347000Y259000D02*
D03*
X1338000Y259000D02*
D03*
Y269000D02*
D03*
X1329000Y259000D02*
D03*
X1320000Y269000D02*
D03*
Y259000D02*
D03*
X1311000Y259000D02*
D03*
X1302000D02*
D03*
X1219000Y291000D02*
D03*
Y281000D02*
D03*
X1209000D02*
D03*
Y291000D02*
D03*
X1099000Y151000D02*
D03*
Y171000D02*
D03*
Y161000D02*
D03*
Y231000D02*
D03*
Y241000D02*
D03*
Y251000D02*
D03*
X824000Y231000D02*
D03*
Y251000D02*
D03*
Y241000D02*
D03*
Y151000D02*
D03*
Y161000D02*
D03*
Y171000D02*
D03*
X640500Y232250D02*
D03*
X649500D02*
D03*
X767000Y174000D02*
D03*
Y164000D02*
D03*
X694000D02*
D03*
Y174000D02*
D03*
X587000Y139000D02*
D03*
Y149000D02*
D03*
X577000D02*
D03*
X502000D02*
D03*
Y139000D02*
D03*
X473000Y118000D02*
D03*
X445000D02*
D03*
X414000Y118000D02*
D03*
X347500Y131000D02*
D03*
X321000Y132000D02*
D03*
X295000Y132000D02*
D03*
X44000Y536000D02*
D03*
X142000D02*
D03*
X44000Y444000D02*
D03*
X53000Y536000D02*
D03*
Y444000D02*
D03*
X151000Y536000D02*
D03*
X1577000Y732000D02*
D03*
Y742000D02*
D03*
X142000Y353000D02*
D03*
X162000Y385000D02*
D03*
X190000D02*
D03*
X1557000Y160000D02*
D03*
X1480000D02*
D03*
X1547000D02*
D03*
X1490000D02*
D03*
X1477251Y123502D02*
D03*
X1453000Y160000D02*
D03*
X1376000D02*
D03*
X1443000D02*
D03*
X1386000D02*
D03*
X1373251Y123502D02*
D03*
X146000Y444000D02*
D03*
X162000Y476000D02*
D03*
X190000D02*
D03*
X44000Y353000D02*
D03*
X64000Y385000D02*
D03*
X92000D02*
D03*
X44000Y628000D02*
D03*
X162000Y568000D02*
D03*
X190000D02*
D03*
X64000Y660000D02*
D03*
X92000D02*
D03*
X142000Y628000D02*
D03*
X162000Y660000D02*
D03*
X190000D02*
D03*
X64000Y476000D02*
D03*
X92000D02*
D03*
X64000Y568000D02*
D03*
X92000D02*
D03*
X151000Y353000D02*
D03*
Y343000D02*
D03*
X187000Y331000D02*
D03*
Y321000D02*
D03*
X196000D02*
D03*
Y331000D02*
D03*
X164000Y331000D02*
D03*
Y321000D02*
D03*
X155000D02*
D03*
Y331000D02*
D03*
X142000Y321000D02*
D03*
X173000Y331000D02*
D03*
X171000Y385000D02*
D03*
X603000Y723000D02*
D03*
Y713000D02*
D03*
X585000D02*
D03*
Y723000D02*
D03*
X164000Y422000D02*
D03*
Y412000D02*
D03*
X187000D02*
D03*
Y422000D02*
D03*
X196000D02*
D03*
Y412000D02*
D03*
X155000Y422000D02*
D03*
Y412000D02*
D03*
X173000Y422000D02*
D03*
X53000Y353000D02*
D03*
Y343000D02*
D03*
X89000Y331000D02*
D03*
X98000D02*
D03*
X66000Y331000D02*
D03*
Y321000D02*
D03*
X171000Y476000D02*
D03*
X57000Y331000D02*
D03*
Y321000D02*
D03*
X44000Y321000D02*
D03*
X75000Y331000D02*
D03*
X73000Y385000D02*
D03*
X151000Y526000D02*
D03*
X53000Y628000D02*
D03*
Y618000D02*
D03*
X187000Y514000D02*
D03*
X196000D02*
D03*
X89000Y606000D02*
D03*
Y596000D02*
D03*
X98000D02*
D03*
Y606000D02*
D03*
X164000Y514000D02*
D03*
Y504000D02*
D03*
X66000Y596000D02*
D03*
Y606000D02*
D03*
X155000Y514000D02*
D03*
Y504000D02*
D03*
X57000Y596000D02*
D03*
Y606000D02*
D03*
X142000Y504000D02*
D03*
X44000Y596000D02*
D03*
X173000Y514000D02*
D03*
X75000Y606000D02*
D03*
X171000Y568000D02*
D03*
X73000Y660000D02*
D03*
X151000Y618000D02*
D03*
Y628000D02*
D03*
X187000Y596000D02*
D03*
Y606000D02*
D03*
X196000D02*
D03*
Y596000D02*
D03*
X164000Y596000D02*
D03*
Y606000D02*
D03*
X155000D02*
D03*
Y596000D02*
D03*
X66000Y412000D02*
D03*
Y422000D02*
D03*
X53000Y434000D02*
D03*
X142000Y596000D02*
D03*
X173000Y606000D02*
D03*
X89000Y412000D02*
D03*
Y422000D02*
D03*
X98000D02*
D03*
Y412000D02*
D03*
X57000Y412000D02*
D03*
Y422000D02*
D03*
X75000D02*
D03*
X44000Y412000D02*
D03*
X171000Y660000D02*
D03*
X73000Y476000D02*
D03*
X66000Y514000D02*
D03*
Y504000D02*
D03*
X53000Y526000D02*
D03*
X89000Y514000D02*
D03*
Y504000D02*
D03*
X98000D02*
D03*
Y514000D02*
D03*
X57000Y514000D02*
D03*
Y504000D02*
D03*
X75000Y514000D02*
D03*
X44000Y504000D02*
D03*
X73000Y568000D02*
D03*
X486000Y713000D02*
D03*
Y723000D02*
D03*
X468000D02*
D03*
Y713000D02*
D03*
X450000D02*
D03*
Y723000D02*
D03*
X432000D02*
D03*
Y713000D02*
D03*
X513000Y723000D02*
D03*
Y713000D02*
D03*
X504000Y723000D02*
D03*
Y713000D02*
D03*
X495000Y723000D02*
D03*
Y713000D02*
D03*
X477000Y723000D02*
D03*
Y713000D02*
D03*
X459000Y723000D02*
D03*
Y713000D02*
D03*
X441000D02*
D03*
Y723000D02*
D03*
X423000D02*
D03*
Y713000D02*
D03*
X1079000Y705000D02*
D03*
Y695000D02*
D03*
X1065000D02*
D03*
Y705000D02*
D03*
X1052000D02*
D03*
Y695000D02*
D03*
X1038000D02*
D03*
Y705000D02*
D03*
X1113000Y715000D02*
D03*
Y725000D02*
D03*
X1101000Y715000D02*
D03*
Y725000D02*
D03*
X1088000Y715000D02*
D03*
Y725000D02*
D03*
X1079000Y715000D02*
D03*
Y725000D02*
D03*
X1065000Y715000D02*
D03*
Y725000D02*
D03*
X1052000Y715000D02*
D03*
Y725000D02*
D03*
X1038000Y715000D02*
D03*
Y725000D02*
D03*
X576000Y723000D02*
D03*
Y713000D02*
D03*
X594000Y713000D02*
D03*
Y723000D02*
D03*
X542265Y713000D02*
D03*
Y723000D02*
D03*
X551265D02*
D03*
Y713000D02*
D03*
X560265D02*
D03*
X274672Y382912D02*
D03*
X302672D02*
D03*
X283672D02*
D03*
D114*
X217000Y237150D02*
D03*
X227000D02*
D03*
X270000Y174150D02*
D03*
X280000D02*
D03*
X195000Y194000D02*
D03*
X185000D02*
D03*
X217000Y246150D02*
D03*
X227000D02*
D03*
X1299889Y497750D02*
D03*
X1289889D02*
D03*
X1289875Y506500D02*
D03*
X1299875D02*
D03*
Y515500D02*
D03*
X1289875D02*
D03*
X1300000Y529000D02*
D03*
X1290000D02*
D03*
Y538000D02*
D03*
X1300000D02*
D03*
X195550Y694000D02*
D03*
X185550D02*
D03*
X123000Y739643D02*
D03*
X113000D02*
D03*
X133000Y750643D02*
D03*
X123000D02*
D03*
X123000Y761643D02*
D03*
X113000D02*
D03*
X1380000Y654000D02*
D03*
X1390000D02*
D03*
X1355000Y670000D02*
D03*
X1345000D02*
D03*
X1490000Y96000D02*
D03*
X1500000D02*
D03*
X1558000Y260000D02*
D03*
Y171000D02*
D03*
X1534000Y707000D02*
D03*
X1454000Y260000D02*
D03*
Y171000D02*
D03*
X1264000Y119000D02*
D03*
Y148000D02*
D03*
X1349000Y119000D02*
D03*
Y148000D02*
D03*
X1696000Y506000D02*
D03*
X1449000Y705000D02*
D03*
X1285000D02*
D03*
X1199822Y705000D02*
D03*
X730000Y648000D02*
D03*
X432752Y600499D02*
D03*
X1263000Y447000D02*
D03*
X1273000Y471000D02*
D03*
X1625000Y707000D02*
D03*
X1626000Y568000D02*
D03*
X1622000Y635000D02*
D03*
X547000Y273000D02*
D03*
X131000Y102000D02*
D03*
X1405000Y502000D02*
D03*
X1193000Y545500D02*
D03*
Y435500D02*
D03*
X1395000Y540500D02*
D03*
Y455500D02*
D03*
X1193000Y415500D02*
D03*
Y535500D02*
D03*
Y405500D02*
D03*
X1395000Y530500D02*
D03*
X1193000Y555500D02*
D03*
X1395000Y400500D02*
D03*
X1554251Y222752D02*
D03*
Y213752D02*
D03*
Y133752D02*
D03*
Y124752D02*
D03*
X1558000Y269000D02*
D03*
Y180000D02*
D03*
X1477251Y270502D02*
D03*
Y181502D02*
D03*
X1450251Y222752D02*
D03*
Y213752D02*
D03*
Y133752D02*
D03*
Y124752D02*
D03*
X1454000Y269000D02*
D03*
Y180000D02*
D03*
X1373251Y270502D02*
D03*
Y181502D02*
D03*
X1297000Y178000D02*
D03*
X1264000Y139000D02*
D03*
Y110000D02*
D03*
Y168000D02*
D03*
Y178000D02*
D03*
X1212000D02*
D03*
X1349000Y139000D02*
D03*
Y110000D02*
D03*
Y168000D02*
D03*
Y178000D02*
D03*
X1299000Y406000D02*
D03*
X1601000Y535000D02*
D03*
X1696000Y535000D02*
D03*
X1285000Y678000D02*
D03*
X1449000D02*
D03*
X1295000Y669000D02*
D03*
X1199822Y678000D02*
D03*
X1200000Y720000D02*
D03*
X1278000Y564000D02*
D03*
X1363000Y444100D02*
D03*
X1273000Y438000D02*
D03*
X1361000Y558000D02*
D03*
X899000Y605000D02*
D03*
X1293000Y453100D02*
D03*
X1537000Y724000D02*
D03*
X1502000D02*
D03*
X1693000Y577000D02*
D03*
Y586000D02*
D03*
X1653000Y607000D02*
D03*
X1663000D02*
D03*
X1625000Y716000D02*
D03*
Y677000D02*
D03*
X1137000Y493000D02*
D03*
Y484000D02*
D03*
X1137000Y530000D02*
D03*
X1137000Y557000D02*
D03*
Y457000D02*
D03*
Y448000D02*
D03*
Y439000D02*
D03*
Y520000D02*
D03*
Y511000D02*
D03*
Y502000D02*
D03*
Y475000D02*
D03*
Y466000D02*
D03*
X435752Y518399D02*
D03*
Y527399D02*
D03*
X752000Y289500D02*
D03*
X750000Y406750D02*
D03*
X608500Y326500D02*
D03*
X1263000Y411000D02*
D03*
X1183000Y492000D02*
D03*
X1137000Y430000D02*
D03*
X1309000Y406000D02*
D03*
X425752Y527399D02*
D03*
Y518399D02*
D03*
X250740Y580237D02*
D03*
X1263000Y420000D02*
D03*
X547000Y282000D02*
D03*
X582500Y314500D02*
D03*
X250740Y589249D02*
D03*
X425752Y536499D02*
D03*
X460747Y610000D02*
D03*
Y591000D02*
D03*
X422752Y600499D02*
D03*
X435752Y536499D02*
D03*
X450748Y581000D02*
D03*
X460747D02*
D03*
X450748Y591000D02*
D03*
X460747Y600000D02*
D03*
X450748D02*
D03*
Y610000D02*
D03*
X664000Y684000D02*
D03*
X654000D02*
D03*
X664000Y675000D02*
D03*
X654000D02*
D03*
Y666000D02*
D03*
X664000D02*
D03*
X654000Y657000D02*
D03*
X664000D02*
D03*
X730000Y684000D02*
D03*
X720000D02*
D03*
X730000Y675000D02*
D03*
X720000D02*
D03*
Y666000D02*
D03*
X730000D02*
D03*
X720000Y657000D02*
D03*
X730000D02*
D03*
X720000Y648000D02*
D03*
X919000Y638000D02*
D03*
X909000D02*
D03*
X889000Y605000D02*
D03*
X1285010Y729750D02*
D03*
X1295010D02*
D03*
X1295000Y719000D02*
D03*
X1285000D02*
D03*
X1295000Y705000D02*
D03*
Y696000D02*
D03*
X1285000D02*
D03*
Y687000D02*
D03*
X1295000D02*
D03*
Y678000D02*
D03*
X1285000Y669000D02*
D03*
X1643000Y607000D02*
D03*
X1632000Y653000D02*
D03*
X1622000D02*
D03*
Y644000D02*
D03*
X1632000D02*
D03*
Y635000D02*
D03*
X1622000Y625000D02*
D03*
X1632000D02*
D03*
Y607000D02*
D03*
X1622000D02*
D03*
X1673000D02*
D03*
X1683000Y586000D02*
D03*
Y577000D02*
D03*
X1693000Y568000D02*
D03*
X1683000D02*
D03*
Y559000D02*
D03*
X1693000D02*
D03*
X1636000Y586000D02*
D03*
X1626000D02*
D03*
Y577000D02*
D03*
X1636000D02*
D03*
Y568000D02*
D03*
X1626000Y559000D02*
D03*
X1636000D02*
D03*
X1686000Y506000D02*
D03*
Y515000D02*
D03*
X1696000D02*
D03*
Y524000D02*
D03*
X1686000D02*
D03*
Y535000D02*
D03*
X1601000Y517000D02*
D03*
X1611000D02*
D03*
Y526000D02*
D03*
X1601000D02*
D03*
X1611000Y535000D02*
D03*
X1544000Y707000D02*
D03*
X1534000Y698000D02*
D03*
X1544000D02*
D03*
Y689000D02*
D03*
X1534000D02*
D03*
X1439000Y705000D02*
D03*
Y696000D02*
D03*
X1449000D02*
D03*
Y687000D02*
D03*
X1439000D02*
D03*
Y678000D02*
D03*
Y669000D02*
D03*
X1449000D02*
D03*
Y660000D02*
D03*
X1439000D02*
D03*
X1210000Y720000D02*
D03*
X1209822Y705000D02*
D03*
Y696000D02*
D03*
X1199822D02*
D03*
Y687000D02*
D03*
X1209822D02*
D03*
Y678000D02*
D03*
X1288000Y564000D02*
D03*
X1482000Y611000D02*
D03*
X1472000D02*
D03*
X1444000Y603000D02*
D03*
X1454000D02*
D03*
X1371000Y558000D02*
D03*
X1405000Y540500D02*
D03*
Y530500D02*
D03*
X1395000Y520000D02*
D03*
X1405000D02*
D03*
Y511000D02*
D03*
X1395000D02*
D03*
Y502000D02*
D03*
X1405000Y492000D02*
D03*
X1395000D02*
D03*
X1405000Y455500D02*
D03*
X1363000Y474100D02*
D03*
X1353000D02*
D03*
X1363000Y465100D02*
D03*
X1353000D02*
D03*
X1353000Y444100D02*
D03*
X1363000Y453100D02*
D03*
X1353000D02*
D03*
X1299000Y428000D02*
D03*
X1309000D02*
D03*
X1293000Y444100D02*
D03*
X1303000D02*
D03*
Y453100D02*
D03*
Y462100D02*
D03*
X1293000D02*
D03*
X1263000Y471000D02*
D03*
X1273000Y447000D02*
D03*
X1263000Y438000D02*
D03*
X1273000Y429000D02*
D03*
X1263000D02*
D03*
X1250000D02*
D03*
X1240000D02*
D03*
X1230000D02*
D03*
X1220000D02*
D03*
X1273000Y420000D02*
D03*
Y411000D02*
D03*
X1405000Y400500D02*
D03*
X1193000Y515500D02*
D03*
X1183000D02*
D03*
X1193000Y501000D02*
D03*
X1183000D02*
D03*
X1193000Y492000D02*
D03*
X1183000Y475500D02*
D03*
X1193000D02*
D03*
Y460500D02*
D03*
X1183000D02*
D03*
Y445500D02*
D03*
X1193000D02*
D03*
X1183000Y435500D02*
D03*
Y415500D02*
D03*
Y405500D02*
D03*
X1193000Y395500D02*
D03*
X1183000D02*
D03*
Y535500D02*
D03*
Y545500D02*
D03*
Y555500D02*
D03*
X1147000Y557000D02*
D03*
X1147000Y530000D02*
D03*
X1147000Y511000D02*
D03*
Y520000D02*
D03*
Y502000D02*
D03*
Y493000D02*
D03*
Y484000D02*
D03*
Y475000D02*
D03*
Y466000D02*
D03*
Y457000D02*
D03*
Y448000D02*
D03*
Y439000D02*
D03*
Y430000D02*
D03*
X740000Y406750D02*
D03*
X618500Y326500D02*
D03*
X742000Y289500D02*
D03*
X592500Y314500D02*
D03*
X557000Y282000D02*
D03*
Y273000D02*
D03*
X1440251Y213752D02*
D03*
X1548000Y260000D02*
D03*
Y269000D02*
D03*
Y278000D02*
D03*
X1558000D02*
D03*
X1487251Y270502D02*
D03*
Y261502D02*
D03*
X1477251D02*
D03*
X1444000Y260000D02*
D03*
Y269000D02*
D03*
X1454000Y278000D02*
D03*
X1444000D02*
D03*
X1383251Y261502D02*
D03*
X1373251D02*
D03*
X1383251Y270502D02*
D03*
X121000Y102000D02*
D03*
X408000Y193000D02*
D03*
X418000D02*
D03*
X408000Y209000D02*
D03*
X418000D02*
D03*
X1527000Y724000D02*
D03*
X1512000D02*
D03*
X763000Y718500D02*
D03*
X773000D02*
D03*
X773001Y728498D02*
D03*
X763001D02*
D03*
X1544251Y222752D02*
D03*
Y213752D02*
D03*
Y133752D02*
D03*
Y124752D02*
D03*
X1410000Y95000D02*
D03*
X1400000D02*
D03*
X1460000Y96000D02*
D03*
X1470000D02*
D03*
X1548000Y180000D02*
D03*
X1477251Y172502D02*
D03*
X1487251D02*
D03*
Y181502D02*
D03*
X1440251Y222752D02*
D03*
Y133752D02*
D03*
Y124752D02*
D03*
X1441000Y96000D02*
D03*
X1431000D02*
D03*
X1444000Y180000D02*
D03*
X1373251Y172502D02*
D03*
X1383251D02*
D03*
Y181502D02*
D03*
X1287000Y178000D02*
D03*
X1254000Y139000D02*
D03*
Y110000D02*
D03*
Y168000D02*
D03*
Y178000D02*
D03*
X1202000D02*
D03*
X1339000Y139000D02*
D03*
Y110000D02*
D03*
Y168000D02*
D03*
Y178000D02*
D03*
X1558000Y189000D02*
D03*
X1548000D02*
D03*
Y171000D02*
D03*
X1444000Y189000D02*
D03*
X1454000D02*
D03*
X1444000Y171000D02*
D03*
X1264000Y101000D02*
D03*
X1254000D02*
D03*
Y128000D02*
D03*
X1264000D02*
D03*
X1254000Y119000D02*
D03*
X1228000Y178000D02*
D03*
X1238000D02*
D03*
X1254000Y157000D02*
D03*
X1264000D02*
D03*
X1254000Y148000D02*
D03*
X1349000Y101000D02*
D03*
X1339000D02*
D03*
Y128000D02*
D03*
X1349000D02*
D03*
X1339000Y119000D02*
D03*
X1313000Y178000D02*
D03*
X1323000D02*
D03*
X1339000Y157000D02*
D03*
X1349000D02*
D03*
X1339000Y148000D02*
D03*
X250753Y540499D02*
D03*
X260752D02*
D03*
X260740Y549500D02*
D03*
X250740D02*
D03*
X260740Y589249D02*
D03*
X1625000Y698000D02*
D03*
X1635000D02*
D03*
Y689000D02*
D03*
X1625000D02*
D03*
X1635000Y707000D02*
D03*
X1635000Y716000D02*
D03*
Y677000D02*
D03*
X260740Y580237D02*
D03*
D115*
X288741Y362259D02*
D03*
X288752Y357259D02*
D03*
X78069Y364347D02*
D03*
X176069Y547347D02*
D03*
X176080Y359347D02*
D03*
X176069Y364347D02*
D03*
X78080Y359347D02*
D03*
X176080Y450347D02*
D03*
X176069Y455347D02*
D03*
X78069Y455347D02*
D03*
X78080Y450347D02*
D03*
X78069Y547347D02*
D03*
X78080Y542347D02*
D03*
X176080D02*
D03*
X176069Y639347D02*
D03*
X176080Y634347D02*
D03*
X78069Y639347D02*
D03*
X78080Y634347D02*
D03*
D116*
X281752Y369000D02*
D03*
X295752Y350500D02*
D03*
Y369000D02*
D03*
X281752Y350530D02*
D03*
X169080Y352618D02*
D03*
X183080Y352588D02*
D03*
X169080Y371088D02*
D03*
X183080D02*
D03*
X71080Y371088D02*
D03*
X85080D02*
D03*
Y352588D02*
D03*
X71080Y352618D02*
D03*
X169080Y462088D02*
D03*
X183080D02*
D03*
X169080Y443618D02*
D03*
X183080Y443588D02*
D03*
X71080Y462088D02*
D03*
X85080D02*
D03*
X71080Y443618D02*
D03*
X85080Y443588D02*
D03*
X71080Y535618D02*
D03*
X71080Y554088D02*
D03*
X85080D02*
D03*
Y535588D02*
D03*
X169080Y554088D02*
D03*
X183080D02*
D03*
Y535588D02*
D03*
X169080Y535618D02*
D03*
X169080Y646088D02*
D03*
X183080D02*
D03*
Y627588D02*
D03*
X169080Y627618D02*
D03*
X71080Y646088D02*
D03*
X85080D02*
D03*
Y627588D02*
D03*
X71080Y627618D02*
D03*
D117*
X297502Y352500D02*
D03*
Y367000D02*
D03*
X280002Y367000D02*
D03*
Y352530D02*
D03*
X167330Y354618D02*
D03*
X184830Y354588D02*
D03*
X167330Y369088D02*
D03*
X184830Y369088D02*
D03*
X69330D02*
D03*
X86830Y369088D02*
D03*
Y354588D02*
D03*
X69330Y354618D02*
D03*
X167330Y460088D02*
D03*
X184830Y460088D02*
D03*
X167330Y445618D02*
D03*
X184830Y445588D02*
D03*
X69330Y460088D02*
D03*
X86830Y460088D02*
D03*
X69330Y445618D02*
D03*
X86830Y445588D02*
D03*
X69330Y537618D02*
D03*
Y552088D02*
D03*
X86830Y552088D02*
D03*
Y537588D02*
D03*
X167330Y552088D02*
D03*
X184830Y552088D02*
D03*
Y537588D02*
D03*
X167330Y537618D02*
D03*
Y644088D02*
D03*
X184830Y644088D02*
D03*
Y629588D02*
D03*
X167330Y629618D02*
D03*
X69330Y644088D02*
D03*
X86830Y644088D02*
D03*
Y629588D02*
D03*
X69330Y629618D02*
D03*
D118*
X286509Y369000D02*
D03*
X291000Y350500D02*
D03*
X286509Y350530D02*
D03*
X291000Y369000D02*
D03*
X178328Y646088D02*
D03*
X80328Y646088D02*
D03*
X178328Y554088D02*
D03*
Y462088D02*
D03*
X80328Y554088D02*
D03*
Y462088D02*
D03*
X178328Y371088D02*
D03*
X80328Y371088D02*
D03*
X173836Y352618D02*
D03*
X178328Y352588D02*
D03*
X173836Y371088D02*
D03*
X75836Y352618D02*
D03*
X80328Y352588D02*
D03*
X75836Y371088D02*
D03*
X178328Y443588D02*
D03*
X173836Y443618D02*
D03*
Y462088D02*
D03*
X75836Y462088D02*
D03*
Y443618D02*
D03*
X80328Y443588D02*
D03*
X75836Y554088D02*
D03*
Y535618D02*
D03*
X80328Y535588D02*
D03*
X173836Y535618D02*
D03*
X178328Y535588D02*
D03*
X173836Y554088D02*
D03*
Y627618D02*
D03*
X178328Y627588D02*
D03*
X173836Y646088D02*
D03*
X75836Y627618D02*
D03*
X80328Y627588D02*
D03*
X75836Y646088D02*
D03*
D119*
X437503Y577749D02*
D03*
Y558250D02*
D03*
X397502D02*
D03*
Y564749D02*
D03*
Y577749D02*
D03*
Y571250D02*
D03*
X437503Y564749D02*
D03*
Y571250D02*
D03*
D120*
X427252Y587999D02*
D03*
Y547999D02*
D03*
X420752Y587999D02*
D03*
X414252Y547999D02*
D03*
X407752D02*
D03*
X414252Y587999D02*
D03*
X407752D02*
D03*
X420752Y547999D02*
D03*
D121*
X417502Y567999D02*
D03*
D122*
X429002Y500499D02*
D03*
X399002D02*
D03*
X388252Y475499D02*
D03*
X358252D02*
D03*
X429002Y626250D02*
D03*
X399002D02*
D03*
X380757Y654249D02*
D03*
X350757D02*
D03*
D123*
X399002Y506499D02*
D03*
Y494500D02*
D03*
X429002D02*
D03*
Y506499D02*
D03*
X358252Y469500D02*
D03*
Y481499D02*
D03*
X388252Y469500D02*
D03*
Y481499D02*
D03*
X399002Y620249D02*
D03*
Y632249D02*
D03*
X429002Y620249D02*
D03*
Y632249D02*
D03*
X350757Y648249D02*
D03*
Y660249D02*
D03*
X380757Y648249D02*
D03*
Y660249D02*
D03*
D124*
X398000Y66600D02*
D03*
X385000D02*
D03*
X391500D02*
D03*
X378500D02*
D03*
X404500D02*
D03*
D125*
X416375Y65750D02*
D03*
X366625D02*
D03*
D126*
X425250Y40000D02*
D03*
X357750D02*
D03*
D127*
X406994D02*
D03*
D128*
X380000D02*
D03*
D129*
X291251Y588999D02*
D03*
X296251D02*
D03*
X301251D02*
D03*
X306251D02*
D03*
X311251D02*
D03*
X316251D02*
D03*
X321251D02*
D03*
X326251D02*
D03*
Y538999D02*
D03*
X321251D02*
D03*
X316251D02*
D03*
X311251D02*
D03*
X306251D02*
D03*
X301251D02*
D03*
X296251D02*
D03*
X291251D02*
D03*
D130*
X333751Y581499D02*
D03*
Y576499D02*
D03*
Y571499D02*
D03*
Y566499D02*
D03*
Y561499D02*
D03*
Y556499D02*
D03*
Y551499D02*
D03*
Y546499D02*
D03*
X283751D02*
D03*
Y551499D02*
D03*
Y556499D02*
D03*
Y561499D02*
D03*
Y566499D02*
D03*
Y571499D02*
D03*
Y576499D02*
D03*
Y581499D02*
D03*
D131*
X308752Y563999D02*
D03*
D132*
X165450Y723500D02*
D03*
Y704500D02*
D03*
X190550Y714000D02*
D03*
Y723500D02*
D03*
Y704500D02*
D03*
X165450Y714000D02*
D03*
X1246550Y452000D02*
D03*
X216450Y146000D02*
D03*
X215692Y110700D02*
D03*
X1221450Y461500D02*
D03*
Y452000D02*
D03*
X1246550Y461500D02*
D03*
X1221450Y442500D02*
D03*
X1246550D02*
D03*
X240792Y110700D02*
D03*
X215692Y101200D02*
D03*
Y120200D02*
D03*
X240792Y101200D02*
D03*
Y120200D02*
D03*
X241550Y146000D02*
D03*
X216450Y136500D02*
D03*
Y155500D02*
D03*
X241550Y136500D02*
D03*
Y155500D02*
D03*
D133*
X571500Y472875D02*
D03*
Y478125D02*
D03*
Y456875D02*
D03*
Y462125D02*
D03*
X622000Y412500D02*
D03*
X669750Y248375D02*
D03*
X654582Y274515D02*
D03*
X650250Y293375D02*
D03*
X571500Y527500D02*
D03*
X640500Y402625D02*
D03*
X622000Y407125D02*
D03*
X660000Y408625D02*
D03*
X643000Y372625D02*
D03*
X637250D02*
D03*
X669750Y384375D02*
D03*
X654250Y381125D02*
D03*
X672250Y336875D02*
D03*
X682750Y340125D02*
D03*
X659250Y358375D02*
D03*
X495500Y526125D02*
D03*
X557500Y534125D02*
D03*
X572000Y541750D02*
D03*
X495500Y536875D02*
D03*
X557500Y544875D02*
D03*
X495500Y566125D02*
D03*
X571500Y552875D02*
D03*
Y568875D02*
D03*
X487500Y472875D02*
D03*
X486500Y456875D02*
D03*
X513030Y506044D02*
D03*
X715250Y366125D02*
D03*
X708750D02*
D03*
X679500Y362125D02*
D03*
X643750Y306375D02*
D03*
X637250D02*
D03*
X660000Y274625D02*
D03*
X640500Y274625D02*
D03*
X613750Y271875D02*
D03*
X718500Y404375D02*
D03*
X706250Y316125D02*
D03*
X650250Y301125D02*
D03*
X667250Y317875D02*
D03*
X666500Y293375D02*
D03*
X692500Y294125D02*
D03*
X679500Y274625D02*
D03*
X718500D02*
D03*
X699000D02*
D03*
X699000Y404375D02*
D03*
X692500Y384875D02*
D03*
X725750Y303125D02*
D03*
X743000Y433625D02*
D03*
X486500Y462125D02*
D03*
X487500Y478125D02*
D03*
X513030Y500794D02*
D03*
X495500Y520875D02*
D03*
X495500Y542125D02*
D03*
X495500Y560875D02*
D03*
X557500Y528875D02*
D03*
X557500Y550125D02*
D03*
X571500Y522250D02*
D03*
X572000Y536500D02*
D03*
X571500Y558125D02*
D03*
Y574125D02*
D03*
X718500Y399125D02*
D03*
X699000D02*
D03*
X672250Y342125D02*
D03*
X682750Y345375D02*
D03*
X706250Y310875D02*
D03*
X667250Y323125D02*
D03*
X718500Y279875D02*
D03*
X699000D02*
D03*
X679500D02*
D03*
X660000D02*
D03*
X640500Y279875D02*
D03*
X654582Y279764D02*
D03*
X650250Y288125D02*
D03*
X666500Y298625D02*
D03*
X692500Y299375D02*
D03*
X725750Y297875D02*
D03*
X637250Y301125D02*
D03*
X650250Y306375D02*
D03*
X643750Y301125D02*
D03*
X715250Y371375D02*
D03*
X708750D02*
D03*
X692500Y379625D02*
D03*
X680000Y384625D02*
D03*
Y379375D02*
D03*
X679500Y356875D02*
D03*
X669750Y379125D02*
D03*
X659250Y353125D02*
D03*
X654250Y375875D02*
D03*
X643000Y377875D02*
D03*
X637250D02*
D03*
X663750Y248375D02*
D03*
Y253625D02*
D03*
X613750Y277125D02*
D03*
X642500Y254125D02*
D03*
Y248875D02*
D03*
X684500D02*
D03*
Y254125D02*
D03*
X675750Y253625D02*
D03*
Y248375D02*
D03*
X669750Y253625D02*
D03*
X690500Y248875D02*
D03*
Y254125D02*
D03*
X719500D02*
D03*
Y248875D02*
D03*
X742500Y254125D02*
D03*
Y248875D02*
D03*
X749000Y433625D02*
D03*
Y428375D02*
D03*
X743000D02*
D03*
X737000D02*
D03*
Y433625D02*
D03*
X697000Y428375D02*
D03*
Y433625D02*
D03*
X622000Y417750D02*
D03*
X622000Y401875D02*
D03*
X660000Y403375D02*
D03*
X640500Y407875D02*
D03*
D134*
X1214945Y499000D02*
D03*
Y505500D02*
D03*
Y512000D02*
D03*
Y518500D02*
D03*
Y524999D02*
D03*
Y531499D02*
D03*
Y537999D02*
D03*
Y544499D02*
D03*
X1274000D02*
D03*
Y537999D02*
D03*
Y531499D02*
D03*
Y524999D02*
D03*
Y518500D02*
D03*
Y512000D02*
D03*
Y505500D02*
D03*
Y499000D02*
D03*
D135*
X1316759Y543050D02*
D03*
Y530350D02*
D03*
Y517650D02*
D03*
Y504950D02*
D03*
X1371241D02*
D03*
Y517650D02*
D03*
Y530350D02*
D03*
Y543050D02*
D03*
D136*
X88000Y741143D02*
D03*
Y760143D02*
D03*
X108000Y750643D02*
D03*
X1314000Y417000D02*
D03*
X1114000Y227500D02*
D03*
Y147500D02*
D03*
X1022000Y227500D02*
D03*
X931000D02*
D03*
X839000D02*
D03*
X1022000Y147500D02*
D03*
X931000D02*
D03*
X839000D02*
D03*
X1334000Y407500D02*
D03*
Y426500D02*
D03*
X931000Y166500D02*
D03*
X951000Y157000D02*
D03*
X931000Y246500D02*
D03*
X951000Y237000D02*
D03*
X1022000Y166500D02*
D03*
X1042000Y157000D02*
D03*
X1022000Y246500D02*
D03*
X1042000Y237000D02*
D03*
X1114000Y166500D02*
D03*
X1134000Y157000D02*
D03*
X1114000Y246500D02*
D03*
X1134000Y237000D02*
D03*
X839000Y246500D02*
D03*
X859000Y237000D02*
D03*
X839000Y166500D02*
D03*
X859000Y157000D02*
D03*
D137*
X857500Y78700D02*
D03*
X887500D02*
D03*
X947500D02*
D03*
X917500D02*
D03*
X872500D02*
D03*
X902500D02*
D03*
X932500D02*
D03*
X962500D02*
D03*
X1037500D02*
D03*
X1067500D02*
D03*
X1127500D02*
D03*
X1097500D02*
D03*
X1052500D02*
D03*
X1082500D02*
D03*
X1112500D02*
D03*
X1142500D02*
D03*
X1667500D02*
D03*
X1682500D02*
D03*
X1652500D02*
D03*
X1637500D02*
D03*
X1607500D02*
D03*
X1622500D02*
D03*
X1592500D02*
D03*
X1577500D02*
D03*
X1457500D02*
D03*
X1397500D02*
D03*
X1487500D02*
D03*
X1427500D02*
D03*
X1472500D02*
D03*
X1412500D02*
D03*
X1502500D02*
D03*
X1442500D02*
D03*
X1232500D02*
D03*
X1262500D02*
D03*
X1292500D02*
D03*
X1322500D02*
D03*
X1217500D02*
D03*
X1247500D02*
D03*
X1277500D02*
D03*
X1307500D02*
D03*
X512500D02*
D03*
X542500D02*
D03*
X155000D02*
D03*
X215000D02*
D03*
X572500D02*
D03*
X587500D02*
D03*
X557500D02*
D03*
X527500D02*
D03*
X497500D02*
D03*
X602500D02*
D03*
X677500D02*
D03*
X767500D02*
D03*
X722500D02*
D03*
X692500D02*
D03*
X737500D02*
D03*
X782500D02*
D03*
X752500D02*
D03*
X707500D02*
D03*
X245000D02*
D03*
X170000D02*
D03*
X230000D02*
D03*
X140000D02*
D03*
X125000D02*
D03*
X200000D02*
D03*
X185000D02*
D03*
X275000D02*
D03*
X260000D02*
D03*
D138*
X988550Y26800D02*
D03*
X831450D02*
D03*
X1168550D02*
D03*
X1011450D02*
D03*
X1708550D02*
D03*
X1551450D02*
D03*
X1528550D02*
D03*
X1371450D02*
D03*
X1348550D02*
D03*
X1191450D02*
D03*
X808550D02*
D03*
X651450D02*
D03*
X628550D02*
D03*
X471450D02*
D03*
X301050D02*
D03*
X98950D02*
D03*
D139*
X1428251Y163000D02*
D03*
X1399751D02*
D03*
X1428251Y173000D02*
D03*
X1399751D02*
D03*
Y168000D02*
D03*
X1428251Y178000D02*
D03*
X1399751D02*
D03*
X1428251Y158000D02*
D03*
X1399751D02*
D03*
X1503751Y163000D02*
D03*
X1532251D02*
D03*
Y173000D02*
D03*
X1503751Y168000D02*
D03*
Y173000D02*
D03*
X1532251Y178000D02*
D03*
X1503751D02*
D03*
X1532251Y158000D02*
D03*
X1503751D02*
D03*
X1532251Y247000D02*
D03*
X1503751D02*
D03*
Y267000D02*
D03*
X1428251Y247000D02*
D03*
X1399751Y267000D02*
D03*
Y247000D02*
D03*
X1532251Y252000D02*
D03*
X1503751D02*
D03*
X1532251Y262000D02*
D03*
X1503751Y257000D02*
D03*
Y262000D02*
D03*
X1532251Y267000D02*
D03*
X1399751Y252000D02*
D03*
X1428251D02*
D03*
X1399751Y257000D02*
D03*
Y262000D02*
D03*
X1428251D02*
D03*
Y267000D02*
D03*
D140*
X1421501Y182100D02*
D03*
X1416501Y153900D02*
D03*
X1421501D02*
D03*
X1406501Y182100D02*
D03*
X1411501D02*
D03*
X1416501D02*
D03*
X1406501Y153900D02*
D03*
X1411501D02*
D03*
X1525501Y182100D02*
D03*
Y153900D02*
D03*
X1520501D02*
D03*
X1510501Y182100D02*
D03*
X1515501D02*
D03*
X1520501D02*
D03*
X1515501Y153900D02*
D03*
X1510501D02*
D03*
X1525501Y271100D02*
D03*
X1520501Y242900D02*
D03*
X1525501D02*
D03*
X1510501Y271100D02*
D03*
X1515501D02*
D03*
X1520501D02*
D03*
X1510501Y242900D02*
D03*
X1515501D02*
D03*
X1421501Y271100D02*
D03*
Y242900D02*
D03*
X1416501D02*
D03*
X1406501Y271100D02*
D03*
X1411501D02*
D03*
X1416501D02*
D03*
X1411501Y242900D02*
D03*
X1406501D02*
D03*
D141*
X1428251Y168000D02*
D03*
X1532251D02*
D03*
Y257000D02*
D03*
X1428251D02*
D03*
D142*
X1418751Y174502D02*
D03*
X1409251D02*
D03*
X1522751D02*
D03*
X1513251D02*
D03*
Y263502D02*
D03*
X1409251D02*
D03*
X1522751D02*
D03*
X1418751D02*
D03*
D143*
X1493638Y216818D02*
D03*
X1522100D02*
D03*
X1493638Y127818D02*
D03*
X1522100D02*
D03*
X1389637D02*
D03*
X1418100D02*
D03*
X1389637Y216818D02*
D03*
X1418100D02*
D03*
D144*
X1312350Y107650D02*
D03*
X1325050Y160350D02*
D03*
X1299650Y107650D02*
D03*
X1286950D02*
D03*
X1299650Y160350D02*
D03*
X1312350D02*
D03*
X1286950D02*
D03*
X1325050Y107650D02*
D03*
X1227350D02*
D03*
X1240050Y160350D02*
D03*
X1214650Y107650D02*
D03*
X1201950D02*
D03*
X1214650Y160350D02*
D03*
X1227350D02*
D03*
X1201950D02*
D03*
X1240050Y107650D02*
D03*
D145*
X287900Y706560D02*
D03*
Y693860D02*
D03*
X340600Y719260D02*
D03*
Y681160D02*
D03*
X287900Y719260D02*
D03*
Y681160D02*
D03*
X340600Y706560D02*
D03*
Y693860D02*
D03*
D146*
X402000Y380000D02*
D03*
X356000D02*
D03*
X379000D02*
D03*
D147*
X321000Y413500D02*
D03*
X406000Y405000D02*
D03*
Y451000D02*
D03*
X321000Y436500D02*
D03*
Y459500D02*
D03*
X406000Y428000D02*
D03*
D148*
X326672Y384412D02*
D03*
Y343412D02*
D03*
D149*
X1683750Y775000D02*
D03*
X1620250D02*
D03*
X1163500Y772000D02*
D03*
X765000Y775000D02*
D03*
X1012500Y772000D02*
D03*
X976000Y772000D02*
D03*
X800000D02*
D03*
X589000Y775000D02*
D03*
X555500Y775000D02*
D03*
X404500D02*
D03*
X250500D02*
D03*
X149500D02*
D03*
X374500Y774000D02*
D03*
X286000D02*
D03*
X1196750D02*
D03*
X1285250D02*
D03*
D150*
X1645750Y746000D02*
D03*
X1125500Y743000D02*
D03*
X938000Y743000D02*
D03*
X664500Y746000D02*
D03*
X627000D02*
D03*
X517500Y746000D02*
D03*
X175000D02*
D03*
X311500Y745000D02*
D03*
X1222250D02*
D03*
X614500Y746000D02*
D03*
X349000Y745000D02*
D03*
X225000Y746000D02*
D03*
X1658250D02*
D03*
X1259750Y745000D02*
D03*
X1247250D02*
D03*
X1234750D02*
D03*
X1138000Y743000D02*
D03*
X1113000D02*
D03*
X1100500D02*
D03*
X1088000D02*
D03*
X1075500D02*
D03*
X1063000D02*
D03*
X1050500D02*
D03*
X1038000D02*
D03*
X950500Y743000D02*
D03*
X925500D02*
D03*
X913000D02*
D03*
X900500D02*
D03*
X888000D02*
D03*
X875500D02*
D03*
X863000D02*
D03*
X850500D02*
D03*
X838000D02*
D03*
X825500D02*
D03*
X689500Y746000D02*
D03*
X677000D02*
D03*
X739500D02*
D03*
X727000D02*
D03*
X714500D02*
D03*
X702000D02*
D03*
X652000D02*
D03*
X639500D02*
D03*
X530000Y746000D02*
D03*
X505000D02*
D03*
X492500D02*
D03*
X480000D02*
D03*
X467500D02*
D03*
X455000D02*
D03*
X442500D02*
D03*
X430000D02*
D03*
X324000Y745000D02*
D03*
X336500D02*
D03*
X200000Y746000D02*
D03*
X212500D02*
D03*
X187500D02*
D03*
D151*
X1695500Y703750D02*
D03*
X1604500D02*
D03*
X1421500Y701750D02*
D03*
X1352024Y701750D02*
D03*
X1625500Y511250D02*
D03*
X1267500Y701750D02*
D03*
X538500Y668250D02*
D03*
X456500D02*
D03*
X1666500Y530750D02*
D03*
Y524250D02*
D03*
Y517750D02*
D03*
Y511250D02*
D03*
X1625500Y524250D02*
D03*
Y517750D02*
D03*
Y530750D02*
D03*
X1563500Y703750D02*
D03*
Y690750D02*
D03*
Y697250D02*
D03*
X1604500Y690750D02*
D03*
Y697250D02*
D03*
X1563500Y684250D02*
D03*
X1604500D02*
D03*
X1226500Y688750D02*
D03*
Y695250D02*
D03*
Y701750D02*
D03*
X1267500Y695250D02*
D03*
Y688750D02*
D03*
X1226500Y682250D02*
D03*
X1267500D02*
D03*
X1380500Y701750D02*
D03*
Y695250D02*
D03*
Y688750D02*
D03*
X1421500Y695250D02*
D03*
Y688750D02*
D03*
X1380500Y682250D02*
D03*
X1421500D02*
D03*
X1311024Y701750D02*
D03*
Y695250D02*
D03*
Y688750D02*
D03*
X1352024Y695250D02*
D03*
Y688750D02*
D03*
X1311024Y682250D02*
D03*
X1352024D02*
D03*
X579500Y681250D02*
D03*
Y674750D02*
D03*
Y668250D02*
D03*
X538500Y681250D02*
D03*
Y674750D02*
D03*
Y687750D02*
D03*
X579500D02*
D03*
X497500Y681250D02*
D03*
Y674750D02*
D03*
Y668250D02*
D03*
X456500Y681250D02*
D03*
Y674750D02*
D03*
Y687750D02*
D03*
X497500D02*
D03*
X1654500Y703750D02*
D03*
Y690750D02*
D03*
Y697250D02*
D03*
X1695500D02*
D03*
Y690750D02*
D03*
X1654500Y684250D02*
D03*
X1695500D02*
D03*
D152*
X948880Y452631D02*
D03*
X958880D02*
D03*
X918880D02*
D03*
X938880D02*
D03*
X928880D02*
D03*
X908880D02*
D03*
X888880D02*
D03*
X898880D02*
D03*
X958880Y442631D02*
D03*
X948880Y412631D02*
D03*
X938880Y402631D02*
D03*
X918880Y432631D02*
D03*
X898880Y412631D02*
D03*
X908880Y402631D02*
D03*
X888880Y442631D02*
D03*
X958880Y382631D02*
D03*
X888880D02*
D03*
Y412631D02*
D03*
X898880Y382631D02*
D03*
X948880D02*
D03*
X938880Y412631D02*
D03*
X908880D02*
D03*
X958880D02*
D03*
X888880Y462631D02*
D03*
X898880Y442631D02*
D03*
Y462631D02*
D03*
X948880Y442631D02*
D03*
X938880Y462631D02*
D03*
X918880D02*
D03*
X908880D02*
D03*
X928880D02*
D03*
X958880D02*
D03*
X948880D02*
D03*
X968880Y352631D02*
D03*
X958880D02*
D03*
X888880D02*
D03*
X878880D02*
D03*
X968880Y362631D02*
D03*
X878880D02*
D03*
X938880Y382631D02*
D03*
X908880D02*
D03*
X938880Y392631D02*
D03*
X928880D02*
D03*
X918880D02*
D03*
X908880D02*
D03*
X958880Y402631D02*
D03*
X948880D02*
D03*
X928880D02*
D03*
X898880D02*
D03*
X888880D02*
D03*
X928880Y412631D02*
D03*
X918880D02*
D03*
X938880Y422631D02*
D03*
X928880D02*
D03*
X908880D02*
D03*
X958880Y432631D02*
D03*
X948880D02*
D03*
X938880D02*
D03*
X928880D02*
D03*
X908880D02*
D03*
X898880D02*
D03*
X888880D02*
D03*
X938880Y442631D02*
D03*
X928880D02*
D03*
X918880D02*
D03*
X908880D02*
D03*
X958880Y472631D02*
D03*
X948880D02*
D03*
X938880D02*
D03*
X928880D02*
D03*
X918880D02*
D03*
X898880D02*
D03*
X888880D02*
D03*
X958880Y482631D02*
D03*
X948880D02*
D03*
X938880D02*
D03*
X928880D02*
D03*
X918880D02*
D03*
X908880D02*
D03*
X898880D02*
D03*
X888880D02*
D03*
X968880Y502631D02*
D03*
X878880D02*
D03*
X968880Y512631D02*
D03*
X958880D02*
D03*
X888880D02*
D03*
X878880D02*
D03*
X908880Y472631D02*
D03*
X918880Y402631D02*
D03*
X928880Y382631D02*
D03*
X918880D02*
D03*
X888880Y422631D02*
D03*
Y392631D02*
D03*
X898880Y422631D02*
D03*
Y392631D02*
D03*
X948880D02*
D03*
Y422631D02*
D03*
X958880Y392631D02*
D03*
Y422631D02*
D03*
X918880D02*
D03*
D153*
X1223750Y260000D02*
D03*
X1275750Y202000D02*
D03*
X1204250D02*
D03*
X1217250D02*
D03*
X1269250D02*
D03*
X1249750Y260000D02*
D03*
X1256250Y202000D02*
D03*
X1243250Y260000D02*
D03*
X1236750Y202000D02*
D03*
X1256250Y260000D02*
D03*
X1223750Y202000D02*
D03*
X1269250Y260000D02*
D03*
X1230250Y202000D02*
D03*
X1275750Y260000D02*
D03*
X1243250Y202000D02*
D03*
X1262750Y260000D02*
D03*
X1249750Y202000D02*
D03*
X1236750Y260000D02*
D03*
X1262750Y202000D02*
D03*
X1230250Y260000D02*
D03*
X1210750D02*
D03*
X1217250D02*
D03*
X1204250D02*
D03*
X1210750Y202000D02*
D03*
D154*
X377000Y693000D02*
D03*
X594625Y420250D02*
D03*
X478000Y451000D02*
D03*
X268000Y478000D02*
D03*
X333000Y491000D02*
D03*
X268000Y648000D02*
D03*
X382000Y627000D02*
D03*
X376000Y595000D02*
D03*
X346000Y540000D02*
D03*
X403000Y470000D02*
D03*
X429000Y485000D02*
D03*
X428000Y642000D02*
D03*
X405000Y650000D02*
D03*
X533000Y416000D02*
D03*
X522000D02*
D03*
X530000Y283000D02*
D03*
D155*
X319967Y623601D02*
D03*
X299002Y623499D02*
D03*
X318502Y503999D02*
D03*
X298752D02*
D03*
X282752D02*
D03*
X334502D02*
D03*
X283002Y623499D02*
D03*
X335967Y623601D02*
D03*
X1280000Y459000D02*
D03*
X1264000D02*
D03*
X548000Y319000D02*
D03*
X564000D02*
D03*
X376000Y87000D02*
D03*
X360000D02*
D03*
X93040Y101875D02*
D03*
X108540D02*
D03*
D156*
X214000Y661500D02*
D03*
X116000Y661500D02*
D03*
X214000Y569500D02*
D03*
Y477500D02*
D03*
X116000Y569500D02*
D03*
Y477500D02*
D03*
X214000Y386500D02*
D03*
X116000Y386500D02*
D03*
Y345500D02*
D03*
X214000Y528500D02*
D03*
X116000Y620500D02*
D03*
X214000Y620500D02*
D03*
X116000Y528500D02*
D03*
Y436500D02*
D03*
X214000Y436500D02*
D03*
Y345500D02*
D03*
D157*
X154900Y235750D02*
D03*
X160600Y129250D02*
D03*
D158*
X123050Y235750D02*
D03*
D159*
X95000Y202000D02*
D03*
Y180000D02*
D03*
Y147000D02*
D03*
Y158000D02*
D03*
Y169000D02*
D03*
Y191000D02*
D03*
Y213000D02*
D03*
Y224000D02*
D03*
D160*
X134500Y129250D02*
D03*
D161*
X602675Y405163D02*
D03*
X497000Y586750D02*
D03*
X541500Y563500D02*
D03*
X358002Y574749D02*
D03*
X358252Y549499D02*
D03*
X263002Y566499D02*
D03*
X315502Y607999D02*
D03*
X302002D02*
D03*
X358002Y564749D02*
D03*
X314252Y519749D02*
D03*
X302252D02*
D03*
X630208Y326380D02*
D03*
X324502Y607999D02*
D03*
X293002D02*
D03*
X349002Y564749D02*
D03*
Y574749D02*
D03*
X349253Y549499D02*
D03*
X550500Y563500D02*
D03*
X639208Y326380D02*
D03*
X506000Y586750D02*
D03*
X611675Y405163D02*
D03*
X293252Y519749D02*
D03*
X323252D02*
D03*
X272002Y566499D02*
D03*
D162*
X513000Y139500D02*
D03*
Y148500D02*
D03*
D163*
X476125Y499500D02*
D03*
X715250Y357750D02*
D03*
X491500Y491500D02*
D03*
X610125Y378500D02*
D03*
X647625Y368750D02*
D03*
X686625Y362250D02*
D03*
X611625Y359000D02*
D03*
X634125Y352500D02*
D03*
X608374Y394501D02*
D03*
X498875Y577500D02*
D03*
X550875Y511500D02*
D03*
X508375Y531500D02*
D03*
X508125Y551500D02*
D03*
X547375Y571500D02*
D03*
X614625Y319000D02*
D03*
X653875Y314500D02*
D03*
X614625Y300500D02*
D03*
Y339500D02*
D03*
X747125Y397250D02*
D03*
X730875Y381250D02*
D03*
X706125Y381750D02*
D03*
X701625Y327250D02*
D03*
X704125Y355500D02*
D03*
X744375Y381250D02*
D03*
X651581Y321013D02*
D03*
X744375Y359000D02*
D03*
Y339500D02*
D03*
X724875Y351875D02*
D03*
X724375Y326500D02*
D03*
X745125Y320000D02*
D03*
X706125Y297250D02*
D03*
X744375Y297500D02*
D03*
X717875Y303750D02*
D03*
X747125Y281750D02*
D03*
X481375Y499500D02*
D03*
X496750Y491500D02*
D03*
X513625Y531500D02*
D03*
X502875Y551500D02*
D03*
X504125Y577500D02*
D03*
X556125Y511500D02*
D03*
X552625Y571500D02*
D03*
X696375Y327250D02*
D03*
X719125Y326500D02*
D03*
X739125Y339500D02*
D03*
X739875Y320000D02*
D03*
X646331Y321013D02*
D03*
X619875Y319000D02*
D03*
X659125Y314500D02*
D03*
X711375Y297250D02*
D03*
X712625Y303750D02*
D03*
X739125Y359000D02*
D03*
X719625Y351875D02*
D03*
X720500Y357750D02*
D03*
X739125Y381250D02*
D03*
X725625Y381250D02*
D03*
X711375Y381750D02*
D03*
X698875Y355500D02*
D03*
X691875Y362250D02*
D03*
X639375Y352500D02*
D03*
X652875Y368750D02*
D03*
X619875Y339500D02*
D03*
X616875Y359000D02*
D03*
X615375Y378500D02*
D03*
X739125Y297500D02*
D03*
X741875Y281750D02*
D03*
X768625Y308000D02*
D03*
X763375D02*
D03*
Y314000D02*
D03*
X768625D02*
D03*
X763375Y321250D02*
D03*
X768625D02*
D03*
Y327000D02*
D03*
X763375D02*
D03*
X768625Y332750D02*
D03*
X763375D02*
D03*
X768625Y338500D02*
D03*
X763375D02*
D03*
Y344250D02*
D03*
X768625D02*
D03*
X763375Y356250D02*
D03*
X768625D02*
D03*
X763375Y369750D02*
D03*
X768625D02*
D03*
X763375Y377500D02*
D03*
X768625D02*
D03*
X763375Y383000D02*
D03*
X768625D02*
D03*
X763375Y390500D02*
D03*
X768625D02*
D03*
Y396250D02*
D03*
X763375D02*
D03*
X741875Y397250D02*
D03*
X613624Y394501D02*
D03*
X594625Y299000D02*
D03*
X589375D02*
D03*
Y325000D02*
D03*
X594625D02*
D03*
X589375Y331500D02*
D03*
X594625D02*
D03*
X619875Y300500D02*
D03*
D164*
X1318000Y472100D02*
D03*
X1340000Y440100D02*
D03*
Y448100D02*
D03*
Y456100D02*
D03*
Y464100D02*
D03*
Y472100D02*
D03*
X1318000Y464100D02*
D03*
Y456100D02*
D03*
Y448100D02*
D03*
Y440100D02*
D03*
D165*
X1463250Y774500D02*
D03*
X1576750D02*
D03*
X1313250Y773500D02*
D03*
X1426750D02*
D03*
D166*
X1513750Y745500D02*
D03*
X1363750Y744500D02*
D03*
X1488750Y745500D02*
D03*
X1501250D02*
D03*
X1526250D02*
D03*
X1538750D02*
D03*
X1551250D02*
D03*
X1338750Y744500D02*
D03*
X1351250D02*
D03*
X1376250D02*
D03*
X1388750D02*
D03*
X1401250D02*
D03*
D167*
X779500Y698502D02*
D03*
Y630502D02*
D03*
X1391000Y555498D02*
D03*
X1390000Y472498D02*
D03*
X761500Y630502D02*
D03*
X1409000Y555498D02*
D03*
X1408000Y472498D02*
D03*
X761500Y698502D02*
D03*
D168*
X257672Y384912D02*
D03*
X47000Y387000D02*
D03*
X145000Y570000D02*
D03*
X753375Y157250D02*
D03*
X708000D02*
D03*
X461000Y132750D02*
D03*
X257672Y368912D02*
D03*
X145000Y371000D02*
D03*
Y387000D02*
D03*
Y462000D02*
D03*
Y478000D02*
D03*
Y554000D02*
D03*
Y662000D02*
D03*
Y646000D02*
D03*
X47000Y662000D02*
D03*
Y646000D02*
D03*
X47000Y570000D02*
D03*
Y554000D02*
D03*
Y478000D02*
D03*
Y462000D02*
D03*
X47000Y371000D02*
D03*
X1355625Y410460D02*
D03*
Y425960D02*
D03*
X581100Y257000D02*
D03*
Y273000D02*
D03*
X753375Y172750D02*
D03*
X708000D02*
D03*
X461000Y117250D02*
D03*
X433000Y132750D02*
D03*
Y117250D02*
D03*
X402000Y132750D02*
D03*
Y117250D02*
D03*
X359500Y117250D02*
D03*
Y132750D02*
D03*
X333000Y117250D02*
D03*
Y132750D02*
D03*
X307000Y117250D02*
D03*
Y132750D02*
D03*
D169*
X860800Y107000D02*
D03*
Y187000D02*
D03*
X952800Y107000D02*
D03*
X1043800D02*
D03*
X952800Y187000D02*
D03*
X1043800D02*
D03*
X1135800Y107000D02*
D03*
Y187000D02*
D03*
X919189Y107032D02*
D03*
X919189Y129032D02*
D03*
X952800Y129000D02*
D03*
X919189Y187032D02*
D03*
X919189Y209032D02*
D03*
X952800Y209000D02*
D03*
X1010189Y107032D02*
D03*
X1010189Y129032D02*
D03*
X1043800Y129000D02*
D03*
X1010189Y187032D02*
D03*
X1010189Y209032D02*
D03*
X1043800Y209000D02*
D03*
X1102189Y107032D02*
D03*
X1102189Y129032D02*
D03*
X1135800Y129000D02*
D03*
X1102189Y187032D02*
D03*
X1102189Y209032D02*
D03*
X1135800Y209000D02*
D03*
X827189Y187032D02*
D03*
X827189Y209032D02*
D03*
X860800Y209000D02*
D03*
X827189Y107032D02*
D03*
X827189Y129032D02*
D03*
X860800Y129000D02*
D03*
D170*
X260002Y501749D02*
D03*
X357503Y521749D02*
D03*
Y501749D02*
D03*
X260002Y521749D02*
D03*
X260002Y605999D02*
D03*
Y625999D02*
D03*
X357502Y605999D02*
D03*
Y625999D02*
D03*
D171*
X263000Y436500D02*
D03*
X348000Y428000D02*
D03*
D172*
X167350Y162050D02*
D03*
Y203950D02*
D03*
D173*
X121800Y129400D02*
D03*
D174*
X379000Y322000D02*
D03*
D175*
X979000Y103450D02*
D03*
Y164550D02*
D03*
Y183450D02*
D03*
Y244550D02*
D03*
X1070000Y103450D02*
D03*
Y164550D02*
D03*
Y183450D02*
D03*
Y244550D02*
D03*
X1162000Y103450D02*
D03*
Y164550D02*
D03*
Y183450D02*
D03*
Y244550D02*
D03*
X887000Y183450D02*
D03*
Y244550D02*
D03*
Y103450D02*
D03*
Y164550D02*
D03*
D176*
X1740000Y700800D02*
D03*
D177*
Y548400D02*
D03*
Y573800D02*
D03*
Y523000D02*
D03*
Y624600D02*
D03*
Y599200D02*
D03*
Y675400D02*
D03*
Y650000D02*
D03*
X101900Y270000D02*
D03*
X127300D02*
D03*
X152700D02*
D03*
X76500D02*
D03*
X51100D02*
D03*
X203500D02*
D03*
X178100D02*
D03*
D178*
X228900D02*
D03*
D179*
X447000Y47000D02*
D03*
X24500Y81750D02*
D03*
X24250Y98500D02*
D03*
X327000Y46000D02*
D03*
X82500Y37000D02*
D03*
X27500Y697250D02*
D03*
Y715750D02*
D03*
X1700250Y659500D02*
D03*
X1677643Y659607D02*
D03*
D180*
X1760000Y760000D02*
D03*
Y40000D02*
D03*
X40000Y760000D02*
D03*
Y40000D02*
D03*
D181*
X1741200Y444700D02*
D03*
X1588800Y470100D02*
D03*
X1741200Y419300D02*
D03*
Y393900D02*
D03*
Y368500D02*
D03*
Y343100D02*
D03*
Y470100D02*
D03*
X1588800Y444700D02*
D03*
Y419300D02*
D03*
Y393900D02*
D03*
X1741200Y165300D02*
D03*
Y139900D02*
D03*
Y190700D02*
D03*
Y216100D02*
D03*
Y266900D02*
D03*
Y241500D02*
D03*
Y292300D02*
D03*
Y317700D02*
D03*
X1588800Y292300D02*
D03*
Y317700D02*
D03*
Y266900D02*
D03*
Y241500D02*
D03*
Y190700D02*
D03*
Y216100D02*
D03*
Y165300D02*
D03*
Y139900D02*
D03*
Y343100D02*
D03*
Y368500D02*
D03*
D182*
X326000Y83000D02*
D03*
D183*
X1734663Y789816D02*
D03*
X1743663D02*
D03*
X1716663D02*
D03*
X1725663D02*
D03*
X1770471Y787904D02*
D03*
X1752663Y789816D02*
D03*
X1761662Y789748D02*
D03*
X1671663Y789816D02*
D03*
X1680663D02*
D03*
X1662663D02*
D03*
X1698663D02*
D03*
X1707663D02*
D03*
X1689663D02*
D03*
X1788494Y768911D02*
D03*
X1789777Y760003D02*
D03*
X1778330Y783517D02*
D03*
X1784524Y776988D02*
D03*
X1789816Y751003D02*
D03*
Y742003D02*
D03*
X1617663Y789816D02*
D03*
X1626663D02*
D03*
X1599663D02*
D03*
X1608663D02*
D03*
X1644663D02*
D03*
X1653663D02*
D03*
X1635663D02*
D03*
X1554663D02*
D03*
X1563663D02*
D03*
X1536663D02*
D03*
X1545663D02*
D03*
X1581663D02*
D03*
X1590663D02*
D03*
X1572663D02*
D03*
X1789816Y733003D02*
D03*
X1789816Y724003D02*
D03*
Y715003D02*
D03*
Y706003D02*
D03*
X1789816Y652003D02*
D03*
Y643003D02*
D03*
X1789816Y679003D02*
D03*
Y670003D02*
D03*
X1789816Y697003D02*
D03*
X1789816Y688003D02*
D03*
Y661003D02*
D03*
X1482663Y789816D02*
D03*
X1491663D02*
D03*
X1464663D02*
D03*
X1473663D02*
D03*
X1518663D02*
D03*
X1527663D02*
D03*
X1500663D02*
D03*
X1509663D02*
D03*
X1428663D02*
D03*
X1437663D02*
D03*
X1410663D02*
D03*
X1419663D02*
D03*
X1455663D02*
D03*
X1446663D02*
D03*
X1356663D02*
D03*
X1365663D02*
D03*
X1338663D02*
D03*
X1347663D02*
D03*
X1392663D02*
D03*
X1401663D02*
D03*
X1374663D02*
D03*
X1383663D02*
D03*
X1293663D02*
D03*
X1302663D02*
D03*
X1275664D02*
D03*
X1284664D02*
D03*
X1320663D02*
D03*
X1329663D02*
D03*
X1311663D02*
D03*
X1789816Y589003D02*
D03*
Y616003D02*
D03*
Y607003D02*
D03*
X1789816Y634003D02*
D03*
Y625003D02*
D03*
X1789816Y598003D02*
D03*
X1789816Y571003D02*
D03*
Y562004D02*
D03*
X1789816Y553004D02*
D03*
Y544003D02*
D03*
X1789816Y580003D02*
D03*
X1789816Y472004D02*
D03*
Y463004D02*
D03*
Y454004D02*
D03*
X1789816Y517004D02*
D03*
Y508004D02*
D03*
X1789816Y535004D02*
D03*
Y526003D02*
D03*
X1789816Y490004D02*
D03*
X1789816Y481004D02*
D03*
X1789816Y499004D02*
D03*
X1789816Y391004D02*
D03*
X1789816Y436004D02*
D03*
Y427004D02*
D03*
Y445004D02*
D03*
X1789816Y409004D02*
D03*
Y400004D02*
D03*
X1789816Y418004D02*
D03*
X1221664Y789816D02*
D03*
X1230664D02*
D03*
X1203664D02*
D03*
X1212664D02*
D03*
X1257663D02*
D03*
X1266664D02*
D03*
X1239664D02*
D03*
X1248663D02*
D03*
X1158664D02*
D03*
X1167664D02*
D03*
X1185664D02*
D03*
X1194664D02*
D03*
X1176664D02*
D03*
X1104664D02*
D03*
X1113664D02*
D03*
X1086664D02*
D03*
X1095664D02*
D03*
X1140664D02*
D03*
X1149664D02*
D03*
X1122664D02*
D03*
X1131664D02*
D03*
X1059664D02*
D03*
X1050664D02*
D03*
X1068664D02*
D03*
X1077664D02*
D03*
X987664D02*
D03*
X996664D02*
D03*
X969664D02*
D03*
X978664D02*
D03*
X1023664D02*
D03*
X1032664D02*
D03*
X1005664D02*
D03*
X1014664D02*
D03*
X924664D02*
D03*
X933664D02*
D03*
X906664D02*
D03*
X915664D02*
D03*
X951664D02*
D03*
X960664D02*
D03*
X942664D02*
D03*
X1041664D02*
D03*
X834664D02*
D03*
X843664D02*
D03*
X816664D02*
D03*
X825664D02*
D03*
X870664D02*
D03*
X879664D02*
D03*
X852664D02*
D03*
X861664D02*
D03*
X771665D02*
D03*
X780665D02*
D03*
X753664D02*
D03*
X762664D02*
D03*
X798664D02*
D03*
X807664D02*
D03*
X789665D02*
D03*
X897664D02*
D03*
X888664D02*
D03*
X1789816Y319004D02*
D03*
X1789816Y310004D02*
D03*
Y292004D02*
D03*
Y283004D02*
D03*
Y301004D02*
D03*
X1789816Y364004D02*
D03*
Y355004D02*
D03*
Y382004D02*
D03*
Y373004D02*
D03*
X1789816Y337004D02*
D03*
Y328004D02*
D03*
Y346004D02*
D03*
X1789816Y274004D02*
D03*
Y265004D02*
D03*
Y256004D02*
D03*
Y247004D02*
D03*
X1789816Y238004D02*
D03*
Y229004D02*
D03*
X1789816Y175004D02*
D03*
X1789816Y202004D02*
D03*
Y193004D02*
D03*
X1789816Y220004D02*
D03*
X1789816Y211004D02*
D03*
Y184004D02*
D03*
X1789816Y103004D02*
D03*
X1789816Y148004D02*
D03*
X1789816Y139004D02*
D03*
X1789816Y166004D02*
D03*
Y157004D02*
D03*
X1789816Y121004D02*
D03*
Y112004D02*
D03*
Y130004D02*
D03*
X1789816Y58004D02*
D03*
Y49005D02*
D03*
X1789816Y76004D02*
D03*
X1789816Y67004D02*
D03*
X1789816Y94004D02*
D03*
Y85004D02*
D03*
X1789752Y40005D02*
D03*
X1788301Y31123D02*
D03*
X1784320Y23051D02*
D03*
X1709417Y20184D02*
D03*
X1718417D02*
D03*
X1664417D02*
D03*
X1673417D02*
D03*
X1646417D02*
D03*
X1655417D02*
D03*
X1691417D02*
D03*
X1700417D02*
D03*
X1682417D02*
D03*
X1736387Y19452D02*
D03*
X1778102Y16545D02*
D03*
X1727417Y20184D02*
D03*
X1770218Y12203D02*
D03*
X1761396Y10426D02*
D03*
X1744196Y14978D02*
D03*
X1752446Y11381D02*
D03*
X1556417Y20184D02*
D03*
X1547417D02*
D03*
X1583417D02*
D03*
X1592417D02*
D03*
X1565417D02*
D03*
X1574417D02*
D03*
X1511418D02*
D03*
X1493418D02*
D03*
X1502417D02*
D03*
X1529418D02*
D03*
X1538418D02*
D03*
X1520417D02*
D03*
X1601417D02*
D03*
X1628417D02*
D03*
X1637417D02*
D03*
X1610417D02*
D03*
X1619417D02*
D03*
X1475418D02*
D03*
X1484418D02*
D03*
X1457418D02*
D03*
X1466418D02*
D03*
X1385418Y20184D02*
D03*
X1394418D02*
D03*
X1376418D02*
D03*
X1412418D02*
D03*
X1421418D02*
D03*
X1403418D02*
D03*
X1448418D02*
D03*
X1439418D02*
D03*
X1430418D02*
D03*
X1295418D02*
D03*
X1304418D02*
D03*
X1286418D02*
D03*
X1331418D02*
D03*
X1358418D02*
D03*
X1367418D02*
D03*
X1340418D02*
D03*
X1349418D02*
D03*
X1322418D02*
D03*
X1313418D02*
D03*
X1241418D02*
D03*
X1232418D02*
D03*
X1196418D02*
D03*
X1187418D02*
D03*
X1214418D02*
D03*
X1223418D02*
D03*
X1205418D02*
D03*
X1268418D02*
D03*
X1277418D02*
D03*
X1250418D02*
D03*
X1259418D02*
D03*
X1178418D02*
D03*
X1115418Y20184D02*
D03*
X1142418D02*
D03*
X1151418D02*
D03*
X1124418D02*
D03*
X1133418D02*
D03*
X1070418D02*
D03*
X1079418D02*
D03*
X1052418D02*
D03*
X1061418D02*
D03*
X1097418D02*
D03*
X1106418D02*
D03*
X1088418D02*
D03*
X1169418D02*
D03*
X1160418D02*
D03*
X980419D02*
D03*
X989419D02*
D03*
X962419D02*
D03*
X971419D02*
D03*
X917419D02*
D03*
X926419D02*
D03*
X899419D02*
D03*
X908419D02*
D03*
X944419D02*
D03*
X953419D02*
D03*
X935419D02*
D03*
X998419D02*
D03*
X1007419D02*
D03*
X1034418D02*
D03*
X1043419D02*
D03*
X1016419D02*
D03*
X1025418D02*
D03*
X881419Y20184D02*
D03*
X890419D02*
D03*
X872419D02*
D03*
X809419D02*
D03*
X836419D02*
D03*
X845419D02*
D03*
X818419D02*
D03*
X827419D02*
D03*
X773419D02*
D03*
X755419D02*
D03*
X764419D02*
D03*
X791419D02*
D03*
X800419D02*
D03*
X782419D02*
D03*
X863419D02*
D03*
X854419D02*
D03*
X708665Y789816D02*
D03*
X699665D02*
D03*
X735665D02*
D03*
X744665D02*
D03*
X717665D02*
D03*
X726665D02*
D03*
X690665D02*
D03*
X672665D02*
D03*
X681665D02*
D03*
X618665D02*
D03*
X627665D02*
D03*
X600665D02*
D03*
X609665D02*
D03*
X654665D02*
D03*
X663665D02*
D03*
X636665D02*
D03*
X645665D02*
D03*
X564665D02*
D03*
X573665D02*
D03*
X546665D02*
D03*
X555665D02*
D03*
X591665D02*
D03*
X582665D02*
D03*
X501665D02*
D03*
X528665D02*
D03*
X537665D02*
D03*
X510665D02*
D03*
X519665D02*
D03*
X465665D02*
D03*
X447665D02*
D03*
X456665D02*
D03*
X483665D02*
D03*
X492665D02*
D03*
X474665D02*
D03*
X402665D02*
D03*
X411665D02*
D03*
X429665D02*
D03*
X438665D02*
D03*
X420665D02*
D03*
X384665D02*
D03*
X366665D02*
D03*
X375665D02*
D03*
X393665D02*
D03*
X321665D02*
D03*
X348665D02*
D03*
X357665D02*
D03*
X330665D02*
D03*
X339665D02*
D03*
X294666D02*
D03*
X303665D02*
D03*
X276665D02*
D03*
X285665D02*
D03*
X312665D02*
D03*
X240666D02*
D03*
X249666D02*
D03*
X222666D02*
D03*
X231666D02*
D03*
X258666D02*
D03*
X267666D02*
D03*
X186666D02*
D03*
X195666D02*
D03*
X168666D02*
D03*
X177666D02*
D03*
X204666D02*
D03*
X213666D02*
D03*
X132666D02*
D03*
X141666D02*
D03*
X123666D02*
D03*
X159666D02*
D03*
X150666D02*
D03*
X96666D02*
D03*
X114666D02*
D03*
X105666D02*
D03*
X78666D02*
D03*
X87666D02*
D03*
X60666D02*
D03*
X69666D02*
D03*
X39513Y789841D02*
D03*
X51666Y789816D02*
D03*
X30635Y788362D02*
D03*
X22613Y784281D02*
D03*
X16185Y777982D02*
D03*
X11923Y770055D02*
D03*
X10216Y761218D02*
D03*
X10191Y734218D02*
D03*
X10186Y752218D02*
D03*
X10188Y743218D02*
D03*
X10195Y716218D02*
D03*
X10198Y707218D02*
D03*
X10193Y725218D02*
D03*
X10205Y680218D02*
D03*
X10208Y671218D02*
D03*
X10200Y698218D02*
D03*
X10203Y689218D02*
D03*
X10213Y653219D02*
D03*
X10215Y644219D02*
D03*
X10210Y662218D02*
D03*
X10218Y635219D02*
D03*
X10220Y626219D02*
D03*
X10225Y608219D02*
D03*
X10227Y599219D02*
D03*
X10223Y617219D02*
D03*
X10232Y581219D02*
D03*
X10235Y572219D02*
D03*
X10230Y590219D02*
D03*
X10240Y554219D02*
D03*
X10242Y545219D02*
D03*
X10237Y563219D02*
D03*
X10244Y536219D02*
D03*
X10247Y527219D02*
D03*
X10252Y509219D02*
D03*
X10254Y500219D02*
D03*
X10249Y518219D02*
D03*
X10259Y482219D02*
D03*
X10262Y473219D02*
D03*
X10257Y491219D02*
D03*
X10267Y455219D02*
D03*
X10269Y446219D02*
D03*
X10264Y464219D02*
D03*
X10272Y437219D02*
D03*
X10274Y428219D02*
D03*
X10279Y410219D02*
D03*
X10281Y401219D02*
D03*
X10276Y419219D02*
D03*
X746419Y20184D02*
D03*
X737419D02*
D03*
X719419D02*
D03*
X728419D02*
D03*
X710419D02*
D03*
X701419D02*
D03*
X683419D02*
D03*
X692419D02*
D03*
X674419D02*
D03*
X656419D02*
D03*
X665419D02*
D03*
X647419D02*
D03*
X638419D02*
D03*
X620419D02*
D03*
X629419D02*
D03*
X611419Y20184D02*
D03*
X575419D02*
D03*
X593419D02*
D03*
X602419D02*
D03*
X584419D02*
D03*
X10286Y383219D02*
D03*
X10289Y374219D02*
D03*
X10284Y392219D02*
D03*
X10294Y356219D02*
D03*
X10296Y347219D02*
D03*
X10291Y365219D02*
D03*
X10301Y329219D02*
D03*
X10303Y320219D02*
D03*
X10299Y338219D02*
D03*
X10308Y302219D02*
D03*
X10311Y293219D02*
D03*
X10306Y311219D02*
D03*
X10330Y221219D02*
D03*
X10318Y266219D02*
D03*
X10321Y257219D02*
D03*
X10313Y284219D02*
D03*
X10316Y275219D02*
D03*
X10325Y239219D02*
D03*
X10328Y230219D02*
D03*
X10323Y248219D02*
D03*
X10335Y203219D02*
D03*
X10338Y194219D02*
D03*
X10333Y212219D02*
D03*
X10343Y176220D02*
D03*
X10345Y167220D02*
D03*
X10340Y185219D02*
D03*
X521419Y20184D02*
D03*
X530420D02*
D03*
X503419D02*
D03*
X512420D02*
D03*
X467420D02*
D03*
X449420D02*
D03*
X458420D02*
D03*
X485420D02*
D03*
X494420D02*
D03*
X476420D02*
D03*
X557419D02*
D03*
X566419D02*
D03*
X539420D02*
D03*
X548419D02*
D03*
X395420D02*
D03*
X404420D02*
D03*
X377420D02*
D03*
X386420D02*
D03*
X431420D02*
D03*
X440420D02*
D03*
X413420D02*
D03*
X422420D02*
D03*
X350420D02*
D03*
X359420D02*
D03*
X341420D02*
D03*
X368420D02*
D03*
X269420Y20184D02*
D03*
X260420D02*
D03*
X323420D02*
D03*
X332420D02*
D03*
X305420D02*
D03*
X314420D02*
D03*
X287420D02*
D03*
X296420D02*
D03*
X278420D02*
D03*
X10347Y158219D02*
D03*
X10350Y149220D02*
D03*
X10352Y140219D02*
D03*
X10355Y131220D02*
D03*
X10360Y113220D02*
D03*
X10362Y104220D02*
D03*
X10357Y122220D02*
D03*
X10367Y86220D02*
D03*
X10369Y77220D02*
D03*
X10365Y95220D02*
D03*
X206420Y20184D02*
D03*
X215420D02*
D03*
X188420D02*
D03*
X197420D02*
D03*
X242420D02*
D03*
X251420D02*
D03*
X224420D02*
D03*
X233420D02*
D03*
X143420D02*
D03*
X152420D02*
D03*
X125420D02*
D03*
X134420D02*
D03*
X170420D02*
D03*
X179420D02*
D03*
X161420D02*
D03*
X15067Y24052D02*
D03*
X80420Y20184D02*
D03*
X71420D02*
D03*
X10377Y50220D02*
D03*
X10379Y41220D02*
D03*
X10372Y68220D02*
D03*
X10374Y59220D02*
D03*
X11421Y32280D02*
D03*
X107420Y20184D02*
D03*
X116420D02*
D03*
X89420D02*
D03*
X98420D02*
D03*
X62484Y19115D02*
D03*
X21016Y17298D02*
D03*
X54829Y14381D02*
D03*
X46443Y11114D02*
D03*
X37463Y10516D02*
D03*
X28718Y12643D02*
D03*
M02*
